<svg xmlns="http://www.w3.org/2000/svg" width="24" height="24" viewBox="0 0 24 24">
    <g fill="#CCC" fill-rule="evenodd">
        <path d="M12.014 14.316a2.305 2.305 0 0 0 2.308-2.303 2.305 2.305 0 0 0-2.308-2.301 2.305 2.305 0 0 0-2.308 2.301 2.305 2.305 0 0 0 2.308 2.303M14.671 9.655h1.623c.185 0 .336-.15.336-.334v-1.62a.336.336 0 0 0-.336-.334H14.67a.336.336 0 0 0-.336.335V9.32c0 .184.151.335.336.335"/>
        <path d="M18 16.576c0 .787-.638 1.424-1.427 1.424H7.427A1.425 1.425 0 0 1 6 16.576V7.423C6 6.637 6.639 6 7.426 6h9.147C17.363 6 18 6.637 18 7.423v9.153zM12 0C5.372 0 0 5.372 0 12c0 6.627 5.372 12 12 12s12-5.373 12-12c0-6.628-5.372-12-12-12z"/>
        <path d="M15.664 12.014a3.65 3.65 0 0 1-7.3 0c0-.333.045-.657.13-.963H7.37v5.218c0 .185.15.335.335.335h8.615c.186 0 .336-.15.336-.335v-5.218h-1.122c.084.306.13.63.13.963"/>
    </g>
</svg>
