<svg xmlns="http://www.w3.org/2000/svg" xmlns:xlink="http://www.w3.org/1999/xlink" width="244" height="174" viewBox="0 0 244 174">
    <defs>
        <path id="a" d="M2.532.964C.774 1.974.054 4.332.05 6.324c-.004 1.532 1.034 2.422 2.348 3.15v.002l.048.028c.014.008.026.016.04.022l5.652 3.146 4.418-7.648L4.804.712l-.006.01a1.735 1.735 0 0 0-.82-.194c-.438 0-.93.14-1.446.436"/>
        <path id="c" d="M.422.645H197.59v128.007H.422z"/>
        <path id="e" d="M3.656 1.834l-.704.69-1.688.154-1.046.096 7.364 3.082h.356L6.826 3.388 5.006.506z"/>
    </defs>
    <g fill="none" fill-rule="evenodd">
        <g transform="translate(43 54)">
            <mask id="b" fill="#fff">
                <use xlink:href="#a"/>
            </mask>
            <path d="M2.532.964C.774 1.974.054 4.332.05 6.324c-.004 1.532 1.034 2.422 2.348 3.15v.002l.048.028c.014.008.026.016.04.022l5.652 3.146 4.418-7.648L4.804.712l-.006.01a1.735 1.735 0 0 0-.82-.194c-.438 0-.93.14-1.446.436" mask="url(#b)"/>
        </g>
        <path fill="#A3CAEA" d="M196.551 97.807l-8.008 13.811-3.843-2.128s-.05-.024-.126-.074l-2.206-1.214-4.042-2.251-.074-.05-.1-.05c-2.38-1.312-5.257-3.837-5.306-5.568v-.471c.099-3.217 2.157-6.954 4.835-8.885.223-.173.47-.323.72-.471 1.587-.891 3.024-.99 4.115-.42v-.024l.594.345c.027 0 .027.025.051.025l9.275 5.149 4.115 2.276z"/>
        <path fill="#738FDA" d="M192.435 95.53c-.72.173-1.39.198-2.082.644-.744.472-1.338 1.114-1.86 1.807-1.041 1.435-1.835 3.044-2.43 4.727-.273.768-.597 1.484-.77 2.301-.148.793-.247 1.585-.495 2.352-.051.198-.024 1.98-.099 2.128 0 0-.05-.024-.125-.074-.396-.197-1.76-.89-2.108-.99-.123-.049-.148-.123-.099-.222.052-.296.547-.743.225-.916-.969-.545-1.936-1.088-2.926-1.634a150.53 150.53 0 0 1-2.903-1.609c-1.365-.889-2.777-2.177-3.596-3.614a4.849 4.849 0 0 1-.321-.617c-.373-.743-.596-1.585-.42-2.377.271-1.113.84-2.177 1.486-3.118.618-.891 1.313-1.733 2.132-2.402a7.948 7.948 0 0 1 1.637-.99c1.662-.742 3.596-.915 5.43-.57.025 0 .025.027.05.027l9.274 5.147z"/>
        <path fill="#0DC0AD" d="M196.515 97.8l-6.219-3.451-.01.016c-1.074-.568-2.526-.467-4.101.439-3.186 1.825-4.489 6.085-4.495 9.687-.008 2.77 1.872 4.377 4.252 5.69v.006l.086.05c.025.016.05.03.077.04l2.412 1.34 7.998-13.817z"/>
        <path fill="#0DC0AD" d="M198.267 101.395c.111 3.597-2.373 7.993-5.559 9.818-3.186 1.826-5.854.39-5.965-3.214-.111-3.598 2.38-7.994 5.559-9.819 3.185-1.823 5.858-.385 5.965 3.215"/>
        <path fill="#ECECEC" d="M198.043 101.521c.114 3.462-2.282 7.687-5.346 9.44-3.058 1.753-5.625.375-5.73-3.089-.107-3.455 2.287-7.684 5.346-9.438 3.058-1.755 5.625-.37 5.73 3.087"/>
        <path fill="#DDF6FF" d="M196.809 102.309c.08 2.684-1.777 5.962-4.153 7.322-2.373 1.365-4.365.288-4.45-2.395-.08-2.684 1.776-5.962 4.153-7.329 2.374-1.358 4.37-.288 4.45 2.402"/>
        <path fill="#0A1C26" d="M196.515 102.476c.08 2.5-1.656 5.558-3.868 6.826-2.213 1.27-4.072.27-4.147-2.233-.076-2.5 1.656-5.558 3.868-6.826 2.213-1.27 4.07-.274 4.147 2.233"/>
        <path fill="#56757E" d="M195.208 102.43c.06 1.99-1.317 4.421-3.072 5.434-1.763 1.004-3.237.212-3.3-1.78-.063-1.986 1.315-4.417 3.075-5.427 1.76-1.01 3.237-.212 3.297 1.774"/>
        <path fill="#0A1C26" d="M194.642 102.566c.054 1.708-1.13 3.791-2.637 4.655-1.511.869-2.775.188-2.83-1.523-.052-1.706 1.13-3.792 2.636-4.657 1.514-.864 2.78-.183 2.831 1.525"/>
        <path fill="#A3CAEA" d="M203.923 84.981l8-13.821-14.042-7.794-.006.017c-1.076-.568-2.523-.465-4.105.438-3.183 1.825-5.67 6.221-5.559 9.819.05 1.728 2.938 4.245 5.322 5.558l-.006.006.086.052c.027.014.05.029.077.039l10.233 5.686z"/>
        <path fill="#738FDA" d="M191.817 71.017c.44-.969 1.16-1.784 1.924-2.53.84-.824 1.76-1.608 2.854-2.053.913-.374 1.839-.424 2.806-.54.713-.085 1.326-.682 2.072-.487.377.103 2.485.937 2.206 1.43-.066.122-.876.31-1.047.42a5.455 5.455 0 0 0-1.206 1.097c-1.392 1.698-2.07 2.931-2.835 5.664a15.743 15.743 0 0 0-.545 3.591c-.033 1.01-.385 3.303.054 4.213-.118-.25-1.468-.91-1.757-1.031-.511-.212-2.008-.914-2.557-1.046-1.134-.277-.593-.94-1.352-1.874-1.43-1.758-1.528-4.84-.617-6.854"/>
        <path fill="#0DC0AD" d="M212.293 71.256l-6.22-3.452-.009.015c-1.074-.566-2.526-.465-4.1.44-3.186 1.824-4.49 6.086-4.498 9.685-.006 2.772 1.874 4.38 4.254 5.692v.007l.086.049c.025.016.05.03.075.041l2.414 1.34 7.998-13.817z"/>
        <path fill="#0DC0AD" d="M213.638 74.748c.111 3.597-2.38 7.995-5.559 9.818-3.185 1.826-5.853.385-5.965-3.214-.111-3.598 2.38-7.994 5.559-9.819 3.186-1.823 5.854-.389 5.965 3.215"/>
        <path fill="#ECECEC" d="M213.414 74.873c.108 3.457-2.286 7.687-5.346 9.44-3.058 1.753-5.625.37-5.73-3.087-.113-3.461 2.283-7.686 5.347-9.44 3.057-1.757 5.624-.374 5.73 3.087"/>
        <path fill="#DDF6FF" d="M212.18 75.657c.08 2.688-1.777 5.968-4.152 7.328-2.374 1.359-4.37.289-4.45-2.397-.08-2.688 1.775-5.966 4.153-7.327 2.373-1.36 4.363-.288 4.45 2.396"/>
        <path fill="#0A1C26" d="M211.886 75.824c.076 2.506-1.655 5.564-3.868 6.832-2.212 1.268-4.072.268-4.146-2.235-.083-2.504 1.655-5.563 3.868-6.83 2.212-1.27 4.07-.268 4.146 2.233"/>
        <path fill="#56757E" d="M210.58 75.784c.06 1.99-1.316 4.42-3.079 5.426-1.757 1.01-3.235.219-3.295-1.774-.062-1.99 1.316-4.422 3.076-5.43 1.76-1.007 3.238-.215 3.297 1.778"/>
        <path fill="#0A1C26" d="M210.014 75.914c.05 1.708-1.13 3.795-2.638 4.66-1.51.864-2.78.183-2.83-1.528-.052-1.701 1.13-3.788 2.637-4.653 1.507-.864 2.775-.18 2.83 1.521"/>
        <path fill="#3E9C8E" d="M164.643 94.86l14.15 25.369 31.565-75.162-.482-2.263S164.653 94.54 164.643 94.86"/>
        <path fill="#CCE5FE" d="M176.055 121.962l33.821-79.157-18.515-9.718-30.431 42.95-25.396 21.777s30.466 15.754 40.521 24.148"/>
        <path fill="#AAC2D8" d="M160.936 76.009l1.853 1.154-21.523 22.23-3.456-3.628z"/>
        <path fill="#D0EAFE" d="M196.505 35.785l-54.899 73.336 21.016 9.127 40.54-78.97z"/>
        <path fill="#DDF7FF" d="M163.443 116.666l39.721-77.388 6.714 3.525-32.318 75.637z"/>
        <g transform="translate(46 45.348)">
            <mask id="d" fill="#fff">
                <use xlink:href="#c"/>
            </mask>
            <path fill="#D5F6FF" d="M197.59 122.922c0 .413-.056.84-.157 1.239a5.208 5.208 0 0 1-2.458 3.288c-.773.44-1.654.747-2.596.945-.617.127-1.28.202-1.973.243h-.068c-.167 0-.334.016-.505.016-.143 0-.27-.016-.41-.016-.199 0-.4 0-.623-.01-.3-.015-.594-.031-.901-.066-4.345-.373-12.238-1.087-16.996-2.733-2.417-.84-1.926-2.618-4.042-3.291a38.305 38.305 0 0 0-2.88-.813c-.26-.076-.507-.128-.765-.191L93.338 85.72l-66.4-38.326-2.664-1.545a38.246 38.246 0 0 1-1.73-1.24 78.554 78.554 0 0 1-4.289-3.465 76.653 76.653 0 0 1-5.528-5.235 45.889 45.889 0 0 1-2.055-2.3 44.941 44.941 0 0 1-3.336-4.294c-1.602-2.336-2.984-4.836-3.926-7.505a21.386 21.386 0 0 1-.79-2.85c-.09-.45-.09-.99-.233-1.431-.076-.274-.373-.455-.565-.657a5.714 5.714 0 0 1-.752-.854c-.297-.41-.54-.899-.648-1.405.017-.157.027-.307.042-.449.01-.092.024-.173.035-.26.016-.129.04-.256.066-.372.051-.247.117-.481.208-.712.039-.142.1-.284.156-.41.077-.172.151-.322.233-.48.036-.067.077-.116.116-.182.062-.086.113-.191.194-.284.1-.142.206-.292.334-.438.066-.076.117-.142.192-.204l.028-.025c.452-.288 2.67-8.707 2.827-8.832C4.907 1.923 6.138.826 7.414.728 7.802.7 8.187.662 8.56.645c1.932 0 16.596 5.958 18.454 6.333.348.066.724.156 1.115.247.242.061.491.127.732.193a30.24 30.24 0 0 1 2.277.706l.517.198c.57.201 1.112.434 1.668.683.025.008.064.025.091.035.84.372 1.652.802 2.454 1.268l14.305 8.262 123.975 71.196a40.515 40.515 0 0 1 11.357 9.697l.17.208c.116.142.269.348.45.59.192.247.417.556.675.906.191.257.373.514.542.772.09.142.192.298.293.44.173.243.34.5.507.774.05.066.1.14.14.208.068.099.132.216.194.32.053.077.107.153.14.246.225.362.441.722.65 1.084a41.294 41.294 0 0 1 2.08 4.231l2.897 5.802.981 1.961.594 1.198 1.371 2.706c.167.401.268.815.334 1.239 0 0 .01.025.01.041.015.299.04.531.04.646.016.025.016.05.016.087" mask="url(#d)"/>
        </g>
        <path fill="#0DC0AD" d="M241.777 167.88c0 1.82-.952 3.563-2.614 4.522-.303.177-.62.323-.955.461a9.684 9.684 0 0 1-1.555.51s-.026.01-.047.015c0 0-.08.025-.14.03-.248.056-.8.143-1.872.172h-.064c-.161.01-.334.01-.522.01-.303 0-.641 0-1.016-.014-1.646-.031-4.005-.173-7.345-.521-5.307-1.017-10.911-2.84-15.356-4.235-1.308-.42-1.763-2.087-2.866-2.328l-.017-.006-69.845-35.809-.037-.004-66.4-38.33-2.66-1.535s-21.248-14.352-22.017-29.69c-.016-.317-.02-.636-.02-.953v-.052l2.006 1.153.697.403 18.732 20.008S195.33 155.702 209.878 162.7c8.542 4.112 18.056 5.188 24.446 5.367 4.494.126 7.453-.187 7.453-.187"/>
        <path fill="#E4FFFF" d="M228.248 142.739c.897.99-.796 1.28-1.802 1.01-.027-.004-4.866-2.239-4.886-2.249L88.456 65.014C87.16 64.273 62.53 51.87 52.07 46.074c.39-.029.775-.06 1.152-.08 2.563 0 5.085.333 7.526.99 2.44.652 17.1 7.01 19.31 8.283l138.278 79.462a40.484 40.484 0 0 1 9.913 8.01"/>
        <path fill="#DF7B29" d="M81.925 58.936l3.946-21.841c.035-.128.087-.754.178-1.107l-9.92 18.906c1.408.543 4.429 3.441 5.796 4.042"/>
        <path fill="#0DC0AD" d="M81.973 58.957l4.076-22.97c-1.736-2.106-6.783-3.705-7.484-3.973L62.53 50.974c.289.066.575.15.86.222 5.742 1.054 13.165 5.376 18.583 7.761"/>
        <path fill="#0DC0AD" d="M77.82 55.57l5.622-21.58-3.064-1.308-13.111 19.363c3.57.908 7.117 2.12 10.552 3.526"/>
        <path fill="#3E9C8E" d="M83.13 59.482l2.919-23.494c-.421-.74-2.609-1.997-2.609-1.997l-7.67 20.77c1.949.745 5.491 3.873 7.36 4.72"/>
        <path fill="#E4FFFF" d="M236.516 152.75l2.136 4.466c-2.42 1.276-6.293 2.898-8.759 3.054-3.32.212-6.643-.436-9.695-1.76l-11.043-4.794-1.635-.94c-1.52-.876-59.048-33.768-60.563-34.64-2.307-1.33-4.617-2.664-6.92-3.993-2.921-1.684-5.837-3.36-8.754-5.042l-10.05-5.793c-3.6-2.073-7.198-4.15-10.798-6.22-3.672-2.12-17.264-10.024-20.932-12.142-3.563-2.051-7.123-4.103-10.686-6.155-3.27-1.89-6.54-3.774-9.813-5.66-2.806-1.617-5.61-3.23-8.408-4.846-2.159-1.243-4.31-2.482-6.462-3.725-1.328-.763-2.653-1.527-3.975-2.29-.097-.056-.254-.111-.328-.188-.41-.428-1.975-2.504-1.68-2.945.185-.277 5.268-8.485 8.981-5.77 2.829 2.076 9.559 5.577 9.823 5.73l76.971 44.392 5.295 3.048c7.959 4.245 71.041 39.472 75.996 40.503 5.653 1.183 6.181-2.386 6.22-2.3 1.231 1.573 2.027 2.658 2.227 3.028.775 1.365 2.24 3.521 2.852 4.982"/>
        <path fill="#3E9C8E" d="M207.408 166.496l-69.882-35.813-66.4-38.33-2.66-1.535s-21.248-14.352-22.017-29.69a16.609 16.609 0 0 1 3.112 4.982c2.447 6.127 14.806 17.258 16.274 19.16 1.458 1.883 140.429 80.588 141.573 81.226"/>
        <path fill="#3E9C8E" d="M236.667 173.368l-.015.005-.045.016s-.08.025-.142.029c-.248.057-.798.142-1.872.173h-.062c-.161.01-.334.01-.522.01-.305 0 .81.41.437.395-1.647-.03-5.46-.582-8.8-.93-2.775-.299-6.25-.628-10.536-1.36-10.83-1.844-77.583-41.024-77.583-41.024l.037.006c.596.115 66.29 34.053 68.674 35.156.625.282 1.27.57 1.93.834 3.025 1.253 6.278 2.375 9.717 2.795 8.12.994 12.139 1.029 15.619 1.535 1.524.228 2.755 2.311 3.062 2.346a.44.44 0 0 1 .1.014"/>
        <path fill="#333" d="M243.583 168.27c0 .42-.043.84-.146 1.232-2.398 2.552-7.423 2.219-9.924 1.865.087-1.111.456-2.274 1.048-3.4a11.665 11.665 0 0 1 2.25-3.079 10.243 10.243 0 0 1 2.49-1.879c.678-.35 1.32-.568 1.921-.656l.6 1.191 1.357 2.72c.173.398.283.812.345 1.232 0 0 .01.03.01.045.018.294.035.52.045.638a.65.65 0 0 1 .004.09"/>
        <g transform="translate(229 147)">
            <mask id="f" fill="#fff">
                <use xlink:href="#e"/>
            </mask>
            <path d="M3.656 1.834l-.704.69-1.688.154-1.046.096 7.364 3.082h.356L6.826 3.388 5.006.506z" mask="url(#f)"/>
        </g>
        <g>
            <path fill="#347D70" d="M65.646 73.635l-41.397 2.36-9.485-4.975-.253-1.206 15.622.642 35.488 2.217c.01.482.031.79.025.962"/>
            <path fill="#0DC0AD" d="M65.622 72.674l-41.22 2.34-9.89-5.202 32.648-8.18s13.094 6.554 18.462 11.042"/>
            <path fill="#3E9C8E" d="M19.568 72.472l40.966-3.352 5.087 3.553-41.22 2.341z"/>
            <path fill="#0DC0AD" d="M16.377 70.794l32.982-8.14 11.176 6.466-40.967 3.352z"/>
            <path fill="#101C2E" d="M243.439 169.5a5.183 5.183 0 0 1-2.457 3.293 8.322 8.322 0 0 1-2.594.945c-.621.131-1.278.212-1.97.24h-.06a7.22 7.22 0 0 1-.516.017c-.132 0-.268-.004-.41-.004-.192 0-.395-.012-.614-.023-.296-.014-.597-.029-.91-.06a2.485 2.485 0 0 1-.105-.271c-.201-.486-.302-1.063-.302-1.705 0-.187.004-.379.03-.566 2.496.354 7.513.688 9.908-1.865"/>
            <path fill="#BFD8FE" d="M83.367 66.195c-.187.123-.961.897-1.55.99-.062.033-.093.033-.155.033l-.03-.126-9.173-5.297-1.208-.712-12.394-7.435L54.58 51.2l-2.14-1.24L45.564.789 46.71.23l14.81 8.645 21.847 57.32z"/>
            <path fill="#D0EAFE" d="M81.632 67.092l-9.172-5.297-1.209-.712-12.396-7.435L54.58 51.2l-2.137-1.24-1.672-.959-.125-.061L45.56.788l2.852 1.64 6.137 3.595 6.105 3.564z"/>
            <path fill="#D9F2FF" d="M81.632 67.092l-9.172-5.297-1.209-.712-16.7-55.06 6.104 3.564z"/>
            <path fill="#00A18B" d="M54.58 51.2l-2.137-1.239-1.674-.959L45.562.788l2.728.744.123.897z"/>
            <path fill="#99AFEA" d="M72.214 160.99l7.989-13.827-14.02-7.795-.011.015c-1.07-.567-2.522-.466-4.095.438-3.179 1.826-5.666 6.224-5.555 9.825.054 1.73 2.938 4.245 5.314 5.56v.005l.084.051c.027.015.052.03.077.04l10.217 5.688z"/>
            <path fill="#0DC0AD" d="M80.2 147.163l-6.209-3.452-.01.016c-1.07-.568-2.522-.467-4.095.439-3.181 1.826-4.482 6.088-4.489 9.69-.006 2.772 1.872 4.38 4.248 5.693v.006l.084.05c.027.016.052.03.076.04l2.41 1.341 7.985-13.823z"/>
            <path fill="#0DC0AD" d="M81.915 150.752c.112 3.601-2.375 7.999-5.554 9.823-3.177 1.826-5.845.385-5.956-3.216-.114-3.599 2.375-7.997 5.554-9.823 3.181-1.824 5.845-.389 5.956 3.216"/>
            <path fill="#ECECEC" d="M81.692 150.879c.107 3.459-2.283 7.69-5.338 9.444-3.058 1.754-5.62.368-5.728-3.09-.107-3.464 2.285-7.688 5.34-9.442 3.058-1.757 5.621-.375 5.726 3.088"/>
            <path fill="#DDF6FF" d="M80.454 151.662c.086 2.69-1.769 5.97-4.14 7.331-2.37 1.36-4.363.289-4.444-2.398-.08-2.689 1.773-5.969 4.14-7.33 2.377-1.358 4.363-.288 4.444 2.397"/>
            <path fill="#0A1C26" d="M80.166 151.829c.076 2.507-1.653 5.567-3.862 6.835-2.21 1.27-4.066.268-4.147-2.234-.076-2.507 1.654-5.567 3.869-6.835 2.21-1.27 4.06-.268 4.14 2.234"/>
            <path fill="#56757E" d="M78.861 151.789c.06 1.99-1.313 4.422-3.073 5.429-1.755 1.01-3.23.218-3.29-1.775-.06-1.99 1.313-4.422 3.067-5.43 1.76-1.01 3.237-.217 3.296 1.776"/>
            <path fill="#0A1C26" d="M78.296 151.92c.05 1.71-1.128 3.797-2.633 4.662-1.513.864-2.777.183-2.827-1.528-.057-1.703 1.129-3.79 2.634-4.655 1.505-.865 2.77-.183 2.826 1.521"/>
            <path fill="#99AFEA" d="M118.938 152.127l7.988-13.827-14.026-7.79-.005.01c-1.076-.562-2.522-.461-4.095.439-3.18 1.826-5.668 6.223-5.554 9.828.053 1.726 2.938 4.248 5.314 5.561v.007l.084.049c.027.01.05.025.07.041l10.224 5.682z"/>
            <path fill="#0DC0AD" d="M126.96 138.358l-6.211-3.453-.008.015c-1.073-.566-2.523-.465-4.095.438-3.181 1.827-4.483 6.09-4.49 9.691-.007 2.773 1.87 4.38 4.247 5.695v.006l.086.05c.025.014.05.03.074.039l2.411 1.342 7.986-13.823z"/>
            <path fill="#0DC0AD" d="M128.639 141.89c.111 3.6-2.376 7.998-5.555 9.822-3.18 1.826-5.845.39-5.956-3.216-.113-3.599 2.376-7.996 5.555-9.822 3.175-1.824 5.845-.385 5.956 3.216"/>
            <path fill="#ECECEC" d="M128.416 142.016c.107 3.463-2.283 7.69-5.339 9.444-3.057 1.754-5.62.375-5.727-3.09-.107-3.457 2.285-7.688 5.34-9.442 3.058-1.756 5.62-.37 5.726 3.088"/>
            <path fill="#DDF6FF" d="M127.177 142.805c.083 2.685-1.772 5.965-4.146 7.326-2.37 1.365-4.357.288-4.437-2.397-.086-2.685 1.769-5.966 4.14-7.331 2.37-1.36 4.363-.289 4.443 2.402"/>
            <path fill="#0A1C26" d="M126.886 142.971c.08 2.504-1.65 5.561-3.865 6.831-2.207 1.269-4.064.268-4.14-2.235-.076-2.502 1.653-5.561 3.862-6.83 2.212-1.27 4.067-.273 4.143 2.234"/>
            <path fill="#56757E" d="M125.581 142.926c.06 1.99-1.316 4.424-3.07 5.435-1.76 1.005-3.23.212-3.29-1.78-.066-1.985 1.31-4.419 3.068-5.43 1.76-1.01 3.232-.212 3.292 1.775"/>
            <path fill="#0A1C26" d="M125.014 143.063c.056 1.709-1.128 3.792-2.633 4.657-1.507.869-2.771.187-2.82-1.524-.056-1.709 1.121-3.796 2.632-4.661 1.508-.865 2.772-.181 2.821 1.528"/>
            <path fill="#3E9C8E" d="M154.923 135.444l-136.722 19.59-17.723-9.292-.477-2.265 29.2 1.198 125.677-11.027c.018.892.055 1.472.045 1.796"/>
            <path fill="#CCE5FE" d="M154.877 133.65L18.488 153.2 0 143.476l74.54-17.955 39.799-15.466s30.503 15.196 40.538 23.594"/>
            <path fill="#DDF7FF" d="M143.224 125.783L8.857 148.133l9.63 5.065 136.39-19.548z"/>
            <path fill="#D0EAFE" d="M123.124 114.787L3.136 145.126l5.721 3.008 134.367-22.35z"/>
            <path fill="#E4FFFF" d="M224.165 159.116l-.82-.117 1.345-9.605.82.116zM236.886 159.986l-6.003-11.315.72-.383 6.006 11.315z"/>
            <path fill="#ECCD7C" d="M64.87 37.112c-.048.024-.074.024-.124.024l-.024-.098.148.074z"/>
            <path fill="#AAC2D8" d="M74.54 125.52l2.41.873 31.176-9.555-4.885-2.47z"/>
        </g>
        <path fill="#31475C" d="M232.412 148.834l-.731.69-1.753.154-3.622.324-1.464.128-8.561-2.624-.894.57c-2.6 1.652-2.23 5.43.644 6.588l9.49 3.824 2 .004 5.61.034 3.532.014.135-.288 1.066-2.254.233-.492-2.393-5.118-1.89-2.882-1.402 1.328z" opacity=".8"/>
    </g>
</svg>
