<svg xmlns="http://www.w3.org/2000/svg" width="689" height="921" viewBox="0 0 689 921">
    <defs>
        <linearGradient id="a" x1="50%" x2="50%" y1="0%" y2="99.844%">
            <stop offset="0%" stop-color="#06C1AE"/>
            <stop offset="70.999%" stop-color="#4588FF"/>
            <stop offset="100%" stop-color="#2442C0"/>
        </linearGradient>
    </defs>
    <g fill="none" fill-rule="evenodd">
        <path fill="#E8F9F7" d="M557.767 898.236C362.436 993.92-51.001 767.333 11.337 601.738 73.673 436.144 129.595 102.33 440.256 20.881c310.662-81.45 331.517 90.411 395.652 256.028 99.783 257.678 133.934 125.854 222.759 203.565 70.201 61.418 70.201 184.578-11.167 247.403-81.369 62.825-294.403 74.676-489.734 170.36z"/>
        <path fill="url(#a)" d="M553.21 54.243c195.676-85.087 609.844 116.405 547.396 263.66-62.448 147.256-118.469 444.1-429.68 516.529-311.21 72.428-332.102-80.399-396.35-227.674-99.96-229.14-134.171-111.916-223.153-181.02-70.325-54.616-70.325-164.136 11.187-220.004 81.512-55.867 294.923-66.405 490.6-151.491z" transform="rotate(180 553.477 443.5)"/>
    </g>
</svg>
