<svg xmlns="http://www.w3.org/2000/svg" width="990" height="681" viewBox="0 0 990 681">
    <defs>
        <linearGradient id="a" x1="50%" x2="50%" y1="0%" y2="99.844%">
            <stop offset="0%" stop-color="#06C1AE"/>
            <stop offset="70.999%" stop-color="#4588FF"/>
            <stop offset="100%" stop-color="#2442C0"/>
        </linearGradient>
    </defs>
    <g fill="none" fill-rule="evenodd">
        <path fill="#E6F9F7" d="M299.417 57.549C110 6.869-54.483-88.397 17.104 190.317c71.587 278.714-49.806 418.327 119.153 476.746 168.959 58.419 455.674-78.234 523.898-198.032 106.146-186.39 142.474-91.036 236.962-147.247 74.678-44.426 99.912-126.4 91.256-205.882-333.027-5.116-562.679-24.567-688.956-58.353z" opacity=".9"/>
        <path fill="url(#a)" d="M665.779 78.225C839.889 32.234 991.08-54.22 925.278 198.71c-65.802 252.93 45.782 379.627-109.524 432.641-155.306 53.015-418.852-70.996-481.563-179.712-97.569-169.146-130.961-82.613-217.814-133.625C47.734 277.7 24.539 203.31 32.496 131.18c306.115-4.642 517.21-22.294 633.283-52.954z" transform="matrix(-1 0 0 1 972 0)"/>
    </g>
</svg>
