<svg xmlns="http://www.w3.org/2000/svg" width="1532" height="753" viewBox="0 0 1532 753">
    <defs>
        <linearGradient id="a" x1="50%" x2="50%" y1="0%" y2="99.844%">
            <stop offset="0%" stop-color="#06C1AE"/>
            <stop offset="70.999%" stop-color="#4588FF"/>
            <stop offset="100%" stop-color="#2442C0"/>
        </linearGradient>
    </defs>
    <g fill="none" fill-rule="evenodd">
        <path fill="#CDF3EF" d="M7.639 0C3.298.01.208 53.692.099 57.331c-1.132 37.723 7.54 68.359 20.419 102.864 22.94 61.456 78.817 107.39 140.106 127.672 39.442 13.05 101.924 7.121 141.948 18.252 64.514 17.94 133.298 72.654 165.003 140.502 42.185 90.273 86.241 185.854 167.84 243.055 70.392 49.342 125.791 68.556 214.802 62.122 94.84-6.852 171.783-48.286 171.783-48.286C1283.401 525.676 1453.401 291.172 1532 0H7.638z" opacity=".5"/>
        <path fill="url(#a)" d="M1022 0h446.002C1398.32 281.246 1302.023 431.884 1022 620.742 741.977 809.6 502.675 532.632 424.92 397.71 303.947 187.79 262.544 295.182 154.857 231.874 69.748 181.839 40.989 89.516 50.854 0H1022z"/>
    </g>
</svg>
