<svg xmlns="http://www.w3.org/2000/svg" xmlns:xlink="http://www.w3.org/1999/xlink" width="127" height="127" viewBox="0 0 127 127">
    <defs>
        <circle id="b" cx="48.5" cy="51.5" r="48.5"/>
        <filter id="a" width="151.5%" height="151.5%" x="-25.8%" y="-20.6%" filterUnits="objectBoundingBox">
            <feOffset dy="5" in="SourceAlpha" result="shadowOffsetOuter1"/>
            <feGaussianBlur in="shadowOffsetOuter1" result="shadowBlurOuter1" stdDeviation="7.5"/>
            <feColorMatrix in="shadowBlurOuter1" values="0 0 0 0 0 0 0 0 0 0 0 0 0 0 0 0 0 0 0.1 0"/>
        </filter>
        <path id="c" d="M0 .037h42.797V55H0z"/>
    </defs>
    <g fill="none" fill-rule="evenodd" transform="translate(15 7)">
        <use fill="#000" filter="url(#a)" xlink:href="#b"/>
        <use fill="#FFF" xlink:href="#b"/>
        <circle cx="56" cy="48" r="48" fill="#19AACC" opacity=".07"/>
        <g>
            <path fill="#0DC0AD" d="M61 62.674c2.192 0 3.97 1.712 3.97 3.823 0 2.112-1.778 3.824-3.97 3.824s-3.969-1.712-3.969-3.824c.002-2.11 1.778-3.82 3.969-3.823m-4.383 8.635c.192.071.377.162.55.269.157.125.3.264.428.415.319.41.748.728 1.24.918.505.123 1.034.11 1.53-.038a3.35 3.35 0 0 1 .635-.096c.214.011.427.044.634.096.303.074.613.117.926.127a2 2 0 0 0 .603-.089c.494-.19.923-.508 1.242-.918.128-.152.27-.29.427-.415.174-.107.359-.198.551-.27.5-.163.943-.456 1.28-.846.28-.428.433-.922.44-1.428.013-.201.046-.4.098-.596.073-.177.165-.347.273-.507.309-.423.49-.918.526-1.434a2.744 2.744 0 0 0-.526-1.433c-.108-.16-.2-.33-.273-.507a3.002 3.002 0 0 1-.098-.597c-.007-.505-.16-1-.44-1.427a2.868 2.868 0 0 0-1.28-.847 3.17 3.17 0 0 1-.55-.27 3.052 3.052 0 0 1-.428-.414 2.893 2.893 0 0 0-1.24-.919 2.948 2.948 0 0 0-1.53.039 3.37 3.37 0 0 1-.635.096 3.37 3.37 0 0 1-.634-.096 2.93 2.93 0 0 0-1.53-.039c-.493.19-.922.509-1.24.919-.129.151-.272.29-.428.415a3.15 3.15 0 0 1-.551.27c-.5.163-.943.456-1.28.846-.28.428-.433.922-.44 1.427a2.983 2.983 0 0 1-.098.597 2.872 2.872 0 0 1-.273.507A2.742 2.742 0 0 0 54 66.497a2.74 2.74 0 0 0 .526 1.433c.108.16.2.33.273.508.052.196.085.395.097.597.008.505.16.999.44 1.427.338.39.781.683 1.28.847"/>
            <path fill="#0DC0AD" d="M61.5 64a2.5 2.5 0 1 1 0 5 2.5 2.5 0 0 1 0-5"/>
            <g transform="translate(32 24)">
                <mask id="d" fill="#fff">
                    <use xlink:href="#c"/>
                </mask>
                <path fill="#2342BE" d="M40.762 47.56c0 3.005-2.499 5.45-5.57 5.45H7.606c-3.072 0-5.57-2.445-5.57-5.45V7.477c0-3.004 2.498-5.448 5.57-5.448h17.559v7.147c0 4.102 3.412 7.439 7.605 7.439h7.992V47.56zM27.2 3.363l6.086 5.691 5.956 5.57H32.77c-3.071 0-5.57-2.444-5.57-5.448V3.362zm15.283 11.537l-3.434-3.212L26.59.037H7.606C3.412.037 0 3.374 0 7.476V47.56C0 51.663 3.412 55 7.606 55h27.586c4.193 0 7.605-3.338 7.605-7.44V15.193l-.314-.294z" mask="url(#d)"/>
            </g>
            <path fill="#2342BE" d="M39.042 38h11.916c.575 0 1.042-.447 1.042-1 0-.552-.467-1-1.042-1H39.042c-.575 0-1.042.448-1.042 1 0 .553.467 1 1.042 1M63.989 44H40.011c-.558 0-1.011.448-1.011 1s.453 1 1.011 1h23.978c.558 0 1.011-.448 1.011-1s-.453-1-1.011-1M63.989 51H40.011c-.558 0-1.011.448-1.011 1s.453 1 1.011 1h23.978c.558 0 1.011-.448 1.011-1s-.453-1-1.011-1"/>
        </g>
    </g>
</svg>
