<svg xmlns="http://www.w3.org/2000/svg" xmlns:xlink="http://www.w3.org/1999/xlink" width="127" height="127" viewBox="0 0 127 127">
    <defs>
        <circle id="b" cx="48.5" cy="51.5" r="48.5"/>
        <filter id="a" width="151.5%" height="151.5%" x="-25.8%" y="-20.6%" filterUnits="objectBoundingBox">
            <feOffset dy="5" in="SourceAlpha" result="shadowOffsetOuter1"/>
            <feGaussianBlur in="shadowOffsetOuter1" result="shadowBlurOuter1" stdDeviation="7.5"/>
            <feColorMatrix in="shadowBlurOuter1" values="0 0 0 0 0 0 0 0 0 0 0 0 0 0 0 0 0 0 0.1 0"/>
        </filter>
    </defs>
    <g fill="none" fill-rule="evenodd" transform="translate(15 7)">
        <use fill="#000" filter="url(#a)" xlink:href="#b"/>
        <use fill="#FFF" xlink:href="#b"/>
        <circle cx="56" cy="48" r="48" fill="#19AACC" opacity=".07"/>
        <g fill="#0DC0AD">
            <path d="M34.687 76.542l-1.088-6.324 6.313-.827-3.205 4.386-.008.01-.012.017-2 2.738zm47.47-25.15c-.001 10.409-5.758 19.948-14.925 24.732a27.424 27.424 0 0 1-28.64-2l3.901-5.34c.45-.616-.052-1.474-.803-1.376l-9.203 1.206a.867.867 0 0 0-.737 1.008l1.585 9.22c.13.753 1.091.982 1.54.367l2.695-3.688a29.132 29.132 0 0 0 30.439 2.152c9.746-5.08 15.868-15.218 15.868-26.28a29.6 29.6 0 0 0-2.257-11.397c-.448-1.054-2.017-.392-1.588.67a27.87 27.87 0 0 1 2.124 10.726zM74.313 26.623l1.088 6.325-6.313.827 3.205-4.387.008-.01.012-.016 2-2.739zm-47.47 25.15c.001-10.408 5.758-19.948 14.925-24.731a27.423 27.423 0 0 1 28.64 2l-3.901 5.34c-.45.615.052 1.473.803 1.375l9.203-1.205a.867.867 0 0 0 .737-1.008l-1.585-9.221c-.13-.753-1.091-.981-1.54-.366l-2.695 3.687a29.132 29.132 0 0 0-30.439-2.151c-9.746 5.078-15.868 15.217-15.868 26.28A29.595 29.595 0 0 0 27.38 63.17c.448 1.054 2.017.392 1.588-.669a27.865 27.865 0 0 1-2.124-10.727z"/>
        </g>
        <g>
            <path fill="#0435C8" d="M64.672 41.578a2.293 2.293 0 0 1 2.133 1.43c.361.873.17 1.883-.485 2.556a2.261 2.261 0 0 1-2.501.517 2.342 2.342 0 0 1-1.42-2.164c-.004-1.286 1.012-2.332 2.273-2.339m0 6.416c1.618.008 3.081-.98 3.706-2.503a4.138 4.138 0 0 0-.853-4.45 3.938 3.938 0 0 0-4.358-.892c-1.496.63-2.471 2.117-2.471 3.768-.003 2.245 1.775 4.07 3.976 4.077"/>
            <path fill="#2342BE" d="M57.662 40.14a17.036 17.036 0 0 0-.31-.29c.136.04.272.083.407.127-.034.055-.065.11-.097.163zm7.01-2.315a6.336 6.336 0 0 1 4.518 1.874 6.829 6.829 0 0 1 1.972 4.366 6.371 6.371 0 0 1-.387 2.62 6.953 6.953 0 0 1-1.498 2.368l-4.605 4.904-4.605-4.904a6.943 6.943 0 0 1-1.498-2.368 6.376 6.376 0 0 1-.387-2.62 6.828 6.828 0 0 1 1.972-4.367 6.338 6.338 0 0 1 4.518-1.873zm3.022 15.854c0 3.282-1.119 6.462-3.165 8.996a15.9 15.9 0 0 0-2.74-2.171 21.482 21.482 0 0 0 1.03-6.009l1.239 1.319a.84.84 0 0 0 1.23 0l2.402-2.56c.002.165.004.31.004.425zm-23.993.893c.06 2.01.404 4 1.018 5.91a15.916 15.916 0 0 0-2.764 2.168 14.49 14.49 0 0 1-3.103-8.078H43.7zm1.645-9.333a14.133 14.133 0 0 1-2.241-1.797 14.45 14.45 0 0 1 6.057-3.587 15.624 15.624 0 0 0-3.816 5.384zm11.58 1.856c-.911.23-1.84.377-2.777.438v-7.917a13.6 13.6 0 0 1 2.772 2.197 8.63 8.63 0 0 0-.419 2.134 8.085 8.085 0 0 0 .424 3.148zm4.181 5.59c.003.045.004.025.006.15h-6.964v-3.561c1.19-.06 2.371-.255 3.52-.58a9.225 9.225 0 0 0 1.178 1.567l2.26 2.424zm-6.958 5.395v-3.508h6.964a20.262 20.262 0 0 1-.83 5.102 16.42 16.42 0 0 0-6.134-1.594zm7.008 4.071a14.238 14.238 0 0 1 2.217 1.8 14.448 14.448 0 0 1-6.018 3.55 15.632 15.632 0 0 0 3.801-5.35zM54.15 67.74V59.82c1.928.112 3.815.613 5.553 1.473-1.199 2.795-3.12 5.028-5.553 6.443v.002zm-8.803-5.622a15.634 15.634 0 0 0 3.816 5.383 14.445 14.445 0 0 1-6.057-3.587l2.241-1.796zm7.1-2.296v7.916c-2.554-1.42-4.365-3.662-5.564-6.468a14.637 14.637 0 0 1 5.564-1.448zm0-5.25v3.51c-2.14.108-4.24.641-6.181 1.569a20.256 20.256 0 0 1-.86-5.078h7.041zm0-5.295v3.558h-7.04a19.52 19.52 0 0 1 .859-5.103 16.244 16.244 0 0 0 6.181 1.545zm0-9.659v7.918a14.644 14.644 0 0 1-5.564-1.449c1.199-2.806 3.01-5.049 5.564-6.469zm-10.491 5.12c.84.824 1.767 1.551 2.764 2.169a21.555 21.555 0 0 0-1.018 5.928h-4.85a14.209 14.209 0 0 1 3.104-8.098zM53.259 69.83c.11 0 .218-.003.326-.004.02 0 .04.004.061.004a.865.865 0 0 0 .113-.009c8.668-.265 15.638-7.405 15.638-16.144 0-.41-.019-1.416-.064-2.173l1.175-1.25a8.688 8.688 0 0 0 1.864-2.964 8.119 8.119 0 0 0 .49-3.344 8.575 8.575 0 0 0-2.477-5.486 8.062 8.062 0 0 0-11.424 0c-.025.024-.049.051-.074.076a16.054 16.054 0 0 0-5.628-1.01c-8.898 0-16.137 7.245-16.137 16.153 0 8.906 7.239 16.151 16.137 16.151z"/>
        </g>
    </g>
</svg>
