<svg xmlns="http://www.w3.org/2000/svg" xmlns:xlink="http://www.w3.org/1999/xlink" width="127" height="127" viewBox="0 0 127 127">
    <defs>
        <circle id="b" cx="48.5" cy="51.5" r="48.5"/>
        <filter id="a" width="151.5%" height="151.5%" x="-25.8%" y="-20.6%" filterUnits="objectBoundingBox">
            <feOffset dy="5" in="SourceAlpha" result="shadowOffsetOuter1"/>
            <feGaussianBlur in="shadowOffsetOuter1" result="shadowBlurOuter1" stdDeviation="7.5"/>
            <feColorMatrix in="shadowBlurOuter1" values="0 0 0 0 0 0 0 0 0 0 0 0 0 0 0 0 0 0 0.1 0"/>
        </filter>
        <path id="c" d="M0 .018h59V53H0z"/>
    </defs>
    <g fill="none" fill-rule="evenodd" transform="translate(15 7)">
        <use fill="#000" filter="url(#a)" xlink:href="#b"/>
        <use fill="#FFF" xlink:href="#b"/>
        <circle cx="56" cy="48" r="48" fill="#19AACC" opacity=".07"/>
        <g>
            <path fill="#0DC0AD" d="M64.394 66.027l-.493-.336a.797.797 0 0 0-.914 0l-.483.336v-1.24h1.89v1.24zm-11.93-2.956v-7.355h1.3v2.843c-.007.685.728 1.097 1.276.715l1.31-.908 1.313.908a.813.813 0 0 0 .854.042.868.868 0 0 0 .444-.757v-2.843h1.299v7.355h-7.795zm2.481 2.956l-.493-.336a.797.797 0 0 0-.914 0l-.483.336v-1.24h1.89v1.24zM43.016 63.07v-7.355h1.3v2.843c-.008.685.727 1.097 1.275.715l1.31-.908 1.313.908a.813.813 0 0 0 .854.042.868.868 0 0 0 .444-.757v-2.843h1.3v7.355h-7.796zm2.48 2.956l-.493-.336a.796.796 0 0 0-.914 0l-.483.336v-1.24h1.89v1.24zm.473-10.31h1.89v1.239l-.493-.336a.797.797 0 0 0-.915 0l-.482.336v-1.24zm9.448 0h1.89v1.239l-.493-.336a.797.797 0 0 0-.914 0l-.483.336v-1.24zM68.16 63.07h-6.246v-8.189c-.005-.481-.377-.872-.84-.882H42.175c-.459.013-.822.407-.814.882v8.189h-1.549c-.458.013-.82.406-.813.882V73h1.654v-8.213h1.299v2.843c-.007.685.728 1.097 1.276.715l1.31-.908 1.313.908a.818.818 0 0 0 .854.042.868.868 0 0 0 .444-.757v-2.843h1.299V73h1.653v-8.213h1.3v2.843c-.007.685.728 1.097 1.276.715l1.31-.908 1.313.908a.82.82 0 0 0 .854.042.868.868 0 0 0 .443-.757v-2.843h1.3V73h1.653v-8.213h1.3v2.843c-.007.685.728 1.097 1.276.715l1.31-.908 1.312.908a.819.819 0 0 0 .855.042.868.868 0 0 0 .443-.757v-2.843h1.3V73H69v-9.047c-.004-.481-.376-.872-.84-.882z"/>
            <g transform="translate(25 21)">
                <mask id="d" fill="#fff">
                    <use xlink:href="#c"/>
                </mask>
                <path fill="#2342BE" d="M51.347 51.284h-2.746V18.413a.806.806 0 0 0-.804-.841H11.194a.806.806 0 0 0-.804.84v32.872H7.644V17.98L29.533 1.93l21.814 16.037v33.316zm-39.285 0h34.867V28.237H12.062v23.047zm0-24.763h34.867v-1.226H12.062v1.226zm0-2.942h34.867V22.23H12.062v1.349zm0-3.065h34.867v-1.226H12.062v1.226zm46.578.685L30.02.178a.819.819 0 0 0-.972 0L.352 21.197c-.663.486-.328 1.559.486 1.557a.85.85 0 0 0 .495-.159l4.639-3.39v32.94c-.01.47.358.855.815.854h45.417a.826.826 0 0 0 .815-.854v-32.95l4.637 3.399c.907.673 1.89-.723.984-1.396z" mask="url(#d)"/>
            </g>
        </g>
    </g>
</svg>
