<svg xmlns="http://www.w3.org/2000/svg" width="24" height="24" viewBox="0 0 24 24">
    <path fill="#CCC" fill-rule="evenodd" d="M16.772 9.553c.004.106.007.211.007.318 0 3.253-2.476 7.005-7.005 7.005A6.97 6.97 0 0 1 6 15.77a4.938 4.938 0 0 0 3.645-1.02 2.464 2.464 0 0 1-2.3-1.709 2.484 2.484 0 0 0 1.112-.043 2.462 2.462 0 0 1-1.975-2.413v-.032a2.45 2.45 0 0 0 1.116.309 2.462 2.462 0 0 1-.763-3.288 6.99 6.99 0 0 0 5.075 2.573 2.462 2.462 0 0 1 4.195-2.245 4.926 4.926 0 0 0 1.563-.598 2.474 2.474 0 0 1-1.082 1.362A4.94 4.94 0 0 0 18 8.28c-.33.493-.748.927-1.228 1.274M12 0C5.372 0 0 5.372 0 12c0 6.627 5.372 12 12 12s12-5.373 12-12c0-6.628-5.372-12-12-12"/>
</svg>
