<svg xmlns="http://www.w3.org/2000/svg" width="550" height="394" viewBox="0 0 550 394">
    <defs>
        <linearGradient id="a" x1="50%" x2="50%" y1="0%" y2="100%">
            <stop offset="0%" stop-color="#2442C0"/>
            <stop offset="46.835%" stop-color="#19AACC"/>
            <stop offset="100%" stop-color="#06C1AE"/>
        </linearGradient>
    </defs>
    <g fill="none" fill-rule="evenodd">
        <path fill="#E8F9F7" d="M524.841 256.99C498.19 326.91 614.526 394 438.754 394 262.98 394 42.493 378.417 2.71 230.521-23.557 132.878 146.253-74.9 288.978 27.8c119.98 86.335 286.344 87.574 257.78 184.57"/>
        <path fill="#A0E7DF" d="M438.709 238.11C420.392 286.025 500.347 332 379.544 332c-120.805 0-272.34-10.679-299.681-112.029C61.81 153.06 178.515 10.672 276.606 81.051c82.46 59.163 196.797 60.012 177.166 126.481" opacity=".3"/>
        <path fill="url(#a)" d="M318.622 240.779c1.928.852 7.087 3.296 7.152 3.061-.082.385-3.091.385-3.476.374-.035 0-.111-.038-.214-.092a25.7 25.7 0 0 1-1.168-.783c-.561-.38-1.233-.82-1.904-1.21-.982-.567-1.968-1.017-2.612-.973l-.062.006c-.368.045-.612.267-.66.746-.121.405.272.81.908 1.179.961.557 2.489 1.026 3.635 1.259-.702-.12-2.926 0-4.428-.253-.022.177.08.094-.473.083 1.405 2.22-2.951 2.389-3.402 2.744-.08.058-.13.076-.157.06-.098-.06.34-.78.83-1.455.424-.598.902-1.172 1.078-1.28-2.692-.568-3.543 2.338-5.774 1.664-.012-.006-.025-.01-.038-.02-.264-.15.29-.836.96-1.474.612-.635 1.316-1.259 1.31-1.263 1.661-.408 3.29-1.24 4.983-1.886l.301-.025-.302.024c-2.538.21-5.299.418-8.091 1.707-.1-.067-2.046-1.302-1.555-1.588.436-.43.277-.743-.152-.991-.82-.477-2.647-.723-3.3-1.1l1.008-.991c-.487 0-1.642-.374-2.108-.64-.13-.078-.206-.148-.206-.195.797-1.23 1.416-1.42 1.492-1.97.813-1.313 3.197-2.557 5.951-2.961.09.286.668 1.145.605 1.514 4.759.015 11.248.572 15.497-.488l-.322.358c.576.336.815-.693 1.333-.394.577.336-.998 1.47-1.324 1.66.429.255 1.718 1.561 1.269 2.087-.27.282-.715.116-1.126-.119a5.785 5.785 0 0 1-.422-.273c-.134-.094-.255-.18-.335-.228a.372.372 0 0 0-.08-.036c-.314.184.267.73-.041.91-.411.24-1.751-.491-1.995-.585.288.33-.943.859-1.42.586l-1.164 3.25zm-.032.078a16.044 16.044 0 0 1 0-.001zM173.426 31.023c.398.233.606.416.543.523-.102.206-2.388-.208-2.616-.27 1.953 1.2 2.02 2.044 3.094 2.664.653.38 1.676.673 3.715.917l-.2.12c-.21.119-1.156-.05-1.424-.107.02.07.134.154.3.246.156.096.357.197.567.304.234.108.467.22.659.331.364.21.578.41.333.55-1.22.714-5.44-1.496-8.449-3.234-.781-.456-1.48-.876-2.032-1.207-.702-.407-1.11-.667-1.137-.68.24-.074.618.103 1.05.35.198.117.415.247.625.379.21.132.411.264.612.376.518.3.985.494 1.226.304.036-.023.032-.04 0-.058-.071-.047-.277-.08-.518-.123-.21-.032-.435-.074-.563-.146-.17-.103-.125-.26.518-.52a23.36 23.36 0 0 1-1.53-.524c-.806-.284-1.738-.638-2.242-.933-.396-.23-.543-.425-.17-.514.41-.094 2.325.657 2.723.885-.107-.277.076-.67.74-.6a1.234 1.234 0 0 0-.14-.102c-.468-.266-1.37-.183-1.945-.412l-.065.11c-.024.05 0 .092.058.125.114.067.355.108.581.152.235.04.456.08.559.14.035.021.06.044.06.07-.031.063-2.401-.4-2.976-.73-.093-.054-.138-.108-.111-.15.183-.374 1.338.134 1.666.272.014-.096-.094-.199-.284-.31-.361-.209-1.025-.435-1.673-.656-.627-.224-1.257-.438-1.612-.642-.246-.143-.353-.284-.21-.405.341-.346 8.106 2.255 10.268 3.505zm1.213 6.055c.226.264.422.499.592.595a.287.287 0 0 0 .09.036 36.125 36.125 0 0 1-1.383-.155 72.95 72.95 0 0 0-1.604-.179c-1.696-.18-3.5-.31-3.769-.047-.47.441 1.859 1.242.999 1.839-.465.322-1.02.217-1.414-.007-.353-.201-.57-.5-.485-.684l-.777-.07c.239.137-2.56-.93-5.632-2.223a117.279 117.279 0 0 1-3.464-1.51c-1.222-.552-2.31-1.082-3.047-1.511-.726-.419-1.117-.74-.988-.895.286-.383 1.115.047 1.48-.264-.247-.14-1.174-.479-1.833-.854-.612-.356-.985-.747-.321-1.054.703-.342 2.81.727 4.44 1.666.912.526 1.674 1.016 1.942 1.186-.107-.465-5.352-3.284-4.039-3.424.436.085 1.264.534 1.758.51l-.646-.51c.246-.242 2.659.342 2.99.393-.854-.201-7.167-1.79-8.442-2.53-.17-.093-.25-.176-.22-.241.448-.696 1.774-.07.014-1.087 2.48 1.434 8.102 1.253 11.54 3.24.17.1.34.207.505.32 2.395 1.906 2.667 2.398 3.5 4.235a.38.38 0 0 1-.138-.043c-.04-.024-.014-.036.018-.051.031-.02.071-.034.051-.047-.024-.018-.15-.03-.511-.05.125.097.239.177.348.24.762.438 1.293.156 1.798.096.431-.045.673-.027.771.038.241.139-.214.492-.726.82-.518.325-1.092.603-1.086.607 2.904.711 3.684.28 5.585 1.114.467-.479.91-.45 1.307-.222.297.173.56.457.797.723zm35.104 12.135c.1.056.38.052.898-.15-.01-.006-.018-.006-.025-.01a.081.081 0 0 1 .025.01c-.664-.261-1.075.045-.898.15zm18.111 8.542a2.26 2.26 0 0 0-.138-.083l.145.27a161.7 161.7 0 0 1-2.969-.849c-.826-.394-1.597-.68-1.965-.595-5.78-1.774-11.547-3.809-16.613-5.632-1.12.329-2.364-.159-3.715-.937-.664-.385-1.354-.841-2.067-1.308a42.398 42.398 0 0 0-2.195-1.392c-1.36-.78-2.764-1.398-4.178-1.487 1.434.772 3.058 1.496 4.455 2.304 1.31.756 2.43 1.592 2.997 2.605-4.572-1.145-6.6-2.84-10.27-4.75l.075-.094c.438.177.5.19.974-.038-.5-.125-2.097-.691-2.893-1.145-.35-.206-.543-.387-.413-.5.614-.53 2.1-.147 2.9-.254-.863-.646-1.446-1.074-2.047-1.85 4.191 1.371 7.392 4.033 12.036 5.574.55-.253-8.553-5.23-2.502-4.867 1.372.08 2.665.568 3.784 1.221 1.7.978 2.996 2.322 3.505 3.136-.035-.027-.035 0 .045.07.058.055.17.15.373.263.221.132.559.289 1.05.463-1.548-1.322-1.53-1.505-2.422-2.73 5.706 2.274 12.61 5.099 18.157 8.304 3.373 1.955 6.248 4.048 8.042 6.245-1.387-.667-2.824-1.18-4.15-1.944zm-12.54-2.066c.342.168.355.141.268.088a.69.69 0 0 0-.268-.088zm.013 10.452c.722.02 1.146 0 1.012-.074-.19-.114-.614-.4-.985-.615a2.916 2.916 0 0 0-.482-.237l.455.926zm1.714-.123c.315.186.663.255.985.067a2.808 2.808 0 0 1-.34-.176c-.81-.463-.817-.962.188-1.293-.304-.056-.726-.094-1.155-.163a.529.529 0 0 1-.02.322c.024.248-.74 0-.903 0 .17.221.668.912 1.245 1.243zm52.962 16.122c.008.244-9.07-2.814-9.208-2.753l.266.536c-.785-.266-3.628-1.505-4.696-.885.071.044.505.114 1.012.228.505.114 1.086.266 1.42.458.333.193.423.432-.057.712-.15.09-.329.042-.5-.056-.153-.09-.3-.224-.43-.338-.145-.132-.245-.24-.27-.25-.058.172.11.326.346.462.31.182.749.338.954.459l-.239.403c-.076-.045-1.334.009-1.9.111.062-.357-.222-1.194-.651-1.444-.197-.11-.411-.103-.652.102l-.12.121c-.495.289 1.18 1.78-1.781 1.04.02.132 1.175.917.536.88-1.03-.063-1.756-.468-2.464-.875-.056-.036-.118-.065-.176-.103.02.154.127.288.335.41-.253-.097-2.976-1.175-3.55-1.338-.018.248 1.03.812.809 1.037-.523.542-1.189.416-1.758.088-.644-.37-1.169-1.005-1.236-1.222-.085-.601 1.11-.143 1.481-.093l-1.543-.897c0 2.89-.217 3.288-.918 2.883-.197-.11-.425-.284-.695-.483a11.172 11.172 0 0 0-.965-.633c-.784-.454-1.778-.857-3.04-.87 1.03.592 2.028 1.346 3.076 1.95.24.14.482.266.721.387-1.85-.358-4.613-.834-6.552-1.434-1.302-.34-3.069-.973-4.34-1.706-.95-.546-1.61-1.146-1.604-1.732-3.5 0-9.402-2.413-12.858-2.53-4.883-.154-11.11 1.146-13.992-.52a3.077 3.077 0 0 1-1.15-1.114c-3.903-2.257 1.284-6.47 4.721-6.699-.062-.033-.147-.08-.245-.118-.054-.027-.096-.052-.148-.081-.207-.123-.409-.255-.29-.36.076-.092 2.16.02 4.269.125-.447-.344.4-.912 1.505-1.328.688-.264 1.48-.47 2.116-.53-.295-.168-.443-.347-.434-.598 0-.284 2.12-.176 2.386-.19l-.967-.228c.183-.537 1.899.29 2.488.038-.03 0-.933.014-1.181-.127-.067-.04-.08-.097.009-.17a5.37 5.37 0 0 1 1.172.035 2.186 2.186 0 0 1-.366-.174c-.856-.492.684-.71 1.74-.7-.317-1.156-.348-.392.472-.87.366-.228-.277-.71-1.222-1.257-.476-.273-1.021-.56-1.55-.841-.537-.286-1.068-.568-1.49-.812-.798-.46-1.245-.814-.767-.922-.523-.076-.701-.076-.813-.138-.094-.056-.147-.166-.317-.425.02.08-.284-.047-.677-.275-.9-.521-2.279-1.58-1.396-1.989.4-.14.804 0 1.19.22.403.234.796.565 1.124.756-.127-.213-1.555-1.566-1.39-1.66 1.106-.523 10.589 4.72 10.866 3.88.05-.049-.02-.114-.152-.194-.154-.085-.386-.186-.614-.295a5.108 5.108 0 0 1-.657-.3c-.208-.12-.315-.237-.208-.344.507-.148 1.276.138 2.105.534.65.311 1.344.691 1.912 1.02.746.43 1.257.758 1.289.774l.12-.432c.84-.147 3.349 1.09 5.466 2.31 1.97 1.141 3.6 2.269 3.24 2.248.41.173 2.901 1.624 3.33 1.832-.31-.203-.438-.443-.37-.74.07-.096.308-.013.63.177.567.324 1.407.97 2.153 1.554.719.564 1.324 1.083 1.566 1.221.292-.197-.184-.467-.657-.744-.601-.345-1.22-.703-.606-1.065-.069.042.119.183.485.398.954.548 3.13 1.586 5.384 2.682 2.287 1.096 4.662 2.245 5.97 3.006.718.418 1.124.713 1.004.814-.349.203-1.358-.333-1.642-.378.259.152 1.32.657 2.676 1.308 1.378.685 3.06 1.54 4.423 2.329 1.75 1.013 2.989 1.916 2.457 2.225-.2.114-3.607-1.447-4.023-1.686-.02.01.246.17.621.384.192.103.409.224.623.35.943.543 1.857 1.158.599.972.13.148.261.255.4.334.773.445 1.648 0 1.834-.007-.031.092 6.226 3.72 6.226 4.16zm-25.218 6.32c2.06 1.19-1.338 2.082-2.891 1.176a1.409 1.409 0 0 1-.31-.222c-.065-.111-.193-.223-.38-.335-.664-.383-2.029-.738-3.46-1.123-1.406-.398-2.882-.83-3.787-1.355-.605-.347-.954-.736-.86-1.186.12-.451 1.296.128 1.899 0-.134-.006-.217-.024-.261-.056-.201-.114.324-.378.444-.387-.389-.225-1.052-.286-1.398-.49-.159-.089-.255-.207-.24-.38l.327-.192c.583.002 1.695.691 2.48.787-.023-.058-.099-.12-.21-.185-.228-.13-.595-.27-.968-.423-.353-.139-.72-.277-.94-.407-.192-.105-.277-.208-.197-.295.393-.66.972-.597 1.566-.253.494.286.994.758 1.385 1.172.384.407.643.756.726.8l-.163.33c1.396-.72 7.376 2.91 8.187 3.193l-.95-.17zm-8.939 12.447c1.061.613 1.155 1.488-3.058 2.179-1.874.425-3.132.302-3.84-.103-1.459-.848-.536-2.917 2.167-3.744-.076.038-.036.098.08.163.507.295 2.328.754 2.422.78.605.086 1.593.36 2.23.725zm3.147 7.403l.619.67c-.713.587-10.153-3.943-10.247-3.808.532-.575 4.923.8 5.415.823a4.573 4.573 0 0 1-.626-.318c-.77-.445-1.776-1.172-1.586-1.391.119-.139 2.26.027 2.755-.043-.394-.445-.847-.563-.228-.921.822-.477 2.412 1.275 4.295-.349-.612-.141-1.42-.465-1.979-.714l-.056-.029c-.632-.364 1.848-.561 1.803-.702-.054-.029-1.664.07-1.941-.087-.038-.025-.052-.045-.038-.076.145-.255 1.157-.405 1.459-.49-.101-.06-1.068.094-1.365-.076-.067-.043-.099-.1-.074-.186.165-.313 1.914.25 2.45-.062l-1.565-.097c.183-.393 1.373-.342 1.769-.572-.31-.052-1.682.134-1.984.031.139-.004.512-.206.865-.411.424-.244.795-.504.802-.497 1.092.517 1.275.46 2.267.602.967.036 5.006.346 5.169.44l.252.363c.139.4-3.842.382-4.105.232-.096.22 4.427 2.62-.273 1.734-.95-.117-.424.966-.304 1.208.255.429-.594 3.272-1.952 3.321.594.19.985.353 1.22.49 1.206.698-1.577.756-2.817.915zm92.346 15.193c.764.44 1.44.921 2.002 1.485-2.786-.606-5.59-1.754-8.25-2.53-5.779-3.346-4.91 2.588-5.004 2.675l-.397.18a2.928 2.928 0 0 1-1.542-.412c-1.003-.582-1.724-1.671-2.198-2.613-.48-.943-.674-1.713-.688-1.75.228-.11 2.717 0 3.664.16 0-.136-1.095-.63-.644-.772 2.261-.666 6.266.665 8.446 1.41 1.642.729 3.253 1.382 4.611 2.167zM176.591 68.114a1.731 1.731 0 0 0-.463-.069c.163.02.315.043.463.07zm-3.262-25.032l-.346.085c.373.018.442-.074.402-.094-.004-.007-.029-.007-.056.009zM8.037 140.372c.007.002.138-.007.266-.02.145-.014.272-.03.263-.037l-.08.003a4.55 4.55 0 0 0-.449.053zm158.9-99.415c.209.309.191.358.115.316-.12-.077-.393-.387-.116-.316zM94.766 9.75c.014.007.246.094.968.376a7.552 7.552 0 0 0-.418-.17c-.277-.103-.536-.199-.55-.206zm-3.375 49.58c-.156.031-.205.051-.192.058.023.011.233.002.42-.02.203-.011.387-.038.367-.05-.016-.006-.175-.006-.595.012zM99.37 19.72c.644-.044.863-.07.845-.078a5.628 5.628 0 0 0-.845.078zm-.945 2.152c.01 0 .269-.036.892-.134-.543.069-.896.127-.892.134zM7.666 140.879c.098.058.074.257-.386.523-.038-.46.266-.592.386-.523zm166.58-73.35l-.14-.034c.063.013 1.138.586 1.877.564-.025-.016-.045-.034-.07-.045-.415-.24-.906-.338-1.668-.486zm3.14-22.34c-.536-.286-1.157-.7-1.901.16.543-.314 1.465-.335 1.9-.16zm-7.953.094a4.464 4.464 0 0 0-.393-.208c.014.004.018.011.027.018.156.087.322.384.554.7.217.329.525.684.923.915.018.015.044.026.071.04-.344-.653-.42-1.027-1.182-1.465zM65.866 77.08c.376.027.367-1.145.083-1.313l-.418-.047c.19.112-.971.821-.346 1.186.139.073.353.14.681.174zM81.06 89.002c1.067-.13.643-1.035 1.15-1.353-.418.146-2.71 1.047-2.25 1.31.115.064.4.093.923.06.007 0 .02 0 .045-.005.031-.005.062-.005.094-.007-.045.002-.067.002-.094.007.02-.005.036-.005.058-.007.036-.007.087-.011.087-.011.007.004 0 .004-.013.006zm24.992 39.338c.6 4.346-11.58 4.306-16.135 4.84-2.073.251-6.19 3.51-8.536 4.226-5.937 1.92-5.937 2.183-11.75.796-2.43-.837-5.084-.152-8.316-.644-.628-.112-8.638 4.502-11.285 3.938-3.559.5-10.821.099-12.749-1.017.09 1.127.95 2.675-2.04 2.858-3.804.177-4.82-1.167-7.561-2.18.474.27-1.727 1.453-1.7 1.704.139 1.085-.851.818-1.863.237-1.146-.664-2.305-1.734-1.87-1.709-2.305-.07.574 3.165-.355 3.274-.75-.17-.715-.384-.661-.597.05-.205.107-.418-.054-.51-.225.155-.976.83-1.876 1.396-.914.552-1.988 1.015-2.43.758-3.045-1.769-1.656 3.082-2.073 3.416-2.462 1.865-7.354-.345-6.467 3.381-.566 1.812-.411 3.398 1.943 4.957-.838.487-2.638-.266-3.232-.47-.11.06.143.895-.103.754-.695-.273-.53-.995-.498-1.197.53-.499-7.323-5.869-5.913-7.533.806 0 .927.329 1.034.41.462-.269.369-.43.152-.555-.681-.36-.795-.524-.183-.841.438-.134-.65-6.545 4.342-4.778.592-.11 1.041-.921 1.142-1.24-.55.319-2.804-.61-2.848-.605-.19-.201 4.825-2.467 4.432-2.688.393.223-.195.879-.05 1.156.74-.004 4.04-2.782 3.666-2.995-.904.139-2.604 1.655-3.304 1.25-.991-.574 1.508-1.791 2.047-1.648-.121-.188 4.19-5.43 4.206-5.417 5.068-.622 20.587-10.682 23.285-13.86 5.37-4.99-1.597-9.493 3.318-14.505 1.208-1.206 3.165-8.383 3.491-8.401-.264-.125 5.417-1.807 6.087-2.102-.62.029-.967 0-1.083-.065-.485-.282 2.66-1.27 6.091-2.114 3.418-.834 7.095-1.52 7.651-1.201.798-.828 7.548-3.666 4.611-5.361-.404-.235-.999-.45-1.825-.633.978 1.874-2.924-.05-3.152-.177l.304-.563c.523.237.744.288 1.117.069.096-.286 0-.468-.197-.582-.523-.304-1.762-.096-1.807-.12-3.094-1.79 4.387-7.082 2.564-8.13-2.493-1.443-4.313-3.092-3.853-5.277.545-2.373-4.615-4.12-6.252-6.256-4.258-6.692 4.407-11.952 4.856-17.815.045.023 1.074-.742 2.035-1.547.956-.828 1.818-1.694 1.51-1.87-.201-.121-.94.078-2.547.82-1.362.696-8.54 8.319-8.779 8.18.298-1.208 4.647-6.927 3.675-7.49 2.795 1.614 7.164-7.115 9.338-9.189-2.963-3.43 18.951-4.587 21.114-5.314 2.872-1.103 1.887-.81 3.36-2.436.763-.684 1.08-.818 1.246-.722.284.53.364.7.547.807.161.092.398.137.76.083-.519-.277 3.187-3.104 5.374-2.986-.58-.62 2.63-1.48 2.402-1.66-.038-.02-3.46.918-4.213.482-.032-.84 3.283-2.02 3.46-2.08 1.586.203 2.332-2.602 2.969-2.736a2.864 2.864 0 0 1-.94-.367c-.38-.219-.754-.507-1.142-.814-.425-.31-.86-.633-1.343-.91a5.248 5.248 0 0 0-1.262-.544l.96-.941c-.339-.054-1.789-.18-2.07-.347.156-.48 1.945.056 2.191-.085-.14.08-8.2-1.733-10.208-2.899-.31-.176-.48-.342-.45-.478.018-.04 4.94.43 5.786.536-2.06-.86-5.109-1.049-7.896-1.854l-.014.589c-.022.008-3.259-.67-3.567-.754.208.12 3.19 1.03 3.531 1.228-.766.396-6.551-.763-7.177-1.119l-.1-.47c.08-.619 3.252.338 3.643.325C79.7 6.775 60.95.644 60.13.17c.368-.228 18.51 4.952 21.371 5.395-.17-.07-1.003-.291-1.343-.49.268-.253.662-.24 1.032-.193-1.52-.286-2.039-.362-2.19-.45-.184-.109.158-.227-.063-.72-.114.01-.588-.071-1.15-.203-.718-.163-1.57-.411-1.953-.633.4-.476 5.676-.12 6.19-.013-1.166-.671-2.274-1.166-2.835-1.492-.916-.526-.398-.615 3.587-.311 4.437-.143 8.152 2.753 12.807 3.456-1.043-.32-2.622-1.074-3.84-1.776-1.14-.658-1.957-1.273-1.702-1.45.306-.23 2.017.188 2.162.249-.145-.083-1.11-.642-.784-.812.684-.374 7.405 2.737 7.702 2.795L97.75 3.46c.094.105.297.257.576.416.934.543 2.708 1.199 3.675.635-.241.007-.809-.17-1.164-.376-.288-.165-.438-.353-.143-.472 1.276-.548.281-.69.905-1.145 1.584-1.015 18.074 6.495 18.898 6.976.59.34 3.63 2.168 2.08 1.87.02 1 4.06 3.662 8.56 6.265 5.053 2.921 10.675 5.76 11.826 6.072l-.802-.064c.802.65 2.955.608 3.069.606l.337.409-1.606.573c.19.17.898.302 1.629.44.77.152 1.568.325 1.896.512-.165.492-1.334.17-1.731.18.188.2.543.436.998.693.492.29 1.106.606 1.75.944.69.353 1.427.733 2.1 1.122 1.57.908 2.81 1.87 2.412 2.725-.367.688-2.288-.946-2.844-.647.025.197.364.463.871.756.805.465 2.035 1.004 3.132 1.465 1.15.488 2.163.886 2.426 1.045l-1.186-.188c.797.458.201.937-.24 1.073.302.168.81.146 1.341.132.574-.018 1.218-.013 1.338-.013-.09-.094-.826-.689-.272-.75 1.302.46 2.506.98 3.677 1.47.826.698 1.103 1.3-.083.966.994.884 1.966 1.651 2.996 2.246 1.41.816 2.93 1.306 4.762 1.333-.56-1.273 1.87-.28 3.355.58.878.505 1.414.966 1.017 1.044l-4.327-1.12c-.08.239 1.092.726.936.847-.027.013-1.895-.19-2.225-.094.12-.19 4.184.942 4.758 1.06l-.29-.55c.308-.2 2.14.528 2.457.608-.11-.487-2.111-1.384-.76-1.695.128-.027 11.6.577 14.55 2.281.638.372.877.797.497 1.277-3.09-.641-5.848-1.55-8.819-2.24.538.547-2.07 1.491-1.698 1.704-.764-.448-.998-.533-1.755-.586.737.387.974.496 1.175.612.507.296.869.631.36.893-.342.114-.584.499-2.199.966l-.221.635c.556-.06 1.193.38 1.792.39-.865-.497 1.119-.403 1.561-.15l-.777.226c.348.11 3.648.87 4.038.811.7.157.916-.65 2.572.311.232.132.493.302.788.513l.802.058c-1.68-.944-4.997-3.094-4.41-3.735.184-.184.653.013 1.137.29.286.168.568.356.805.521.415.094-1.178-1.004-1.258-1.064 1.483-.864 8.187.868 10.081 1.961.407.235.588.439.45.582-.311.302-5.03-1.335-5.768-.57-.184.2-.139.559.069.773l.784.119c.328-.07-.77-.633-.378-.785 1.32-.477 6.454 1.196 7.964 2.069.348.201.5.36.366.438-.574.333-2.694.152-2.986.322.373-.215 2.705 1.282 3.898 1.55-1.126-.581-1.696-1.36-1.182-1.74.31-.201.784-.087 1.246.181.939.542 1.817 1.7 1.115 2.11-.346.606.79 1.024-.194 1.983.431-.11.927.038 1.407.318 1.133.65 2.16 2.008 1.941 2.404-.12.21-1.213-.038-1.378.01.373.084.722.156.936.281.219.128.29.315.063.65-.784-.138-.994-.344-1.055-.393l.518.868c-.31.181-2.767-1.118-3.089-.81-.065.04 2.43 4.024 2.632 4.382-2.22-.119-5.936-1.492-7.68-2.5-.385-.224-.677-.43-.83-.598.086.629.269 1.805.046 1.92-.55-.388-.972 1.1-1.843.592-.418-.24-.172-.358-.027-.606-.784-.148-1.577 1.25-2.388.783-.927-.535-.05-2.244-1.269-2.946-.083.143-.127 2.948-1.202 2.326-2.077-1.194-2.129-2.782-1.988-4.024.119-.966.302-1.66-.1-1.896.08.051-2.692-.734-3.923-1.445-.576-.331-.818-.649-.273-.857 1.106-.43 2.368.139 3.577.835.277.158.547.326.82.49.277.18.556.353.828.51.55.315 1.06.56 1.504.621 1.66-.964 3.889.682 6.19-.273-.833.155-1.379.063-1.787-.176-.353-.204-.612-.513-.5-.6.057-.06 1.34.179 1.89-.14-.135-.028-.55-.229-.95-.464-.503-.29-.985-.626-.847-.722.4-.27.728-.103 1.052.083l.054-.774c.429-.586.538.214.487-.955-.447 0-3.854-.425-5.035-1.11-.322-.183-.474-.387-.367-.608-1.956 2.29-7-.43-9.368-.443 0 .072.006 1.096-.55.776-.922-.534.418-1.11-.657-1.733-.315.244-.625.635-1.527.709.509.201 1.351-.43 1.606-.289-.148-.083.156 2.592-1.146 2.313.976.593 1.056.736.936 1.015.062-.18-.114-.37-.443-.566-.699-.402-2.104-.814-3.417-1.187-1.338-.378-2.605-.711-3.038-.966-.233-.439-.201-.562-.108-.582-.183-.168-.4-.362-.659-.6 2.002.155 4.41.072 6.818.206-3.936-1.366-7.523-1.069-10.43-2.753a7.913 7.913 0 0 1-1.856-1.476c-.21.693 1.771 1.194 1.552 1.825-1.137-.702-15.071-2.136-14.888-1.416l-1.972 1.718c.953.546 5.75 4.795 3.507 4.999.502.098 1.206.391 1.8.74.7.405 1.258.872 1.206 1.188-.315-.226-2.015.358-3.61 1.009-1.565.668-3.017 1.386-2.803 1.51.601.185 1.443.36 1.827.579.233.134.29.286-.038.463.809-.177 7.323-1.669 7.34-1.656 4.752 2.747 10.171-.337 14.12-.644 1.066-.082 4.357-1.11 5.945-.194.395.23.686.583.809 1.102.024.226 3.757 1.861 2.57 2.505-.267.137-.888-.107-1.136-.132.031.018.784.84 1.3 1.246-1.428-.163-3.34 1.644-3.304 1.669-.436.21-.436.402-.138.577 1.295.747 8.135 1.114 8.117 1.107l-3.563 3.366c-.266.275-1.789.08-2.178.045.644.776-.962.924-.752 1.516.024.076.259.235.562.41.566.322 1.363.715 1.497.76l-.277.982c-.337.05-.735-.074-1.153-.246 1.095 1.21-3.498 3.147-7.452.863-8.566-1.237-11.893-5.824-22.282-5.978 2.43 1.241 7.7.881 10.859 2.328.922.515 1.119 1.834-.22 1.376-1.074-.374-2.162-.562-2.93-1.007a2.308 2.308 0 0 1-.476-.349l2.274 1.532c-.384.848-4.385-.512-2.502 2.029 1.8 1.038 3.545 0 5.239.982 1.078.624-6.559.188-8.58-.984-2.3-.497-3.298-.756-3.602-.928-.656-.38 2.06-.36 4.5.28-.26-.075-.577-.178-.765-.285l1.414-.103c-.864-.076-8.508-2.16-8.736-2.006.304-.226.675.13 1.028-.119-3.195-.396-5.603-.836-7.426.226.376.117 1.021-.056 1.19.047-.397.828-1.88.121-2.492-.024-1.213-.378-2.401-1.112-3.442-1.454l1.52.693c-.115.492-2.003-.478-2.778-.93-1.115-.132-4.157.961-5.27.317.228.135.494-.715.512-.727-.304.155-4.566 1.37-5.122 1.047-.038-.46 4.11-1.463 4.539-1.52-.737-.334-4.75.798-5.178.903-.885.297.726.684-1.68.91.663 1.168-5.151 0-5.906.085-3.773.27-8.165-2.127-11.94.116-1.727 1.052-2.457 2.125-4.385 3.179-1.524.838-2.413.966-2.848.713-.936-.537.19-2.775 1.735-3.449 4.55.662-.352-4.437-2.124-5.464-.295-.237.244-.317.463-.447-.503.018-3.62-.519-4.788-.322-.29-.141-.67-.253-1.208-.564-.675-.391-1.602-1.1-2.455-1.765-.836-.664-1.604-1.286-1.948-1.478-.031-.262-.042-.4-.201-.49-.809-.465-5.466.526-9.876 1.658-4.407 1.127-8.562 2.397-8.401 2.491-2.406 2.04-.87 4.017 1.202 5.216 1.737 1.004 3.84 1.463 4.289.962.538-.75 6.12-.248 7.63.622.827.478.436 1.064-2.64 1.621-2.67.501-5.482 1.946-8.408 1.946 1.782 1.839 10.702 6.258.62 6.712-2.716.023-3.955 3.568-2.264 4.545 4.007 2.313 1.713 1.519 4.329 4.048-.532-.431 11.334-1.328 13.85.123.357.208.527.468.433.785-.112.023-2.381.425-2.917.736.214.17 3.41.244 4.161.11.349.881 4.209 5.59 6.724 7.121-.235.734-.228 2.145-.33 2.514-.222 1.206 3.942 2.186.02 3.606.323-.04.645.045.944.223 2.038 1.175 3.666 6.393 4.678 6.974 2.62 1.514-6.404 7.057-6.9 7.319 1.309-.249 5.32.069 6.793.919.726.418.826.97-.335 1.646l1.03-.022c.636.37-1.555 1.579-1.6 1.552 2.055 2.35 7.917 5.692 8.308 8.937zm101.38 70.342c.681.395-3.259 3.187-3.355 3.39-.19.416-1.086.87-1.912.678a.218.218 0 0 1-.072-.027c-.259-.15.385-.49.148-.66.536.58-18 6.954-21.55 4.9-.429-.245-.643-.614-.576-1.13-.233-1.78 11.897-7.57 14.22-7.87-.183.025-.208.065-.111.12.889.514 12.406 2.182 9.873.72 1.155.666 2.26-.743 3.335-.121zm186.682 9.18c1.106.64 2.864 4.885 3.078 5.01-.842 1.328-.719.232-3.292.982-.076.006-.17-.032-.28-.09-.344-.203-.817-.713-1.31-1.234-.483-.521-.982-1.063-1.361-1.284a.61.61 0 0 0-.295-.1c-.266.438 1.141 1.182.567 1.516-.442.252-.764.28-.978.156-.891-.516.051-3.596 1.333-2.856.21.12.456.526.662.693l.183.01c0-.287 1.8-2.747 1.693-2.803zm-3.466 10.628c-1.233 1.68-2.926 3.212-4.606 3.458.328-.241 1.175-.682 1.268-1.029l-2.318.564c-.023-.011-.05-.022-.07-.034-.194-.116-.17-.293-.055-.445.094-.145.245-.261.245-.261-.833.12-1.28.067-1.559-.094-.384-.224-.449-.647-.77-1.114-1.247.682-1.973 1.002-2.277.832-.25-.146-.192-.638.107-1.557-.332-.076-.927.3-1.154.163-.152-.085-.664-.445-1.365-.85-.883-.512-2.071-1.1-3.215-1.321.07.01.125.031.177.062.764.443-.57 2.75-2.446 3.029-.536.078-.896.027-1.117-.1-.827-.477.27-2.02 1.068-1.95.183.032-2.004-1.276-.715-1.77.697-.305 6.904.062 7.595.463.266.187.491.335.706.46 2.875 1.662 3.487-1.071 5.287-.512l.26.125c-.108.052-.322.23-.519.41-.24.237-.46.476-.429.496.007.005.027 0 .058-.02.005.004 1.856-.888 3.632-1.803 1.839-.914 3.606-1.845 3.467-1.928a.496.496 0 0 1 .367.043c.703.407-.108 2.619-1.584 4.64.049-.035.163-.05.38 0-.072.242-.23.25-.324.193-.063-.033-.1-.098-.094-.15zm-32.598-3.227c-.355.022-.467.033-.46.038.004.007.163.007.321-.005.152-.009.309-.017.29-.022a.855.855 0 0 0-.151-.011zM251.74 136.576c.241-.123.442-.372.846-.271-.165.094-.48.186-.846.27zm85.144.767c.847.682.222 2.174.304 2.218-.415-.237-.134-1.643-.304-2.218zm-6.708.563c1.843 1.065 3.784-1.2 4.461-1.386.409-.094 2.002.68 2.104.715-1.139-.847-2.073-1.729-2.352-2.655-.77 1.647-2.553 2.825-5.515 1.893.418.722.853 1.172 1.302 1.433zm115.75 67.804l.342 1.698c-2.312-1.235-7.811-6.01-7.405-6.876-.965.177.601.895-.236 1.385-.59.34-1.5.056-2.105-.29-.254-.149-.455-.312-.556-.44-.342.862 4.03 3.814 2.817 4.774-1.51-1.052-10.76-1.895-8.953-.846-1.383-.803-2.855-2.433-4.439-3.35-.824-.474-1.675-.754-2.56-.627-2.223.121.916 5.098.532 5.876-1.839-.32-1.307 1.886-2.01 1.816-.479.105-.79.146-.99.152-.072.184-.313.52-.88 1.1-1.048-.563-1.32-.717-1.524-.813-.214.61-1.514 1.317-2.72 1.762.348-3.194-2.596-7.998.663-10.693.09.053 1.762-.21 3.404-.477 1.662-.273 3.33-.548 3.373-.523.134-1.134.398-1.814-.467-2.747-.102.372.581 1.1.233 1.398-.668.537-1.49.385-2.198-.027-1.213-.7-2.085-2.142-1.25-2.16a1.862 1.862 0 0 1-1.05-.262c-1.35-.888-1.79-1.03-2.436-.941-3.027.348-.46 1.943-1.209 2.326-.013.006-2.817-.91-4.085-1.644-.512-.296-.771-.557-.494-.72.436.038.802.131 1.155.263-.125-.512-.675-.98-1.428-1.41-1.704-.987-4.465-1.806-5.696-2.517-3.797-2.196-7-.286-11.732.407 1.403.881 2.098.734 2.049.704.067.04-.224 1.137.118 1.331.853-.1-.574-1.377.804-1.082.87.467.215 1.357-.538 1.594.574.081 1.065.255 1.49.497 1.688.977 2.242 3.08 2.419 4.952.599-.342.366-1.478.86-1.572 1.213 3.017 2.703 8.56 1.736 8.83-.067-.038-.326-.392-.599-.774-.324-.4-.695-.839-.96-.989-.64.486-.997 3.984-1.05 4.554-.099-.26-.713-1.071-1.008-1.248-.223.094-.61.799-.98.584-2.458-1.423 4.737-6.95 1.88-9.052-1.04.98-10.838 9.79-14.377 7.748-.56-.322-.96-.913-1.15-1.848-1.868.967-4.832 1.181-7.314 1.432-1.03.17 2.185 8.07-2.968 6.59-.425-.155-3.407-.66-3.746-.855 1.02-3.047 2.734-2.51 1.98-4.706-1.036-.935 2.154-1.613 1.594-2.317-.074-.282-.322-.522-.67-.725-.733-.423-1.906-.684-2.945-.866-1.02-.19-1.9-.297-2.073-.391-.067-.309 3.116-1.7 2.466-2.076-2.198-.456-4.353.246-6.006-.706.478.277 2.323 4.632 2.81 5.544-.697-.127-4.783.197-4.852.436-.447.788.77 2.114.384 3.152-.301.944.31 4.677-3.033 3.308.085.051.33.23.627.443.295.21.644.44.93.608.36 1.465-6.718 2.422-7.74 3.52-.55.562-12.434-.288-13.14-.693-.201-.118.284-.646.491-.765l-6.442-.391c-.871-.432 1.034-1.44 1.372-1.613-10.678-6.17-6.5 5.31-10.444 6.987-3.96 1.658-7.99 2.803-12.895 2.036-.997-.481 1.738-1.584 1.93-1.693l-1.285-.645c-.882-.516 1.642-5.025.215-5.85-5.57-3.221-10.846 14.674-12.514 14.71-.347-.007-.632-.076-.854-.204-2.298-1.333 2.055-8.73 3.456-9.977l-.91.165.823-1.337-.992.241c1.984-.81 13.189-7.931 10.861-9.275-.237-.134-.61-.215-1.14-.22-.013-.015-3.194-.232-2.791.115-.885-.705 1.233-4.357 1.496-4.581.344-.273 1.58-.537 1.825-.772-.13-.076-.84-3.612.615-4.453-.487-.018-1.68.087-2.123-.172-.196-.112-.24-.302 0-.606-.659.31-3.089-.215-3.335-.356-.438-.252.342-.682.586-.827-3.557.872-13.638 1.28-16.526.512-3.052-.834-10.613 4.53-12.027 5.137-1.175.51-1.941.589-2.382.334-2.573-1.49 6.128-14.36 9.653-17.319-1.057.345-1.877.23-2.477-.12-1.39-.803-1.593-2.832-.747-3.13.166.124.874.285 1.537.405.668.119 1.3.222 1.265.2-.3-.11-.532-.217-.729-.334-2.256-1.304.02-3.31-1.172-4.066-.994-.575-3.121-2.304-4.432-3.25-3.12-2.4-6.45-5.85-7.942-6.705-2.82-1.64-3.357-4.682-2.22-7.788-.55-.671-2.578.387-4.206 1.682-1.622 1.304-2.822 2.845-1.622 3.536.382.11 1.55-.718 1.966-.477 1.776 1.027-3.532 1.861-1.881 2.819 2.502 1.444 6.715.12 8.401 1.096-1.307-.759-.726 6.128-.277 6.385-1.181.767-4.91.208-5.008.195-2.042-.347-6.925 2.21-9.717.595-1.98-1.143-4.43-.656-6.425-.67-1.53 0-11.452-2.222-13.307-3.294-.837-1.646 4.884-7.953 5.53-10.313 1.447-3.283 2.432-7.638 3.955-10.662l.695-.297c-.619.241-1.246.431-1.416.335-.93-.537.48-2.58.766-3.2-5.156 2.422-11.185 24.524-12.932 24.08 1.926 1.115 2.513 2.2 4.245 3.204.777.448 1.775.877 3.227 1.28 1.187.402 2.583.805 3.387 1.268.923.534 1.048 1.147-.88 1.921-5.913 2.436-19.658 3.393-27.606 2.675-3.19-.228-13.045.693-13.485 2.84-.525 2.177-9.217 5.076-9.718 7.715.07 1.2-15.156.512-16.173-.076-3.683 4.802-28.302 8.635-35.774 4.317a28.252 28.252 0 0 0-1.39-.85 40.305 40.305 0 0 0-2.225-1.195c-.623-.315-1.155-.577-1.57-.818-1.586-.917-1.537-1.535 1.255-3.673 3.242-2.194 2.63-5.764 5.806-8.088 2.95-2.341 5.712-5.03 6.494-8.123 1.295-4.462 16.141-4.167 18.004-9.441.177-.752 3.387-8.177 4.05-8.249 2.674-.071 6.269-1.516 7.884-3.225-1.738-.946-2.136-2.223-2.45-3.438-.311-1.214-.517-2.37-1.328-2.838-5.147-2.57-9.241-3.2-14.037-5.972-1.352-.78-3.266-.615-4.466-1.308a2.027 2.027 0 0 1-.56-.457c-.673-.885.471-3.15-.52-3.894-.845-.655-.412-3.234.555-3.795.188-2.127 1.517-4.619 1.611-6.234.217-1.538 14.183-7.244 16.363-7.844 3.654-.785 7.858-1.263 11.68-1.478 2.324-.13 4.29 1.1 7.126.55 2.306-.047 3.286-2.125 6.747-1.67 1.396.163 7.447-.24 7.876.013.815.47.275 1.315 1.195 1.847.221.13.53.24.959.322.022.012 6.513 1.841 7.362 2.208 1.394.637 8.761 3.715 11.743 5.44.867.5 1.365.885 1.245 1.069-.405 1.357-6.811 1.252-5.194 2.878 1.82 1.693 4.664 6.003 4.946 8.354.507.367 2.149.128 3.829-.071 1.677-.209 3.43-.387 4.063-.02.241.136.322.35.183.664-.474.825 1.908 3.176 2.817 3.938 1.271 1.105 2.64 2.112 4.077 2.942 4.825 2.79 10.39 3.558 15.366-.817-.661.387-2.006-.138-3.465-.98-2.604-1.505-5.56-4.016-5.644-4.186-.505-.045-1.723.581-2.288.257-.406-.486 1.039-.436 1.425-.595l-.828-.403 1.24.096c-.905-.243-1.089-.158-2.27-.337.21-.047 1.686-.356 1.939-.213-.19-.3-.418-.69-.4-.97.103-.419 1.097.089 1.195.076-.42-.244-1.217-1.018-1.396-1.161.196.035 1.132-.083 1.941-.249l-.683-.693c.245-.286 2.533-.369 2.76-.546.467-.317.108-.72-.585-1.12-1.333-.772-3.898-1.543-4.208-1.725-.644-.373-.898 3.586-.715 3.689-.695-.175-.757-.59-.833-.707-.103.183-.183.754-.612.767-2.737-1.376-.767-11.792-1.271-13.013-.038-.273-.315-1.25-1.062-1.68-.529-.31-1.306-.33-2.399.416-2.593 1.837 1.767 6.167.68 8.128.013-.147-.175-.726-.378-1.131-.366.706-6.065.791-6.09.778-1.181.063-2.06-.179-2.615-.503-1.307-.756-.898-1.94 1.396-.61 7.025 4.06 2.692-6.556 2.046-6.93 1.101-.673.905-1.34-.12-1.926-3.157-1.831-14.232-2.965-17.77-1.377-3.039 1.265-5.9.353-8.33-1.052-1.151-.664-2.201-1.44-3.128-2.145-.963-.729-1.796-1.38-2.457-1.764 4.61-3.512 8.81-6.368 14.654-2.988 9.936 5.745 6.703-1.839 7.89-3.376.41.242 1.903.45 3.29.582 1.405.152 2.698.244 2.66.221.514.305 17.905 3.982 18.298 3.682.067-.06 5.613-3.29 6.817-2.592.2.118.282.346.193.72.017.36-6.342 2.471-5.35 3.042 1.112.574 1.782.729 2.443.874.673.148 1.334.291 1.676.494.341.193.366.452-.264.817.429-.25 7.466 2.82 8.064 2.925 1.296.756 3.349-.765 4.481-1.143.713-.026 1.124.059 1.376.202.31.18.362.456.418.74.083.28.15.568.525.783 1.15-.034 1.414-.474 2.09-.75-.298-.212-2.528-.91-3.218-1.098l.389-.608c1.97-.93 8.703 2.794 10.6 3.46-.506-.358-1.158-.74-1.866-1.147-.344-.204-.71-.414-1.083-.629-.456-.252-.919-.51-1.365-.77-1.984-1.144-3.729-2.327-3.5-3.303.11-2.17 5.818-1.99 8.155-1.413-1.03-.456-2.61-1.284-4.879-1.282-1.811.02-4.034-.528-5.537-.492-3.248 0-.362 1.861-1.24 2.709-2.346 1.073-4.019-.989-6.463.935.17-.103.729-.092.876-.007-2.017 1.273-6.391-.906-8.165-1.26.72.788-.98.47-1.682.061 3.007-1.818 2.457-.921 5.73-4.551-1.718.5-3.505.147-4.593-.48-1.047-.607-1.445-1.466-.525-2.077-.92-2.572 6.693-3.218 8.203-2.35 1.363.789 2.513 1.17 4.528.72 1.092-.302 6.594 1.05 8.484-.121-.418-.177-2.33-.454-2.786-.72 1.814-.195 3.81.013 4.638.492.353.203.494.463.272.79.41-.059 1.464-.386 1.76-.213.14.078.115.266-.22.63.457-.042 2.767-.326 3.183-.082.172.098.031.281-.668.606 1.3.174 1.653.13 2.419.572.183.101.393.233.639.41l-.3-.814c.14-.056.698.174 1.214.474.672.387 1.284.885.88 1.042.234-.018 1.894-.072 2.412.23.141.557-1.485.448-1.749.535.574.33 1.868-.157 2.368.127.26.157-.478.38-.574.459.065-.005.56.029 1.068.094.587.083 1.257.194 1.508.34-1.182.373-.802.487-.353.662.473.163 1.03.376 1.44.613.478.281.758.592.425.892-.183.154-1.834-.396-2.022-.432 3.574 2.067 4.819 3.452 7.635 6.77 5.677 5.706-6.042-1.827-7.586-2.294.184.91-.668 4.073 1.189 5.146.29.166.65.285 1.085.334.02-.226-1.306-1.66-.685-1.754.326-.02.598.058.833.193.402.234.692.641.985 1.05.29.403.572.795.96 1.02.253.146.548.224.914.184.514-.201-.232-.99.076-1.145.985-.434 2.43.054 3.518.682.816.47 1.437 1.022 1.517 1.324.23-.275.757-.255 1.133-.393.39-.155-1.019-.991-.688-1.137-.027-.004.442-.26.862-.525.32-.213.614-.425.69-.553 1.209.85 1.7 1.264 2.14 2.476-1.324-.539-1.572-.626-1.939-.575-.143.24.083.506.563.777 1.081.626 3.438 1.312 5.585 1.876 2.155.566 4.112 1.029 4.336 1.154-.52.338-.566-.306-1.258.266.802.237 4.11 1.23 5.147 1.828l.498-.253c.147.586.52.966-.302 1.136.391.439 1.988.425 2.042.394-.313-.275-1.847-2.568-1.763-2.615 1.989 1.038 7.663 6.978 8.482 7.69 2.65-.922-3.165-2.546.17-2.546l-.34-1.527c2.261-1.161 4.7-.224 5.2.067.754.664 1.125 1.778 1.087 2.941.449-.255 1.472.096 2.066.228.165.311.435.662.744 1.016.317-.152.62-.036.929.145.19.11.38.244.56.362.539.148-.698-.402-.663-.642.027.007.653.081 1.34.204.709.11 1.486.262 1.75.414l-1.312-.186c.246.465 2.299 2.425 3.286 2.995.68-.011-2.231-2.505-1.454-2.912.58-.275 1.307.002 2.084.452.373.214.766.474 1.155.729.38.255.77.516 1.15.733.677.39 1.325.662 1.922.593-.166-.24-2.064-1.48-1.881-1.588.782-.43 7.684 2.232 8.575 2.505.356.331.709.582 1.07.792.62.356 1.245.58 1.881.796.657.242 1.347.492 2.047.897.265.152.536.329.804.54-.798-.723 2.533.527 4.427 1.623 1.218.704 1.845 1.342.405 1.358a9.071 9.071 0 0 1 2.33.957c1.275.738 2.305 1.695 3.393 2.59 1.548 4.464-3.26-.957-6.463.906.847-.49 3.639 1.742 4.541 1.483-.107-.065-.442-.186-.674-.325-.12-.389 2.569.054 3.393.528-.348.689-1.46.043-1.77-.065.068 1.161 8.188 6.256 10.893 7.822.264-.273-.753-1.123-.199-1.3.512-.145 1.057-.018 1.6.298 2.712 1.568 5.615 7.748 6.337 8.403.281-.237.733-1.17 1.15-1.098 1.78.993 4.995 3.314 5.248 3.865.393-.17.612.029.822.219.518.373.196-1.163-.166-1.371.322.027 1.231.624 1.414.69l-.183-.538c.255.15 5.1 2.995 4.897 3.234-.308.085-.891-.418-1.11-.284 4.005 2.624 11.213 6.911 14.318 10.492 1.392 1.601 8.435 7.58 10.969 9.045.341.197.603.313.76.327l-.923-2.39c6.303 4.91 11.397 9.565 16.677 14.9a1.924 1.924 0 0 1-.315-1.041c.284-.051.612.043.96.242 1.63.943 3.626 4.213 3.785 4.714-.337.405-1.164-.333-1.474-.37zm-103.035 27.06c-.138.101-1.939 1.913-2.578 1.94.072-.01.027-.05-.08-.114-.328-.188-1.226-.548-1.24-.555.103-.056 1.472-.92 1.98-.63.118.069.19.2.183.426l.24-.237c-.801-.756.162-1.122-.254-1.983-.308.178-.013 1.04-.775.836l-.21-.05c-1.465-.847-.914-2.144-.57-2.8-.111-.058-.42-1.746.91-2.52.183-.108.312-.11.406-.056.226.134.232.613.277.64 2.549-1.6 2.786-2.434 5.328-.969.782.454-8.026 3.232-3.617 6.073zm-48.284-13.675c6.642 3.84-.16 11.468 1.222 14.91.592-.465-.234-.873-.026-1.302.147-.288.397-.293.67-.136.639.373 1.385 1.635 1.005 2.037l-1.068.329c-.451.078-5.571 1.163-6.33.982-.083-.027-.16-.065-.235-.1-3.045-1.765 3.185-15.281 3.818-17.198.344.152.663.315.944.478zm44.027 16.926c.518.297-.802.586-.902.718a.218.218 0 0 0 .055.04c.108.063.266.054.445.034.152-.016.313-.038.415.02.058.036.094.098.094.203-.531.452-5.33 3.056-5.374 3.226.183-.54 1.15-.671.985-1.195-.29.119-.847.06-1.048.177-.083.05-.654 2.033-1.908 1.302-1.838-1.065.972-2.315.965-3.581-.674.514-1.686.145-1.87.036-.254-.141.575-.475.613-.5l-.128-.12c-.308-.183-1.673.584-2.06.356-.995-.577 3.667-1.27 4.638-.716.286.165.246.443-.346.861 2.033.134 1.908-.275 3.027.367.326-.19 1.88-1.523 2.399-1.228zm-40.861 7.081c.304.168 2.738 2.98 2.142 3.116l-1.383-.087c.152-.273-.165-1.038-.196-1.056-.099.08-.467.628-.75.534a1.66 1.66 0 0 1-.325-.15c-1.164-.673-4.206-3.231-4.23-4.1-.253-.142-4.587-5.22-4.001-4.882-.246-.143 3.116 1.483 6.223 3.277 2.85 1.653 5.477 3.438 4.897 4.124-.172.262-2.15-.765-2.377-.776zm45.776 25.464c-2.9.344.525 5.251-.398 5.744-.232.12-.48.082-.753-.074-.808-.466-1.762-2.002-2.73-3.557-1.002-1.579-2.028-3.18-2.966-3.724a1.464 1.464 0 0 0-.552-.194l.767.447c-.11.691-1.142.351-2.44-.4-2.426-1.4-5.774-4.218-5.716-4.25 1.642-.953 7.12-.286 4.282-3.33-.871-.861-2.672-2.803-1.257-3.632-.637.062-1.87.52-2.451.185-.15-.09 1.095-1.785.822-1.937.411.067 2.69 1.092 2.922.935-.447-.237-2.23-2.934-1.419-3.585a3.1 3.1 0 0 1 .771.306c1.012.588 1.562 1.727 1.984 2.79.424 1.062.715 2.046 1.224 2.346.203.116.435.127.721-.005 1.11-.463 2.11-.33 2.996.184 3.637 2.104 5.455 10.632 5.924 11.342 1.03 1.626-.985.908-1.593.554-.134-.078-.194-.134-.138-.145zm-23.013 17.727c-5.743 3.96-15.775 2.83-23.526 3.724-1.977.105-13.412-.582-15.088-1.546-.205-.12-.263-.248-.138-.373.362-.443-.132-.893-.9-1.338-.369-.21-.784-.416-1.209-.624-.397-.199-.795-.4-1.132-.588-.686-.4-1.137-.787-.87-1.165.385-.535 2.11-1.61 2.596-2.376.076-.14-.03-.273-.245-.4-.376-.212-1.07-.403-1.74-.577-.662-.168-1.307-.324-1.566-.476-.139-.081-.17-.16-.065-.23l.199-.28c.757.447 7.2 1.41 5.405.373-.017-.007-3.125.262-3.844-.156-.134-.079-.183-.184-.107-.323.143-.15 5.473-.02 6.543-.382-1.1-.655-6.137.148-6.983-.347-.353-.199 4.657-3.088-.22-5.907-.993-.57-17.22-6.432-18.086-6.262-1.352.391-2.373.172-3.188-.3-1.343-.772-2.1-2.205-2.775-2.628-.6-.44 3.903-.74 4.77-1.002 1.148-.436 9.679-5.83 9.355-6.386.217.237-.907 1.166-1.05 1.333.456.267.798-.655 1.07-.693.219-.04.353-.029.424.011.25.148-.33.71-.444.792l.721.036c2.71-.933 2.824-2.915 7.024-3.268-.166.353-.612.432-1.03.667 7.981 1.684 13.93 2.744 21.858 2.256.018.293-1.195.694-1.249 1.154.606-.158.851-.494 1.043-.389.06.043.125.137.188.32.165-.094.713-1.443 1.477-1.006.227.136.044.604.417.814 1.169-.454 4.095-.91 4.803-.506.1.063.156.137.156.23.492.29.923-.37 1.254-.344 1.016.776 3.093 1.289 1.065 2.64.536-.144.842-.086 1.07.04.125.076.228.174.335.268.098.105.206.208.344.293.224.128.512.188.994.1-2.578-1.94 7.955.247 7.964.253.576-.049.134-1.637.69-1.312 1.593.919 1.973 2.397 4.037 3.594l-.82.617.333.076c.183-.306 1.005-.52 1.436-.261 1.445.834-4.54 1.272-4.727 1.384-2.193 1.63.72 3.214-1.08 4.894-.24.215-.26.362-.106.445 1.307.76 15.854-3.147 16.019-3.053.619.362-5.45 3.563-5.16 4.062.509-.148.82-.16.971-.076.715.416-2.216 3.097-3.058 3.706-1.943 1.346-.058 3.509-1.269 4.305-.777.456-1.617 1.208-2.848 1.968-.058.054.177-.067.411-.19.246-.118.492-.239.51-.228-.108.172-1.97 4.353-1.352 4.715.08.043.21.027.393-.078z" transform="translate(54 63)"/>
        <path fill="#FFF" d="M190 111c0 4.418-6.045 8-13.5 8s-13.5-3.582-13.5-8 6.045-8 13.5-8 13.5 3.582 13.5 8" opacity=".5"/>
        <path fill="#FFF" d="M184 111.5c0 2.485-3.357 4.5-7.501 4.5-4.142 0-7.499-2.015-7.499-4.5s3.357-4.5 7.499-4.5c4.144 0 7.501 2.015 7.501 4.5"/>
        <path fill="#FFF" d="M309 208.501c0 10.77-14.998 19.499-33.5 19.499-18.502 0-33.5-8.729-33.5-19.499C242 197.73 256.998 189 275.5 189c18.502 0 33.5 8.729 33.5 19.501" opacity=".5"/>
        <path stroke="#2342BE" stroke-linecap="round" stroke-linejoin="round" d="M175 112.231a81.5 81.5 0 0 1 3-.462"/>
        <path stroke="#2342BE" stroke-dasharray="2.918,2.918" stroke-linecap="round" stroke-linejoin="round" d="M185 111.156c45.795-2.817 77.564 32.753 86 92.844"/>
        <path stroke="#2342BE" stroke-linecap="round" stroke-linejoin="round" d="M270.827 207c.122.993.238 1.993.346 3M275 209a59.639 59.639 0 0 1 2-2"/>
        <path stroke="#2342BE" stroke-dasharray="2.899,2.899" stroke-linecap="round" stroke-linejoin="round" d="M283 202.348C322.228 173.76 385.937 185.18 414 236"/>
        <path stroke="#2342BE" stroke-linecap="round" stroke-linejoin="round" d="M415.334 239c.456.985.9 1.986 1.332 3"/>
        <path fill="#FFF" d="M294 209.001c0 6.075-8.284 10.999-18.5 10.999s-18.5-4.924-18.5-10.999c0-6.077 8.284-11.001 18.5-11.001s18.5 4.924 18.5 11.001"/>
        <path fill="#008D79" d="M293 173.807c-2.115 1.232-5.547.523-8.777-1.343L271.5 180.68c3.235 1.868 6.657 1.763 8.768.533L293 173.807z"/>
        <path fill="#008D79" d="M263.254 152.476c-2.149 1.218-3.543 4.087-3.554 7.764-.023 7.386 5.192 16.719 11.8 20.44l13.5-8.073c-6.612-3.72-11.967-12.745-11.942-20.131.005-3.68 1.338-6.262 3.486-7.476l-13.29 7.476z"/>
        <path fill="#009A85" d="M255.288 140c3.885-2.179 10.252-2.514 16.197.798L284.758 133c-5.947-3.314-11.09-3.788-14.97-1.61-4.263 2.39-10.238 6.218-14.5 8.61z"/>
        <path fill="#009A85" d="M287.412 201.687c6.053-3.437 18.28-12.7 18.584-31.28.227-13.675-9.566-30.382-21.238-37.407l-13.273 7.798c11.681 7.032 21.515 23.497 21.655 36.92.194 18.585-15.09 29.837-21.14 33.282l15.412-9.313z"/>
        <path fill="#0DC0AD" d="M271.473 180.534c6.502 3.74 11.777.712 11.798-6.732.024-7.474-5.22-16.537-11.72-20.277-6.512-3.75-11.828-.759-11.85 6.715-.021 7.447 5.259 16.543 11.772 20.294m21.527-2.59c-.06 24.329-21.17 32.893-21.64 33.056-.44-.683-21.425-33.472-21.36-57.798.04-13.615 9.696-19.099 21.583-12.257 11.879 6.836 21.457 23.386 21.417 37"/>
        <path fill="#FFF" d="M432 242c0 4.418-6.045 8-13.5 8s-13.5-3.582-13.5-8c0-4.42 6.045-8 13.5-8s13.5 3.58 13.5 8" opacity=".5"/>
        <path fill="#FFF" d="M426 241.5c0 2.485-3.357 4.5-7.5 4.5-4.14 0-7.5-2.015-7.5-4.5s3.36-4.5 7.5-4.5c4.143 0 7.5 2.015 7.5 4.5"/>
        <path fill="#008D79" d="M419.543 230.65l5.457-3.293c-.906.549-2.159.473-3.543-.357L416 230.293c1.385.828 2.637.904 3.543.358"/>
        <path fill="#008D79" d="M413.15 218.524c-.86.484-1.312 1.84-1.316 3.311-.012 2.956 2.166 6.764 4.944 8.165l5.222-2.956c-2.644-1.487-4.787-5.099-4.778-8.053.003-1.473.538-2.505 1.396-2.991l-5.469 2.524z"/>
        <path fill="#009A85" d="M410.495 213.648c1.527-.873 3.505-.958 5.751.314l5.007-2.962c-2.336-1.327-3.705-1.315-5.23-.444-1.674.956-3.854 2.134-5.528 3.092z"/>
        <path fill="#009A85" d="M416.5 241.841l5.848-2.824c2.49-1.404 7.523-5.182 7.65-12.759.094-5.577-3.938-12.39-8.745-15.258L416 214.053c4.81 2.87 8.797 9.608 8.704 15.188-.125 7.577-5.211 11.194-7.704 12.6h-.5z"/>
        <path fill="#0DC0AD" d="M416.488 229.898c2.571 1.484 4.656.282 4.665-2.676.009-2.969-2.063-6.567-4.634-8.056-2.574-1.489-4.676-.302-4.685 2.67-.009 2.96 2.08 6.571 4.654 8.062m8.512-1.03c-.024 9.663-8.371 13.066-8.556 13.132-.174-.273-8.473-13.298-8.444-22.962.013-5.409 3.832-7.585 8.532-4.87 4.696 2.719 8.483 9.293 8.468 14.7"/>
        <path fill="#008D79" d="M178.543 100.65L184 97.36c-.906.546-2.159.47-3.541-.36L175 100.292c1.387.828 2.64.906 3.543.358"/>
        <path fill="#008D79" d="M177.616 86l-5.22 2.957c-.861.486-1.391 1.52-1.396 2.99-.009 2.956 2.133 6.564 4.777 8.053L181 97.043c-2.646-1.487-4.788-5.097-4.779-8.053.002-1.472.537-2.504 1.395-2.99"/>
        <path fill="#009A85" d="M174.023 80.556c-1.674.954-3.349 1.91-5.023 2.868 1.527-.87 3.64-.75 5.977.576L180 81.134c-2.335-1.327-4.452-1.449-5.977-.578"/>
        <path fill="#009A85" d="M176.054 111l5.292-2.885c2.494-1.359 7.528-5.015 7.652-12.348.094-5.4-3.937-11.994-8.744-14.767L175 83.955c4.81 2.775 8.799 9.299 8.706 14.697-.128 7.333-5.162 10.99-7.652 12.348"/>
        <path fill="#0DC0AD" d="M175.489 99.898c2.569 1.486 4.656.284 4.665-2.674.008-2.971-2.063-6.57-4.634-8.057-2.575-1.489-4.676-.301-4.685 2.667-.008 2.96 2.079 6.573 4.654 8.064M184 98.869c-.024 9.664-8.37 13.067-8.555 13.131-.174-.27-8.471-13.296-8.445-22.96.015-5.41 3.833-7.588 8.533-4.87 4.695 2.718 8.48 9.29 8.467 14.699"/>
        <path fill="#FFF" d="M218 254c0 4.418-6.045 8-13.5 8s-13.5-3.582-13.5-8 6.045-8 13.5-8 13.5 3.582 13.5 8" opacity=".5"/>
        <path fill="#FFF" d="M212 253.5c0 2.485-3.357 4.5-7.499 4.5-4.144 0-7.501-2.015-7.501-4.5s3.357-4.5 7.501-4.5c4.142 0 7.499 2.015 7.499 4.5"/>
        <path stroke="#2342BE" stroke-linecap="round" stroke-linejoin="round" d="M206.788 254c.13-1.007.272-2.007.424-3"/>
        <path stroke="#2342BE" stroke-dasharray="3.169,3.169" stroke-linecap="round" stroke-linejoin="round" d="M209 244c8.97-43.015 37.044-70.982 59-39.551"/>
        <path stroke="#2342BE" stroke-linecap="round" stroke-linejoin="round" d="M270.241 208c.51.955 1.016 1.957 1.518 3"/>
        <path fill="#008D79" d="M206.543 242.65l5.457-3.29c-.906.546-2.159.472-3.543-.36L203 242.292c1.385.828 2.637.906 3.543.358"/>
        <path fill="#008D79" d="M199.405 230.525c-.86.486-1.563 1.84-1.57 3.31-.009 2.956 2.13 7.165 5.388 8.25l5.031-2.585c-2.645-1.487-5.04-5.554-5.03-8.51.002-1.472.534-2.504 1.395-2.99l-5.214 2.525z"/>
        <path fill="#009A85" d="M197 225.424c1.527-.87 4.022-.123 6.357 1.202l4.897-2.626c-2.337-1.327-4.706-2.315-6.23-1.444-1.675.954-3.35 1.912-5.024 2.868zM202.495 254l6.854-2.885c2.49-1.359 6.701-4.782 6.826-12.115.095-5.398-3.114-12.225-7.92-15l-4.898 2.626c5.157 6.376 7.705 11.364 7.643 14.962-.125 7.335-6.007 11.053-8.5 12.412h-.005z"/>
        <path fill="#0DC0AD" d="M202.489 241.898c2.57 1.486 4.656.284 4.665-2.674.008-2.971-2.063-6.57-4.634-8.057-2.575-1.489-4.676-.301-4.685 2.667-.008 2.96 2.08 6.573 4.654 8.064m8.511-1.029c-.024 9.664-8.37 13.067-8.555 13.131-.174-.27-8.471-13.296-8.445-22.96.015-5.41 3.833-7.588 8.533-4.87 4.695 2.718 8.482 9.29 8.467 14.699"/>
    </g>
</svg>
