<?xml version="1.0" encoding="UTF-8"?>
<svg width="28px" height="20px" viewBox="0 0 28 20" version="1.1" xmlns="http://www.w3.org/2000/svg" xmlns:xlink="http://www.w3.org/1999/xlink">
    <!-- Generator: Sketch 54.1 (76490) - https://sketchapp.com -->
    <title>menu green</title>
    <desc>Created with Sketch.</desc>
    <defs>
        <linearGradient x1="100%" y1="50%" x2="71.8215942%" y2="50%" id="linearGradient-1">
            <stop stop-color="#06C1AE" stop-opacity="0" offset="0%"></stop>
            <stop stop-color="#01C1AE" offset="100%"></stop>
        </linearGradient>
    </defs>
    <g id="mobile" stroke="none" stroke-width="1" fill="none" fill-rule="evenodd">
        <g id="mobile-landing-register" transform="translate(-323.000000, -18.000000)" fill="url(#linearGradient-1)">
            <g id="header">
                <g id="menu-green" transform="translate(323.000000, 18.000000)">
                    <g id="Rectangle">
                        <path d="M2,0 L28,0 L28,4 L2,4 C0.8954305,4 1.3527075e-16,3.1045695 0,2 L0,2 C-1.3527075e-16,0.8954305 0.8954305,2.02906125e-16 2,0 Z"></path>
                        <path d="M2,8 L28,8 L28,12 L2,12 C0.8954305,12 1.3527075e-16,11.1045695 0,10 L0,10 C-1.3527075e-16,8.8954305 0.8954305,8 2,8 Z" transform="translate(14.000000, 10.000000) scale(-1, 1) translate(-14.000000, -10.000000) "></path>
                        <path d="M2,16 L28,16 L28,20 L2,20 C0.8954305,20 1.3527075e-16,19.1045695 0,18 L0,18 C-1.3527075e-16,16.8954305 0.8954305,16 2,16 Z"></path>
                    </g>
                </g>
            </g>
        </g>
    </g>
</svg>