<svg xmlns="http://www.w3.org/2000/svg"><symbol id="icon-arrow-left" viewBox="0 0 28 14"><path d="M1241.546 642l1.967 1.953-3.19 3.166H1262v2.762h-21.676l3.189 3.166-1.967 1.953-6.546-6.5z" transform="translate(-1234.815 -641.098)" fill-rule="evenodd"/></symbol><symbol id="icon-arrow-right" viewBox="0 0 27 13"><path d="M273.454 20l-1.967 1.953 3.19 3.166H253v2.762h21.676l-3.189 3.166L273.454 33 280 26.5z" transform="translate(-253 -20)" fill-rule="evenodd"/></symbol><symbol id="icon-ic-close" viewBox="0 0 40 40"><g fill-rule="evenodd" opacity=".8" transform="rotate(45 9.757 24.243)"><rect width="28" height="2" y="13" rx="1"/><rect width="28" height="2" y="13" rx="1" transform="rotate(90 14 14)"/></g></symbol><symbol id="icon-ic-fb" viewBox="0 0 24 24"><path fill-rule="evenodd" d="M15.116 7.992h-1.13c-.885 0-1.057.421-1.057 1.039v1.362h2.113l-.275 2.133h-1.838V18h-2.203v-5.474H8.885v-2.133h1.841V8.82c0-1.826 1.116-2.82 2.744-2.82.78 0 1.45.058 1.646.084v1.908zM12 0C5.373 0 0 5.372 0 12c0 6.627 5.373 12 12 12 6.628 0 12-5.373 12-12 0-6.628-5.372-12-12-12z"/></symbol><symbol id="icon-ic-in" viewBox="0 0 24 24"><path fill-rule="evenodd" d="M18 17.989h-2.486v-3.891c0-.928-.017-2.121-1.293-2.121-1.293 0-1.49 1.01-1.49 2.055v3.957h-2.485V9.988h2.384v1.094h.034c.332-.63 1.144-1.293 2.353-1.293 2.518 0 2.983 1.657 2.983 3.812v4.388zM7.443 8.895a1.442 1.442 0 1 1-.002-2.884 1.442 1.442 0 0 1 .002 2.884zm1.244 9.094h-2.49V9.988h2.49v8zM12 0C5.372 0 0 5.372 0 12c0 6.627 5.372 12 12 12s12-5.373 12-12c0-6.628-5.372-12-12-12z"/></symbol><symbol id="icon-ic-insta" viewBox="0 0 24 24"><g fill-rule="evenodd"><path d="M12.014 14.316a2.305 2.305 0 0 0 2.308-2.303 2.305 2.305 0 0 0-2.308-2.301 2.305 2.305 0 0 0-2.308 2.301 2.305 2.305 0 0 0 2.308 2.303m2.657-4.661h1.623c.185 0 .336-.15.336-.334v-1.62a.336.336 0 0 0-.336-.334H14.67a.336.336 0 0 0-.336.335V9.32c0 .184.151.335.336.335"/><path d="M18 16.576c0 .787-.638 1.424-1.427 1.424H7.427A1.425 1.425 0 0 1 6 16.576V7.423C6 6.637 6.639 6 7.426 6h9.147C17.363 6 18 6.637 18 7.423v9.153zM12 0C5.372 0 0 5.372 0 12c0 6.627 5.372 12 12 12s12-5.373 12-12c0-6.628-5.372-12-12-12z"/><path d="M15.664 12.014a3.65 3.65 0 0 1-7.3 0c0-.333.045-.657.13-.963H7.37v5.218c0 .185.15.335.335.335h8.615c.186 0 .336-.15.336-.335v-5.218h-1.122c.084.306.13.63.13.963"/></g></symbol><symbol id="icon-ic-twitter" viewBox="0 0 24 24"><path fill-rule="evenodd" d="M16.772 9.553c.004.106.007.211.007.318 0 3.253-2.476 7.005-7.005 7.005A6.97 6.97 0 0 1 6 15.77a4.938 4.938 0 0 0 3.645-1.02 2.464 2.464 0 0 1-2.3-1.709 2.484 2.484 0 0 0 1.112-.043 2.462 2.462 0 0 1-1.975-2.413v-.032a2.45 2.45 0 0 0 1.116.309 2.462 2.462 0 0 1-.763-3.288 6.99 6.99 0 0 0 5.075 2.573 2.462 2.462 0 0 1 4.195-2.245 4.926 4.926 0 0 0 1.563-.598 2.474 2.474 0 0 1-1.082 1.362A4.94 4.94 0 0 0 18 8.28c-.33.493-.748.927-1.228 1.274M12 0C5.372 0 0 5.372 0 12c0 6.627 5.372 12 12 12s12-5.373 12-12c0-6.628-5.372-12-12-12"/></symbol></svg>