<svg xmlns="http://www.w3.org/2000/svg" width="556" height="681" viewBox="0 0 556 681">
    <defs>
        <linearGradient id="a" x1="50%" x2="50%" y1="0%" y2="99.844%">
            <stop offset="0%" stop-color="#06C1AE"/>
            <stop offset="70.999%" stop-color="#4588FF"/>
            <stop offset="100%" stop-color="#2442C0"/>
        </linearGradient>
    </defs>
    <g fill="none" fill-rule="evenodd">
        <path fill="#E6F9F7" d="M256.232 57.549c189.417-50.68 353.9-145.946 282.313 132.768-71.588 278.714 49.806 418.327-119.153 476.746-168.96 58.419-455.674-78.234-523.898-198.032-106.146-186.39-142.474-91.036-236.963-147.247-74.677-44.426-99.91-126.4-91.255-205.882 333.026-5.116 562.678-24.567 688.956-58.353z" opacity=".9"/>
        <path fill="url(#a)" d="M635.13 99.225C809.24 53.234 960.43-33.22 894.629 219.71c-65.802 252.93 45.782 379.627-109.524 432.641-155.306 53.015-418.852-70.996-481.563-179.712-97.568-169.146-130.961-82.613-217.814-133.625C17.085 298.7-6.11 224.31 1.847 152.18c306.115-4.642 517.21-22.294 633.283-52.954z" transform="translate(-434.351)"/>
    </g>
</svg>
