<?xml version="1.0" encoding="UTF-8"?>
<svg width="472px" height="180px" viewBox="0 0 472 180" version="1.1" xmlns="http://www.w3.org/2000/svg" xmlns:xlink="http://www.w3.org/1999/xlink">
    <!-- Generator: Sketch 54.1 (76490) - https://sketchapp.com -->
    <title>Fill 1</title>
    <desc>Created with Sketch.</desc>
    <g id="Page-1" stroke="none" stroke-width="1" fill="none" fill-rule="evenodd" opacity="0.5">
        <g id="Landing-popup-register" transform="translate(-689.000000, -178.000000)" fill="#CDF3EF">
            <g id="bg" transform="translate(281.000000, 178.000000)">
                <path d="M119.726859,-286 C117.040796,-285.993896 115.128502,-252.772526 115.061351,-250.520126 C114.360837,-227.175132 119.726859,-208.215908 127.696531,-186.862365 C141.89146,-148.829466 176.46842,-120.402838 214.393801,-107.851356 C238.800349,-99.775679 277.464398,-103.444222 302.231123,-96.555785 C342.152738,-85.454018 384.716157,-51.593247 404.335102,-9.60491443 C430.438753,46.2610085 457.700769,105.412444 508.19418,140.811439 C551.752664,171.347021 586.033547,183.237738 641.113105,179.256362 C699.800535,175.015564 747.412533,149.373915 747.412533,149.373915 C909.167224,39.3186652 1014.36305,-105.805973 1063,-286 C991.499714,-286 886.303383,-286 747.411006,-286 L119.726859,-286 Z" id="Fill-1"></path>
            </g>
        </g>
    </g>
</svg>