<svg xmlns="http://www.w3.org/2000/svg" xmlns:xlink="http://www.w3.org/1999/xlink" width="603" height="549" viewBox="0 0 603 549">
    <defs>
        <path id="a" d="M.06.242h101.917v143.513H.06z"/>
    </defs>
    <g fill="none" fill-rule="evenodd">
        <path fill="#CDF3EF" d="M271.68 501.077c123.585 15.226 162.229 17.6 273.174-16.166C655.8 451.146 497 285.426 318.308 260.312 139.618 235.2-13.45 271.663 26.288 354.845 66.026 438.026 148.095 485.85 271.68 501.077z"/>
        <ellipse cx="265.536" cy="367.5" fill="#82E0D6" rx="191" ry="78.5" transform="rotate(8 265.536 367.5)"/>
        <ellipse cx="275.536" cy="362.84" fill="#19AACC" opacity=".3" rx="131" ry="53.84" transform="rotate(8 275.536 362.84)"/>
        <path fill="#9CA7B2" d="M278.114 300.268s14.136 38.592 0 46.75l-6.834 3.946c-.005.004-.014.006-.02.006l-26.795 15.475c-3.773 2.18-3.77 5.742.005 7.919l37.638 21.734c3.771 2.18 9.912 2.126 13.647-.116l19.112-11.299c.065.03.127.06.192.092 2.196-1.365 4.248-2.653 6.096-3.81l.839-.498c.078-.049.132-.107.205-.158 3.874-2.432 6.5-4.096 6.5-4.096s11.954-8.75 11.954-39.847l-62.539-36.098z"/>
        <path fill="#E1F0FF" d="M340.662 332.407c0 31.098-11.953 39.847-11.953 39.847s-2.62 1.653-6.511 4.098c-.072.036-.139.105-.208.172l-.825.484a1782.872 1782.872 0 0 1-6.101 3.821c-.067-.033-.136-.067-.205-.103l-2.205 1.31-16.88 9.989c-3.755 2.237-9.89 2.307-13.678.1l-37.619-21.731c-3.791-2.169-3.791-5.715 0-7.92l16.916-9.781 9.852-5.684h.033c2.446-1.412 4.79-2.755 6.821-3.96 13.815-7.957.69-44.842.036-46.666v-.036h.033l62.494 36.06z"/>
        <path fill="#C1D0DC" d="M340.662 332.407c0 31.098-11.953 39.847-11.953 39.847s-2.62 1.653-6.511 4.098c-.072.036-.139.105-.208.172l-.825.484a1782.872 1782.872 0 0 1-6.101 3.821c-.067-.033-.136-.067-.205-.103l-2.205 1.31-51.26-29.343 9.85-5.684h.034c2.446-1.412 4.79-2.755 6.821-3.96 13.815-7.957.69-44.842.036-46.666l.033-.036 62.494 36.06z"/>
        <path fill="#D9E8F6" d="M166.98 1.809l-2.131 1.61c2.245-1.305 5.353-1.12 8.783.86l3.758-2.47c-3.434-1.979-6.542-2.164-8.787-.859"/>
        <path fill="#C1D0DC" d="M456.067 402.818c2.213-1.287 4.122-3.651 4.133-7.541l-4.667 2.402c-.01 3.89-1.385 6.625-3.599 7.912l4.133-2.773z"/>
        <path fill="#C1D0DC" d="M455.534 397.68l4.666-2.403.611-216.133-4.666 2.403zM443.848 160.242l3.754-2.47L177.39 1.81l-3.758 2.47z"/>
        <path fill="#D9E8F6" d="M460.811 179.144c.022-7.837-5.028-16.68-13.21-21.372l-3.754 2.47c6.814 3.934 12.321 13.468 12.3 21.304l4.664-2.402z"/>
        <path fill="#333" d="M173.632 4.279c-6.814-3.933-12.361-.779-12.386 7.058l-.611 216.13c-.023 7.83 5.491 17.369 12.304 21.304l270.213 155.963c6.817 3.93 12.36.774 12.382-7.056l.611-216.132c.023-7.835-5.484-17.371-12.297-21.304L173.632 4.28z"/>
        <path fill="#E1F0FF" d="M160.698 210.202l-.05 17.243c-.022 7.83 5.49 17.368 12.304 21.303l270.214 155.964c6.817 3.93 12.357.774 12.382-7.054l.047-17.245-294.897-170.211z"/>
        <path fill="#E8F9F7" d="M171.042 16.756l-.527 185.989 271.776 156.864.526-185.988z"/>
        <g opacity=".5">
            <path fill="#2342BE" d="M188.721 110.375l.024-8.885-7.797-4.462-.027 8.882 7.8 4.465zm.102-35.947l.025-8.885-7.798-4.464-.027 8.885 7.8 4.464zm-.05 17.98l.024-8.899-7.798-4.464-.027 8.902 7.8 4.462zm.124-43.869l.026-8.904-7.8-4.462-.024 8.9 7.798 4.466zm-.227 79.816l.024-8.9-7.798-4.466-.026 8.904 7.8 4.462zm3.209-81.556l-.008 3.442 21.592 12.356.01-3.437-21.594-12.36zm34.349 17.635l.01-3.442-34.342-19.653-.01 3.44 34.342 19.655zm-.132 46.603l.01-3.44-34.342-19.655-.01 3.44 34.342 19.655zm.051-17.964l.01-3.439-34.342-19.658-.01 3.442 34.342 19.655zm-.102 35.947l.01-3.442-34.342-19.656-.01 3.44 34.342 19.658zm-.052 17.963l.01-3.44-34.341-19.655-.01 3.44 34.341 19.655zM178.005 29l51.531 29.493-.28 98.635-.017 5.462-.176 61.41-51.527-29.493.173-61.412.018-5.46.278-98.635z"/>
            <path fill="#7C56FE" d="M265.536 170.124l-.01 3.876-20.99-13.127.01-3.873zM278.536 170.555l-.01 3.445-32.99-18.555.01-3.445z"/>
            <path fill="#4B33A0" d="M241.956 120l-.005-.011a13.014 13.014 0 0 1-.196-.416c.065.145.133.285.2.428"/>
            <path fill="#4B33A0" d="M241.955 120a.04.04 0 0 0-.005-.011l.005.012zM238.633 108.266c.271 3.465 1.28 7.225 2.938 10.907-1.617-3.588-2.662-7.338-2.938-10.907M238.594 107.681l.012.208v-.002l-.007-.133a.683.683 0 0 1-.005-.073M241.956 120c3 6.206 7.648 11.855 12.865 15.047-5.256-3.212-9.898-8.839-12.865-15.046M255.44 96.738c9.301 5.361 16.801 18.35 16.772 29.004-.029 10.51-7.35 14.836-16.454 9.844 4.341 2.377 8.487 2.723 11.546.93l-11.92-20.475.057-19.303z"/>
            <path fill="#2342BE" d="M263.623 86.931l-.01 3.19-18.773-10.823.01-3.19z"/>
            <path fill="#FFF" d="M235.485 65.63l-.024 8.262 7.2 4.151.024-8.261-7.2-4.151zm9.366 10.478l-.01 3.189 18.773 10.825.008-3.192-18.771-10.822zm29.872 15.34l.007-3.194-29.867-17.218-.007 3.194 29.867 17.218zm-18.967 44.137c9.105 4.992 16.428.667 16.455-9.843.031-10.653-7.471-23.643-16.77-29.005l-.401-.227c-9.105-4.999-16.453-.667-16.482 9.832 0 .15 0 .3.003.45 0 .062.002.122.005.183l.007.26c.002.078.007.155.01.233.002.063.007.123.01.183.205 3.878 1.342 7.998 3.153 11.908 3.056 6.591 7.998 12.569 13.584 15.79.14.082.286.16.426.236zM232.326 60.1l46.882 27.026-.199 70.73-46.881-27.026.198-70.73z"/>
            <path fill="#C4B3FD" d="M244.072 95.305l11.312 20.736-13.405 3.953a2.71 2.71 0 0 1-.225-.42c-1.83-3.953-2.914-7.998-3.149-11.687l-.007-.133c-.003-.034-.005-.068-.005-.104a4.104 4.104 0 0 1-.01-.181c-.005-.102-.007-.153-.007-.206l-.01-.287c-.002-.08-.004-.13-.004-.18-.003-.156-.005-.304-.005-.456.017-5.584 2.149-9.43 5.515-11.035"/>
            <path fill="#4B33A0" d="M238.61 107.95c-.007-.099-.012-.2-.016-.3v.032l.012.208a.437.437 0 0 1 .004.06M254.743 96.355c-.128-.067-.254-.135-.382-.2.094.05.189.096.283.147.034.015.065.034.1.053M255.034 96.509c-.087-.049-.174-.095-.264-.143-.007-.005-.017-.007-.026-.01.099.049.196.102.295.155-.003 0-.003 0-.005-.002"/>
            <path fill="#7C56FE" d="M255.44 96.738l-.055 19.303-11.312-20.736c1.515-.766 3.31-1.01 5.259-.757.1.015.196.027.293.042l.072.012c1.6.256 3.265.824 4.947 1.698.041.022.085.046.129.068l.26.14c.139.077.272.152.408.23"/>
            <path fill="#4B33A0" d="M244.052 95.27c-3.132 1.539-5.2 5.004-5.465 10.022.49-9.464 7.268-13.393 15.727-9.16-1.602-.802-3.149-1.304-4.606-1.53-.034-.004-.06-.006-.085-.011a82.169 82.169 0 0 0-.292-.044c-1.949-.251-3.744-.01-5.279.723"/>
            <path fill="#C4B3FD" d="M249.71 94.602c1.555.244 3.213.8 4.934 1.699-1.682-.875-3.347-1.445-4.935-1.699"/>
            <path fill="#7C56FE" d="M244.536 151.017L244.51 161l-7.973-5.017.028-9.983z"/>
            <path fill="#4B33A0" d="M254.538 228.34c.318.183.574.637.572.991 0 .366-.258.512-.576.328-.318-.186-.574-.624-.572-.992 0-.352.258-.514.576-.328M280.538 243.338c.318.186.574.64.572.992 0 .368-.256.514-.576.33-.318-.186-.574-.626-.572-.992 0-.354.258-.514.576-.33M284.538 245.338c.318.186.574.64.572.992 0 .368-.258.514-.576.328-.32-.184-.574-.624-.572-.992 0-.352.256-.512.576-.328M290.538 249.34c.306.176.574.638.572.992 0 .368-.27.506-.576.328-.318-.184-.574-.624-.572-.992 0-.352.258-.514.576-.328M296.538 252.34c.318.183.574.637.572.991 0 .366-.258.512-.576.328-.318-.186-.574-.624-.572-.992 0-.352.256-.514.576-.328M250.575 225.206c.382.224.688.781.688 1.212-.003.45-.31.628-.693.4-.368-.215-.69-.762-.69-1.212.002-.43.326-.618.695-.4M260.575 231.069c.383.227.691.782.689 1.212-.003.45-.31.628-.693.403-.385-.227-.691-.763-.689-1.212 0-.433.308-.628.693-.403M265.583 234.006c.368.218.674.773.674 1.203-.003.45-.31.628-.679.41-.382-.225-.69-.762-.688-1.212 0-.43.31-.625.693-.4M270.576 236.934c.383.225.691.782.689 1.212 0 .45-.31.626-.693.401-.383-.225-.69-.762-.689-1.212 0-.43.308-.626.693-.4M275.57 239.862c.383.225.688.78.688 1.212-.002.45-.31.626-.693.401-.368-.217-.69-.762-.688-1.212 0-.43.325-.618.693-.4M300.565 254.517c.383.227.689.782.689 1.212-.003.45-.31.628-.693.403-.369-.218-.691-.763-.689-1.212 0-.433.325-.618.693-.403M305.573 257.454c.382.225.69.782.688 1.212 0 .45-.308.628-.693.401-.383-.225-.69-.762-.688-1.212 0-.43.31-.626.693-.4M310.566 260.382c.383.225.69.782.688 1.212 0 .45-.31.626-.693.401-.385-.225-.69-.762-.688-1.212 0-.43.308-.626.693-.4M315.574 263.32c.368.215.69.78.688 1.21 0 .45-.325.618-.693.403-.383-.228-.69-.763-.688-1.212.002-.433.31-.628.693-.401M247.921 177.393l-.12 43.152 75.265 44.13-.002.575-75.756-44.42.123-43.725z"/>
            <path fill="#1EA9CA" d="M264.603 187.695l16.784 18.676 15.2.707 15.304 18.866 10.996 3.16-.031 10.525-10.992-3.16-15.306-18.87-15.2-.686-16.784-18.693-14.466 6.33-.041 14.665 72.729 42.645-72.73-42.645.07-25.189z"/>
            <path fill="#0DC0AD" d="M296.15 231.084l26.386 23.695-.019 7.221-72.98-43.495.007-2.505 17.88 6.662 8.45-2.051 10.156 13.452z"/>
            <path fill="#7C56FE" d="M264.086 198l16.832 18.799 15.244.693 15.348 18.973 11.026 3.178-.043 15.236-26.372-23.36-10.114 2.936-10.15-13.262-8.446 2.022-17.867-6.568-.008 2.47L322.474 262l-72.938-42.884.039-14.746z"/>
            <path fill="#4B33A0" d="M319.538 266.338c.318.186.574.64.572.992 0 .368-.256.514-.576.33-.318-.186-.574-.626-.572-.992 0-.354.258-.514.576-.33M243.537 216.34c.32.185.574.625.574.993-.002.366-.258.512-.576.328-.32-.186-.576-.624-.574-.992 0-.368.258-.514.576-.328M243.537 211.34c.32.184.574.624.574.992-.002.368-.258.512-.578.328-.318-.184-.574-.624-.572-.992 0-.368.256-.512.576-.328M243.537 205.34c.32.183.574.637.574.991-.002.366-.258.512-.578.328-.32-.184-.574-.624-.572-.992 0-.352.256-.514.576-.328M243.538 199.34c.32.184.574.624.572.992 0 .368-.256.514-.576.328-.32-.184-.574-.624-.572-.992 0-.368.256-.512.576-.328M243.54 193.34c.317.186.573.624.571.992 0 .354-.256.514-.576.33-.32-.186-.574-.64-.574-.992.002-.368.258-.514.578-.33M243.537 188.34c.32.185.574.623.574.991-.002.368-.258.514-.576.328-.32-.184-.576-.624-.574-.992 0-.366.258-.512.576-.328M243.537 183.339c.32.186.574.626.574.992-.002.368-.258.514-.578.33-.32-.186-.574-.624-.572-.992 0-.368.256-.514.576-.33M243.537 176.338c.32.186.574.64.574.992-.002.368-.258.514-.578.328-.32-.184-.574-.624-.572-.992 0-.352.256-.512.576-.328M293.536 150c3.03 6.6 7.727 12.605 13 16-5.31-3.415-10-9.4-13-16M292.618 150.178c-.056-.12-.112-.236-.166-.356.054.12.112.236.168.356h-.002zM290.543 134.816"/>
            <path fill="#FFF" d="M305.769 146l11.767 19.896c-3.024 1.744-7.116 1.406-11.402-.902-.138-.075-.28-.155-.42-.235-5.354-3.038-10.146-8.686-13.178-14.917L305.77 146z"/>
            <g>
                <path fill="#4B33A0" d="M290.148 136.214l.007.135.004.054c-.007-.098-.011-.196-.018-.295l.007.106"/>
                <path fill="#C4B3FD" d="M295.367 123.567l10.789 21.065-12.783 4.016a2.758 2.758 0 0 1-.217-.43c-1.744-4.013-2.778-8.124-3.002-11.87l-.007-.135-.007-.105-.007-.185a4.8 4.8 0 0 1-.007-.21l-.009-.29-.004-.184c-.003-.16-.003-.31-.003-.462.016-5.672 2.047-9.58 5.257-11.21"/>
                <path fill="#4B33A0" d="M290.125 135.713l.007.16c0 .017 0 .034.002.051-.004-.078-.006-.16-.009-.24v.03zM290.116 134.258"/>
                <path fill="#C4B3FD" d="M300.742 122.853c1.484.245 3.065.812 4.705 1.723-1.603-.888-3.191-1.465-4.705-1.723"/>
                <path fill="#4B33A0" d="M305.545 124.632c-.125-.07-.245-.138-.367-.202.09.05.18.096.27.148.032.017.064.034.097.054"/>
            </g>
            <path fill="#4B33A0" d="M307.653 125.063c-.072-.042-.144-.078-.216-.118-.008-.004-.016-.006-.022-.01l.242.13-.004-.002"/>
            <path fill="#7C56FE" d="M307.536 124.222L307.485 143l-10.949-20.17c1.466-.746 3.204-.984 5.092-.735.093.012.187.024.28.04a.72.72 0 0 1 .071.01c1.548.251 3.16.801 4.787 1.652l.124.068.253.136c.133.075.262.146.393.221"/>
            <path fill="#4B33A0" d="M295.099 123.844c-3.187 1.56-5.292 5.072-5.563 10.156.498-9.59 7.397-13.57 16-9.282-1.63-.81-3.203-1.322-4.683-1.547-.037-.008-.061-.01-.086-.013a6.145 6.145 0 0 0-.296-.044c-1.984-.257-3.811-.012-5.372.73"/>
            <g fill="#4B33A0">
                <path d="M309.053 126.555c8.869 5.353 16.02 18.313 15.993 28.946-.028 10.486-7.009 14.801-15.69 9.823 4.14 2.37 8.093 2.717 11.012.925l-11.366-20.429.051-19.265z"/>
            </g>
            <path fill="#4B33A0" d="M290.536 138c.185 3.494.872 7.287 2 11-1.1-3.62-1.812-7.402-2-11"/>
            <path fill="#1EA9CA" d="M287.89 95.431l-.024 8.113 7.204 4.086.022-8.113-7.202-4.086zm9.347 10.291l-.01 3.132 18.743 10.628.008-3.135-18.741-10.625zm29.823 15.062l.01-3.134-29.818-16.908-.01 3.134 29.818 16.908zm-18.934 43.346c9.089 4.9 16.397.653 16.426-9.667.031-10.463-7.458-23.217-16.743-28.485-.135-.076-.268-.147-.4-.22-9.087-4.912-16.424-.658-16.451 9.654 0 .145 0 .292.002.44 0 .061.003.12.003.182.002.083.005.171.01.254.002.078.004.154.01.23l.006.18c.206 3.806 1.344 7.852 3.15 11.694 3.052 6.47 7.986 12.34 13.56 15.503.144.08.284.16.427.235zM284.736 90l46.8 26.54-.2 69.46-46.8-26.54.2-69.46zM255.769 115l11.767 19.897c-3.022 1.742-7.114 1.406-11.4-.904-.138-.075-.281-.153-.42-.233-5.356-3.038-10.146-8.687-13.18-14.919L255.77 115z"/>
            <path fill="#FFF" d="M265.512 236.031c.37.215.679.039.681-.406 0-.426-.306-.975-.676-1.19-.384-.223-.696-.03-.696.396-.002.445.307.978.691 1.2zm5.012 2.898c.384.223.695.048.695-.397.003-.425-.307-.977-.69-1.2-.387-.222-.696-.029-.696.397-.003.445.307.977.69 1.2zm-26.4-20.012c.386.223.696.044.696-.397.002-.445-.307-.98-.691-1.2-.387-.224-.696-.048-.698.397 0 .443.307.975.693 1.2zM290.6 250.54c.37.215.696.048.696-.397.002-.428-.321-.987-.69-1.2-.387-.224-.696-.029-.696.397-.003.445.306.977.69 1.2zm-30.114-17.414c.384.222.694.043.696-.4 0-.425-.307-.976-.69-1.199-.387-.223-.696-.029-.696.4-.003.44.304.974.69 1.199zm-5.011-2.898c.384.22.696.044.696-.397.002-.428-.307-.98-.691-1.202-.384-.222-.696-.026-.696.397-.002.445.307.977.691 1.202zm-5.026-2.91c.384.225.693.048.696-.397 0-.423-.307-.977-.691-1.2-.372-.215-.696-.026-.698.397 0 .445.321.99.693 1.2zm55.2 31.925c.386.223.695.046.695-.396.003-.426-.306-.98-.69-1.2-.384-.223-.696-.03-.696.397-.002.442.307.977.69 1.2zm-20.075-11.61c.385.224.696.045.696-.397.002-.426-.307-.975-.69-1.2-.39-.223-.696-.03-.696.397-.003.442.302.977.69 1.2zm-5.013-2.896c.389.22.698.043.698-.4.002-.425-.307-.976-.693-1.199-.384-.223-.696-.029-.696.4-.002.44.307.974.69 1.199zm-5.026-2.91c.386.222.693.048.695-.397 0-.426-.304-.977-.69-1.2-.37-.215-.696-.026-.698.397 0 .445.323.987.693 1.2zm45.165 26.12c.384.222.695.046.695-.4.003-.423-.306-.974-.69-1.2-.387-.222-.698-.028-.698.4-.003.443.306.977.693 1.2zm-25.088-14.51c.384.223.695.047.695-.396.003-.428-.306-.977-.69-1.2-.387-.225-.696-.029-.696.397-.002.445.307.977.69 1.2zm20.074 11.612c.372.213.696.046.696-.4.002-.425-.32-.984-.691-1.197-.384-.225-.693-.031-.696.397-.002.445.307.975.691 1.2zm-71.547-51.901c.386.222.695.048.698-.397 0-.445-.307-.977-.694-1.2-.384-.222-.693-.048-.695.397 0 .445.307.977.69 1.2zm56.484 43.19c.384.22.693.044.696-.401 0-.424-.307-.975-.691-1.2-.37-.21-.696-.027-.696.399-.002.443.322.987.691 1.202zm-56.385-77.851c.386.225.695.046.695-.397.003-.426-.304-.975-.69-1.2-.387-.222-.696-.029-.696.397-.003.442.304.977.69 1.2zm-.017 5.788c.386.22.695.044.698-.401 0-.44-.307-.975-.694-1.2-.386-.22-.695-.044-.695.399-.002.443.304.977.69 1.202zm-.032 11.553c.387.223.693.03.696-.4 0-.444-.307-.974-.69-1.199-.387-.222-.696-.046-.699.4 0 .425.307.974.693 1.2zm-.017 5.767c.387.222.696.046.696-.397.002-.445-.304-.98-.69-1.2-.387-.222-.696-.048-.699.397 0 .443.307.977.693 1.2zm-.017 5.767c.387.222.696.046.698-.397 0-.426-.306-.977-.693-1.2-.384-.222-.693-.026-.695.397 0 .445.306.98.69 1.2zm66.505 54.78c.387.222.696.045.696-.397.002-.426-.307-.978-.691-1.2-.386-.223-.696-.03-.696.397-.002.442.305.977.691 1.2zm-66.454-72.102c.384.224.693.048.696-.397 0-.443-.307-.975-.693-1.2-.384-.223-.694-.044-.696.397 0 .445.307.98.693 1.2zm-7.74-43.297l-.027 8.909 7.74 4.475.027-8.91-7.74-4.474zm10.054 11.289l-.01 3.442 20.154 11.655.007-3.445-20.151-11.652zm.014-5.467l-.01 3.442 32.059 18.54.01-3.443-32.059-18.539zm50.102 55.21l-15.259-.699-16.843-18.485-14.52 6.267-.07 24.935 72.995 42.213.019-7.008.043-14.997.03-10.419-11.035-3.128-15.36-18.679zm26.573 57.588l.003-.568-75.543-43.686.121-42.717-.493-.285-.123 43.285 76.035 43.971zm-28.476-88.536l36.803 21.287-.239 84.886-36.806-21.287-61.955-35.827.24-84.886 51.021 29.506 10.936 6.321z"/>
            <path fill="#2342BE" d="M419.54 300.046c3.02-.792 5.414-2.547 6.996-5.046l-.103 37-.29-.165c-5.27-3.794-9.67-12.913-11.895-18.018a47.827 47.827 0 0 1-2.155-6.114c-.711-2.563-1.183-5.067-1.557-7.542 3.302.583 6.36.578 9.004-.115"/>
            <g>
                <path fill="#2342BE" d="M360.35 249.449c6.4 8.942 9.168 18.668 15.72 27.51-1.992 7.442-5.44 14.282-14.384 10.292-.465-.208-.92-.442-1.371-.701-9.923-5.72-16.592-23.623-18.49-35.212-.036 13.788-.084 30.078-.087 31.278l.063-49.215c.848.407 1.704.86 2.557 1.353 5.852 3.37 11.697 8.68 15.993 14.695M344.993 211.027l-.024 8.894-7.767-4.478.025-8.894zM367.535 229.482l-.01 3.443-20.221-11.66.01-3.44z"/>
                <path fill="#4B33A0" d="M342.693 169.204c.23 2.267.766 4.645 1.582 7.033-.807-2.35-1.35-4.725-1.582-7.033M342.64 168.64c-.007-.105-.016-.209-.021-.313.005.104.014.208.022.312M342.596 167.968l.019.312c-.002-.02-.002-.04-.005-.06l-.007-.138-.007-.119v.005zM342.586 167.758c0 .02 0 .038.003.055l-.008-.152c.003.034.003.063.005.097"/>
                <path fill="#C4B3FD" d="M348.072 155.62l11.34 20.764-13.432 3.948a31.958 31.958 0 0 1-1.575-3.72c-.017-.044-.029-.086-.043-.13a4.228 4.228 0 0 1-.085-.246c-.817-2.388-1.355-4.766-1.585-7.03-.034-.337-.06-.663-.082-.985l-.008-.14-.007-.117-.007-.15-.01-.227a19.135 19.135 0 0 1-.01-.276c0-.085 0-.135-.002-.184-.002-.157-.002-.307-.002-.457.014-5.589 2.142-9.44 5.508-11.05"/>
                <path fill="#4B33A0" d="M342.617 168.327l-.022-.358.02.31a.324.324 0 0 1 .002.048M342.58 167.588l.002.072a1.645 1.645 0 0 0-.003-.072"/>
                <path fill="#2342BE" d="M379.495 230.916l-.01 3.426-32.163-18.542.01-3.426z"/>
                <path fill="#4B33A0" d="M345.956 180.339c3.097 6.414 7.958 12.24 13.398 15.375-5.479-3.16-10.335-8.961-13.398-15.375"/>
                <path fill="#1EA9CA" d="M393.223 260.556c3.598 2.073 7.175 5.383 9.608 9.237 6.855 10.875 6.804 20.206 8.285 29.968.375 2.497.852 5.023 1.572 7.612a48.161 48.161 0 0 0 2.186 6.164c2.246 5.15 6.7 14.35 12.034 18.177.327.234.656.45.99.64-.651-.374-81.884-47.203-86.159-49.668l.088-31.348c1.894 11.589 8.563 29.492 18.489 35.211.448.262.906.494 1.369.702 8.946 3.992 12.394-2.85 14.386-10.292 1.045-3.9 1.69-7.965 2.518-10.72 1.267-4.215 3.325-8.378 8.159-7.955 1.984.167 4.233.98 6.475 2.272"/>
                <path fill="#4B33A0" d="M369.017 197.79c-2.632.597-5.806.043-9.237-1.837 3.322 1.817 6.532 2.444 9.237 1.836M353.335 154.853c-1.808-.235-3.47-.036-4.937.569 2.773-1.166 6.34-.857 10.253 1.188a6.77 6.77 0 0 0-.296-.15.587.587 0 0 0-.087-.044c-.121-.063-.24-.119-.358-.177-1.2-.558-2.346-.95-3.444-1.188-.38-.082-.76-.147-1.131-.198"/>
                <path fill="#2342BE" d="M367.658 147.233l-.007 3.196-18.8-10.836.01-3.196z"/>
                <path fill="#FFF" d="M339.486 125.908l-.024 8.272 7.209 4.156.024-8.271-7.209-4.157zm9.376 10.49l-.01 3.194 18.799 10.839.007-3.199-18.796-10.833zm29.895 15.351l.01-3.198-29.89-17.23-.01 3.198 29.89 17.23zm-7.41 45.136c3.011-1.766 4.88-5.497 4.897-10.798.029-10.667-7.48-23.673-16.779-29.032-.138-.077-.27-.155-.407-.23a13.75 13.75 0 0 0-.324-.172c-3.984-2.085-7.558-2.4-10.335-1.231-.119.05-.235.1-.352.155-3.358 1.606-5.469 5.465-5.483 11.095 0 .147 0 .3.002.447l.002.192.008.246c.005.087.007.172.012.257l.007.15c.14 2.69.73 5.499 1.682 8.274a39.362 39.362 0 0 0 1.672 4.103c3.07 6.412 7.924 12.213 13.405 15.375.143.08.284.16.426.237 3.43 1.88 6.606 2.434 9.238 1.837a8.203 8.203 0 0 0 2.328-.905zm-35.023-76.515l46.925 27.051-.2 70.822-46.926-27.05.2-70.823z"/>
                <path fill="#1EA9CA" d="M371.343 196.878a7.942 7.942 0 0 1-2.326.912c-2.705.607-5.916-.02-9.235-1.837a24.11 24.11 0 0 1-.427-.237c-5.44-3.138-10.3-8.963-13.376-15.384l13.432-3.949 11.932 20.495z"/>
                <path fill="#4B33A0" d="M348.072 155.62c-3.366 1.61-5.494 5.461-5.508 11.05.014-5.627 2.125-9.486 5.486-11.09l.022.04z"/>
                <path fill="#C4B3FD" d="M354.466 155.051a16.13 16.13 0 0 1 3.421 1.181 16.484 16.484 0 0 0-3.421-1.18"/>
                <path fill="#7C56FE" d="M359.466 157.055l-.053 19.328-11.34-20.763c.091-.099.207-.147.326-.198 1.466-.605 3.129-.803 4.936-.569.371.049.749.116 1.132.199 1.112.242 2.258.638 3.421 1.18l.38.182c.03.014.06.029.088.046.102.048.201.099.3.15l.078.043c.036.017.07.037.104.054l.218.116c.139.077.272.155.41.232"/>
                <path fill="#4B33A0" d="M358.839 156.708c-.037-.02-.068-.039-.104-.053.109.055.218.11.324.171l-.002-.002c-.073-.041-.148-.078-.218-.116"/>
                <path fill="#2342BE" d="M346.694 130.064l-.024 8.272-7.206-4.157.021-8.271z"/>
                <path fill="#4B33A0" d="M359.466 157.055c9.298 5.359 16.807 18.365 16.778 29.032-.017 5.301-1.885 9.032-4.902 10.79l-11.93-20.494.054-19.328zM398.443 210.602c-.068-.145-.138-.285-.204-.43.066.145.136.285.204.43M395.076 198.234l.004.104.008.135c.002.012.002.022.005.036v.02c-.005-.1-.013-.196-.017-.295"/>
                <path fill="#C4B3FD" d="M400.56 185.872l11.33 20.765-13.423 3.959a2.868 2.868 0 0 1-.228-.424c-1.832-3.958-2.917-8.008-3.15-11.7a2.545 2.545 0 0 1-.01-.135l-.004-.104a4.202 4.202 0 0 1-.01-.18l-.007-.207a6.686 6.686 0 0 1-.008-.288c-.002-.08-.004-.131-.004-.18-.003-.157-.005-.304-.005-.454.017-5.591 2.15-9.443 5.52-11.052"/>
                <path fill="#4B33A0" d="M398.443 210.602c3.005 6.21 7.657 11.867 12.88 15.063-5.26-3.215-9.91-8.85-12.88-15.063M420.43 228.225c-2.404.25-5.191-.387-8.17-2.018 2.896 1.585 5.705 2.267 8.17 2.018"/>
                <g transform="translate(333.536 199.839)">
                    <mask id="b" fill="#fff">
                        <use xlink:href="#a"/>
                    </mask>
                    <path fill="#FFF" d="M3.69 6.711l-.024 8.894 7.766 4.476.024-8.891L3.69 6.71zm10.088 11.275l-.01 3.442L33.99 33.085l.01-3.44-20.222-11.66zm.017-5.451l-.01 3.426 32.163 18.542.01-3.426-32.163-18.542zm-5.67 70.197c4.351 2.58 85.584 49.41 86.236 49.783a11.436 11.436 0 0 1-.988-.64l.293.169.104-37.329c-1.602 2.524-4.025 4.292-7.08 5.09-2.676.702-5.77.707-9.112.117-1.478-9.762-1.43-19.091-8.285-29.966-2.433-3.857-6.007-7.164-9.608-9.24-2.239-1.292-4.488-2.105-6.472-2.272-4.837-.423-6.892 3.743-8.161 7.955-.827 2.758-1.474 6.82-2.518 10.723-6.552-8.845-9.32-18.569-15.72-27.513-4.296-6.015-10.14-11.323-15.993-14.695a37.278 37.278 0 0 0-2.556-1.35l-.14 49.168zm54.958-46.299l38.894 22.423-.24 84.9-38.894-22.423-11.588-6.68L.06 85.143.3.242l51.195 29.51 11.588 6.68z" mask="url(#b)"/>
                </g>
                <path fill="#7C56FE" d="M411.943 187.306l-.053 19.331-11.328-20.765c1.516-.767 3.314-1.012 5.268-.758.096.015.193.027.293.042l.07.012c1.602.258 3.271.825 4.955 1.7.04.025.083.046.126.07.088.044.175.093.265.14.138.076.269.15.404.228"/>
                <path fill="#1EA9CA" d="M391.978 156.169l-.022 8.272 7.21 4.156.024-8.272-7.212-4.156zm9.36 10.48l-.009 3.197 18.814 10.846.01-3.196-18.814-10.846zm29.913 15.361l.01-3.198-29.908-17.238-.007 3.196 29.905 17.24zm-7.413 45.136c3.015-1.767 4.883-5.495 4.9-10.798.03-10.667-7.48-23.673-16.795-29.042a21.578 21.578 0 0 0-.402-.227c-9.114-5.006-16.47-.668-16.5 9.846 0 .148.002.298.005.448 0 .063.002.123.005.184 0 .09.002.174.007.261 0 .078.002.155.007.235.003.06.005.12.01.181.203 3.883 1.345 8.008 3.16 11.923 3.058 6.6 8.008 12.588 13.599 15.81.143.083.286.162.426.24 2.98 1.63 5.765 2.267 8.169 2.018.05-.005.097-.01.145-.017 1.217-.148 2.295-.499 3.264-1.062zm-35.02-76.515l46.925 27.05-.2 70.825-46.926-27.053.201-70.822z"/>
                <path fill="#4B33A0" d="M395.116 198.85c.271 3.47 1.282 7.232 2.94 10.919-1.617-3.595-2.664-7.345-2.94-10.919M395.092 198.531l.017.223-.017-.223M395.092 198.529v.002-.021zM395.064 198.004l.002.051c-.005-.082-.007-.16-.01-.237v.03l.008.156M395.047 196.412c-.002.17-.007.341-.007.513 0-.172.002-.344.007-.513"/>
                <path fill="#FFF" d="M423.834 227.136c-.964.573-2.045.924-3.2 1.064a4.286 4.286 0 0 0-.061.008c-.046.007-.095.012-.143.017-2.465.249-5.273-.433-8.169-2.018a14.754 14.754 0 0 1-.426-.24c-5.43-3.13-10.292-8.951-13.37-15.372l13.423-3.958 11.946 20.499z"/>
                <path fill="#2342BE" d="M378.766 148.552l-.01 3.196-29.89-17.23.01-3.197z"/>
                <path fill="#C4B3FD" d="M406.205 185.17c1.558.242 3.218.799 4.943 1.699-1.684-.876-3.354-1.444-4.943-1.698"/>
                <path fill="#4B33A0" d="M400.542 185.837c-3.136 1.54-5.208 5.01-5.474 10.038.49-9.48 7.28-13.413 15.748-9.174-1.606-.801-3.155-1.307-4.611-1.53l-.082-.014-.294-.044c-1.953-.251-3.75-.01-5.287.724M411.248 186.924c-.129-.068-.257-.136-.386-.199.095.049.19.095.286.145.034.017.066.034.1.054M411.274 186.938h.002l-.01-.005.008.005"/>
                <path fill="#4B33A0" d="M411.276 186.938l-.01-.005c-.007-.002-.014-.007-.02-.01.098.054.197.104.294.158 0 0-.002 0-.002-.003-.088-.048-.175-.092-.262-.14M411.943 187.306c9.315 5.369 16.822 18.375 16.796 29.042-.017 5.303-1.888 9.032-4.905 10.788l-11.944-20.499.053-19.33z"/>
            </g>
            <path fill="#2342BE" d="M242.536 69.348L242.513 78l-6.977-4.348.024-8.652zM274.536 87.716l-.01 3.284-30.99-17.716.01-3.284z"/>
            <path fill="#4B33A0" d="M236.534 105.946v.024l.004.084c-.002-.038-.004-.072-.004-.108"/>
            <path fill="#4B33A0" d="M236.536 106.001c0 .014 0 .028.002.042l-.004-.086c.002.014.002.03.002.044M236.543 103.816"/>
        </g>
        <g>
            <path fill="#2342BE" d="M344.536 544l-97-55.838V384l97 55.84z"/>
            <path fill="#1EA9CA" d="M421.536 396l-77 44.38V544l77-44.127z"/>
            <path fill="#FFF" d="M354.97 448.296v30.237l22.135-12.758v-30.31l-22.134 12.831zM353.537 481v-33.527l.36-.214L378.536 433v33.595l-.356.215L353.536 481z" opacity=".5"/>
            <path fill="#FFF" d="M369.785 452.237l-.06 15.652-7.498 4.111.059-15.65-3.75 2.055L366.082 443l7.454 7.182z" opacity=".5"/>
            <path fill="#0DC0AD" d="M421.536 395.607L344.981 440l-45.275-26.103-14.677-8.438-36.493-21.064L325.092 340l36.549 21.064 14.732 8.494z"/>
            <path fill="#FFF" d="M299.158 414l-14.622-8.464L360.86 361l14.677 8.52z" opacity=".5"/>
            <path fill="#FFF" d="M284.608 405l-.072 35.137 3.07-8.22 3.224 11.626 4.363-7.522L299.076 448l.46-34.515zM394.536 426l-7 3.95V439l7-3.928zM404.536 420l-7 3.95V433l7-3.929zM414.536 415l-7 3.95V428l7-3.927z" opacity=".5"/>
            <path fill="#2342BE" d="M368.536 424l-66-38.389V314l66 38.389z"/>
            <path fill="#1EA9CA" d="M421.536 322l-53 30.585V424l53-30.41z"/>
            <path fill="#FFF" d="M375.508 358.526v20.763l15.056-8.758v-20.819l-15.056 8.814zM374.536 381v-23.045l.24-.143 16.76-9.812v23.1l-.248.144L374.536 381z" opacity=".5"/>
            <path fill="#FFF" d="M386.036 360.37l-.04 10.794-5.001 2.836.041-10.794-2.5 1.417 5.03-10.623 4.97 4.952z" opacity=".5"/>
            <path fill="#0DC0AD" d="M421.536 321.37L368.876 352l-31.144-18.012-10.096-5.82-25.1-14.534L355.194 283l25.142 14.536 10.136 5.86z"/>
            <path fill="#FFF" d="M337.659 334l-10.123-5.748L380.374 298l10.162 5.787zM327.585 329l-.049 23.697 2.048-5.54 2.15 7.837 2.91-5.073 2.585 8.079.307-23.278zM403.536 343l-5 2.736V352l5-2.719zM410.536 339l-5 2.736V348l5-2.719zM416.536 335l-5 2.736V344l5-2.72z" opacity=".5"/>
            <path fill="#2342BE" d="M489.536 548l-77-43.972V422l77 43.973z"/>
            <path fill="#1EA9CA" d="M550.536 431l-61 35.383V549l61-35.183z"/>
            <path fill="#FFF" d="M496.676 473.1v23.934l17.723-10.085v-23.988l-17.723 10.14zm-1.14 25.9v-26.543l20-11.457v26.593l-20 11.407z" opacity=".5"/>
            <path fill="#FFF" d="M508.537 475.327l-.048 12.412-6.002 3.261.05-12.413-3 1.629L505.57 468l5.965 5.696z" opacity=".5"/>
            <path fill="#0DC0AD" d="M549.536 430.929L488.912 466l-35.854-20.622-11.622-6.666-28.9-16.642L473.162 387l28.942 16.64 11.668 6.711z"/>
            <path fill="#FFF" d="M454.106 446l-11.57-6.708L502.924 404l11.612 6.753zM441.592 439l-.056 27.784 2.453-6.5 2.581 9.19 3.49-5.944 3.106 9.47.37-27.29zM529.536 455l-6 3.342V466l6-3.322zM537.536 450l-6 3.342V461l6-3.322zM544.536 446l-6 3.341V457l6-3.323z" opacity=".5"/>
        </g>
    </g>
</svg>
