<svg xmlns="http://www.w3.org/2000/svg" xmlns:xlink="http://www.w3.org/1999/xlink" width="406" height="444" viewBox="0 0 406 444">
    <defs>
        <path id="a" d="M39.892 1.122l.7 37.071a7.597 7.597 0 0 1-3.958 6.657L2.5 64.67A3.821 3.821 0 0 0 .51 67.975a3.834 3.834 0 0 0 1.881 3.4l33.115 19.896a2.112 2.112 0 0 1 1.037 1.854 2.116 2.116 0 0 1-1.086 1.828l-13.804 9.542a1.046 1.046 0 0 0-.265 1.458 1.04 1.04 0 0 0 1.456.266l13.727-9.49c1.246-.697 2.045-2.055 2.067-3.574a4.186 4.186 0 0 0-2.054-3.683L3.471 69.578a1.76 1.76 0 0 1-.864-1.56 1.75 1.75 0 0 1 .922-1.52l34.135-19.821a9.693 9.693 0 0 0 5.026-8.504l-.7-37.094c-.013-.576-.438-.981-1.07-1.026-.58.009-1.04.49-1.028 1.07"/>
        <path id="b" d="M.05.202h85.096v119.913H.05z"/>
    </defs>
    <g fill="none" fill-rule="evenodd">
        <g opacity=".7">
            <path fill="#442D5D" d="M196.098 432.741c2.603-16.298 36.36-33.578 54.452-28.48 2.733.768 5.301 2.583 7.087 3.677 6.034 3.691 5.492 10.278-1.578 14.366l-30.41 17.585c-7.069 4.09-17.764 4.533-23.888.992l-1.654-.956c-3.257-1.883-4.564-4.515-4.009-7.184"/>
            <path fill="#2F302F" d="M195.925 430.248c.096 2.158 1.455 4.208 4.127 5.754l1.654.956c6.124 3.54 16.819 3.096 23.888-.992l30.41-17.585c3.758-2.173 5.735-4.94 5.844-7.584h.001l-.001 2.59c-.064 2.675-2.041 5.479-5.844 7.679l-30.41 17.587c-7.07 4.086-17.764 4.531-23.888.99l-1.654-.956c-2.712-1.568-4.067-3.654-4.129-5.848l-.003-2.59h.005z"/>
            <path fill="#C4B3FD" d="M195.925 429.725c.013.272-.732 3.885 5.786 7.233 6.128 3.54 16.832 3.096 23.906-.992l30.434-17.585c3.481-2.012 5.433-4.534 5.791-6.996-.114 2.645-2.084 5.406-5.838 7.579l-30.41 17.585c-7.07 4.088-17.764 4.531-23.888.99l-1.654-.956c-2.712-1.566-4.067-3.652-4.129-5.846l.002-1.012z"/>
            <path fill="#FFF" d="M196.043 428.818c2.603-16.298 36.36-33.579 54.452-28.48 2.733.767 5.302 2.583 7.088 3.677 6.033 3.69 5.49 10.278-1.578 14.366l-30.41 17.585c-7.07 4.088-17.765 4.531-23.889.992l-1.654-.956c-3.257-1.885-4.564-4.515-4.009-7.184"/>
            <path fill="#C1D0DC" d="M196.043 428.818c2.603-16.298 36.36-33.579 54.452-28.48 1.811.508 3.547 1.477 5.032 2.391-7.318.598-21.533 2.783-36.065 12.328-10.296 6.763-16.868 14.672-20.67 20.094-2.32-1.785-3.226-4.045-2.749-6.333"/>
        </g>
        <path fill="#9CA7B2" d="M2.213 325.029C.27 326.15.26 327.97 2.19 329.093l140.552 81.67c1.932 1.121 5.072 1.121 7.017 0l57.325-33.094c1.945-1.121 1.956-2.941.024-4.064l-140.55-81.67c-1.933-1.121-5.073-1.121-7.02 0L2.214 325.029z"/>
        <path fill="#E1F0FF" d="M2.213 322.665C.27 323.788.26 325.608 2.19 326.73l140.552 81.67c1.932 1.123 5.072 1.123 7.017 0l57.325-33.093c1.945-1.122 1.956-2.94.024-4.065l-140.55-81.67c-1.933-1.12-5.073-1.12-7.02 0L2.214 322.666z"/>
        <path fill="#A7B3BF" d="M156.649 353.574c-.463.266-.465.702-.006.968l7.328 4.259c.46.266 1.209.266 1.67 0l3.8-2.194c.462-.268.465-.702.006-.968l-7.328-4.257c-.46-.268-1.208-.268-1.67-.002l-3.8 2.194z"/>
        <path fill="#E1F0FF" d="M169.198 356.066l-7.33-4.258c-.305-.177-.862-.177-1.172 0l-3.8 2.194a.433.433 0 0 0-.08.058.614.614 0 0 0 .076.055l7.328 4.255c.306.18.866.18 1.172 0l3.8-2.192a.377.377 0 0 0 .08-.058.438.438 0 0 0-.074-.054m-5.476 3.162l-7.327-4.256c-.377-.22-.59-.552-.59-.914 0-.363.217-.694.595-.913l3.799-2.194c.62-.356 1.554-.356 2.169.002l7.326 4.258c.376.217.593.55.591.91 0 .363-.219.696-.597.915l-3.798 2.192c-.31.18-.699.267-1.086.267a2.18 2.18 0 0 1-1.082-.267"/>
        <path fill="#A7B3BF" d="M166.743 359.44c-.462.266-.465.701-.006.967l7.33 4.26c.46.266 1.206.266 1.67 0l3.798-2.194c.463-.268.467-.702.005-.968l-7.327-4.26c-.458-.265-1.209-.265-1.67 0l-3.8 2.195z"/>
        <path fill="#E1F0FF" d="M179.292 361.934l-7.328-4.258c-.306-.179-.863-.177-1.172 0l-3.8 2.192a.433.433 0 0 0-.08.058c.016.013.041.033.074.054l7.33 4.256c.305.18.866.178 1.172 0l3.8-2.192a.433.433 0 0 0 .08-.058.406.406 0 0 0-.076-.052m-5.474 3.16l-7.328-4.258c-.376-.219-.591-.55-.59-.91 0-.365.218-.696.596-.915l3.798-2.194c.62-.356 1.552-.356 2.17.002l7.325 4.258c.376.217.592.55.592.911 0 .362-.22.695-.597.914l-3.8 2.193c-.31.18-.697.268-1.084.268-.387 0-.774-.088-1.082-.27"/>
        <path fill="#A7B3BF" d="M176.838 365.306c-.463.267-.465.701-.005.967l7.327 4.26c.46.266 1.209.266 1.672 0l3.798-2.194c.464-.268.465-.702.006-.968l-7.328-4.26c-.458-.265-1.208-.265-1.67 0l-3.8 2.195z"/>
        <path fill="#E1F0FF" d="M189.387 367.798l-7.328-4.258c-.305-.177-.864-.177-1.174 0l-3.8 2.194a.478.478 0 0 0-.078.058c.016.014.04.033.074.054l7.328 4.256c.308.177.867.18 1.174 0l3.8-2.192a.433.433 0 0 0 .08-.058c-.018-.014-.04-.032-.076-.054m-5.475 3.161l-7.328-4.257c-.375-.22-.59-.55-.588-.91 0-.364.217-.696.595-.915l3.799-2.194c.618-.356 1.552-.355 2.169.002l7.324 4.257c.376.217.593.55.591.912 0 .362-.219.694-.595.913l-3.8 2.194c-.31.18-.697.266-1.084.266-.389 0-.774-.089-1.083-.268"/>
        <path fill="#A7B3BF" d="M186.934 371.172c-.463.265-.467.701-.008.967l7.33 4.26c.46.266 1.207.266 1.67 0l3.798-2.194c.463-.268.467-.702.007-.968l-7.33-4.26c-.457-.265-1.207-.265-1.667 0l-3.8 2.195z"/>
        <path fill="#E1F0FF" d="M199.481 373.664l-7.328-4.258c-.306-.177-.864-.177-1.172 0l-3.8 2.194a.433.433 0 0 0-.08.058c.016.013.042.033.076.052l7.328 4.258c.305.18.864.18 1.172 0l3.8-2.192a.377.377 0 0 0 .08-.058.5.5 0 0 0-.076-.054m-5.474 3.161l-7.328-4.257c-.376-.22-.59-.55-.59-.91 0-.365.218-.696.596-.915l3.799-2.194c.62-.357 1.55-.357 2.168.002l7.326 4.257c.377.217.592.55.592.91 0 .362-.219.696-.597.915l-3.799 2.194c-.31.18-.698.266-1.085.266s-.774-.087-1.082-.268"/>
        <path fill="#A7B3BF" d="M177.396 376.677c-.463.266-.465.702-.005.968l7.328 4.257c.46.268 1.208.268 1.671 0l7.227-4.172c.463-.266.464-.7.005-.966l-7.328-4.26c-.46-.265-1.208-.265-1.671 0l-7.227 4.173z"/>
        <path fill="#E1F0FF" d="M193.373 377.191l-7.328-4.258c-.306-.177-.865-.177-1.174 0l-7.225 4.173c-.04.022-.063.042-.081.056.016.016.04.035.074.054l7.33 4.258c.303.18.864.177 1.173-.002l7.227-4.17a.433.433 0 0 0 .08-.058.517.517 0 0 0-.076-.053m-8.902 5.14l-7.33-4.26c-.376-.216-.59-.549-.59-.91.002-.362.22-.693.598-.912l7.226-4.173c.619-.356 1.55-.356 2.169.002l7.326 4.256c.376.219.591.551.591.911 0 .362-.22.697-.598.914l-7.225 4.172a2.219 2.219 0 0 1-1.085.268 2.2 2.2 0 0 1-1.082-.268"/>
        <path fill="#A7B3BF" d="M141.393 377.827c-.463.266-.466.702-.005.968l7.328 4.26c.46.265 1.208.265 1.671-.003l7.227-4.172c.463-.266.465-.7.005-.966l-7.328-4.26c-.461-.265-1.208-.265-1.671 0l-7.227 4.173z"/>
        <path fill="#E1F0FF" d="M157.37 378.34l-7.327-4.257c-.307-.177-.866-.177-1.175 0l-7.227 4.173c-.038.022-.061.041-.08.056.017.014.04.034.077.056l7.327 4.256c.306.179.865.179 1.174-.002l7.227-4.169c.038-.022.061-.043.08-.058a.398.398 0 0 0-.077-.054m-8.903 5.14l-7.328-4.26c-.374-.216-.59-.547-.59-.91s.22-.694.598-.912l7.226-4.173c.62-.356 1.552-.356 2.169.002l7.326 4.256c.374.218.591.551.591.911-.001.362-.22.697-.598.914l-7.225 4.172c-.311.18-.698.268-1.085.268s-.775-.09-1.084-.268"/>
        <path fill="#A7B3BF" d="M153.298 373.613c-.463.265-.465.7-.004.967l7.328 4.258c.46.266 1.207.266 1.67 0l7.226-4.173c.463-.266.467-.7.007-.967l-7.327-4.258c-.46-.266-1.21-.268-1.674 0l-7.226 4.173z"/>
        <path fill="#E1F0FF" d="M169.276 374.127l-7.328-4.258c-.308-.18-.865-.18-1.176 0l-7.225 4.17c-.04.023-.063.044-.08.057a.396.396 0 0 0 .077.056l7.326 4.258c.306.177.866.175 1.174-.002l7.226-4.171a.46.46 0 0 0 .082-.058.584.584 0 0 0-.076-.052m-8.904 5.14l-7.327-4.26c-.377-.217-.592-.548-.59-.911 0-.362.217-.693.595-.912l7.227-4.172c.62-.358 1.553-.357 2.17.001l7.326 4.256c.375.217.592.55.59.912 0 .362-.219.694-.597.913l-7.228 4.173c-.31.177-.695.268-1.082.268-.389 0-.776-.09-1.084-.268"/>
        <path fill="#A7B3BF" d="M167.696 371.039c-.463.268-.466.702-.005.97l7.328 4.257c.46.266 1.206.268 1.671 0l7.227-4.173c.463-.265.465-.7.005-.965l-7.328-4.26c-.46-.268-1.208-.268-1.671 0l-7.227 4.171z"/>
        <path fill="#E1F0FF" d="M183.673 371.555l-7.328-4.258c-.306-.177-.865-.179-1.174 0l-7.227 4.171c-.038.022-.061.043-.08.058.017.014.04.034.077.054l7.328 4.258c.304.177.864.177 1.174-.002l7.224-4.17a.4.4 0 0 0 .082-.059c-.018-.014-.04-.032-.076-.052m-8.904 5.14l-7.327-4.26c-.377-.216-.59-.547-.59-.91s.217-.694.597-.914l7.224-4.171c.62-.358 1.554-.358 2.171.002l7.326 4.256c.375.218.592.551.592.911-.002.362-.221.696-.6.914l-7.226 4.172a2.217 2.217 0 0 1-1.083.268c-.389 0-.776-.09-1.084-.268"/>
        <path fill="#A7B3BF" d="M107.475 369.25c-.465.268-.467.702-.007.968l7.33 4.259c.459.266 1.206.266 1.67 0l7.225-4.173c.463-.266.467-.701.008-.967l-7.33-4.26c-.46-.266-1.208-.266-1.67 0l-7.226 4.173z"/>
        <path fill="#E1F0FF" d="M123.451 369.766l-7.33-4.258c-.305-.18-.864-.177-1.172 0l-7.226 4.17a.433.433 0 0 0-.08.059c.017.014.04.032.074.054l7.328 4.258c.306.177.867.177 1.176-.002l7.225-4.171a.377.377 0 0 0 .08-.058.448.448 0 0 0-.075-.052m-8.903 5.138l-7.328-4.258c-.376-.219-.591-.55-.59-.911 0-.362.217-.695.595-.914l7.227-4.172c.62-.357 1.552-.357 2.169.002l7.326 4.257c.376.217.593.55.591.91 0 .364-.219.696-.597.915l-7.226 4.173a2.218 2.218 0 0 1-1.085.266 2.18 2.18 0 0 1-1.082-.268"/>
        <path fill="#A7B3BF" d="M97.754 363.601c-.463.268-.467.702-.007.968l7.328 4.26c.46.265 1.208.265 1.673 0l7.226-4.173c.463-.266.465-.702.004-.968l-7.328-4.258c-.46-.267-1.206-.267-1.67 0l-7.226 4.171z"/>
        <path fill="#E1F0FF" d="M113.728 364.115l-7.326-4.258c-.307-.177-.864-.175-1.174 0l-7.226 4.173a.455.455 0 0 0-.08.058c.017.014.04.034.075.054l7.327 4.258c.306.177.867.177 1.176-.002l7.227-4.17a.433.433 0 0 0 .08-.059c-.019-.014-.04-.032-.079-.054m-8.903 5.14l-7.326-4.257c-.376-.22-.591-.548-.59-.912 0-.362.217-.694.597-.913l7.227-4.171c.618-.358 1.55-.358 2.167 0l7.326 4.258c.376.217.593.55.591.911 0 .362-.219.697-.597.914l-7.226 4.172c-.31.178-.695.268-1.084.268-.389 0-.776-.09-1.085-.27"/>
        <path fill="#A7B3BF" d="M138.595 354.13c-.463.268-.465.702-.005.968l7.328 4.26c.46.265 1.208.265 1.671 0l7.227-4.173c.463-.266.464-.702.005-.968l-7.328-4.26c-.46-.265-1.208-.265-1.671 0l-7.227 4.173z"/>
        <path fill="#E1F0FF" d="M154.571 354.644l-7.327-4.257c-.306-.178-.865-.176-1.174 0l-7.225 4.172a.46.46 0 0 0-.081.058.5.5 0 0 0 .076.054l7.327 4.256c.304.178.865.18 1.174 0l7.227-4.17a.433.433 0 0 0 .08-.058.5.5 0 0 0-.077-.055m-8.903 5.14l-7.328-4.259c-.374-.217-.59-.548-.59-.91 0-.361.22-.694.598-.913l7.226-4.173c.62-.356 1.552-.356 2.167.002l7.328 4.256c.376.219.591.552.591.912 0 .363-.218.696-.598.913l-7.225 4.174a2.218 2.218 0 0 1-1.085.266c-.387 0-.776-.088-1.084-.267"/>
        <path fill="#A7B3BF" d="M124.198 356.702c-.463.266-.466.702-.007.968l7.33 4.26c.46.265 1.208.265 1.671 0l7.225-4.174c.465-.267.466-.701.007-.967l-7.328-4.26c-.461-.266-1.208-.266-1.673 0l-7.225 4.173z"/>
        <path fill="#E1F0FF" d="M140.175 357.216l-7.33-4.258c-.306-.177-.863-.175-1.172 0l-7.227 4.173c-.038.022-.061.042-.08.056.017.015.04.034.075.054l7.33 4.258c.305.18.864.177 1.172 0l7.226-4.17a.452.452 0 0 0 .082-.06.642.642 0 0 0-.076-.053m-8.904 5.14l-7.328-4.26c-.376-.216-.59-.547-.59-.909s.218-.694.596-.913l7.226-4.171c.62-.358 1.554-.358 2.17 0l7.327 4.256c.376.219.592.551.592.911-.002.364-.221.697-.6.916l-7.226 4.172a2.216 2.216 0 0 1-1.083.266c-.387 0-.774-.089-1.084-.268"/>
        <path fill="#A7B3BF" d="M148.297 359.766c-.465.268-.467.702-.007.968l7.327 4.26c.46.266 1.209.266 1.674 0l7.226-4.173c.461-.266.463-.702.004-.968l-7.328-4.257c-.46-.268-1.207-.268-1.67-.002l-7.226 4.172z"/>
        <path fill="#E1F0FF" d="M164.271 360.28l-7.328-4.257c-.305-.177-.864-.176-1.172 0l-7.226 4.173a.455.455 0 0 0-.08.057c.017.015.04.033.074.055l7.328 4.256c.304.179.865.179 1.176 0l7.225-4.171a.377.377 0 0 0 .08-.058.5.5 0 0 0-.077-.054m-8.903 5.14l-7.326-4.258c-.376-.217-.592-.55-.59-.911 0-.362.217-.695.597-.914l7.225-4.17c.62-.359 1.552-.359 2.169 0l7.326 4.257c.374.217.591.55.591.912 0 .361-.219.694-.597.913l-7.226 4.173a2.217 2.217 0 0 1-1.084.267c-.389 0-.776-.09-1.085-.27"/>
        <path fill="#A7B3BF" d="M112.216 360.872c-.463.268-.467.702-.005.968l7.328 4.26c.459.265 1.208.265 1.671 0l7.226-4.173c.464-.266.465-.702.006-.968l-7.33-4.26c-.46-.265-1.206-.265-1.67 0l-7.226 4.173z"/>
        <path fill="#E1F0FF" d="M128.192 361.386l-7.327-4.257c-.306-.178-.865-.178-1.174 0l-7.227 4.172c-.038.022-.063.044-.08.056.017.017.04.035.077.056l7.327 4.258c.306.177.865.177 1.174-.002l7.225-4.17a.377.377 0 0 0 .08-.059.374.374 0 0 0-.075-.054m-8.903 5.14l-7.328-4.257c-.376-.219-.59-.55-.59-.912 0-.361.218-.694.598-.913l7.226-4.173c.619-.356 1.552-.354 2.169.002l7.326 4.258c.374.217.591.55.59.91 0 .361-.217.696-.597.915l-7.227 4.17c-.31.18-.696.268-1.083.268s-.775-.088-1.084-.268"/>
        <path fill="#A7B3BF" d="M133.898 362.34c-.463.266-.465.7-.005.966l7.327 4.26c.462.265 1.209.265 1.672 0l7.226-4.173c.463-.266.467-.702.006-.968l-7.328-4.26c-.46-.265-1.208-.265-1.671.002l-7.227 4.173z"/>
        <path fill="#E1F0FF" d="M149.874 362.852l-7.327-4.257c-.306-.178-.865-.176-1.174.001l-7.227 4.171c-.038.022-.061.044-.08.058a.5.5 0 0 0 .076.054l7.328 4.256c.306.18.865.18 1.174 0l7.225-4.17a.46.46 0 0 0 .081-.058.5.5 0 0 0-.076-.055m-8.903 5.14l-7.328-4.257c-.374-.219-.59-.55-.59-.912 0-.361.22-.694.597-.913l7.227-4.17c.62-.359 1.552-.359 2.169 0l7.326 4.257c.376.217.591.55.591.91 0 .361-.219.696-.598.915l-7.227 4.172c-.31.178-.695.266-1.082.266-.389 0-.777-.088-1.085-.267"/>
        <path fill="#A7B3BF" d="M157.997 365.403c-.465.267-.467.702-.006.97l7.328 4.257c.46.266 1.207.266 1.671 0l7.225-4.173c.463-.266.467-.702.006-.967l-7.328-4.258c-.46-.268-1.209-.268-1.67 0l-7.226 4.17z"/>
        <path fill="#E1F0FF" d="M173.971 365.919l-7.326-4.258c-.307-.177-.865-.18-1.174 0l-7.226 4.17a.597.597 0 0 0-.082.057.396.396 0 0 0 .078.056l7.326 4.258c.306.177.866.177 1.174-.002l7.226-4.171a.377.377 0 0 0 .08-.058.406.406 0 0 0-.076-.052m-8.903 5.138l-7.326-4.258c-.376-.217-.592-.55-.592-.911.002-.362.22-.695.597-.914l7.227-4.172c.618-.357 1.552-.357 2.17.002l7.325 4.257c.376.217.591.55.591.912s-.219.694-.597.913l-7.226 4.173a2.218 2.218 0 0 1-1.086.266c-.387 0-.774-.089-1.083-.268"/>
        <path fill="#A7B3BF" d="M121.943 366.524c-.465.266-.467.702-.006.968l7.328 4.258c.46.267 1.206.267 1.671 0l7.225-4.173c.463-.266.467-.7.006-.966l-7.328-4.26c-.46-.265-1.209-.265-1.67 0l-7.226 4.173z"/>
        <path fill="#E1F0FF" d="M137.919 367.038l-7.33-4.257c-.306-.178-.865-.178-1.172 0l-7.227 4.17a.575.575 0 0 0-.08.058c.017.015.04.035.077.055l7.326 4.257c.305.178.866.178 1.174-.001l7.226-4.171a.377.377 0 0 0 .08-.058.449.449 0 0 0-.074-.053m-8.905 5.14l-7.326-4.259c-.377-.217-.59-.548-.59-.911 0-.362.217-.693.595-.912l7.226-4.173c.62-.356 1.554-.356 2.17.002l7.325 4.256c.377.217.592.55.592.912 0 .361-.219.696-.597.913l-7.227 4.173a2.219 2.219 0 0 1-1.085.267c-.387 0-.774-.09-1.083-.267"/>
        <path fill="#A7B3BF" d="M143.598 367.976c-.461.266-.465.7-.005.966l7.327 4.26c.462.266 1.209.266 1.672 0l7.226-4.173c.465-.266.465-.702.006-.968l-7.328-4.257c-.46-.268-1.207-.268-1.671 0l-7.227 4.172z"/>
        <path fill="#E1F0FF" d="M159.574 368.489l-7.326-4.258c-.307-.177-.864-.176-1.174.002l-7.226 4.17a.575.575 0 0 0-.08.058c.016.015.04.033.074.055l7.328 4.257c.306.178.865.178 1.174-.001l7.227-4.171a.377.377 0 0 0 .08-.058.5.5 0 0 0-.077-.054m-8.903 5.14l-7.328-4.258c-.374-.217-.59-.55-.588-.911 0-.362.217-.693.595-.914l7.227-4.17c.62-.359 1.552-.357 2.169 0l7.326 4.257c.376.217.591.55.591.912 0 .361-.219.696-.599.913l-7.226 4.173c-.31.177-.695.267-1.082.267a2.2 2.2 0 0 1-1.085-.27"/>
        <path fill="#A7B3BF" d="M131.669 372.175c-.465.268-.467.702-.007.968l7.327 4.259c.462.266 1.209.266 1.674 0l7.224-4.173c.463-.266.467-.7.006-.967l-7.328-4.26c-.46-.266-1.208-.266-1.67 0l-7.226 4.173z"/>
        <path fill="#E1F0FF" d="M147.643 372.69l-7.328-4.257c-.305-.18-.862-.177-1.172 0l-7.226 4.17a.78.78 0 0 0-.082.059c.018.014.04.034.076.054l7.328 4.256c.306.179.867.179 1.174 0l7.227-4.171a.433.433 0 0 0 .08-.058.406.406 0 0 0-.077-.052m-8.903 5.138l-7.328-4.258c-.374-.217-.59-.55-.59-.911.002-.362.22-.695.597-.912l7.227-4.172c.62-.359 1.552-.359 2.169 0l7.326 4.257c.376.217.593.55.591.912 0 .362-.219.694-.597.913l-7.226 4.171c-.311.18-.697.27-1.084.27-.389 0-.776-.09-1.085-.27"/>
        <path fill="#A7B3BF" d="M95.095 339.791c-.46.268-.464.702-.003.968l7.328 4.26c.46.265 1.208.265 1.67 0l7.226-4.173c.465-.266.466-.702.007-.968l-7.328-4.257c-.461-.268-1.208-.268-1.673 0l-7.227 4.17z"/>
        <path fill="#E1F0FF" d="M111.073 340.305l-7.327-4.257c-.308-.178-.865-.176-1.174.001l-7.227 4.173c-.038.022-.063.042-.08.054.017.017.04.035.076.056l7.328 4.256c.304.18.865.18 1.172 0l7.227-4.17a.46.46 0 0 0 .081-.058.468.468 0 0 0-.076-.055m-8.903 5.14l-7.328-4.257c-.376-.219-.59-.55-.59-.912 0-.361.218-.694.596-.913l7.226-4.17c.62-.359 1.554-.359 2.17 0l7.327 4.257c.376.217.591.55.59.911 0 .362-.22.695-.597.914l-7.229 4.172c-.31.178-.694.268-1.081.268-.388 0-.775-.09-1.084-.27"/>
        <path fill="#A7B3BF" d="M58.87 341.007c-.463.267-.467.701-.006.967l7.328 4.26c.46.266 1.209.266 1.672 0l7.226-4.173c.463-.266.465-.7.006-.968l-7.33-4.257c-.46-.268-1.207-.268-1.67 0l-7.226 4.17z"/>
        <path fill="#E1F0FF" d="M74.846 341.522l-7.33-4.257c-.304-.18-.862-.18-1.172 0l-7.224 4.17c-.04.022-.064.044-.082.058a.5.5 0 0 0 .076.055l7.328 4.257c.306.178.865.178 1.174-.001l7.226-4.171a.433.433 0 0 0 .08-.058.406.406 0 0 0-.076-.053m-8.903 5.14l-7.328-4.259c-.376-.219-.59-.548-.59-.911 0-.362.217-.695.597-.914l7.227-4.17c.618-.359 1.552-.359 2.167 0l7.327 4.257c.377.217.592.552.592.912-.002.361-.22.696-.599.913l-7.226 4.173c-.31.177-.697.267-1.084.267-.387 0-.774-.09-1.083-.267"/>
        <path fill="#A7B3BF" d="M73.315 338.267c-.465.268-.467.702-.008.968l7.328 4.26c.461.265 1.208.265 1.672 0l7.226-4.173c.463-.268.465-.702.006-.968l-7.328-4.26c-.46-.265-1.209-.265-1.672 0l-7.224 4.173z"/>
        <path fill="#E1F0FF" d="M89.289 338.781l-7.328-4.258c-.306-.177-.865-.177-1.174 0l-7.225 4.173a.597.597 0 0 0-.081.056c.016.016.04.035.076.056l7.326 4.256c.306.18.866.18 1.176 0l7.226-4.17a.433.433 0 0 0 .08-.059.398.398 0 0 0-.076-.054m-8.903 5.14l-7.328-4.26c-.375-.216-.59-.547-.59-.909.002-.362.219-.694.597-.913l7.226-4.173c.62-.356 1.552-.356 2.17.002l7.324 4.256c.376.219.593.551.593.911 0 .362-.219.697-.599.916l-7.225 4.17a2.219 2.219 0 0 1-1.085.268c-.387 0-.776-.09-1.083-.268"/>
        <path fill="#A7B3BF" d="M90.094 325.947c-.465.266-.466.702-.007.968l7.328 4.26c.461.265 1.208.265 1.671-.003l7.227-4.172c.463-.266.465-.7.005-.966l-7.328-4.26c-.459-.265-1.208-.265-1.67 0l-7.226 4.173z"/>
        <path fill="#E1F0FF" d="M106.069 326.461l-7.326-4.258c-.308-.177-.867-.177-1.176 0l-7.225 4.173a.597.597 0 0 0-.081.056c.018.016.04.034.076.056l7.328 4.256c.305.179.864.177 1.174-.002l7.226-4.169c.038-.022.062-.043.08-.058a.398.398 0 0 0-.076-.054m-8.903 5.14l-7.326-4.257c-.377-.22-.592-.55-.592-.914.002-.361.219-.692.597-.911l7.226-4.173c.62-.356 1.552-.356 2.171.002l7.324 4.256c.377.219.592.551.592.911 0 .362-.22.697-.599.914l-7.225 4.172a2.219 2.219 0 0 1-1.085.268c-.387 0-.774-.09-1.083-.268"/>
        <path fill="#A7B3BF" d="M80.395 320.31c-.465.267-.467.703-.008.969l7.328 4.257c.46.268 1.208.268 1.673 0l7.225-4.17c.463-.268.465-.702.005-.968l-7.327-4.26c-.46-.266-1.209-.266-1.672 0l-7.224 4.173z"/>
        <path fill="#E1F0FF" d="M96.37 320.825l-7.329-4.258c-.305-.177-.864-.177-1.172 0l-7.226 4.173a.597.597 0 0 0-.082.056c.018.016.04.034.076.056l7.328 4.256c.306.177.865.179 1.174-.002l7.226-4.17a.54.54 0 0 0 .08-.057.468.468 0 0 0-.076-.054m-8.903 5.14l-7.328-4.26c-.375-.216-.59-.547-.59-.911.002-.362.22-.693.597-.912l7.227-4.172c.62-.357 1.552-.357 2.168.002l7.326 4.255c.375.22.592.552.592.912-.002.362-.22.696-.597.913l-7.226 4.173c-.31.177-.697.268-1.084.268-.389 0-.776-.09-1.085-.268"/>
        <path fill="#A7B3BF" d="M75.696 328.519c-.463.267-.465.702-.006.967l7.328 4.258c.461.268 1.209.268 1.672.002l7.226-4.173c.463-.267.467-.702.006-.967l-7.328-4.26c-.46-.266-1.207-.266-1.672 0l-7.226 4.173z"/>
        <path fill="#E1F0FF" d="M91.672 329.033l-7.328-4.258c-.306-.177-.865-.177-1.174 0l-7.225 4.173a.467.467 0 0 0-.08.056c.017.014.04.034.075.056l7.328 4.256c.304.179.864.179 1.174 0l7.226-4.171a.433.433 0 0 0 .08-.058.398.398 0 0 0-.076-.054m-8.903 5.14l-7.328-4.26c-.375-.216-.59-.547-.588-.91 0-.36.217-.694.595-.913l7.226-4.17c.62-.359 1.553-.359 2.17 0l7.325 4.255c.377.22.592.552.592.912 0 .362-.219.696-.599.915l-7.226 4.173c-.31.177-.695.266-1.082.266-.387 0-.776-.09-1.085-.268"/>
        <path fill="#A7B3BF" d="M85.397 334.157c-.463.266-.466.7-.005.966l7.326 4.26c.461.265 1.21.265 1.673 0l7.225-4.174c.465-.265.466-.701.005-.967l-7.326-4.26c-.461-.266-1.208-.266-1.673.002l-7.225 4.173z"/>
        <path fill="#E1F0FF" d="M101.372 334.669l-7.326-4.258c-.308-.177-.867-.175-1.174.002l-7.227 4.171c-.038.022-.063.043-.08.056.017.016.04.034.077.056l7.326 4.256c.305.18.866.18 1.174 0l7.226-4.17a.46.46 0 0 0 .081-.059.424.424 0 0 0-.077-.054m-8.904 5.14l-7.326-4.257c-.376-.22-.59-.55-.59-.912s.218-.693.596-.913l7.226-4.171c.62-.358 1.552-.358 2.171 0l7.324 4.256c.376.219.593.551.592.911 0 .364-.22.697-.597.915l-7.227 4.173c-.31.177-.694.266-1.083.266a2.2 2.2 0 0 1-1.086-.268"/>
        <path fill="#A7B3BF" d="M83.039 343.917c-.463.268-.467.702-.007.968l7.33 4.26c.459.265 1.206.265 1.67 0l7.227-4.173c.463-.266.465-.7.006-.968l-7.33-4.257c-.46-.268-1.206-.268-1.67 0l-7.226 4.17z"/>
        <path fill="#E1F0FF" d="M99.015 344.433l-7.328-4.257c-.307-.178-.864-.178-1.174 0l-7.226 4.17a.575.575 0 0 0-.08.058c.017.015.04.035.075.055l7.33 4.257c.303.178.864.178 1.173-.002l7.225-4.17a.46.46 0 0 0 .081-.058c-.018-.015-.04-.033-.076-.053m-8.903 5.139l-7.33-4.258c-.374-.219-.59-.55-.588-.911 0-.362.217-.695.597-.912l7.227-4.173c.619-.358 1.55-.358 2.167 0l7.328 4.258c.374.217.591.552.591.912-.002.361-.22.694-.599.913l-7.226 4.17c-.31.18-.696.27-1.084.27-.388 0-.776-.09-1.083-.27"/>
        <path fill="#A7B3BF" d="M68.59 346.655c-.462.268-.466.702-.005.97l7.328 4.257c.46.266 1.207.266 1.672 0l7.226-4.172c.463-.266.465-.702.006-.968l-7.328-4.258c-.461-.267-1.209-.267-1.672-.001l-7.226 4.172z"/>
        <path fill="#E1F0FF" d="M84.567 347.17l-7.328-4.257c-.307-.177-.864-.179-1.174 0l-7.226 4.171c-.038.022-.063.044-.08.056.017.016.04.036.076.056l7.326 4.258c.306.177.865.177 1.176-.002l7.227-4.17a.409.409 0 0 0 .077-.059.448.448 0 0 0-.074-.052m-8.903 5.14l-7.328-4.26c-.376-.216-.592-.547-.59-.91 0-.363.217-.695.597-.914l7.227-4.173c.618-.356 1.552-.354 2.169.002l7.326 4.258c.374.217.591.55.59.91 0 .361-.22.696-.598.915l-7.226 4.172c-.31.177-.697.268-1.085.268a2.2 2.2 0 0 1-1.082-.268"/>
        <path fill="#A7B3BF" d="M92.765 349.57c-.463.267-.466.701-.007.967l7.328 4.26c.461.266 1.208.266 1.673 0l7.227-4.173c.463-.266.465-.702.003-.968l-7.328-4.259c-.459-.266-1.206-.266-1.67 0l-7.226 4.173z"/>
        <path fill="#E1F0FF" d="M108.74 350.084l-7.328-4.258c-.306-.177-.865-.175-1.172 0l-7.227 4.173c-.038.021-.063.043-.08.056a.43.43 0 0 0 .075.056l7.328 4.256c.305.179.864.179 1.175 0l7.227-4.171a.409.409 0 0 0 .078-.058.5.5 0 0 0-.076-.054m-8.904 5.14l-7.326-4.26c-.376-.217-.59-.548-.59-.91 0-.361.218-.694.598-.913l7.226-4.172c.62-.357 1.552-.357 2.167.001l7.326 4.256c.376.22.592.552.592.914 0 .361-.22.694-.597.913l-7.227 4.173c-.31.177-.694.266-1.083.266a2.2 2.2 0 0 1-1.086-.268"/>
        <path fill="#A7B3BF" d="M78.312 352.304c-.463.268-.467.702-.005.967l7.326 4.26c.46.266 1.21.266 1.673 0l7.226-4.173c.463-.266.465-.7.004-.967l-7.328-4.258c-.46-.268-1.206-.268-1.67 0l-7.226 4.17z"/>
        <path fill="#E1F0FF" d="M94.286 352.818l-7.328-4.258c-.305-.175-.862-.175-1.172 0l-7.224 4.173a.418.418 0 0 0-.082.058.5.5 0 0 0 .076.054l7.326 4.256c.304.179.867.179 1.176 0l7.226-4.171a.508.508 0 0 0 .08-.058.665.665 0 0 0-.078-.054m-8.903 5.14l-7.326-4.258c-.376-.218-.59-.55-.59-.911 0-.362.217-.695.597-.913l7.227-4.171c.62-.358 1.552-.358 2.167 0l7.326 4.257c.376.217.593.55.593.912-.002.362-.22.694-.599.913l-7.226 4.173c-.31.177-.697.268-1.084.268a2.2 2.2 0 0 1-1.085-.27"/>
        <path fill="#A7B3BF" d="M136.46 341.842c-.463.268-.467.702-.006.968l7.328 4.26c.46.265 1.208.265 1.67 0l3.798-2.195c.463-.267.467-.7.006-.967l-7.328-4.258c-.458-.268-1.208-.268-1.668-.002l-3.8 2.194z"/>
        <path fill="#E1F0FF" d="M149.009 344.336l-7.328-4.258c-.306-.179-.865-.179-1.174 0l-3.8 2.193a.433.433 0 0 0-.08.058c.016.012.042.032.076.054l7.328 4.257c.305.178.866.178 1.172-.001l3.8-2.193a.377.377 0 0 0 .08-.057.449.449 0 0 0-.074-.053m-5.476 3.16l-7.328-4.256c-.376-.22-.59-.552-.59-.911 0-.364.218-.697.596-.916l3.799-2.192c.618-.358 1.552-.358 2.168 0l7.328 4.258c.375.217.592.55.59.911 0 .362-.219.695-.597.914l-3.799 2.194c-.31.179-.698.267-1.085.267s-.774-.088-1.082-.27"/>
        <path fill="#A7B3BF" d="M119.196 342.858c-.465.266-.467.7-.008.967l7.33 4.258c.46.268 1.207.268 1.671 0l7.225-4.173c.463-.265.467-.7.006-.965l-7.328-4.26c-.46-.268-1.209-.268-1.672 0l-7.224 4.173z"/>
        <path fill="#E1F0FF" d="M135.17 343.372l-7.328-4.258c-.305-.177-.864-.177-1.172 0l-7.226 4.17a.78.78 0 0 0-.082.059c.018.014.04.034.076.054l7.328 4.258c.304.177.866.177 1.174-.002l7.226-4.17a.373.373 0 0 0 .08-.059.517.517 0 0 0-.076-.052m-8.903 5.14l-7.328-4.26c-.375-.216-.59-.547-.59-.911.002-.362.22-.695.597-.912l7.227-4.172c.62-.357 1.55-.358 2.169 0l7.326 4.257c.376.217.591.55.591.912s-.219.695-.597.913l-7.226 4.173c-.31.177-.697.268-1.086.268-.387 0-.774-.09-1.083-.268"/>
        <path fill="#A7B3BF" d="M104.797 345.43c-.463.265-.465.7-.005.967l7.327 4.258c.46.268 1.209.268 1.672 0l7.226-4.171c.463-.268.467-.702.006-.97l-7.328-4.257c-.46-.268-1.208-.268-1.671 0l-7.227 4.173z"/>
        <path fill="#E1F0FF" d="M120.773 345.943l-7.328-4.257c-.305-.178-.864-.178-1.174 0l-7.226 4.172c-.038.022-.062.042-.08.055a.347.347 0 0 0 .078.056l7.326 4.257c.306.18.865.178 1.172-.001l7.227-4.17a.452.452 0 0 0 .081-.06.517.517 0 0 0-.076-.052m-8.903 5.14l-7.328-4.259c-.374-.219-.59-.55-.59-.911.002-.362.22-.695.597-.912l7.227-4.173c.618-.356 1.552-.358 2.169.002l7.326 4.256c.376.217.591.55.591.912 0 .361-.22.694-.599.915l-7.226 4.17c-.31.178-.695.268-1.082.268-.389 0-.776-.09-1.085-.267"/>
        <path fill="#A7B3BF" d="M128.895 348.494c-.463.266-.466.7-.007.968l7.33 4.26c.46.265 1.206.265 1.671-.003l7.227-4.172c.463-.266.465-.7.005-.966l-7.33-4.26c-.459-.266-1.206-.266-1.67 0l-7.226 4.173z"/>
        <path fill="#E1F0FF" d="M144.872 349.008l-7.33-4.258c-.306-.177-.865-.177-1.172 0l-7.225 4.171a.515.515 0 0 0-.081.058c.016.015.04.034.076.054l7.328 4.258c.303.18.864.177 1.174-.002l7.226-4.169a.403.403 0 0 0 .078-.06.403.403 0 0 0-.074-.052m-8.904 5.14l-7.327-4.26c-.377-.216-.59-.547-.59-.909s.217-.694.595-.913l7.228-4.173c.619-.356 1.55-.356 2.167 0l7.328 4.258c.375.219.592.551.59.911 0 .362-.219.697-.597.914l-7.227 4.172c-.309.18-.696.268-1.083.268-.389 0-.776-.09-1.084-.268"/>
        <path fill="#A7B3BF" d="M114.497 351.066c-.463.266-.465.702-.006.967l7.33 4.258c.46.268 1.207.268 1.67 0l7.226-4.17c.463-.268.467-.703.007-.968l-7.33-4.26c-.459-.266-1.206-.266-1.67 0l-7.227 4.173z"/>
        <path fill="#E1F0FF" d="M130.475 351.58l-7.33-4.258c-.306-.177-.865-.177-1.174 0l-7.225 4.173c-.04.021-.063.041-.08.056.017.014.04.034.075.054l7.328 4.258c.306.177.866.177 1.174 0l7.226-4.171a.373.373 0 0 0 .08-.06.592.592 0 0 0-.074-.052m-8.904 5.14l-7.327-4.26c-.377-.217-.592-.548-.592-.911.002-.362.219-.693.597-.912l7.227-4.172c.62-.358 1.552-.357 2.168 0l7.326 4.257c.377.217.594.552.592.912 0 .362-.219.696-.597.915l-7.228 4.173c-.31.177-.695.266-1.082.266-.389 0-.776-.089-1.084-.268"/>
        <path fill="#A7B3BF" d="M102.492 355.222c-.465.266-.467.7-.008.967l7.328 4.258c.461.268 1.209.268 1.673 0l7.225-4.173c.463-.265.467-.7.006-.967l-7.328-4.258c-.46-.268-1.209-.268-1.672 0l-7.224 4.173z"/>
        <path fill="#E1F0FF" d="M118.466 355.736l-7.328-4.258c-.305-.177-.864-.177-1.172 0l-7.226 4.173a.597.597 0 0 0-.082.056c.018.014.042.034.076.054l7.328 4.258c.306.177.865.177 1.174-.002l7.226-4.17a.377.377 0 0 0 .08-.059.406.406 0 0 0-.076-.052m-8.903 5.14l-7.328-4.26c-.375-.216-.59-.547-.59-.91s.22-.694.597-.913l7.227-4.172c.62-.356 1.552-.358 2.169 0l7.326 4.257c.376.22.591.552.591.912 0 .362-.219.695-.597.913l-7.226 4.173a2.217 2.217 0 0 1-1.084.268c-.389 0-.776-.09-1.085-.268"/>
        <path fill="#A7B3BF" d="M126.364 335.978c-.463.266-.465.7-.005.966l7.327 4.26c.462.265 1.209.265 1.672 0l3.799-2.195c.463-.267.464-.7.005-.967l-7.328-4.258c-.458-.268-1.208-.268-1.67 0l-3.8 2.194z"/>
        <path fill="#E1F0FF" d="M138.911 338.47l-7.326-4.257c-.305-.18-.864-.178-1.172 0l-3.802 2.192a.596.596 0 0 0-.078.06c.016.012.04.03.074.052l7.328 4.256c.306.179.867.179 1.174 0l3.8-2.192a.433.433 0 0 0 .08-.058.513.513 0 0 0-.078-.053m-5.473 3.16l-7.328-4.256c-.375-.22-.59-.552-.59-.911.002-.364.22-.695.597-.914l3.799-2.194c.62-.356 1.552-.358 2.169 0l7.324 4.258c.376.217.593.552.593.911 0 .362-.22.697-.599.914l-3.796 2.194c-.312.179-.699.267-1.086.267-.387 0-.774-.088-1.083-.269"/>
        <path fill="#A7B3BF" d="M63.586 332.615c-.463.268-.465.702-.005.968l7.328 4.259c.46.266 1.208.266 1.671 0l7.227-4.173c.463-.267.465-.701.005-.967l-7.328-4.258c-.46-.268-1.208-.268-1.671-.002l-7.227 4.173z"/>
        <path fill="#E1F0FF" d="M79.563 333.13l-7.326-4.257c-.308-.18-.867-.177-1.176 0l-7.227 4.17c-.038.022-.061.044-.08.057.017.016.04.036.077.056l7.328 4.256c.303.179.864.179 1.174 0l7.226-4.171a.433.433 0 0 0 .08-.058.406.406 0 0 0-.076-.052m-8.902 5.138l-7.328-4.258c-.376-.218-.591-.55-.591-.911.002-.362.219-.695.597-.914l7.226-4.172c.62-.357 1.552-.357 2.17.002l7.325 4.257c.375.217.592.55.592.91-.002.362-.221.696-.6.915l-7.224 4.171a2.2 2.2 0 0 1-1.085.27c-.387 0-.774-.09-1.082-.27"/>
        <path fill="#A7B3BF" d="M6.901 323.238c-.463.265-.464.7-.003.967l7.328 4.258c.46.266 1.206.266 1.67 0l3.537-2.042c.463-.27.467-.702.008-.968l-7.328-4.26c-.461-.265-1.21-.265-1.673 0L6.9 323.239z"/>
        <path fill="#E1F0FF" d="M19.191 325.88l-7.328-4.258c-.307-.177-.866-.177-1.176 0l-3.538 2.044a.433.433 0 0 0-.08.058c.019.013.042.033.078.053l7.326 4.257c.308.177.867.177 1.174-.002l3.539-2.04a.377.377 0 0 0 .08-.058.438.438 0 0 0-.075-.054m-5.215 3.012l-7.328-4.258c-.376-.22-.591-.552-.591-.912.001-.363.219-.694.597-.913l3.538-2.044c.62-.356 1.552-.356 2.17.002l7.325 4.258c.376.217.593.55.591.91 0 .361-.219.696-.597.915l-3.54 2.042a2.18 2.18 0 0 1-1.082.267c-.388 0-.776-.088-1.083-.267"/>
        <path fill="#A7B3BF" d="M36.895 305.972c-.463.268-.467.702-.006.968l7.328 4.259c.46.266 1.208.266 1.672 0l7.226-4.173c.463-.267.465-.701.006-.967l-7.328-4.258c-.462-.268-1.209-.268-1.672 0l-7.226 4.17z"/>
        <path fill="#E1F0FF" d="M52.87 306.486l-7.327-4.258c-.306-.175-.865-.175-1.174.002l-7.226 4.17a.467.467 0 0 0-.08.057c.016.016.04.034.076.056l7.328 4.256c.305.179.864.177 1.172 0l7.226-4.17a.46.46 0 0 0 .082-.059.468.468 0 0 0-.076-.054m-8.903 5.14l-7.328-4.257c-.377-.22-.59-.55-.59-.912 0-.364.217-.695.595-.913l7.227-4.171c.622-.358 1.553-.358 2.17 0l7.326 4.257c.375.217.592.55.592.91-.002.362-.22.697-.599.915l-7.226 4.173a2.21 2.21 0 0 1-1.084.266c-.387 0-.774-.089-1.083-.268"/>
        <path fill="#A7B3BF" d="M75.89 306.648c-.463.266-.465.7-.005.966l7.33 4.26c.459.267 1.206.267 1.669 0l3.799-2.194c.463-.268.464-.7.005-.966l-7.328-4.26c-.457-.265-1.208-.265-1.67 0l-3.8 2.194z"/>
        <path fill="#E1F0FF" d="M88.44 309.14l-7.329-4.257c-.305-.177-.864-.177-1.172 0l-3.8 2.194a.46.46 0 0 0-.082.058c.018.013.042.032.076.052l7.328 4.258c.308.177.868.177 1.174-.002l3.8-2.19a.445.445 0 0 0 .08-.06.517.517 0 0 0-.076-.052m-5.473 3.161l-7.33-4.257c-.375-.22-.59-.552-.59-.912.002-.363.22-.696.597-.913l3.799-2.194c.62-.357 1.55-.358 2.169 0l7.326 4.257c.376.217.591.552.591.912 0 .362-.22.696-.599.913l-3.798 2.194c-.31.18-.697.268-1.084.268a2.18 2.18 0 0 1-1.081-.268"/>
        <path fill="#A7B3BF" d="M60.993 309.037c-.465.267-.467.701-.007.967l7.33 4.26c.459.266 1.206.266 1.671 0l7.226-4.173c.464-.266.465-.7.006-.968l-7.33-4.257c-.46-.268-1.206-.268-1.67 0l-7.226 4.17z"/>
        <path fill="#E1F0FF" d="M76.97 309.552l-7.33-4.257c-.306-.178-.863-.178-1.172 0l-7.227 4.17c-.038.022-.063.044-.081.058.018.015.041.035.076.055l7.33 4.257c.303.177.864.177 1.172-.002l7.226-4.17a.377.377 0 0 0 .08-.058.448.448 0 0 0-.075-.053m-8.903 5.14l-7.33-4.259c-.374-.217-.59-.55-.587-.912 0-.361.217-.694.597-.911l7.224-4.173c.62-.358 1.554-.356 2.17 0l7.325 4.258c.376.217.593.55.592.911 0 .362-.22.695-.597.914l-7.227 4.173a2.217 2.217 0 0 1-1.083.267c-.39 0-.776-.09-1.084-.267"/>
        <path fill="#A7B3BF" d="M46.595 311.608c-.463.268-.465.702-.006.968l7.33 4.26c.46.265 1.206.265 1.67 0l7.226-4.173c.463-.266.467-.702.007-.968l-7.33-4.26c-.459-.265-1.208-.265-1.67.002l-7.227 4.171z"/>
        <path fill="#E1F0FF" d="M62.57 312.124l-7.327-4.258c-.306-.179-.865-.177-1.174 0l-7.227 4.173c-.038.022-.061.042-.08.056a.5.5 0 0 0 .077.054l7.328 4.258c.305.177.864.177 1.174-.002l7.224-4.169a.474.474 0 0 0 .082-.06.406.406 0 0 0-.076-.052m-8.902 5.14l-7.33-4.26c-.374-.218-.59-.549-.59-.91.003-.362.22-.695.598-.912l7.226-4.173c.62-.356 1.552-.358 2.17 0l7.325 4.258c.376.217.592.55.592.91 0 .361-.22.696-.6.915l-7.226 4.172c-.309.178-.694.268-1.081.268-.39 0-.776-.09-1.084-.268"/>
        <path fill="#A7B3BF" d="M85.984 312.513c-.461.267-.463.701-.004.969l7.328 4.258c.46.266 1.207.266 1.67 0l3.798-2.194c.463-.268.467-.7.008-.968l-7.328-4.258c-.46-.266-1.21-.267-1.67 0l-3.802 2.193z"/>
        <path fill="#E1F0FF" d="M98.533 315.007l-7.326-4.258c-.307-.177-.866-.177-1.174 0l-3.8 2.192a.433.433 0 0 0-.08.058.614.614 0 0 0 .076.054l7.328 4.258c.305.177.866.175 1.172-.002l3.8-2.192a.377.377 0 0 0 .08-.058.517.517 0 0 0-.076-.052m-5.474 3.16l-7.327-4.257c-.377-.22-.59-.551-.59-.913s.217-.694.595-.913l3.799-2.192c.62-.357 1.553-.357 2.17 0l7.324 4.257c.377.217.592.552.592.912 0 .362-.219.694-.597.913l-3.799 2.194c-.31.18-.698.268-1.085.268s-.772-.089-1.082-.27"/>
        <path fill="#A7B3BF" d="M70.693 314.674c-.463.266-.467.7-.005.968l7.327 4.258c.46.267 1.209.267 1.672 0l7.226-4.173c.463-.266.465-.7.006-.968l-7.328-4.257c-.461-.266-1.208-.266-1.672 0l-7.226 4.172z"/>
        <path fill="#E1F0FF" d="M86.667 315.188l-7.326-4.257c-.305-.18-.864-.177-1.174 0l-7.224 4.17a.418.418 0 0 0-.082.059c.017.014.04.034.076.054l7.326 4.257c.308.178.867.178 1.176-.001l7.227-4.171a.688.688 0 0 0 .08-.056.4.4 0 0 0-.079-.055m-8.901 5.14l-7.328-4.259c-.376-.217-.59-.548-.59-.91 0-.361.217-.694.597-.913l7.227-4.173c.618-.358 1.552-.356 2.167.002l7.328 4.256c.374.219.591.552.591.912-.002.361-.22.696-.599.913l-7.226 4.173c-.31.177-.695.267-1.084.267-.387 0-.776-.09-1.083-.267"/>
        <path fill="#A7B3BF" d="M27.47 311.543c-.463.266-.466.702-.007.968l14.546 8.452c.459.265 1.208.265 1.67-.002l7.227-4.173c.464-.266.465-.698.006-.966l-14.545-8.452c-.46-.266-1.207-.266-1.67 0l-7.227 4.173z"/>
        <path fill="#E1F0FF" d="M50.663 316.25l-14.544-8.45c-.307-.18-.868-.18-1.174 0l-7.228 4.172a.366.366 0 0 0-.08.057.344.344 0 0 0 .075.052l14.547 8.452c.304.177.864.177 1.174-.002l7.226-4.169c.038-.022.062-.043.08-.06a.642.642 0 0 0-.076-.052m-8.904 5.14l-14.543-8.452c-.376-.217-.592-.55-.59-.91 0-.363.217-.696.597-.915l7.227-4.17c.618-.36 1.55-.359 2.165 0l14.545 8.45c.375.219.592.551.592.911-.002.362-.221.697-.599.914l-7.227 4.172c-.309.18-.696.268-1.083.268s-.776-.09-1.084-.268"/>
        <path fill="#A7B3BF" d="M56.296 317.246c-.463.266-.466.7-.007.966l7.33 4.26c.459.267 1.208.267 1.67 0l7.226-4.171c.465-.268.466-.702.007-.968l-7.33-4.26c-.46-.267-1.206-.267-1.671 0l-7.225 4.173z"/>
        <path fill="#E1F0FF" d="M72.272 317.76l-7.33-4.257c-.303-.18-.862-.178-1.171 0l-7.227 4.17a.575.575 0 0 0-.08.058c.017.015.04.035.075.055l7.33 4.257c.303.178.864.178 1.171 0l7.227-4.172a.382.382 0 0 0 .081-.058c-.018-.015-.04-.033-.076-.053m-8.903 5.14l-7.328-4.259c-.376-.217-.59-.548-.59-.911 0-.36.218-.693.596-.912l7.226-4.173c.62-.358 1.552-.358 2.169 0l7.328 4.258c.374.217.591.552.591.912-.002.361-.22.696-.598.913l-7.227 4.173a2.217 2.217 0 0 1-1.084.267c-.387 0-.774-.09-1.083-.267"/>
        <path fill="#A7B3BF" d="M96.08 318.38c-.464.266-.466.7-.006.966l7.33 4.26c.459.265 1.206.265 1.67 0l3.798-2.194c.463-.268.465-.7.005-.968l-7.328-4.258c-.457-.267-1.208-.267-1.67 0l-3.8 2.194z"/>
        <path fill="#E1F0FF" d="M108.628 320.872l-7.327-4.257c-.306-.177-.865-.177-1.174 0l-3.8 2.192a.864.864 0 0 0-.079.058.732.732 0 0 0 .075.054l7.33 4.258c.305.177.866.177 1.171-.002l3.8-2.192a.433.433 0 0 0 .08-.058.406.406 0 0 0-.076-.053m-5.473 3.16l-7.328-4.256c-.376-.22-.592-.551-.59-.911 0-.364.217-.695.595-.914l3.799-2.194c.62-.358 1.552-.356 2.169 0l7.326 4.258c.376.217.591.552.591.912 0 .361-.218.694-.597.913l-3.798 2.194c-.311.18-.698.268-1.086.268-.387 0-.774-.089-1.081-.27"/>
        <path fill="#A7B3BF" d="M44.136 321.312c-.463.268-.467.702-.006.968l7.328 4.26c.46.265 1.208.265 1.671 0l7.227-4.173c.463-.266.465-.702.005-.968l-7.327-4.26c-.462-.265-1.209-.265-1.672 0l-7.226 4.173z"/>
        <path fill="#E1F0FF" d="M60.112 321.826l-7.328-4.257c-.308-.178-.865-.178-1.174 0l-7.227 4.172c-.038.022-.061.044-.08.056.017.017.04.035.077.056l7.328 4.258c.305.177.864.177 1.174-.002l7.226-4.17a.433.433 0 0 0 .08-.059.5.5 0 0 0-.076-.054m-8.904 5.14l-7.327-4.257c-.377-.219-.59-.55-.59-.912 0-.361.219-.694.597-.913l7.226-4.173c.619-.354 1.55-.356 2.17.002l7.325 4.258c.375.217.592.55.592.911-.002.362-.221.695-.6.914l-7.224 4.172a2.218 2.218 0 0 1-1.085.266c-.387 0-.774-.088-1.084-.267"/>
        <path fill="#A7B3BF" d="M17.896 316.94c-.463.267-.465.7-.004.968l19.486 11.323c.457.266 1.208.266 1.668 0l7.228-4.173c.463-.268.465-.7.005-.967l-19.483-11.323c-.462-.268-1.21-.268-1.673 0l-7.227 4.173z"/>
        <path fill="#E1F0FF" d="M46.031 324.518l-19.483-11.322c-.308-.178-.869-.178-1.178.001l-7.227 4.173a.537.537 0 0 0-.077.054c.016.017.04.037.076.055L37.627 328.8c.304.177.865.177 1.172 0l7.227-4.17a.452.452 0 0 0 .081-.06.845.845 0 0 0-.076-.053m-8.903 5.14l-19.484-11.322c-.376-.219-.593-.552-.593-.912.002-.361.22-.696.599-.913l7.226-4.17c.619-.36 1.55-.359 2.169 0l19.484 11.32c.374.219.591.551.59.911 0 .362-.22.697-.598.916l-7.226 4.17c-.311.18-.697.268-1.084.268-.387 0-.774-.089-1.083-.268"/>
        <path fill="#A7B3BF" d="M53.862 326.965c-.465.265-.467.7-.007.967l7.33 4.258c.459.268 1.206.268 1.67 0l7.227-4.173c.462-.266.465-.7.006-.966l-7.33-4.26c-.46-.265-1.206-.265-1.67 0l-7.226 4.174z"/>
        <path fill="#E1F0FF" d="M69.838 327.478l-7.33-4.257c-.305-.18-.862-.178-1.172 0l-7.226 4.17a.78.78 0 0 0-.082.058c.018.015.04.035.076.055l7.328 4.257c.306.18.867.178 1.174-.001l7.227-4.171a.377.377 0 0 0 .08-.058.449.449 0 0 0-.075-.053m-8.903 5.14l-7.33-4.259c-.374-.217-.59-.548-.588-.91 0-.363.217-.694.597-.913l7.225-4.173c.62-.358 1.554-.356 2.169.002l7.328 4.256c.374.219.591.552.59.912 0 .361-.22.696-.598.913l-7.226 4.173a2.2 2.2 0 0 1-1.086.267 2.2 2.2 0 0 1-1.081-.267"/>
        <path fill="#A7B3BF" d="M39.428 329.711c-.463.266-.467.7-.005.968l7.327 4.257c.46.268 1.209.268 1.672 0l7.226-4.172c.463-.266.465-.7.006-.968l-7.328-4.258c-.461-.267-1.208-.267-1.672 0l-7.226 4.173z"/>
        <path fill="#E1F0FF" d="M55.404 330.225l-7.328-4.258c-.305-.177-.864-.177-1.174 0l-7.226 4.173c-.038.022-.062.042-.08.056.016.015.04.034.076.056L47 334.508c.304.177.865.177 1.174-.002l7.226-4.17a.433.433 0 0 0 .08-.058.642.642 0 0 0-.076-.053m-8.903 5.14l-7.328-4.26c-.375-.218-.59-.549-.59-.91.002-.362.217-.695.597-.912l7.227-4.173c.618-.356 1.552-.356 2.168.002l7.326 4.256c.375.219.592.551.592.911-.002.362-.22.695-.599.914l-7.226 4.172c-.31.178-.697.268-1.084.268-.387 0-.776-.09-1.083-.268"/>
        <path fill="#A7B3BF" d="M106.175 324.246c-.463.266-.465.7-.006.966l7.328 4.26c.46.265 1.209.265 1.672 0l3.798-2.195c.463-.267.465-.7.006-.967l-7.328-4.258c-.46-.266-1.208-.266-1.67 0l-3.8 2.194z"/>
        <path fill="#E1F0FF" d="M118.724 326.738l-7.328-4.257c-.307-.18-.864-.177-1.174 0l-3.8 2.194a.614.614 0 0 0-.08.058c.018.012.044.032.076.052l7.328 4.258c.306.177.866.177 1.174-.002l3.8-2.192c.038-.022.062-.042.08-.056a.331.331 0 0 0-.076-.055m-5.475 3.16l-7.328-4.256c-.375-.22-.59-.551-.588-.911 0-.364.217-.695.595-.914l3.799-2.194c.62-.356 1.552-.356 2.167.002l7.326 4.256c.376.217.593.55.591.912 0 .361-.219.696-.597.913l-3.798 2.194c-.31.18-.697.268-1.084.268a2.17 2.17 0 0 1-1.083-.27"/>
        <path fill="#A7B3BF" d="M116.269 330.112c-.462.266-.465.7-.004.968l7.328 4.257c.46.266 1.206.266 1.67 0l3.798-2.194c.463-.267.467-.7.006-.967l-7.328-4.258c-.458-.268-1.209-.268-1.67-.002l-3.8 2.196z"/>
        <path fill="#E1F0FF" d="M128.818 332.604l-7.326-4.257c-.308-.178-.867-.178-1.174 0l-3.8 2.192c-.037.021-.064.043-.082.058a.607.607 0 0 0 .078.054l7.328 4.258c.305.177.866.175 1.172-.002l3.8-2.192a.433.433 0 0 0 .08-.058.406.406 0 0 0-.076-.053m-5.474 3.16l-7.328-4.256c-.376-.22-.591-.551-.59-.911 0-.364.218-.697.596-.916l3.798-2.192c.62-.358 1.552-.356 2.171 0l7.324 4.258c.376.217.594.55.592.911 0 .362-.22.695-.599.914l-3.799 2.194c-.309.179-.696.268-1.083.268s-.773-.09-1.082-.27"/>
        <path fill="#A7B3BF" d="M99.794 331.583c-.463.268-.467.702-.005.968l7.328 4.26c.459.265 1.206.265 1.671 0l7.226-4.173c.462-.266.465-.702.006-.968l-7.328-4.257c-.461-.268-1.208-.268-1.671-.002l-7.227 4.172z"/>
        <path fill="#E1F0FF" d="M115.77 332.097l-7.327-4.257c-.308-.177-.865-.177-1.174 0l-7.227 4.172a.597.597 0 0 0-.081.056.488.488 0 0 0 .078.057l7.327 4.255c.304.18.865.18 1.174 0l7.225-4.17a.377.377 0 0 0 .08-.058.568.568 0 0 0-.075-.055m-8.903 5.14l-7.328-4.257c-.376-.219-.59-.55-.59-.912 0-.361.218-.694.596-.913l7.226-4.173c.62-.356 1.554-.356 2.17.002l7.325 4.258c.376.217.592.55.592.91 0 .361-.22.696-.597.915l-7.227 4.173a2.21 2.21 0 0 1-1.083.265c-.39 0-.776-.088-1.084-.267"/>
        <path fill="#A7B3BF" d="M109.494 337.22c-.463.267-.467.701-.005.97l7.327 4.257c.46.266 1.209.266 1.672 0l7.226-4.173c.463-.266.465-.7.006-.968l-7.328-4.257c-.461-.268-1.208-.268-1.672-.002l-7.226 4.173z"/>
        <path fill="#E1F0FF" d="M125.47 337.735l-7.328-4.257c-.305-.178-.864-.178-1.174 0l-7.226 4.17c-.038.022-.062.044-.08.058.017.015.04.035.076.055l7.328 4.256c.304.179.865.179 1.174 0l7.227-4.171a.433.433 0 0 0 .08-.058.406.406 0 0 0-.077-.053m-8.903 5.139l-7.328-4.258c-.374-.219-.59-.55-.59-.911.002-.362.22-.695.597-.912l7.227-4.173c.619-.358 1.552-.356 2.169 0l7.326 4.258c.374.217.591.552.591.912-.002.361-.22.694-.599.913l-7.226 4.173c-.31.177-.695.266-1.084.266-.387 0-.774-.09-1.083-.268"/>
        <path fill="#A7B3BF" d="M65.794 300.783c-.46.265-.464.7-.003.967l7.328 4.258c.46.266 1.206.266 1.67 0l3.798-2.194c.463-.268.467-.7.005-.966l-7.326-4.26c-.46-.265-1.21-.265-1.671 0l-3.8 2.195z"/>
        <path fill="#E1F0FF" d="M78.344 303.275l-7.326-4.258c-.308-.177-.867-.177-1.174 0l-3.8 2.194a.557.557 0 0 0-.08.056.468.468 0 0 0 .076.054l7.327 4.258c.306.177.867.177 1.173-.002l3.8-2.19a.445.445 0 0 0 .08-.06.517.517 0 0 0-.076-.052m-5.474 3.161l-7.328-4.257c-.376-.22-.59-.55-.59-.912 0-.363.218-.694.596-.913l3.798-2.194c.62-.357 1.552-.357 2.17.002l7.325 4.255c.376.22.592.552.592.912s-.22.695-.597.913l-3.8 2.194c-.31.18-.697.268-1.084.268-.387 0-.773-.089-1.082-.268"/>
        <path fill="#A7B3BF" d="M55.7 294.917c-.462.265-.464.7-.005.965l7.328 4.26c.462.268 1.209.268 1.672.002l3.798-2.196c.463-.268.465-.7.006-.966l-7.328-4.26c-.458-.265-1.208-.265-1.67 0l-3.8 2.195z"/>
        <path fill="#E1F0FF" d="M68.25 297.409l-7.328-4.258c-.305-.177-.864-.177-1.174 0l-3.8 2.194a.614.614 0 0 0-.08.058c.016.013.042.033.076.052l7.328 4.258c.306.177.866.177 1.174 0l3.8-2.194a.441.441 0 0 0 .08-.056.398.398 0 0 0-.076-.054m-5.475 3.16l-7.328-4.256c-.375-.22-.59-.55-.588-.912 0-.363.217-.694.595-.913l3.799-2.194c.62-.356 1.552-.356 2.167.002l7.327 4.255c.375.22.592.552.592.912-.002.362-.22.696-.599.913l-3.798 2.194c-.31.18-.697.268-1.084.268a2.17 2.17 0 0 1-1.083-.27"/>
        <path fill="#A7B3BF" d="M46.337 300.521c-.463.268-.465.702-.006.968l12.102 7.032c.46.268 1.208.268 1.671 0l7.227-4.173c.463-.265.464-.7.005-.965l-12.101-7.034c-.462-.266-1.209-.266-1.672 0l-7.226 4.172z"/>
        <path fill="#E1F0FF" d="M67.088 303.81l-12.102-7.032c-.306-.177-.866-.177-1.176 0l-7.224 4.172a.553.553 0 0 0-.082.056.318.318 0 0 0 .076.055l12.104 7.032c.303.179.864.177 1.174-.002l7.226-4.17a.433.433 0 0 0 .08-.059c-.018-.014-.04-.032-.076-.052m-8.904 5.14l-12.101-7.032c-.375-.219-.59-.552-.59-.912 0-.363.219-.696.597-.915l7.227-4.169c.618-.36 1.548-.36 2.167 0l12.101 7.03c.376.22.592.552.592.912-.002.362-.221.697-.6.914l-7.226 4.172c-.309.178-.696.268-1.083.268-.39 0-.776-.09-1.084-.268"/>
        <path fill="#A7B3BF" d="M65.996 322.882c-.463.266-.465.702-.005.968l7.327 4.258c.462.267 1.209.267 1.672.002l7.226-4.173c.463-.268.465-.702.006-.97l-7.328-4.257c-.46-.266-1.208-.266-1.671 0l-7.227 4.172z"/>
        <path fill="#E1F0FF" d="M81.972 323.397l-7.328-4.258c-.305-.177-.864-.177-1.174 0l-7.226 4.173c-.038.021-.062.041-.08.056.018.014.04.034.076.054l7.326 4.258c.306.177.867.177 1.176 0l7.225-4.171c.04-.022.063-.044.081-.06a.406.406 0 0 0-.076-.052m-8.903 5.14l-7.328-4.26c-.374-.217-.59-.548-.59-.91.002-.363.22-.694.597-.913l7.225-4.172c.62-.357 1.554-.357 2.169.001l7.328 4.256c.374.22.591.552.591.912-.002.362-.22.696-.599.915l-7.226 4.17c-.31.178-.695.269-1.082.269-.389 0-.776-.09-1.085-.268"/>
        <path fill="#A7B3BF" d="M126.917 380.547c-.465.268-.467.702-.007.968l7.328 4.26c.46.265 1.208.265 1.673 0l7.226-4.173c.462-.266.465-.702.004-.968l-7.328-4.26c-.46-.265-1.206-.265-1.67 0l-7.226 4.173z"/>
        <path fill="#E1F0FF" d="M142.891 381.061l-7.327-4.258c-.306-.177-.865-.177-1.173 0l-7.226 4.173c-.038.022-.063.043-.082.056.019.016.04.034.076.056l7.328 4.256c.306.179.867.179 1.174 0l7.227-4.17a.377.377 0 0 0 .08-.059.5.5 0 0 0-.077-.054m-8.903 5.14l-7.328-4.26c-.374-.216-.59-.547-.59-.909.002-.362.22-.694.6-.913l7.224-4.171c.62-.358 1.552-.358 2.169 0l7.326 4.256c.376.219.593.551.591.913 0 .362-.219.695-.597.913l-7.226 4.173a2.21 2.21 0 0 1-1.084.266c-.389 0-.776-.089-1.085-.268"/>
        <path fill="#A7B3BF" d="M137.949 399.385c-.463.267-.465.701-.006.967l7.328 4.26c.461.266 1.208.266 1.672 0l8.566-4.947c.463-.266.465-.7.006-.968l-7.328-4.257c-.46-.268-1.207-.268-1.671.002l-8.567 4.943z"/>
        <path fill="#E1F0FF" d="M155.266 399.125l-7.328-4.258c-.304-.177-.863-.177-1.174.002l-8.567 4.945a.437.437 0 0 0-.078.056c.015.017.04.035.074.055l7.326 4.257c.308.18.867.18 1.176 0l8.567-4.945a.433.433 0 0 0 .08-.058.331.331 0 0 0-.076-.054m-10.244 5.915l-7.326-4.26c-.376-.217-.592-.55-.59-.91 0-.361.215-.694.595-.913l8.567-4.945c.62-.358 1.552-.358 2.169 0l7.326 4.256c.376.219.592.551.592.911 0 .362-.221.697-.6.916l-8.564 4.946c-.31.178-.699.266-1.084.266a2.2 2.2 0 0 1-1.085-.267"/>
        <path fill="#A7B3BF" d="M106.51 381.118c-.463.265-.464.7-.005.967l9.457 5.493c.46.268 1.206.268 1.668 0l8.568-4.945c.465-.267.467-.701.008-.967l-9.457-5.493c-.46-.27-1.209-.27-1.672 0l-8.567 4.945z"/>
        <path fill="#E1F0FF" d="M125.956 382.094l-9.457-5.495c-.304-.179-.865-.179-1.174.002l-8.567 4.945a.433.433 0 0 0-.08.058c.019.013.04.033.077.053l9.453 5.494c.307.178.868.178 1.176-.001l8.567-4.945a.377.377 0 0 0 .08-.058.448.448 0 0 0-.075-.053m-10.244 5.915l-9.457-5.497c-.376-.217-.59-.55-.59-.91.002-.363.22-.694.598-.913l8.568-4.947c.619-.358 1.55-.356 2.167 0l9.454 5.495c.376.217.593.55.591.912 0 .361-.219.694-.597.913l-8.567 4.947a2.222 2.222 0 0 1-1.083.267c-.39 0-.776-.09-1.084-.267"/>
        <path fill="#A7B3BF" d="M118.408 388.031c-.463.266-.465.702-.006.968l7.33 4.257c.46.268 1.207.268 1.67 0l8.567-4.945c.463-.267.466-.7.007-.967l-7.33-4.258c-.46-.27-1.206-.27-1.671 0l-8.567 4.945z"/>
        <path fill="#E1F0FF" d="M135.726 387.771l-7.33-4.257c-.305-.178-.864-.178-1.173 0l-8.567 4.946a.361.361 0 0 0-.078.056c.015.015.04.035.074.053l7.328 4.26c.306.178.867.177 1.174 0l8.567-4.947a.433.433 0 0 0 .08-.058.592.592 0 0 0-.075-.053m-10.243 5.915l-7.33-4.26c-.374-.217-.59-.55-.588-.91 0-.363.217-.696.595-.915l8.567-4.945c.62-.358 1.552-.356 2.17 0l7.325 4.258c.376.217.592.552.592.912 0 .361-.22.696-.597.913l-8.567 4.947a2.222 2.222 0 0 1-1.084.267c-.387 0-.774-.09-1.083-.267"/>
        <path fill="#A7B3BF" d="M136.574 386.159c-.463.267-.465.703-.005.97l19.487 11.322c.458.265 1.207.265 1.67 0l7.226-4.173c.461-.266.465-.7.004-.968l-19.484-11.322c-.46-.266-1.208-.266-1.671 0l-7.227 4.17z"/>
        <path fill="#E1F0FF" d="M164.71 393.74l-19.484-11.323c-.308-.179-.868-.177-1.176 0l-7.226 4.171a.46.46 0 0 0-.082.058c.018.014.042.034.078.052l19.484 11.325c.305.177.866.177 1.173-.002l7.227-4.171a.377.377 0 0 0 .08-.058.448.448 0 0 0-.075-.052m-8.903 5.138l-19.483-11.322c-.377-.217-.594-.55-.594-.912s.22-.694.599-.915l7.226-4.17c.617-.357 1.55-.357 2.168.003l19.483 11.32c.376.217.593.55.592.91 0 .364-.22.696-.597.915l-7.227 4.173a2.218 2.218 0 0 1-1.085.266 2.18 2.18 0 0 1-1.082-.268"/>
        <path fill="#A7B3BF" d="M128.178 393.708c-.463.266-.465.702-.005.967l7.328 4.258c.46.268 1.208.268 1.671.002l8.567-4.947c.463-.268.467-.7.005-.968l-7.328-4.257c-.459-.268-1.206-.268-1.67 0l-8.568 4.945z"/>
        <path fill="#E1F0FF" d="M145.495 393.448l-7.328-4.257c-.305-.178-.864-.178-1.174 0l-8.566 4.946a.441.441 0 0 0-.08.056.378.378 0 0 0 .076.055l7.326 4.257c.306.18.866.18 1.176 0l8.567-4.945a.377.377 0 0 0 .08-.058.331.331 0 0 0-.077-.054m-10.244 5.915l-7.327-4.26c-.375-.217-.59-.55-.59-.91.002-.361.219-.696.597-.915l8.567-4.945c.62-.356 1.552-.356 2.169.002l7.326 4.256c.376.217.591.552.591.911 0 .362-.219.697-.599.916l-8.566 4.946c-.31.178-.697.266-1.082.266a2.2 2.2 0 0 1-1.086-.267"/>
        <path fill="#A7B3BF" d="M16.598 328.872c-.463.266-.465.7-.006.966l7.33 4.26c.46.265 1.206.265 1.67 0l8.566-4.947c.464-.266.467-.698.008-.968l-7.33-4.258c-.46-.267-1.208-.267-1.671.002l-8.567 4.945z"/>
        <path fill="#E1F0FF" d="M33.916 328.612l-7.33-4.257c-.305-.18-.864-.177-1.173 0l-8.569 4.947a.391.391 0 0 0-.076.056c.015.014.04.034.074.052l7.328 4.26c.306.177.867.177 1.174-.002l8.567-4.945a.377.377 0 0 0 .08-.058.449.449 0 0 0-.075-.053m-10.243 5.915l-7.33-4.26c-.374-.217-.59-.551-.588-.911 0-.362.217-.695.595-.914l8.567-4.945c.62-.358 1.552-.358 2.17 0l7.325 4.258c.376.217.592.55.592.91 0 .363-.22.696-.597.915l-8.57 4.947a2.21 2.21 0 0 1-1.08.268c-.388 0-.777-.09-1.084-.268"/>
        <path fill="#A7B3BF" d="M26.259 334.484c-.465.267-.467.701-.008.967l7.328 4.26c.462.266 1.209.266 1.672 0l3.538-2.042c.465-.27.467-.702.005-.97l-7.328-4.257c-.459-.266-1.206-.266-1.67 0l-3.537 2.042z"/>
        <path fill="#E1F0FF" d="M38.546 337.128l-7.33-4.258c-.305-.177-.864-.177-1.171 0l-3.54 2.042a.504.504 0 0 0-.078.058c.016.014.04.033.074.054l7.328 4.256c.307.18.865.18 1.174 0l3.538-2.04a.56.56 0 0 0 .081-.06.584.584 0 0 0-.076-.052m-5.216 3.01l-7.326-4.256c-.377-.221-.592-.552-.59-.912 0-.364.217-.696.595-.915l3.538-2.042c.62-.358 1.554-.358 2.17 0l7.327 4.257c.374.22.591.552.591.912-.001.362-.22.696-.598.913l-3.539 2.044c-.307.18-.696.266-1.083.266s-.776-.087-1.085-.268"/>
        <path fill="#A7B3BF" d="M49.149 335.36c-.463.266-.465.7-.006.967l7.328 4.258c.462.268 1.209.268 1.672 0l7.226-4.173c.463-.265.465-.7.006-.967l-7.328-4.258c-.46-.266-1.209-.266-1.672 0l-7.226 4.173z"/>
        <path fill="#E1F0FF" d="M65.125 335.874l-7.328-4.258c-.305-.18-.864-.177-1.174 0l-7.224 4.173a.597.597 0 0 0-.082.056c.016.014.04.034.076.054l7.328 4.258c.306.177.865.177 1.174-.002l7.226-4.171a.433.433 0 0 0 .08-.058.406.406 0 0 0-.076-.052m-8.903 5.14l-7.328-4.26c-.375-.217-.59-.548-.59-.911 0-.362.219-.695.597-.912l7.227-4.172c.62-.357 1.552-.357 2.168 0l7.326 4.257c.375.217.592.552.592.912 0 .362-.219.694-.599.913l-7.224 4.173a2.217 2.217 0 0 1-1.084.268c-.389 0-.776-.09-1.085-.268"/>
        <path fill="#A7B3BF" d="M46.001 345.957c-.463.266-.465.7-.005.966l9.457 5.495c.459.27 1.208.27 1.67 0l8.568-4.945c.463-.268.467-.7.005-.967l-9.457-5.495c-.46-.268-1.208-.268-1.671.001l-8.567 4.945z"/>
        <path fill="#E1F0FF" d="M65.447 346.933l-9.457-5.493c-.304-.18-.863-.178-1.174.001l-8.567 4.945a.688.688 0 0 0-.08.056c.018.015.04.033.076.055l9.455 5.494c.306.178.867.178 1.176 0l8.567-4.946a.433.433 0 0 0 .08-.058.5.5 0 0 0-.076-.054m-10.244 5.916l-9.457-5.497c-.374-.219-.59-.55-.59-.91.002-.363.22-.696.597-.913l8.569-4.947c.619-.358 1.55-.358 2.167 0l9.455 5.495c.375.217.592.55.592.912 0 .361-.221.696-.6.913l-8.566 4.947a2.19 2.19 0 0 1-1.082.267c-.389 0-.776-.09-1.085-.267"/>
        <path fill="#A7B3BF" d="M35.916 340.097c-.463.266-.465.702-.005.968l7.33 4.257c.459.268 1.206.268 1.669 0l8.567-4.945c.463-.267.467-.7.005-.967l-7.328-4.258c-.459-.268-1.208-.27-1.67 0l-8.568 4.945z"/>
        <path fill="#E1F0FF" d="M53.233 339.837l-7.326-4.257c-.307-.178-.866-.18-1.176 0l-8.568 4.946a.415.415 0 0 0-.078.057.335.335 0 0 0 .076.052l7.326 4.26c.307.177.868.177 1.176 0l8.565-4.947a.4.4 0 0 0 .081-.058.406.406 0 0 0-.076-.053m-10.244 5.915l-7.326-4.26c-.376-.217-.591-.55-.591-.911.002-.362.219-.697.597-.914l8.567-4.945c.618-.356 1.552-.358 2.168 0l7.326 4.258c.377.217.592.55.592.912 0 .361-.22.696-.599.913l-8.567 4.947a2.21 2.21 0 0 1-1.081.268c-.39 0-.776-.09-1.086-.268"/>
        <path fill="#A7B3BF" d="M88.033 357.953c-.465.267-.467.701-.005.969l7.327 4.258c.46.266 1.207.266 1.672 0l7.226-4.173c.463-.266.465-.702.006-.968l-7.328-4.257c-.461-.268-1.208-.268-1.672-.002l-7.226 4.173z"/>
        <path fill="#E1F0FF" d="M104.007 358.468l-7.326-4.257c-.307-.178-.866-.178-1.174 0l-7.226 4.17a.455.455 0 0 0-.08.058c.016.015.04.035.076.055l7.326 4.257c.306.177.867.177 1.174-.002l7.227-4.17a.377.377 0 0 0 .08-.058.406.406 0 0 0-.077-.053m-8.901 5.139l-7.328-4.258c-.376-.219-.592-.55-.59-.912 0-.361.217-.694.597-.913l7.225-4.17c.62-.359 1.554-.357 2.17 0l7.325 4.257c.376.217.593.55.591.91 0 .363-.219.696-.597.915l-7.226 4.17c-.31.18-.697.27-1.084.27-.389 0-.776-.09-1.083-.27"/>
        <path fill="#A7B3BF" d="M57.992 352.924c-.463.268-.465.702-.005.967l45.945 26.699c.46.267 1.209.267 1.67 0l8.569-4.945c.463-.268.465-.7.007-.97L68.23 347.98c-.46-.268-1.208-.268-1.671 0l-8.567 4.945z"/>
        <path fill="#E1F0FF" d="M113.928 375.105l-45.946-26.7c-.306-.175-.866-.175-1.176.002l-8.567 4.947c-.038.02-.061.041-.08.056.019.016.04.032.077.054l45.946 26.698c.305.178.866.178 1.174-.002l8.567-4.945a.46.46 0 0 0 .08-.057c-.017-.015-.039-.033-.075-.053m-10.244 5.915l-45.946-26.7c-.376-.217-.591-.55-.591-.91.002-.362.219-.697.597-.915l8.569-4.945c.62-.358 1.55-.358 2.167.001l45.945 26.697c.377.217.592.551.592.911-.002.362-.22.697-.599.914l-8.567 4.947a2.222 2.222 0 0 1-1.083.267c-.387 0-.774-.09-1.084-.267"/>
        <path fill="#A7B3BF" d="M117.196 374.898c-.465.268-.467.702-.007.968l7.328 4.26c.46.265 1.208.265 1.671-.002l7.227-4.171c.463-.268.466-.702.005-.968l-7.328-4.257c-.46-.268-1.208-.268-1.671-.002l-7.225 4.172z"/>
        <path fill="#E1F0FF" d="M133.17 375.412l-7.326-4.257c-.307-.177-.866-.177-1.175 0l-7.225 4.172a.597.597 0 0 0-.082.056c.017.017.04.035.076.057l7.328 4.257c.306.177.865.176 1.174-.003l7.227-4.17a.433.433 0 0 0 .08-.057.398.398 0 0 0-.077-.055m-8.903 5.14l-7.326-4.257c-.376-.219-.592-.55-.592-.912.002-.361.22-.694.597-.913l7.227-4.173c.62-.356 1.552-.356 2.17.002l7.325 4.258c.376.217.591.55.591.91 0 .361-.219.696-.597.915l-7.226 4.17a2.2 2.2 0 0 1-1.085.268c-.388 0-.775-.088-1.084-.267"/>
        <path fill="#A7B3BF" d="M151.127 383.483c-.463.267-.465.701-.006.967l14.544 8.452c.461.266 1.208.266 1.671-.001l7.227-4.171c.463-.268.466-.7.005-.968l-14.543-8.452c-.462-.266-1.209-.266-1.672 0l-7.226 4.173z"/>
        <path fill="#E1F0FF" d="M174.32 388.19l-14.544-8.452c-.306-.177-.867-.177-1.174.002l-7.227 4.172a.386.386 0 0 0-.081.056.378.378 0 0 0 .076.055l14.545 8.45c.306.179.865.179 1.174 0l7.227-4.173c.038-.02.061-.041.08-.056a.398.398 0 0 0-.077-.054m-8.903 5.14l-14.544-8.452c-.376-.217-.59-.55-.59-.91 0-.363.22-.696.598-.915l7.226-4.17c.619-.359 1.552-.359 2.167 0l14.544 8.451c.376.217.591.55.591.91 0 .362-.219.697-.599.915l-7.224 4.171a2.2 2.2 0 0 1-1.086.268c-.387 0-.774-.09-1.083-.268"/>
        <path fill="#A7B3BF" d="M163.18 379.353c-.464.268-.465.702-.004.968l12.1 7.034c.459.266 1.208.266 1.67 0l7.226-4.173c.464-.268.466-.702.007-.968l-12.102-7.032c-.46-.267-1.208-.267-1.671 0l-7.227 4.171z"/>
        <path fill="#E1F0FF" d="M183.93 382.642l-12.1-7.032c-.305-.176-.867-.177-1.177.002l-7.226 4.17a.52.52 0 0 0-.08.056.466.466 0 0 0 .078.055l12.101 7.032c.306.179.865.177 1.173 0l7.226-4.17a.452.452 0 0 0 .081-.06.642.642 0 0 0-.076-.053m-8.903 5.14l-12.1-7.032c-.376-.219-.591-.552-.591-.912 0-.361.219-.696.597-.915l7.226-4.169c.62-.36 1.55-.36 2.17 0l12.099 7.03c.374.22.591.552.591.912 0 .362-.22.697-.598.915l-7.227 4.173a2.216 2.216 0 0 1-1.083.266c-.387 0-.775-.089-1.084-.268"/>
        <path fill="#A7B3BF" d="M146.553 347.708c-.461.268-.465.702-.005.968l7.328 4.26c.46.265 1.208.265 1.671 0l3.799-2.195c.463-.268.466-.7.005-.968l-7.328-4.257c-.457-.268-1.208-.268-1.67 0l-3.8 2.192z"/>
        <path fill="#E1F0FF" d="M159.102 350.2l-7.327-4.258c-.306-.177-.865-.175-1.173 0l-3.8 2.194a.54.54 0 0 0-.08.058.732.732 0 0 0 .075.055l7.327 4.255c.306.178.867.18 1.174 0l3.8-2.192a.433.433 0 0 0 .08-.058.5.5 0 0 0-.076-.054m-5.475 3.162l-7.326-4.258c-.376-.219-.592-.55-.59-.91 0-.363.217-.696.595-.913l3.799-2.194c.62-.358 1.55-.358 2.169 0l7.326 4.258c.374.217.591.55.591.91 0 .363-.219.696-.598.915l-3.8 2.194c-.308.179-.695.265-1.083.265-.387 0-.774-.086-1.083-.267"/>
        <path fill="#9CA7B2" d="M171.063 243.46s11.46 31.291 0 37.906l-5.54 3.2c-.004.003-.011.005-.017.005l-21.72 12.546c-3.06 1.768-3.058 4.656.003 6.421L174.3 321.16c3.057 1.768 8.035 1.724 11.063-.094l15.494-9.16c.052.023.103.048.155.073 1.78-1.106 3.444-2.15 4.942-3.089l.68-.403c.063-.04.107-.087.167-.129 3.14-1.971 5.269-3.32 5.269-3.32s9.69-7.096 9.69-32.309l-50.698-29.268z"/>
        <path fill="#E1F0FF" d="M221.769 269.519c0 25.215-9.69 32.309-9.69 32.309s-2.124 1.34-5.279 3.322c-.058.03-.112.085-.168.14l-.67.392c-1.508.95-3.156 1.982-4.945 3.098l-.166-.083-1.787 1.062-13.685 8.1c-3.044 1.813-8.017 1.87-11.088.08l-30.496-17.62c-3.073-1.758-3.073-4.634 0-6.42l13.713-7.932 7.986-4.608h.027c1.983-1.145 3.884-2.234 5.53-3.21 11.199-6.452.56-36.36.03-37.839v-.029h.026l50.662 29.238z"/>
        <path fill="#C1D0DC" d="M221.769 269.519c0 25.215-9.69 32.309-9.69 32.309s-2.124 1.34-5.279 3.322c-.058.03-.112.085-.168.14l-.67.392c-1.508.95-3.156 1.982-4.945 3.098l-.166-.083-1.787 1.062-41.556-23.792 7.986-4.608h.027c1.983-1.145 3.884-2.234 5.53-3.21 11.199-6.452.56-36.36.03-37.839l.026-.029 50.662 29.238z"/>
        <path fill="#D9E8F6" d="M80.97 1.467l-1.727 1.305c1.82-1.058 4.34-.908 7.12.698l3.047-2.003C86.626-.138 84.106-.288 82.287.77"/>
        <path fill="#C1D0DC" d="M311.973 328.858l8.06-4.683c1.795-1.043 2.91-3.263 2.918-6.417l-8.06 4.684c-.01 3.155-1.124 5.372-2.918 6.416"/>
        <path fill="#C1D0DC" d="M314.891 322.443l3.783-1.949.495-175.242-3.782 1.948zM305.418 129.926l3.043-2.002L89.41 1.467l-3.047 2.002z"/>
        <path fill="#D9E8F6" d="M319.17 145.252c.017-6.354-4.077-13.525-10.71-17.328l-3.043 2.003c5.524 3.188 9.989 10.919 9.97 17.273l3.782-1.948z"/>
        <path fill="#333" d="M86.364 3.47C80.839.28 76.342 2.837 76.322 9.191l-.495 175.241c-.018 6.349 4.451 14.082 9.974 17.273l219.053 126.457c5.526 3.187 10.02.627 10.037-5.721l.496-175.243c.018-6.352-4.446-14.084-9.969-17.273L86.364 3.47z"/>
        <path fill="#E1F0FF" d="M75.878 170.434l-.04 13.98c-.018 6.35 4.45 14.083 9.974 17.274l219.053 126.457c5.526 3.187 10.018.627 10.038-5.72l.038-13.982-239.063-138.01z"/>
        <path fill="#B3D7E1" d="M84.263 13.586l-.427 150.802 220.32 127.187.426-150.802z"/>
        <g opacity=".5">
            <path fill="#2342BE" d="M95.249 89.02l.02-7.426-6.448-3.73-.022 7.425 6.45 3.732zm.085-30.047l.02-7.427-6.448-3.731-.023 7.427 6.45 3.731zm-.043 15.03l.02-7.439-6.448-3.732-.022 7.442 6.45 3.73zm.103-36.67l.022-7.443-6.45-3.73-.02 7.44 6.448 3.733zm-.187 66.718l.02-7.44-6.449-3.733-.022 7.443 6.45 3.73zm2.653-68.173l-.006 2.877 17.854 10.329.008-2.873L97.86 35.878zm28.404 14.741l.008-2.877-28.398-16.428-.008 2.875 28.398 16.43zm-.109 38.955l.008-2.875-28.398-16.43-.008 2.876 28.398 16.43zm.042-15.015l.008-2.875-28.397-16.432-.009 2.877 28.398 16.43zm-.084 30.047l.008-2.877L97.723 85.3l-.008 2.875 28.398 16.432zm-.043 15.016l.008-2.875-28.397-16.43-.009 2.875 28.398 16.43zM86.387 21L129 45.653l-.232 82.449-.014 4.566-.145 51.332L86 159.347l.143-51.334.014-4.564.23-82.449z"/>
            <path fill="#7C56FE" d="M160 138.808l-.009 3.192L142 131.19l.009-3.19zM170 140.025l-.008 2.975L143 126.975l.008-2.975z"/>
            <path fill="#4B33A0" d="M139.683 96.547l-.004-.01a10.74 10.74 0 0 1-.164-.344c.055.12.111.236.168.354"/>
            <path fill="#4B33A0" d="M139.682 96.547a.034.034 0 0 0-.004-.01l.004.01zM136.914 86.834c.226 2.868 1.067 5.98 2.448 9.028-1.347-2.97-2.218-6.074-2.448-9.028M136.881 86.35l.01.171v-.002a36.824 36.824 0 0 1-.01-.17M139.683 96.547c2.5 5.136 6.373 9.812 10.721 12.454-4.38-2.658-8.249-7.316-10.721-12.454M150.92 77.29c7.75 4.439 14 15.19 13.977 24.009-.025 8.7-6.125 12.28-13.713 8.148 3.618 1.968 7.073 2.254 9.623.77l-9.933-16.948.046-15.978z"/>
            <path fill="#2342BE" d="M157.739 69.174l-.009 2.64-15.644-8.958.008-2.64z"/>
            <path fill="#FFF" d="M134.29 51.543l-.02 6.838 6 3.436.02-6.838-6-3.436zm7.805 8.672l-.008 2.64 15.645 8.96.006-2.642-15.643-8.958zm24.894 12.698l.006-2.644-24.89-14.252-.006 2.644 24.89 14.252zm-15.806 36.534c7.587 4.132 13.69.552 13.712-8.148.027-8.818-6.225-19.57-13.974-24.008l-.335-.188c-7.587-4.138-13.71-.552-13.734 8.138a22.873 22.873 0 0 0 .006.524l.006.216.008.192.008.152c.171 3.21 1.12 6.62 2.628 9.856 2.547 5.456 6.665 10.404 11.32 13.07.117.068.238.132.355.196zm-19.525-62.482l39.068 22.37-.165 58.546-39.068-22.37.165-58.546z"/>
            <path fill="#C4B3FD" d="M141.447 76.105l9.426 17.164-11.17 3.272a2.238 2.238 0 0 1-.189-.348c-1.524-3.272-2.428-6.62-2.623-9.674a36.824 36.824 0 0 1-.025-.516 15.628 15.628 0 0 1-.008-.238c-.002-.066-.004-.108-.004-.148-.002-.13-.004-.252-.004-.378.014-4.622 1.791-7.806 4.597-9.134"/>
            <path fill="#4B33A0" d="M136.895 86.572c-.006-.082-.01-.166-.014-.248v.026l.01.172a.359.359 0 0 1 .004.05M150.34 76.974c-.108-.056-.213-.112-.32-.166.08.042.158.08.236.122.029.012.055.028.083.044M150.581 77.101c-.072-.04-.145-.078-.22-.118-.006-.004-.014-.006-.022-.008.083.04.164.084.246.128l-.004-.002"/>
            <path fill="#7C56FE" d="M150.92 77.29l-.046 15.979-9.427-17.164c1.263-.634 2.76-.836 4.383-.626l.244.034.06.01c1.333.212 2.72.682 4.123 1.406l.106.056.218.116.34.19"/>
            <path fill="#4B33A0" d="M141.43 76.076c-2.61 1.274-4.334 4.142-4.554 8.296.407-7.834 6.056-11.086 13.105-7.582-1.335-.664-2.624-1.08-3.838-1.266-.028-.004-.05-.006-.07-.01l-.244-.036c-1.624-.208-3.12-.008-4.4.598"/>
            <path fill="#C4B3FD" d="M146.144 75.523c1.297.202 2.678.662 4.112 1.406-1.401-.724-2.789-1.196-4.112-1.406"/>
            <path fill="#7C56FE" d="M142 123.014l-.024 7.986-6.976-4.014.024-7.986z"/>
            <path fill="#4B33A0" d="M151.002 187.34c.318.183.574.637.572.991 0 .366-.258.512-.576.328-.318-.186-.574-.624-.572-.992 0-.352.258-.514.576-.328M172.002 200.338c.318.186.574.64.572.992 0 .368-.256.514-.576.33-.318-.186-.574-.626-.572-.992 0-.354.258-.514.576-.33M175.002 202.338c.318.186.574.64.572.992 0 .368-.258.514-.576.328-.32-.184-.574-.624-.572-.992 0-.352.256-.512.576-.328M180.002 204.34c.306.176.574.638.572.992 0 .368-.27.506-.576.328-.318-.184-.574-.624-.572-.992 0-.352.258-.514.576-.328M185.002 207.34c.318.183.574.637.572.991 0 .366-.258.512-.576.328-.318-.186-.574-.624-.572-.992 0-.352.256-.514.576-.328M146.409 185.081c.323.187.58.65.58 1.008-.001.374-.261.522-.584.333-.311-.179-.583-.634-.583-1.008.002-.357.276-.514.587-.333M154.851 189.956c.323.189.583.65.581 1.008-.002.374-.262.522-.585.335-.325-.189-.583-.634-.58-1.008 0-.36.26-.522.584-.335M159.078 192.399c.311.18.57.642.57 1-.003.373-.263.521-.574.34-.323-.186-.583-.633-.58-1.007 0-.358.261-.52.584-.333M163.294 194.833c.323.187.583.65.58 1.008 0 .374-.261.52-.584.333-.323-.187-.583-.634-.581-1.008 0-.357.26-.52.585-.333M167.509 197.268c.323.187.58.648.58 1.007-.001.374-.261.52-.584.334-.311-.181-.583-.634-.581-1.008 0-.358.274-.514.585-.333M188.609 209.452c.323.189.58.65.58 1.008-.001.374-.261.522-.584.335-.311-.18-.583-.634-.581-1.008 0-.36.274-.514.585-.335M192.836 211.895c.323.186.583.65.58 1.007 0 .374-.26.522-.584.334-.323-.187-.583-.634-.581-1.008 0-.358.262-.52.585-.333M197.051 214.329c.323.187.583.65.581 1.008 0 .374-.262.52-.585.333-.325-.187-.583-.634-.58-1.008 0-.357.26-.52.584-.333M201.278 216.772c.311.178.583.648.581 1.005 0 .374-.274.514-.585.336-.323-.19-.583-.634-.58-1.008.001-.36.261-.522.584-.333M144.17 145.327l-.102 35.879 63.535 36.693-.002.477-63.95-36.933.104-36.356z"/>
            <path fill="#1EA9CA" d="M158.251 153.892l14.168 15.53 12.831.586 12.92 15.687 9.282 2.627-.026 8.751-9.28-2.627-12.92-15.689-12.831-.57-14.168-15.544-12.212 5.264-.035 12.193 61.395 35.458L145.98 180.1l.06-20.943z"/>
            <path fill="#0DC0AD" d="M184.951 190.46L207 210.036l-.016 5.965L146 180.07l.006-2.07 14.94 5.504 7.063-1.695 8.486 11.112z"/>
            <path fill="#7C56FE" d="M158.158 163l14.065 15.568 12.738.574 12.825 15.712 9.214 2.631-.036 12.618-22.037-19.345-8.451 2.431-8.482-10.983-7.058 1.675-14.93-5.44-.006 2.046L206.948 216 146 180.487l.032-12.212z"/>
            <path fill="#4B33A0" d="M205.002 218.338c.318.186.574.64.572.992 0 .368-.256.514-.576.33-.318-.186-.574-.626-.572-.992 0-.354.258-.514.576-.33M141.001 177.34c.32.185.574.625.574.993-.002.366-.258.512-.576.328-.32-.186-.576-.624-.574-.992 0-.368.258-.514.576-.328M141.001 173.34c.32.184.574.624.574.992-.002.368-.258.512-.578.328-.318-.184-.574-.624-.572-.992 0-.368.256-.512.576-.328M141.001 168.34c.32.183.574.637.574.991-.002.366-.258.512-.578.328-.32-.184-.574-.624-.572-.992 0-.352.256-.514.576-.328M141.002 163.34c.32.184.574.624.572.992 0 .368-.256.514-.576.328-.32-.184-.574-.624-.572-.992 0-.368.256-.512.576-.328M141.003 158.34c.318.186.574.624.572.992 0 .354-.256.514-.576.33-.32-.186-.574-.64-.574-.992.002-.368.258-.514.578-.33M141.001 154.34c.32.185.574.623.574.991-.002.368-.258.514-.576.328-.32-.184-.576-.624-.574-.992 0-.366.258-.512.576-.328M141.001 149.339c.32.186.574.626.574.992-.002.368-.258.514-.578.33-.32-.186-.574-.624-.572-.992 0-.368.256-.514.576-.33M141.001 144.338c.32.186.574.64.574.992-.002.368-.258.514-.578.328-.32-.184-.574-.624-.572-.992 0-.352.256-.512.576-.328M182 122c2.564 5.362 6.538 10.242 11 13-4.493-2.775-8.463-7.638-11-13"/>
            <path fill="#4B33A0" d="M182.082 122.178c-.056-.12-.112-.236-.166-.356.054.12.112.236.168.356h-.002zM180.007 109.816"/>
            <path fill="#FFF" d="M193.115 118L203 135.053c-2.54 1.496-5.978 1.206-9.578-.773-.116-.064-.235-.132-.353-.2-4.497-2.605-8.523-7.446-11.069-12.787L193.115 118z"/>
            <g>
                <path fill="#4B33A0" d="M180.343 110.582l.006.11.004.044-.016-.24.006.086"/>
                <path fill="#C4B3FD" d="M184.692 100.277l8.99 17.164-10.651 3.272a2.228 2.228 0 0 1-.181-.35c-1.454-3.27-2.315-6.62-2.502-9.672l-.006-.11-.005-.086-.006-.15a3.824 3.824 0 0 1-.006-.172l-.008-.236-.004-.15-.001-.376c.013-4.622 1.705-7.806 4.38-9.134"/>
                <path fill="#4B33A0" d="M180.324 110.174l.006.13a6.412 6.412 0 0 1-.006-.154v.024zM180.317 108.988"/>
                <path fill="#C4B3FD" d="M189.171 99.695c1.237.2 2.554.662 3.921 1.404-1.336-.724-2.66-1.194-3.92-1.404"/>
                <path fill="#4B33A0" d="M193.173 101.144c-.103-.056-.203-.112-.305-.164.075.04.15.078.225.12.027.014.054.028.08.044"/>
            </g>
            <path fill="#4B33A0" d="M194.117 102.063c-.072-.042-.144-.078-.216-.118-.008-.004-.016-.006-.022-.01l.242.13-.004-.002"/>
            <path fill="#7C56FE" d="M194 100.905L193.958 117 185 99.712c1.2-.64 2.621-.844 4.166-.63.076.01.153.02.23.034.019.002.038.004.057.008 1.267.216 2.585.687 3.917 1.416.032.02.067.038.101.059.07.038.138.076.207.116.11.065.215.125.322.19"/>
            <path fill="#4B33A0" d="M184.52 100.69c-2.59 1.276-4.3 4.15-4.52 8.31.404-7.847 6.01-11.103 13-7.595-1.324-.662-2.603-1.081-3.805-1.265-.03-.006-.05-.008-.07-.01a4.96 4.96 0 0 0-.24-.036c-1.613-.21-3.097-.01-4.366.596"/>
            <g fill="#4B33A0">
                <path d="M195.264 102.463c7.39 4.46 13.35 15.26 13.327 24.12-.023 8.74-5.84 12.336-13.075 8.187 3.45 1.975 6.744 2.264 9.177.771l-9.471-17.024.042-16.054z"/>
            </g>
            <path fill="#4B33A0" d="M180 112c.185 2.858.871 5.962 2 9-1.1-2.962-1.812-6.056-2-9"/>
            <path fill="#1EA9CA" d="M177.783 75.583l-.02 6.845 5.978 3.447.018-6.845-5.976-3.447zm7.756 8.682l-.008 2.643 15.553 8.967.006-2.644-15.551-8.966zm24.746 12.71l.008-2.645-24.742-14.267-.008 2.645 24.742 14.266zm-15.71 36.572c7.541 4.135 13.605.55 13.63-8.156.025-8.829-6.19-19.59-13.893-24.034l-.333-.186c-7.54-4.145-13.628-.555-13.65 8.146 0 .122 0 .246.002.37l.002.154c.002.07.004.144.008.215.002.066.004.13.008.194l.006.152c.17 3.211 1.114 6.625 2.614 9.866 2.532 5.46 6.625 10.412 11.25 13.081.12.068.237.134.355.198zM175.165 71L214 93.393 213.834 152 175 129.607 175.166 71zM151.115 93L161 110.054c-2.538 1.494-5.976 1.206-9.576-.774-.116-.065-.237-.131-.353-.2-4.5-2.604-8.523-7.446-11.071-12.787L151.115 93z"/>
            <path fill="#FFF" d="M159.313 194.639c.306.18.562.032.564-.34 0-.358-.254-.818-.56-.998-.318-.187-.576-.024-.576.332-.002.373.254.82.572 1.006zm4.151 2.428c.318.187.576.04.576-.332.002-.357-.254-.82-.572-1.006-.32-.186-.576-.024-.576.333-.002.373.254.819.572 1.005zm-21.866-16.77c.32.186.576.036.576-.333.002-.373-.254-.82-.572-1.005-.32-.189-.576-.04-.578.332 0 .371.254.817.574 1.006zm38.495 26.5c.306.181.576.041.576-.332.002-.359-.266-.827-.572-1.005-.32-.189-.576-.025-.576.332-.002.373.254.82.572 1.006zm-24.942-14.593c.318.187.574.037.576-.334 0-.357-.254-.82-.572-1.006-.32-.186-.577-.024-.577.335-.002.369.252.817.573 1.005zM151 189.776c.318.184.576.036.576-.333.002-.359-.254-.82-.572-1.007-.318-.187-.576-.023-.576.332-.002.373.254.82.572 1.008zm-4.163-2.44c.318.19.574.041.576-.332 0-.354-.254-.818-.572-1.005-.308-.18-.576-.022-.578.332 0 .373.266.83.574 1.006zm45.72 26.755c.32.187.577.039.577-.332.002-.357-.254-.821-.572-1.006-.318-.186-.576-.024-.576.333-.002.37.254.819.572 1.005zm-16.626-9.73c.318.189.576.039.576-.332.002-.357-.254-.817-.572-1.006-.322-.186-.577-.024-.577.333-.002.37.25.818.573 1.005zm-4.153-2.427c.322.185.578.037.578-.334.002-.357-.254-.819-.574-1.005-.318-.187-.576-.025-.576.334-.002.369.254.817.572 1.005zm-4.163-2.438c.32.186.574.04.576-.333 0-.356-.252-.819-.572-1.005-.306-.18-.576-.022-.578.332 0 .373.268.827.574 1.006zm37.41 21.889c.317.187.575.039.575-.334.002-.355-.254-.817-.572-1.006-.32-.186-.578-.024-.578.335-.002.37.254.819.574 1.005zm-20.78-12.159c.317.187.575.039.575-.332.002-.36-.254-.82-.572-1.006-.32-.188-.576-.024-.576.333-.002.373.254.819.572 1.005zm16.626 9.73c.308.179.577.039.577-.334.002-.357-.265-.825-.573-1.003-.318-.189-.574-.027-.576.332-.002.373.254.817.572 1.005zm-59.261-43.494c.32.186.576.04.578-.333 0-.373-.254-.819-.574-1.005-.318-.187-.574-.04-.576.332 0 .373.254.82.572 1.006zm46.785 36.195c.318.184.574.036.576-.337 0-.355-.254-.817-.572-1.005-.306-.177-.576-.023-.576.334-.002.371.266.827.572 1.008zm-46.703-65.242c.32.188.576.038.576-.333.002-.356-.252-.817-.572-1.005-.32-.187-.576-.024-.576.332-.002.371.252.82.572 1.006zm-.014 4.85c.32.185.576.037.578-.336 0-.369-.254-.817-.574-1.005-.32-.185-.576-.037-.576.334-.002.371.252.82.572 1.008zm-.026 9.682c.32.187.574.025.576-.334 0-.373-.254-.817-.572-1.005-.32-.187-.576-.039-.578.334 0 .357.254.817.574 1.005zm-.014 4.833c.32.187.576.039.576-.332.002-.373-.252-.821-.572-1.006-.32-.186-.576-.04-.578.333 0 .37.254.819.574 1.005zm-.014 4.833c.32.186.576.038.578-.333 0-.356-.254-.818-.574-1.005-.318-.186-.574-.022-.576.332 0 .373.254.821.572 1.006zm55.085 45.907c.32.186.576.038.576-.333.002-.356-.254-.819-.572-1.005-.32-.187-.576-.024-.576.332-.002.371.252.82.572 1.006zm-55.043-60.424c.318.189.574.041.576-.332 0-.37-.254-.817-.574-1.005-.318-.187-.574-.037-.576.332 0 .373.254.821.574 1.005zm-6.411-36.284l-.022 7.466 6.41 3.75.023-7.465-6.411-3.75zm8.327 9.461l-.008 2.885 16.694 9.767.006-2.887-16.692-9.765zm.012-4.581l-.008 2.884 26.553 15.537.008-2.885-26.553-15.536zm41.498 46.268l-12.638-.586-13.95-15.492-12.027 5.253-.058 20.895 60.46 35.376.016-5.872.036-12.569.024-8.73-9.14-2.622-12.723-15.653zm22.01 48.26l.003-.476-62.57-36.61.1-35.798-.409-.24-.102 36.274 62.979 36.85zm-23.586-74.196L214 162.864 213.802 234l-30.486-17.839L132 186.137l.198-71.137 42.26 24.727 9.058 5.297z"/>
            <path fill="#2342BE" d="M288.315 247.228c2.453-.663 4.399-2.134 5.685-4.228l-.084 31-.235-.139c-4.282-3.178-7.858-10.818-9.665-15.096a40.912 40.912 0 0 1-1.751-5.122c-.578-2.148-.961-4.245-1.265-6.319 2.683.488 5.167.484 7.315-.096"/>
            <g>
                <path fill="#2342BE" d="M238.389 205.162c5.343 7.471 7.654 15.598 13.125 22.986-1.663 6.218-4.543 11.933-12.01 8.6-.389-.174-.77-.37-1.146-.586-8.285-4.78-13.853-19.738-15.437-29.421-.03 11.52-.07 25.13-.073 26.134l.053-41.122c.708.34 1.422.718 2.134 1.13 4.887 2.816 9.767 7.253 13.354 12.279M225.566 173.058l-.02 7.431-6.485-3.741.02-7.431zM244.387 188.478l-.008 2.877-16.884-9.742.008-2.874z"/>
                <path fill="#4B33A0" d="M223.645 138.112c.192 1.895.64 3.882 1.321 5.877-.673-1.963-1.127-3.948-1.32-5.877M223.602 137.64c-.006-.086-.014-.173-.019-.26.005.087.013.174.019.26M223.564 137.08l.016.26-.004-.05-.006-.115a26.544 26.544 0 0 0-.006-.099v.004zM223.556 136.904c0 .016 0 .033.002.047l-.006-.128.004.081"/>
                <path fill="#C4B3FD" d="M228.136 126.763l9.469 17.349-11.215 3.299a26.713 26.713 0 0 1-1.315-3.11c-.014-.036-.024-.07-.036-.106a3.534 3.534 0 0 1-.071-.207c-.682-1.995-1.131-3.982-1.323-5.874-.029-.281-.051-.554-.07-.823l-.005-.117-.006-.097-.006-.125-.009-.19a16 16 0 0 1-.008-.231c0-.07 0-.113-.002-.154-.002-.131-.002-.256-.002-.382.012-4.67 1.789-7.888 4.6-9.232"/>
                <path fill="#4B33A0" d="M223.582 137.38l-.018-.3.016.26a.27.27 0 0 1 .002.04M223.55 136.762l.002.06a1.376 1.376 0 0 0-.002-.06"/>
                <path fill="#2342BE" d="M254.373 189.677l-.008 2.862-26.854-15.493.008-2.862z"/>
                <path fill="#4B33A0" d="M226.37 147.416c2.586 5.36 6.644 10.227 11.186 12.847-4.574-2.64-8.629-7.488-11.186-12.847"/>
                <path fill="#1EA9CA" d="M265.835 214.442c3.005 1.733 5.991 4.498 8.022 7.718 5.724 9.087 5.682 16.884 6.918 25.04.313 2.087.712 4.197 1.313 6.36a40.26 40.26 0 0 0 1.825 5.151c1.875 4.304 5.594 11.99 10.047 15.188.274.196.549.376.828.535l-71.939-41.501.073-26.193c1.582 9.683 7.15 24.642 15.437 29.421.375.218.757.413 1.143.586 7.47 3.336 10.35-2.381 12.013-8.6.872-3.258 1.41-6.654 2.102-8.956 1.058-3.522 2.776-7 6.812-6.647 1.657.14 3.535.819 5.406 1.898"/>
                <path fill="#4B33A0" d="M245.624 161.997c-2.197.5-4.847.037-7.712-1.534 2.774 1.518 5.454 2.042 7.712 1.534M232.53 126.122c-1.509-.196-2.897-.03-4.12.475 2.314-.975 5.292-.716 8.56.992-.081-.044-.164-.085-.247-.125a.49.49 0 0 0-.073-.036c-.101-.053-.2-.1-.3-.148a13.64 13.64 0 0 0-2.875-.993 12.53 12.53 0 0 0-.945-.165"/>
                <path fill="#2342BE" d="M244.49 119.755l-.006 2.67-15.696-9.054.008-2.67z"/>
                <path fill="#FFF" d="M220.968 101.937l-.02 6.911 6.019 3.473.02-6.911-6.02-3.473zm7.828 8.765l-.008 2.668 15.696 9.057.006-2.673-15.694-9.052zm24.96 12.826l.009-2.672-24.957-14.397-.008 2.672 24.957 14.397zm-6.186 37.714c2.514-1.476 4.074-4.593 4.089-9.022.024-8.913-6.246-19.78-14.01-24.259-.115-.064-.226-.129-.34-.192-.088-.048-.18-.097-.27-.143-3.327-1.743-6.311-2.005-8.63-1.029-.099.042-.196.083-.293.13-2.804 1.342-4.567 4.566-4.579 9.27 0 .123 0 .25.002.374l.002.16.006.206.01.214.007.125c.117 2.248.609 4.595 1.404 6.914a32.902 32.902 0 0 0 1.396 3.428c2.563 5.357 6.616 10.205 11.192 12.847.12.067.237.134.357.198 2.862 1.571 5.515 2.034 7.712 1.535a6.846 6.846 0 0 0 1.945-.756zm-29.243-63.933l39.18 22.603-.167 59.175-39.18-22.602.167-59.176z"/>
                <path fill="#1EA9CA" d="M247.567 161.235a6.628 6.628 0 0 1-1.943.763c-2.258.507-4.939-.017-7.71-1.535-.12-.064-.24-.131-.357-.198-4.542-2.622-8.6-7.49-11.168-12.855l11.215-3.299 9.963 17.124z"/>
                <path fill="#4B33A0" d="M228.136 126.763c-2.81 1.344-4.587 4.563-4.599 9.232.012-4.702 1.775-7.926 4.581-9.266l.018.034z"/>
                <path fill="#C4B3FD" d="M233.475 126.287c.916.199 1.873.526 2.857.987a13.757 13.757 0 0 0-2.857-.987"/>
                <path fill="#7C56FE" d="M237.65 127.961l-.045 16.15-9.468-17.348c.076-.083.174-.124.273-.166 1.224-.505 2.612-.671 4.121-.475.31.04.625.097.945.166a13.68 13.68 0 0 1 2.857.986l.317.152c.025.012.049.024.073.038.085.04.168.083.251.126l.065.036c.03.014.059.03.087.044l.182.097c.115.065.227.13.342.194"/>
                <path fill="#4B33A0" d="M237.126 127.671c-.03-.016-.056-.032-.087-.044.091.046.182.093.271.143l-.002-.002c-.06-.034-.123-.064-.182-.097"/>
                <path fill="#2342BE" d="M226.986 105.41l-.02 6.91-6.017-3.472.018-6.912z"/>
                <path fill="#4B33A0" d="M237.65 127.961c7.763 4.478 14.033 15.346 14.009 24.259-.014 4.429-1.574 7.546-4.093 9.015l-9.96-17.124.044-16.15zM270.194 172.703c-.057-.121-.116-.238-.17-.36.054.122.113.239.17.36M267.382 162.369l.004.086.006.114.004.03v.016l-.014-.246"/>
                <path fill="#C4B3FD" d="M271.962 152.04l9.459 17.35-11.207 3.308a2.397 2.397 0 0 1-.19-.354c-1.53-3.307-2.436-6.691-2.63-9.776a2.128 2.128 0 0 1-.008-.113c-.002-.027-.002-.057-.005-.087-.004-.049-.006-.1-.008-.15l-.006-.174a5.59 5.59 0 0 1-.006-.24c-.002-.067-.004-.11-.004-.15-.002-.131-.004-.255-.004-.38.014-4.672 1.795-7.89 4.61-9.234"/>
                <path fill="#4B33A0" d="M270.194 172.703c2.509 5.19 6.393 9.916 10.753 12.586-4.39-2.687-8.273-7.395-10.753-12.586M288.551 187.428c-2.007.208-4.333-.323-6.82-1.686 2.418 1.324 4.763 1.894 6.82 1.686"/>
                <g transform="translate(216 163.71)">
                    <mask id="c" fill="#fff">
                        <use xlink:href="#b"/>
                    </mask>
                    <path fill="#FFF" d="M3.08 5.608l-.02 7.43 6.485 3.74.02-7.428-6.484-3.742zm8.424 9.42l-.008 2.877 16.884 9.74.008-2.875-16.884-9.742zm.014-4.554l-.008 2.862 26.854 15.493.009-2.863-26.855-15.492zM6.783 69.127c3.634 2.155 71.46 41.286 72.004 41.597-.28-.16-.552-.34-.825-.536l.244.142.087-31.19c-1.337 2.108-3.36 3.586-5.912 4.253-2.233.586-4.817.59-7.607.097-1.234-8.156-1.194-15.951-6.917-25.038-2.032-3.222-5.016-5.986-8.023-7.72-1.87-1.08-3.747-1.759-5.404-1.898-4.038-.354-5.754 3.127-6.814 6.646-.69 2.305-1.23 5.699-2.102 8.96-5.471-7.391-7.782-15.515-13.125-22.989-3.587-5.025-8.467-9.46-13.354-12.279a31.117 31.117 0 0 0-2.134-1.128l-.118 41.083zm45.888-38.685l32.475 18.735-.2 70.939L52.47 101.38l-9.676-5.582L.05 71.141.25.202l42.746 24.659 9.675 5.581z" mask="url(#c)"/>
                </g>
                <path fill="#7C56FE" d="M281.466 153.238l-.045 16.152-9.458-17.35c1.266-.641 2.768-.846 4.398-.633l.245.034.059.01c1.337.216 2.731.69 4.137 1.421.033.02.07.039.106.059.072.036.145.077.22.117.115.063.225.125.338.19"/>
                <path fill="#1EA9CA" d="M264.796 127.221l-.018 6.912 6.019 3.473.02-6.912-6.021-3.473zm7.816 8.757l-.008 2.67 15.708 9.063.008-2.67-15.708-9.063zm24.975 12.835l.008-2.673-24.971-14.403-.006 2.67 24.969 14.406zm-6.19 37.713c2.518-1.476 4.078-4.59 4.092-9.022.024-8.913-6.246-19.78-14.023-24.266a18.013 18.013 0 0 0-.336-.19c-7.61-4.183-13.752-.558-13.777 8.227 0 .124.002.25.004.374 0 .053.002.104.004.154 0 .075.002.146.007.218 0 .065.002.13.006.197.002.05.004.1.008.151.17 3.245 1.123 6.691 2.638 9.962 2.553 5.515 6.687 10.518 11.355 13.21.119.07.238.136.356.2 2.488 1.363 4.813 1.895 6.82 1.687a2.22 2.22 0 0 0 .121-.014c1.016-.124 1.916-.417 2.726-.888zm-29.24-63.932l39.181 22.602-.168 59.178-39.18-22.604.168-59.176z"/>
                <path fill="#4B33A0" d="M267.416 162.884c.226 2.899 1.07 6.042 2.454 9.123-1.35-3.004-2.223-6.137-2.454-9.123M267.396 162.617l.014.186-.014-.186M267.396 162.615v.002-.018zM267.372 162.177l.002.043c-.004-.07-.006-.134-.008-.199v.025l.006.131M267.359 160.847c-.002.141-.006.285-.006.428 0-.143.002-.287.006-.428"/>
                <path fill="#FFF" d="M291.394 186.518a6.79 6.79 0 0 1-2.672.89l-.05.006c-.04.006-.08.01-.12.014-2.058.208-4.403-.362-6.82-1.686-.12-.065-.24-.132-.357-.2-4.534-2.616-8.592-7.48-11.162-12.845l11.207-3.307 9.974 17.128z"/>
                <path fill="#2342BE" d="M253.765 120.857l-.008 2.67L228.8 109.13l.008-2.67z"/>
                <path fill="#C4B3FD" d="M276.675 151.454c1.3.202 2.686.667 4.127 1.419-1.406-.732-2.8-1.207-4.127-1.42"/>
                <path fill="#4B33A0" d="M271.946 152.01c-2.618 1.288-4.348 4.187-4.57 8.388.409-7.92 6.078-11.208 13.149-7.666-1.341-.67-2.634-1.092-3.85-1.278l-.07-.012a68.62 68.62 0 0 1-.244-.036c-1.63-.21-3.132-.008-4.415.604M280.885 152.918c-.107-.056-.214-.113-.322-.165l.24.12.082.045M280.907 152.93h.002l-.008-.004.006.004"/>
                <path fill="#4B33A0" d="M280.909 152.93l-.008-.004-.017-.008c.081.045.164.087.245.132 0 0-.002 0-.002-.002-.073-.04-.145-.077-.218-.118M281.466 153.238c7.777 4.486 14.045 15.354 14.023 24.266-.014 4.431-1.576 7.547-4.095 9.014l-9.973-17.128.045-16.152z"/>
            </g>
            <path fill="#2342BE" d="M140 54.679L139.98 62 134 58.321l.02-7.321zM167 70.185L166.992 73 141 57.815l.008-2.815z"/>
            <path fill="#4B33A0" d="M135.998 85.946v.024l.004.084c-.002-.038-.004-.072-.004-.108"/>
            <path fill="#4B33A0" d="M136 86.001c0 .014 0 .028.002.042l-.004-.086c.002.014.002.03.002.044M136.007 83.816"/>
        </g>
        <path fill="#FFF" d="M263.935 199.066L263.6 317.23l141.285 81.562.333-118.166z" opacity=".697"/>
        <g fill="#2342BE" opacity=".8">
            <path d="M278.79 215.955l-.03 10.443-9.071-5.238.029-10.443zM319.168 239.265l-.01 4.035-37.646-21.731.011-4.036zM305.172 237.603l-.013 4.035-23.665-13.661.012-4.035z"/>
        </g>
        <g opacity=".8">
            <path fill="#0DC0AD" d="M348.665 326.359c-8.077-5.103-16.255-11.885-22.508-20.059-.233-.304-.46-.606-.686-.911 1.442-5.387 2.334-11.006 3.484-14.815 1.724-5.8 4.559-11.547 11.217-10.965 2.739.243 5.84 1.368 8.929 3.153 4.953 2.86 9.878 7.412 13.23 12.731 9.44 15 9.39 27.876 11.429 41.347-6.79-1.194-14.314-4.169-21.796-8.486a96.415 96.415 0 0 1-3.3-1.995"/>
            <path fill="#0DC0AD" d="M278.286 270.031c2.61 15.987 11.798 40.685 25.473 48.578.618.36 1.248.682 1.885.97 12.334 5.509 17.08-3.92 19.827-14.19.226.306.452.608.685.912 6.254 8.172 14.432 14.954 22.508 20.058 1.1.693 2.198 1.359 3.3 1.994 7.481 4.319 15.006 7.292 21.795 8.488.523 3.447 1.183 6.936 2.173 10.508a63.26 63.26 0 0 0 2.988 8.494c3.097 7.106 9.25 19.807 16.586 25.08L278.165 313.18l.12-43.15"/>
            <path fill="#2342BE" d="M303.806 267.422c8.817 12.341 12.634 25.765 21.666 37.967-2.748 10.27-7.493 19.7-19.828 14.189a20.386 20.386 0 0 1-1.885-.968c-13.675-7.893-22.862-32.593-25.472-48.58l-.123 43.152.108-67.884a51.267 51.267 0 0 1 3.518 1.858c8.046 4.645 16.098 11.97 22.016 20.266"/>
            <path fill="#00F690" d="M395.505 380.922c.449.321.901.618 1.359.882l-118.7-68.524 117.341 67.642z"/>
            <path fill="#2342BE" d="M386.296 336.677c4.208-1.101 7.547-3.543 9.756-7.026l-.147 51.502-.4-.231c-7.334-5.273-13.488-17.973-16.585-25.078a63.015 63.015 0 0 1-2.987-8.495c-.99-3.57-1.651-7.061-2.174-10.509 4.596.807 8.858.8 12.537-.163"/>
        </g>
    </g>
</svg>
