<svg xmlns="http://www.w3.org/2000/svg" xmlns:xlink="http://www.w3.org/1999/xlink" width="127" height="127" viewBox="0 0 127 127">
    <defs>
        <circle id="b" cx="48.5" cy="51.5" r="48.5"/>
        <filter id="a" width="151.5%" height="151.5%" x="-25.8%" y="-20.6%" filterUnits="objectBoundingBox">
            <feOffset dy="5" in="SourceAlpha" result="shadowOffsetOuter1"/>
            <feGaussianBlur in="shadowOffsetOuter1" result="shadowBlurOuter1" stdDeviation="7.5"/>
            <feColorMatrix in="shadowBlurOuter1" values="0 0 0 0 0 0 0 0 0 0 0 0 0 0 0 0 0 0 0.1 0"/>
        </filter>
    </defs>
    <g fill="none" fill-rule="evenodd" transform="translate(15 7)">
        <use fill="#000" filter="url(#a)" xlink:href="#b"/>
        <use fill="#FFF" xlink:href="#b"/>
        <circle cx="56" cy="48" r="48" fill="#19AACC" opacity=".07"/>
        <g>
            <path fill="#0DC0AD" d="M55.398 50.555v-13.54l11.805-6.769v13.54l-11.805 6.769zM41.796 30.246l11.806 6.77v13.54l-11.806-6.77v-13.54zm12.704 5.22l-5.118-2.945 11.766-6.768 5.119 2.944L54.5 35.465zm0-13.538l4.851 2.791-11.766 6.77-4.852-2.792L54.5 21.928zm-.45-1.808l-13.582 7.802a.913.913 0 0 0-.468.775v15.606a.913.913 0 0 0 .468.775l13.574 7.802c.28.16.624.16.904 0l13.585-7.802a.914.914 0 0 0 .469-.775V28.697a.914.914 0 0 0-.468-.775L54.958 20.12a.92.92 0 0 0-.907 0z"/>
            <path fill="#2342BE" d="M64.193 66.862a10.513 10.513 0 0 1-6.56.927l-9.492-1.785a4.332 4.332 0 0 0-3.211.447c-.014.007-.028.016-.041.024l-4.169 2.692-2.99-10.018a7.053 7.053 0 0 0 2.488-1.464l1.549-1.409a9.448 9.448 0 0 1 9.974-.976l.653.33a8.336 8.336 0 0 0 3.665.862h6.333c1.747 0 3.272 1.21 3.703 2.939l-4.356-.204c-1.68-.078-3.362 0-5.028.235a.905.905 0 0 0-.789 1.028.892.892 0 0 0 1.033.771 25.342 25.342 0 0 1 4.704-.222l5.402.25h.04a.9.9 0 0 0 .89-.908 5.51 5.51 0 0 0-.006-.242l.64-.345 7.826-4.311a2.876 2.876 0 0 1 3.365.424L64.193 66.862zm-32.974 8.32l-2.325-19.468h5.962l5.813 19.468h-9.45zm33.93-20.887l.02-.012a3.368 3.368 0 0 1 3.205-.123l-2.784 1.53a5.556 5.556 0 0 0-1.555-.776l1.113-.619zm6.4.182c.72-.368 1.613-.12 2.254.4l-6.015 3.313-.186.1a5.728 5.728 0 0 0-.682-1.266l4.628-2.547zm4.057-.593l-.153.084c-1.199-1.382-3.19-1.897-4.718-1.107l-.02.01-.556.307a5.123 5.123 0 0 0-5.87-.468l-3.527 1.965h-4.703a6.574 6.574 0 0 1-2.89-.682l-.653-.325a11.188 11.188 0 0 0-11.904 1.226l-1.577 1.433a5.26 5.26 0 0 1-1.825 1.083l-.844-2.848a.913.913 0 0 0-.85-.665h-7.627a.914.914 0 0 0-.666.329.957.957 0 0 0-.217.722l2.542 21.27a.88.88 0 0 0 .884.781H41.87c.593.023 1.03-.561.85-1.14l-1.463-4.896 4.56-2.94a2.59 2.59 0 0 1 1.92-.25l.055.012 9.52 1.791c2.626.48 5.333.09 7.725-1.113a.965.965 0 0 0 .11-.065l16.466-11.546a.92.92 0 0 0 .258-1.218c-1.293-2.202-4.055-2.973-6.266-1.75z"/>
            <path fill="#2342BE" d="M35.5 71.842a.658.658 0 1 1 0 1.316.658.658 0 0 1 0-1.316M33 72.5a2.5 2.5 0 1 0 5.001 0 2.5 2.5 0 0 0-5.001 0"/>
        </g>
    </g>
</svg>
