<svg xmlns="http://www.w3.org/2000/svg" xmlns:xlink="http://www.w3.org/1999/xlink" width="127" height="127" viewBox="0 0 127 127">
    <defs>
        <circle id="b" cx="48.5" cy="51.5" r="48.5"/>
        <filter id="a" width="151.5%" height="151.5%" x="-25.8%" y="-20.6%" filterUnits="objectBoundingBox">
            <feOffset dy="5" in="SourceAlpha" result="shadowOffsetOuter1"/>
            <feGaussianBlur in="shadowOffsetOuter1" result="shadowBlurOuter1" stdDeviation="7.5"/>
            <feColorMatrix in="shadowBlurOuter1" values="0 0 0 0 0 0 0 0 0 0 0 0 0 0 0 0 0 0 0.1 0"/>
        </filter>
        <path id="c" d="M0 .127h49V61H0z"/>
    </defs>
    <g fill="none" fill-rule="evenodd" transform="translate(15 7)">
        <use fill="#000" filter="url(#a)" xlink:href="#b"/>
        <use fill="#FFF" xlink:href="#b"/>
        <circle cx="56" cy="48" r="48" fill="#19AACC" opacity=".07"/>
        <g>
            <g transform="translate(29 18)">
                <mask id="d" fill="#fff">
                    <use xlink:href="#c"/>
                </mask>
                <path fill="#2342BE" d="M25.362 29.852l21.914-13.126V45.17L25.362 58.557V29.852zm-.862-1.549l-6.507-3.897L39.906 11.28l6.507 3.898L24.5 28.303zm-.862 30.254L1.724 45.432V16.726l7.633 4.587V41.2c.012.64.638 1.068 1.21.826l2.295-.982 2.716 3.2a.852.852 0 0 0 .965.245.907.907 0 0 0 .57-.837V25.93l6.525 3.923v28.705zM24.5 2.054l7.656 4.586-21.913 13.124-7.656-4.585L24.5 2.054zm-9.11 22.843v16.387l-1.625-1.901a.87.87 0 0 0-.995-.236l-1.69.716V22.345l4.31 2.552zm22.792-14.649L16.269 23.373l-4.303-2.576L33.88 7.67l4.302 2.577zM49 15.18a.9.9 0 0 0-.43-.773L24.93.247a.835.835 0 0 0-.86 0L.43 14.406a.899.899 0 0 0-.43.773v30.768c0 .32.164.615.43.775L24.07 60.88c.266.16.594.16.86 0l23.59-14.395c.297-.181.48-.512.48-.87V15.178z" mask="url(#d)"/>
            </g>
            <path fill="#0435C8" d="M33 59c-.552 0-1 .392-1 .877v3.246c0 1.17 2 1.17 2 0v-3.246c0-.485-.448-.877-1-.877M36 61c-.552 0-1 .42-1 .937v3.126c0 1.25 2 1.25 2 0v-3.126c0-.517-.448-.937-1-.937M40 64c-.552 0-1 .362-1 .81v2.38c0 1.08 2 1.08 2 0v-2.38c0-.448-.448-.81-1-.81M43 66c-.552 0-1 .395-1 .881v2.238c0 1.175 2 1.175 2 0V66.88c0-.486-.448-.881-1-.881M47 69c-.552 0-1 .427-1 .954v2.092c0 1.272 2 1.272 2 0v-2.092c0-.527-.448-.954-1-.954"/>
            <path fill="#0DC0AD" d="M57.86 53.793c.321 0 .616-.18.772-.47l.474-.886v7.67c0 1.19 1.72 1.19 1.72 0v-8.97l.699.785a.829.829 0 0 0 1.207.037.916.916 0 0 0 .031-1.263l-2.2-2.416a.844.844 0 0 0-1.383.19l-2.076 4.008c-.308.594.106 1.314.756 1.315M61.624 61.119l-4.161 2.268c-.442.237-.594.767-.34 1.182.253.414.815.555 1.253.312l4.162-2.269c.44-.236.593-.766.34-1.18-.254-.416-.817-.555-1.254-.313"/>
        </g>
    </g>
</svg>
