<svg xmlns="http://www.w3.org/2000/svg" xmlns:xlink="http://www.w3.org/1999/xlink" width="127" height="127" viewBox="0 0 127 127">
    <defs>
        <circle id="b" cx="48.5" cy="51.5" r="48.5"/>
        <filter id="a" width="151.5%" height="151.5%" x="-25.8%" y="-20.6%" filterUnits="objectBoundingBox">
            <feOffset dy="5" in="SourceAlpha" result="shadowOffsetOuter1"/>
            <feGaussianBlur in="shadowOffsetOuter1" result="shadowBlurOuter1" stdDeviation="7.5"/>
            <feColorMatrix in="shadowBlurOuter1" values="0 0 0 0 0 0 0 0 0 0 0 0 0 0 0 0 0 0 0.1 0"/>
        </filter>
        <path id="c" d="M0 .04h47V59H0z"/>
    </defs>
    <g fill="none" fill-rule="evenodd" transform="translate(15 7)">
        <use fill="#000" filter="url(#a)" xlink:href="#b"/>
        <use fill="#FFF" xlink:href="#b"/>
        <circle cx="56" cy="48" r="48" fill="#19AACC" opacity=".07"/>
        <g>
            <path fill="#0DC0AD" d="M63.56 44.424L52.13 55.369l-5.621-6.374a1.397 1.397 0 0 0-2.045-.095 1.554 1.554 0 0 0-.073 2.139l6.594 7.475c.539.612 1.448.65 2.033.09l12.489-11.958c1.417-1.358-.53-3.58-1.947-2.222"/>
            <path fill="#2342BE" d="M64.847 64.562L54 72.042l-10.847-7.48c-2.878-1.977-5.278-6.613-5.278-10.122V38.862L54 30.894l16.125 7.968V54.44c0 3.51-2.4 8.145-5.278 10.122m6.643-27.018l-17.083-8.455A.88.88 0 0 0 54 29a.88.88 0 0 0-.407.09L36.51 37.543a.902.902 0 0 0-.51.791V54.44c0 1.506.374 3.194 1.05 4.883.059.14.15.253.258.343 1.099 2.58 2.862 4.982 4.86 6.355l5.69 3.919c.05.054.109.107.178.155l5.456 3.752c.144.1.315.153.49.153l.018-.001.019.001a.857.857 0 0 0 .489-.153l5.456-3.752c.07-.048.127-.1.177-.155l5.692-3.919c1.997-1.373 3.76-3.774 4.859-6.355a.89.89 0 0 0 .257-.343C71.626 57.634 72 55.946 72 54.44V38.335a.902.902 0 0 0-.51-.791"/>
            <g transform="translate(31 21)">
                <mask id="d" fill="#fff">
                    <use xlink:href="#c"/>
                </mask>
                <path fill="#2342BE" d="M37.668 48.172L23.5 58.022l-14.168-9.85c-3.995-2.776-7.08-8.354-7.525-13.391a15.825 15.825 0 0 1-.057-1.226V13.817l20.385-10.21 1.365-.683 1.365.682 20.385 10.21v19.739c-.003.41-.023.818-.057 1.226-.445 5.037-3.53 10.615-7.525 13.391zM47 13.232c0-.34-.19-.651-.489-.801l-16.023-8-6.594-3.301a.855.855 0 0 0-.394-.09.855.855 0 0 0-.394.09L16.51 4.433.49 12.431c-.3.15-.49.46-.489.8v20.324a17.54 17.54 0 0 0 .629 4.552.895.895 0 0 0 .06.164c1.262 4.51 4.138 8.93 7.657 11.376l9.187 6.386c.03.028.061.058.096.082l5.367 3.73A.86.86 0 0 0 23.5 60a.86.86 0 0 0 .504-.154l5.367-3.73c.035-.025.065-.055.096-.083l9.187-6.386c3.519-2.446 6.395-6.866 7.656-11.376a.895.895 0 0 0 .061-.164A17.539 17.539 0 0 0 47 33.555V13.232z" mask="url(#d)"/>
            </g>
        </g>
    </g>
</svg>
