<svg xmlns="http://www.w3.org/2000/svg" xmlns:xlink="http://www.w3.org/1999/xlink" width="553" height="478" viewBox="0 0 553 478">
    <defs>
        <path id="a" d="M.79 2.617c-.107.246-.237.399-.369.475l2.82-1.637c.132-.078.262-.23.37-.476"/>
        <path id="c" d="M.417 2.407c-.105.201-.22.328-.336.396L2.9 1.163c.116-.067.23-.194.337-.394"/>
        <path id="e" d="M1.041 2.515c-.025.093-.06.172-.094.24l2.818-1.639c.035-.068.07-.147.095-.239"/>
        <path id="g" d="M.956 2.053c.325.58.697 1.106 1.091 1.562.882-.548 1.763-1.092 2.644-1.639A9.438 9.438 0 0 1 3.6.415L.956 2.053"/>
        <path id="i" d="M.797 2.281c.4.459.826.848 1.258 1.151l2.644-1.639A7.034 7.034 0 0 1 3.44.643"/>
        <path id="k" d="M.797 2.281c.4.459.826.848 1.258 1.151l2.644-1.639A7.034 7.034 0 0 1 3.44.643"/>
        <path id="m" d="M.749 1.935l-.288.179c.424.932 1.06 1.675 1.702 2.074.47.288.944.396 1.343.26a.912.912 0 0 0 .197-.096L6.17 2.817a1.077 1.077 0 0 1-.197.094c-.4.136-.873.03-1.343-.261-.642-.397-1.278-1.14-1.703-2.071L.75 1.935"/>
        <path id="o" d="M.749 1.935l-.288.179c.424.932 1.06 1.675 1.702 2.074.47.288.944.396 1.343.26a.912.912 0 0 0 .197-.096L6.17 2.817a1.077 1.077 0 0 1-.197.094c-.4.136-.873.03-1.343-.261-.642-.397-1.278-1.14-1.703-2.071L.75 1.935"/>
        <path id="q" d="M.749 1.935l-.288.179c.424.932 1.06 1.675 1.702 2.074.47.288.944.396 1.343.26a.912.912 0 0 0 .197-.096L6.17 2.817a1.077 1.077 0 0 1-.197.094c-.4.136-.873.03-1.343-.261-.642-.397-1.278-1.14-1.703-2.071L.75 1.935"/>
        <path id="s" d="M.749 1.935l-.288.179c.424.932 1.06 1.675 1.702 2.074.47.288.944.396 1.343.26a.912.912 0 0 0 .197-.096L6.17 2.817a1.077 1.077 0 0 1-.197.094c-.4.136-.873.03-1.343-.261-.642-.397-1.278-1.14-1.703-2.071L.75 1.935"/>
        <path id="u" d="M.749 1.935l-.288.179c.424.932 1.06 1.675 1.702 2.074.47.288.944.396 1.343.26a.912.912 0 0 0 .197-.096L6.17 2.817a1.077 1.077 0 0 1-.197.094c-.4.136-.873.03-1.343-.261-.642-.397-1.278-1.14-1.703-2.071L.75 1.935"/>
        <path id="w" d="M.749 1.935l-.288.179c.424.932 1.06 1.675 1.702 2.074.47.288.944.396 1.343.26a.912.912 0 0 0 .197-.096L6.17 2.817a1.077 1.077 0 0 1-.197.094c-.4.136-.873.03-1.343-.261-.642-.397-1.278-1.14-1.703-2.071L.75 1.935"/>
        <path id="y" d="M.749 1.935l-.288.179c.424.932 1.06 1.675 1.702 2.074.47.288.944.396 1.343.26a.912.912 0 0 0 .197-.096L6.17 2.817a1.077 1.077 0 0 1-.197.094c-.4.136-.873.03-1.343-.261-.642-.397-1.278-1.14-1.703-2.071L.75 1.935"/>
        <path id="A" d="M.944 1.513a1.965 1.965 0 0 0-.34.188L3.423.473c.105-.072.217-.135.34-.188"/>
        <path id="C" d="M.723 2.339c-.868.453-.971 1.854-.196 3.29l2.818-1.473c-.774-1.438-.67-2.84.198-3.293"/>
        <path id="E" d="M.723 2.339c-.868.453-.971 1.854-.196 3.29l2.818-1.473c-.774-1.438-.67-2.84.198-3.293"/>
        <path id="G" d="M.723 2.339c-.868.453-.971 1.854-.196 3.29l2.818-1.473c-.774-1.438-.67-2.84.198-3.293"/>
        <path id="I" d="M.723 2.339c-.868.453-.971 1.854-.196 3.29l2.818-1.473c-.774-1.438-.67-2.84.198-3.293"/>
        <path id="K" d="M.723 2.339c-.868.453-.971 1.854-.196 3.29l2.818-1.473c-.774-1.438-.67-2.84.198-3.293"/>
        <path id="M" d="M.723 2.339c-.868.453-.971 1.854-.196 3.29l2.818-1.473c-.774-1.438-.67-2.84.198-3.293"/>
        <path id="O" d="M.723 2.339c-.868.453-.971 1.854-.196 3.29l2.818-1.473c-.774-1.438-.67-2.84.198-3.293"/>
        <path id="Q" d="M3.538.856a1.212 1.212 0 0 0-.217.103L.678 2.599c.067-.044.14-.078.217-.106.43-.148.938-.036 1.441.275L4.98 1.129C4.624.912 4.266.791 3.936.791c-.139 0-.272.021-.398.065"/>
        <path id="S" d="M3.538.856a1.212 1.212 0 0 0-.217.103L.678 2.599c.067-.044.14-.078.217-.106.43-.148.938-.036 1.441.275L4.98 1.129C4.624.912 4.266.791 3.936.791c-.139 0-.272.021-.398.065"/>
        <path id="U" d="M3.538.856a1.212 1.212 0 0 0-.217.103L.678 2.599c.067-.044.14-.078.217-.106.43-.148.938-.036 1.441.275L4.98 1.129C4.624.912 4.266.791 3.936.791c-.139 0-.272.021-.398.065"/>
        <path id="W" d="M3.538.856a1.212 1.212 0 0 0-.217.103L.678 2.599c.067-.044.14-.078.217-.106.43-.148.938-.036 1.441.275L4.98 1.129C4.624.912 4.266.791 3.936.791c-.139 0-.272.021-.398.065"/>
        <path id="Y" d="M3.538.856a1.212 1.212 0 0 0-.217.103L.678 2.599c.067-.044.14-.078.217-.106.43-.148.938-.036 1.441.275L4.98 1.129C4.624.912 4.266.791 3.936.791c-.139 0-.272.021-.398.065"/>
        <path id="aa" d="M.043 2.373c.66.363 1.311 1.043 1.75 1.899.698 1.365.602 2.7-.184 3.136l2.538-1.403c.785-.436.882-1.773.182-3.138-.437-.854-1.088-1.536-1.75-1.899"/>
        <path id="ac" d="M.043 2.373c.66.363 1.311 1.043 1.75 1.899.698 1.365.602 2.7-.184 3.136l2.538-1.403c.785-.436.882-1.773.182-3.138-.437-.854-1.088-1.536-1.75-1.899"/>
        <path id="ae" d="M.043 2.373c.66.363 1.311 1.043 1.75 1.899.698 1.365.602 2.7-.184 3.136l2.538-1.403c.785-.436.882-1.773.182-3.138-.437-.854-1.088-1.536-1.75-1.899"/>
        <path id="ag" d="M.043 2.373c.66.363 1.311 1.043 1.75 1.899.698 1.365.602 2.7-.184 3.136l2.538-1.403c.785-.436.882-1.773.182-3.138-.437-.854-1.088-1.536-1.75-1.899"/>
        <path id="ai" d="M.043 2.373c.66.363 1.311 1.043 1.75 1.899.698 1.365.602 2.7-.184 3.136l2.538-1.403c.785-.436.882-1.773.182-3.138-.437-.854-1.088-1.536-1.75-1.899"/>
        <path id="ak" d="M.043 2.373c.66.363 1.311 1.043 1.75 1.899.698 1.365.602 2.7-.184 3.136l2.538-1.403c.785-.436.882-1.773.182-3.138-.437-.854-1.088-1.536-1.75-1.899"/>
        <path id="am" d="M.043 2.373c.66.363 1.311 1.043 1.75 1.899.698 1.365.602 2.7-.184 3.136l2.538-1.403c.785-.436.882-1.773.182-3.138-.437-.854-1.088-1.536-1.75-1.899"/>
        <path id="ao" d="M.043 2.373c.66.363 1.311 1.043 1.75 1.899.698 1.365.602 2.7-.184 3.136l2.538-1.403c.785-.436.882-1.773.182-3.138-.437-.854-1.088-1.536-1.75-1.899"/>
        <path id="aq" d="M.043 2.373c.66.363 1.311 1.043 1.75 1.899.698 1.365.602 2.7-.184 3.136l2.538-1.403c.785-.436.882-1.773.182-3.138-.437-.854-1.088-1.536-1.75-1.899"/>
        <path id="as" d="M3.936.154a1.842 1.842 0 0 0-.486.194L.864 1.85a1.839 1.839 0 0 1 .486-.193c.312-.077.65-.076.998-.006.379.075.77.23 1.159.453C4.525 2.691 5.53 3.751 6.25 5.09a8.502 8.502 0 0 1 .686 1.648c.157.534.243 1.05.265 1.53.053 1.211-.319 2.19-1.08 2.633l2.585-1.504c.761-.442 1.132-1.42 1.08-2.631a6.473 6.473 0 0 0-.266-1.53 8.602 8.602 0 0 0-.686-1.649C8.114 2.249 7.11 1.189 6.094.603A3.848 3.848 0 0 0 4.933.147a2.641 2.641 0 0 0-.502-.05c-.17 0-.337.018-.495.057"/>
        <path id="au" d="M3.936.154a1.842 1.842 0 0 0-.486.194L.864 1.85a1.839 1.839 0 0 1 .486-.193c.312-.077.65-.076.998-.006.379.075.77.23 1.159.453C4.525 2.691 5.53 3.751 6.25 5.09a8.502 8.502 0 0 1 .686 1.648c.157.534.243 1.05.265 1.53.053 1.211-.319 2.19-1.08 2.633l2.585-1.504c.761-.442 1.132-1.42 1.08-2.631a6.473 6.473 0 0 0-.266-1.53 8.602 8.602 0 0 0-.686-1.649C8.114 2.249 7.11 1.189 6.094.603A3.848 3.848 0 0 0 4.933.147a2.641 2.641 0 0 0-.502-.05c-.17 0-.337.018-.495.057"/>
        <path id="aw" d="M3.936.154a1.842 1.842 0 0 0-.486.194L.864 1.85a1.839 1.839 0 0 1 .486-.193c.312-.077.65-.076.998-.006.379.075.77.23 1.159.453C4.525 2.691 5.53 3.751 6.25 5.09a8.502 8.502 0 0 1 .686 1.648c.157.534.243 1.05.265 1.53.053 1.211-.319 2.19-1.08 2.633l2.585-1.504c.761-.442 1.132-1.42 1.08-2.631a6.473 6.473 0 0 0-.266-1.53 8.602 8.602 0 0 0-.686-1.649C8.114 2.249 7.11 1.189 6.094.603A3.848 3.848 0 0 0 4.933.147a2.641 2.641 0 0 0-.502-.05c-.17 0-.337.018-.495.057"/>
        <path id="ay" d="M3.936.154a1.842 1.842 0 0 0-.486.194L.864 1.85a1.839 1.839 0 0 1 .486-.193c.312-.077.65-.076.998-.006.379.075.77.23 1.159.453C4.525 2.691 5.53 3.751 6.25 5.09a8.502 8.502 0 0 1 .686 1.648c.157.534.243 1.05.265 1.53.053 1.211-.319 2.19-1.08 2.633l2.585-1.504c.761-.442 1.132-1.42 1.08-2.631a6.473 6.473 0 0 0-.266-1.53 8.602 8.602 0 0 0-.686-1.649C8.114 2.249 7.11 1.189 6.094.603A3.848 3.848 0 0 0 4.933.147a2.641 2.641 0 0 0-.502-.05c-.17 0-.337.018-.495.057"/>
        <path id="aA" d="M3.936.154a1.842 1.842 0 0 0-.486.194L.864 1.85a1.839 1.839 0 0 1 .486-.193c.312-.077.65-.076.998-.006.379.075.77.23 1.159.453C4.525 2.691 5.53 3.751 6.25 5.09a8.502 8.502 0 0 1 .686 1.648c.157.534.243 1.05.265 1.53.053 1.211-.319 2.19-1.08 2.633l2.585-1.504c.761-.442 1.132-1.42 1.08-2.631a6.473 6.473 0 0 0-.266-1.53 8.602 8.602 0 0 0-.686-1.649C8.114 2.249 7.11 1.189 6.094.603A3.848 3.848 0 0 0 4.933.147a2.641 2.641 0 0 0-.502-.05c-.17 0-.337.018-.495.057"/>
        <path id="aC" d="M3.936.154a1.842 1.842 0 0 0-.486.194L.864 1.85a1.839 1.839 0 0 1 .486-.193c.312-.077.65-.076.998-.006.379.075.77.23 1.159.453C4.525 2.691 5.53 3.751 6.25 5.09a8.502 8.502 0 0 1 .686 1.648c.157.534.243 1.05.265 1.53.053 1.211-.319 2.19-1.08 2.633l2.585-1.504c.761-.442 1.132-1.42 1.08-2.631a6.473 6.473 0 0 0-.266-1.53 8.602 8.602 0 0 0-.686-1.649C8.114 2.249 7.11 1.189 6.094.603A3.848 3.848 0 0 0 4.933.147a2.641 2.641 0 0 0-.502-.05c-.17 0-.337.018-.495.057"/>
        <path id="aE" d="M3.936.154a1.842 1.842 0 0 0-.486.194L.864 1.85a1.839 1.839 0 0 1 .486-.193c.312-.077.65-.076.998-.006.379.075.77.23 1.159.453C4.525 2.691 5.53 3.751 6.25 5.09a8.502 8.502 0 0 1 .686 1.648c.157.534.243 1.05.265 1.53.053 1.211-.319 2.19-1.08 2.633l2.585-1.504c.761-.442 1.132-1.42 1.08-2.631a6.473 6.473 0 0 0-.266-1.53 8.602 8.602 0 0 0-.686-1.649C8.114 2.249 7.11 1.189 6.094.603A3.848 3.848 0 0 0 4.933.147a2.641 2.641 0 0 0-.502-.05c-.17 0-.337.018-.495.057"/>
        <path id="aG" d="M3.936.154a1.842 1.842 0 0 0-.486.194L.864 1.85a1.839 1.839 0 0 1 .486-.193c.312-.077.65-.076.998-.006.379.075.77.23 1.159.453C4.525 2.691 5.53 3.751 6.25 5.09a8.502 8.502 0 0 1 .686 1.648c.157.534.243 1.05.265 1.53.053 1.211-.319 2.19-1.08 2.633l2.585-1.504c.761-.442 1.132-1.42 1.08-2.631a6.473 6.473 0 0 0-.266-1.53 8.602 8.602 0 0 0-.686-1.649C8.114 2.249 7.11 1.189 6.094.603A3.848 3.848 0 0 0 4.933.147a2.641 2.641 0 0 0-.502-.05c-.17 0-.337.018-.495.057"/>
        <path id="aI" d="M3.936.154a1.842 1.842 0 0 0-.486.194L.864 1.85a1.839 1.839 0 0 1 .486-.193c.312-.077.65-.076.998-.006.379.075.77.23 1.159.453C4.525 2.691 5.53 3.751 6.25 5.09a8.502 8.502 0 0 1 .686 1.648c.157.534.243 1.05.265 1.53.053 1.211-.319 2.19-1.08 2.633l2.585-1.504c.761-.442 1.132-1.42 1.08-2.631a6.473 6.473 0 0 0-.266-1.53 8.602 8.602 0 0 0-.686-1.649C8.114 2.249 7.11 1.189 6.094.603A3.848 3.848 0 0 0 4.933.147a2.641 2.641 0 0 0-.502-.05c-.17 0-.337.018-.495.057"/>
        <path id="aK" d="M3.936.154a1.842 1.842 0 0 0-.486.194L.864 1.85a1.839 1.839 0 0 1 .486-.193c.312-.077.65-.076.998-.006.379.075.77.23 1.159.453C4.525 2.691 5.53 3.751 6.25 5.09a8.502 8.502 0 0 1 .686 1.648c.157.534.243 1.05.265 1.53.053 1.211-.319 2.19-1.08 2.633l2.585-1.504c.761-.442 1.132-1.42 1.08-2.631a6.473 6.473 0 0 0-.266-1.53 8.602 8.602 0 0 0-.686-1.649C8.114 2.249 7.11 1.189 6.094.603A3.848 3.848 0 0 0 4.933.147a2.641 2.641 0 0 0-.502-.05c-.17 0-.337.018-.495.057"/>
        <path id="aM" d="M3.936.154a1.842 1.842 0 0 0-.486.194L.864 1.85a1.839 1.839 0 0 1 .486-.193c.312-.077.65-.076.998-.006.379.075.77.23 1.159.453C4.525 2.691 5.53 3.751 6.25 5.09a8.502 8.502 0 0 1 .686 1.648c.157.534.243 1.05.265 1.53.053 1.211-.319 2.19-1.08 2.633l2.585-1.504c.761-.442 1.132-1.42 1.08-2.631a6.473 6.473 0 0 0-.266-1.53 8.602 8.602 0 0 0-.686-1.649C8.114 2.249 7.11 1.189 6.094.603A3.848 3.848 0 0 0 4.933.147a2.641 2.641 0 0 0-.502-.05c-.17 0-.337.018-.495.057"/>
        <path id="aO" d="M3.936.154a1.842 1.842 0 0 0-.486.194L.864 1.85a1.839 1.839 0 0 1 .486-.193c.312-.077.65-.076.998-.006.379.075.77.23 1.159.453C4.525 2.691 5.53 3.751 6.25 5.09a8.502 8.502 0 0 1 .686 1.648c.157.534.243 1.05.265 1.53.053 1.211-.319 2.19-1.08 2.633l2.585-1.504c.761-.442 1.132-1.42 1.08-2.631a6.473 6.473 0 0 0-.266-1.53 8.602 8.602 0 0 0-.686-1.649C8.114 2.249 7.11 1.189 6.094.603A3.848 3.848 0 0 0 4.933.147a2.641 2.641 0 0 0-.502-.05c-.17 0-.337.018-.495.057"/>
        <path id="aQ" d="M3.936.154a1.842 1.842 0 0 0-.486.194L.864 1.85a1.839 1.839 0 0 1 .486-.193c.312-.077.65-.076.998-.006.379.075.77.23 1.159.453C4.525 2.691 5.53 3.751 6.25 5.09a8.502 8.502 0 0 1 .686 1.648c.157.534.243 1.05.265 1.53.053 1.211-.319 2.19-1.08 2.633l2.585-1.504c.761-.442 1.132-1.42 1.08-2.631a6.473 6.473 0 0 0-.266-1.53 8.602 8.602 0 0 0-.686-1.649C8.114 2.249 7.11 1.189 6.094.603A3.848 3.848 0 0 0 4.933.147a2.641 2.641 0 0 0-.502-.05c-.17 0-.337.018-.495.057"/>
        <path id="aS" d="M.633 1.461c.119.036.228.078.328.121L3.781.353a3.126 3.126 0 0 0-.328-.12"/>
        <path id="aU" d="M.901 2.11c.681.418.926 1.047.623 1.235l2.642-1.638a.277.277 0 0 0 .129-.239v-.03c-.01-.277-.274-.673-.75-.967"/>
        <path id="aW" d="M.901 2.11c.681.418.926 1.047.623 1.235l2.642-1.638a.277.277 0 0 0 .129-.239v-.03c-.01-.277-.274-.673-.75-.967"/>
        <path id="aY" d="M.901 2.11c.681.418.926 1.047.623 1.235l2.642-1.638a.277.277 0 0 0 .129-.239v-.03c-.01-.277-.274-.673-.75-.967"/>
        <path id="ba" d="M.901 2.11c.681.418.926 1.047.623 1.235l2.642-1.638a.277.277 0 0 0 .129-.239v-.03c-.01-.277-.274-.673-.75-.967"/>
        <path id="bc" d="M.901 2.11c.681.418.926 1.047.623 1.235l2.642-1.638a.277.277 0 0 0 .129-.239v-.03c-.01-.277-.274-.673-.75-.967"/>
        <path id="be" d="M.901 2.11c.681.418.926 1.047.623 1.235l2.642-1.638a.277.277 0 0 0 .129-.239v-.03c-.01-.277-.274-.673-.75-.967"/>
        <path id="bg" d="M.901 2.11c.681.418.926 1.047.623 1.235l2.642-1.638a.277.277 0 0 0 .129-.239v-.03c-.01-.277-.274-.673-.75-.967"/>
        <path id="bi" d="M.901 2.11c.681.418.926 1.047.623 1.235l2.642-1.638a.277.277 0 0 0 .129-.239v-.03c-.01-.277-.274-.673-.75-.967"/>
        <path id="bk" d="M.901 2.11c.681.418.926 1.047.623 1.235l2.642-1.638a.277.277 0 0 0 .129-.239v-.03c-.01-.277-.274-.673-.75-.967"/>
        <path id="bm" d="M.757 2.127c.71.436.924 1.049.62 1.236L4.02 1.725c.304-.186.09-.801-.62-1.238"/>
        <path id="bo" d="M.757 2.127c.71.436.924 1.049.62 1.236L4.02 1.725c.304-.186.09-.801-.62-1.238"/>
        <path id="bq" d="M.757 2.127c.71.436.924 1.049.62 1.236L4.02 1.725c.304-.186.09-.801-.62-1.238"/>
        <path id="bs" d="M.757 2.127c.71.436.924 1.049.62 1.236L4.02 1.725c.304-.186.09-.801-.62-1.238"/>
        <path id="bu" d="M.757 2.127c.71.436.924 1.049.62 1.236L4.02 1.725c.304-.186.09-.801-.62-1.238"/>
        <path id="bw" d="M.757 2.127c.71.436.924 1.049.62 1.236L4.02 1.725c.304-.186.09-.801-.62-1.238"/>
        <path id="by" d="M.757 2.127c.71.436.924 1.049.62 1.236L4.02 1.725c.304-.186.09-.801-.62-1.238"/>
        <path id="bA" d="M.757 2.127c.71.436.924 1.049.62 1.236L4.02 1.725c.304-.186.09-.801-.62-1.238"/>
        <path id="bC" d="M.757 2.127c.71.436.924 1.049.62 1.236L4.02 1.725c.304-.186.09-.801-.62-1.238"/>
        <path id="bE" d="M2.924.289L.105 1.517c.062-.027.147-.018.248.025L3.172.314a.433.433 0 0 0-.167-.041.192.192 0 0 0-.081.016"/>
        <path id="bG" d="M2.924.289L.105 1.517c.062-.027.147-.018.248.025L3.172.314a.433.433 0 0 0-.167-.041.192.192 0 0 0-.081.016"/>
        <path id="bI" d="M2.924.289L.105 1.517c.062-.027.147-.018.248.025L3.172.314a.433.433 0 0 0-.167-.041.192.192 0 0 0-.081.016"/>
        <path id="bK" d="M2.924.289L.105 1.517c.062-.027.147-.018.248.025L3.172.314a.433.433 0 0 0-.167-.041.192.192 0 0 0-.081.016"/>
        <path id="bM" d="M2.924.289L.105 1.517c.062-.027.147-.018.248.025L3.172.314a.433.433 0 0 0-.167-.041.192.192 0 0 0-.081.016"/>
        <path id="bO" d="M.331 2.056c.216.135.511.513.804 1.153l2.644-1.637C3.486.931 3.19.552 2.974.419"/>
        <path id="bQ" d="M.331 2.056c.216.135.511.513.804 1.153l2.644-1.637C3.486.931 3.19.552 2.974.419"/>
        <path id="bS" d="M.331 2.056c.216.135.511.513.804 1.153l2.644-1.637C3.486.931 3.19.552 2.974.419L.33 2.056z"/>
        <path id="bU" d="M3.541.08L.9 1.309c.057-.027.137-.019.232.025L3.775.105a.392.392 0 0 0-.157-.04.189.189 0 0 0-.077.015"/>
        <path id="bW" d="M3.541.08L.9 1.309c.057-.027.137-.019.232.025L3.775.105a.392.392 0 0 0-.157-.04.189.189 0 0 0-.077.015"/>
        <path id="bY" d="M3.541.08L.9 1.309c.057-.027.137-.019.232.025L3.775.105a.392.392 0 0 0-.157-.04.189.189 0 0 0-.077.015"/>
        <path id="ca" d="M3.541.08L.9 1.309c.057-.027.137-.019.232.025L3.775.105a.392.392 0 0 0-.157-.04.189.189 0 0 0-.077.015"/>
        <path id="cc" d="M3.541.08L.9 1.309c.057-.027.137-.019.232.025L3.775.105a.392.392 0 0 0-.157-.04.189.189 0 0 0-.077.015"/>
        <path id="ce" d="M.131 1.779c.199.122.467.454.749 1.028l2.643-1.639C3.24.595 2.973.263 2.774.14"/>
        <path id="cg" d="M.131 1.779c.199.122.467.454.749 1.028l2.643-1.639C3.24.595 2.973.263 2.774.14"/>
        <path id="ci" d="M.131 1.779c.199.122.467.454.749 1.028l2.643-1.639C3.24.595 2.973.263 2.774.14"/>
        <path id="ck" d="M.189 1.41c.08.014.167.048.256.081L3.088.262a1.645 1.645 0 0 0-.256-.081"/>
        <path id="cm" d="M.189 1.41c.08.014.167.048.256.081L3.088.262a1.645 1.645 0 0 0-.256-.081"/>
        <path id="co" d="M.189 1.41c.08.014.167.048.256.081L3.088.262a1.645 1.645 0 0 0-.256-.081L.19 1.41z"/>
        <path id="cq" d="M.585 1.507c.079.028.154.057.223.088L3.627.365a3.325 3.325 0 0 0-.223-.086"/>
        <path id="cs" d="M43.078 1.117h-.002l-.015.006-3.213 1.12 1.13.266a5.61 5.61 0 0 0-1.059 1.986L.672 131.92c-.972 3.159.453 6.999 3.182 8.574l173.543 100.195c.422.244.851.411 1.276.521l-.429.937 3.069-1.078-.007-.003c1.258-.5 2.293-1.623 2.793-3.246l39.245-127.425c.972-3.16-.452-6.999-3.181-8.574L46.62 1.626c-.791-.457-1.605-.673-2.386-.673a4.14 4.14 0 0 0-1.156.164"/>
        <path id="cu" d="M114.993 1.961L4.242 65.903.549 64.494l1.037 5.181.005-.003c.138.778.683 1.508 1.662 2.073l173 99.883c2.523 1.456 6.927 1.273 9.838-.407l111.034-64.106c1.37-.791 2.157-1.773 2.353-2.743l.006.008 1.06-5.042-4.359 1.109.062.073L124.831 1.554c-1.142-.66-2.672-.983-4.273-.983-1.934-.001-3.972.471-5.565 1.39"/>
        <path id="cw" d="M114.74 2.198L2.919 66.758c-2.933 1.693-3.251 4.255-.711 5.72L176.437 173.07c2.539 1.466 6.975 1.282 9.907-.411l111.822-64.561c2.933-1.692 3.251-4.253.711-5.719L124.648 1.786c-1.151-.663-2.69-.989-4.303-.989-1.947 0-4.001.475-5.605 1.401"/>
        <path id="cy" d="M39.961 4.53L.716 131.955c-.972 3.159.452 6.999 3.18 8.574L177.44 240.724c2.729 1.575 5.729.292 6.701-2.869l39.247-127.425c.972-3.16-.453-6.999-3.182-8.574L46.663 1.661c-.791-.457-1.605-.674-2.386-.674-1.912.001-3.625 1.299-4.316 3.543"/>
        <path id="cA" d="M0 193h130V0H0z"/>
    </defs>
    <g fill="none" fill-rule="evenodd">
        <path fill="#E8F9F7" d="M549.74 310.63c-27.879 86.272 68.14 166.417-108.594 166.417-176.732 0-398.42-14.277-438.421-149.784-26.41-89.466 144.327-279.844 287.83-185.745 120.636 79.105 287.907 80.24 259.186 169.113"/>
        <path fill="#82E0D6" d="M240.999 412.609c113.937 39.032 217.92 28.092 232.252-24.435 14.331-52.527-66.415-126.75-180.352-165.783C178.962 183.36 74.98 194.3 60.648 246.826c-14.332 52.527 66.414 126.75 180.351 165.783z" opacity=".3"/>
        <path fill="#19AACC" d="M249.698 378.788c88.758 30.433 169.778 21.845 180.963-19.183 11.185-41.028-51.702-98.96-140.46-129.393-88.76-30.433-169.78-21.845-180.964 19.183-11.184 41.028 51.702 98.96 140.46 129.393z" opacity=".3"/>
        <path fill="#2B6A93" d="M180.963 89L177 233.104l6 3.896 6-3.34L186.378 89z"/>
        <path fill="#1EA9CA" d="M180.963 89L177 233.104l6 3.896V89z"/>
        <path fill="#D9DCD1" d="M194 86.156L183.237 93 174 89.45 185.663 83z"/>
        <path fill="#C4C5BD" d="M193.195 78.539l-10.807 6.867-9.275-3.563 11.711-6.472z"/>
        <path fill="#E0E1D8" d="M193.195 86.257V78.54l-10.807 6.867v7.719z"/>
        <g transform="translate(151 139)">
            <mask id="b" fill="#fff">
                <use xlink:href="#a"/>
            </mask>
            <path fill="#757570" d="M.422 3.093l2.82-1.639c.13-.076.26-.228.368-.474L.79 2.618c-.108.246-.236.398-.368.475" mask="url(#b)"/>
        </g>
        <g transform="translate(152 141)">
            <mask id="d" fill="#fff">
                <use xlink:href="#c"/>
            </mask>
            <path fill="#818181" d="M.081 2.803L2.9 1.163c.117-.067.232-.194.337-.394L.417 2.407c-.104.2-.22.328-.336.396" mask="url(#d)"/>
        </g>
        <path fill="#767671" d="M151 142l2.599-1.464L177 89l-2.599 1.463z"/>
        <path fill="gray" d="M152 143l2.562-1.485L172 108l-2.562 1.485z"/>
        <g transform="translate(169 107)">
            <mask id="f" fill="#fff">
                <use xlink:href="#e"/>
            </mask>
            <path fill="#818181" d="M.947 2.755l2.819-1.639c.034-.068.069-.146.094-.24L1.042 2.515c-.026.093-.06.172-.095.24" mask="url(#f)"/>
        </g>
        <path fill="#D1D2CA" d="M173.948 88l-9.01 15.279-.093.212-13.742 37.165c-.226.607-.049 1.13.23 1.293.221.127.506.029.708-.433L175 89.411A8.478 8.478 0 0 1 173.948 88"/>
        <g transform="translate(173 86)">
            <mask id="h" fill="#fff">
                <use xlink:href="#g"/>
            </mask>
            <path fill="#90908B" d="M2.048 3.614l2.644-1.639A9.224 9.224 0 0 1 3.6.415L.958 2.052c.325.58.696 1.106 1.091 1.562" mask="url(#h)"/>
        </g>
        <g transform="translate(174 88)">
            <mask id="j" fill="#fff">
                <use xlink:href="#i"/>
            </mask>
            <path fill="#9A9A9A" d="M2.055 3.432l2.643-1.639a5.996 5.996 0 0 1-.455-.352L1.6 3.08c.151.128.302.245.455.353" mask="url(#j)"/>
        </g>
        <g transform="translate(174 88)">
            <mask id="l" fill="#fff">
                <use xlink:href="#k"/>
            </mask>
            <path fill="#9F9F9F" d="M1.6 3.08l2.644-1.64A7.403 7.403 0 0 1 3.44.643L.798 2.28c.258.297.527.565.802.798" mask="url(#l)"/>
        </g>
        <path fill="#E7E7E7" d="M174.908 89.85l-23.187 51.715c-.274.616-.096 1.197.202 1.366.204.115.465.036.675-.36l17.528-33.166c.031-.06.063-.131.086-.215l5.92-18.308a6.724 6.724 0 0 1-1.224-1.033"/>
        <path fill="#868686" d="M170.212 109.19l2.573-1.469 5.922-18.309-2.575 1.47z"/>
        <g transform="translate(174 85)">
            <mask id="n" fill="#fff">
                <use xlink:href="#m"/>
            </mask>
            <path fill="#757570" d="M3.703 4.353L6.17 2.817a1.005 1.005 0 0 1-.273.117L3.431 4.47a.87.87 0 0 0 .272-.117" mask="url(#n)"/>
        </g>
        <g transform="translate(174 85)">
            <mask id="p" fill="#fff">
                <use xlink:href="#o"/>
            </mask>
            <path fill="#787A74" d="M3.43 4.47l2.468-1.536c-.109.028-.22.04-.336.035L3.095 4.505c.116.005.228-.008.335-.035" mask="url(#p)"/>
        </g>
        <g transform="translate(174 85)">
            <mask id="r" fill="#fff">
                <use xlink:href="#q"/>
            </mask>
            <path fill="#7E7E79" d="M3.095 4.505L5.561 2.97a1.388 1.388 0 0 1-.305-.045L2.788 4.46c.104.027.207.042.307.045" mask="url(#r)"/>
        </g>
        <g transform="translate(174 85)">
            <mask id="t" fill="#fff">
                <use xlink:href="#s"/>
            </mask>
            <path fill="#82837E" d="M2.789 4.46l2.466-1.535a1.953 1.953 0 0 1-.308-.107L2.481 4.355c.104.045.206.08.308.106" mask="url(#t)"/>
        </g>
        <g transform="translate(174 85)">
            <mask id="v" fill="#fff">
                <use xlink:href="#u"/>
            </mask>
            <path fill="#878782" d="M2.48 4.354l2.467-1.536a2.578 2.578 0 0 1-.316-.168c-.006-.002-.01-.006-.017-.01L2.148 4.176l.016.01c.105.066.212.122.317.168" mask="url(#v)"/>
        </g>
        <g transform="translate(174 85)">
            <mask id="x" fill="#fff">
                <use xlink:href="#w"/>
            </mask>
            <path fill="#8B8C86" d="M2.148 4.177l2.466-1.536a3.565 3.565 0 0 1-.396-.294L1.75 3.883c.13.111.264.21.397.294" mask="url(#x)"/>
        </g>
        <g transform="translate(174 85)">
            <mask id="z" fill="#fff">
                <use xlink:href="#y"/>
            </mask>
            <path fill="#90908B" d="M1.751 3.884l2.467-1.537c-.495-.422-.958-1.037-1.29-1.77L.46 2.114c.333.73.796 1.346 1.29 1.77" mask="url(#z)"/>
        </g>
        <g transform="translate(172 81)">
            <mask id="B" fill="#fff">
                <use xlink:href="#A"/>
            </mask>
            <path fill="#757570" d="M.604 1.702l2.82-1.23c.103-.07.216-.133.34-.188l-2.82 1.23a2.003 2.003 0 0 0-.34.188" mask="url(#B)"/>
        </g>
        <g transform="translate(174 82)">
            <mask id="D" fill="#fff">
                <use xlink:href="#C"/>
            </mask>
            <path fill="#90908B" d="M.526 5.63l2.819-1.475-.035-.066L.492 5.563c.01.022.022.044.034.066" mask="url(#D)"/>
        </g>
        <g transform="translate(174 82)">
            <mask id="F" fill="#fff">
                <use xlink:href="#E"/>
            </mask>
            <path fill="#8B8C86" d="M.491 5.563L3.31 4.09a4.759 4.759 0 0 1-.236-.527L.254 5.037c.067.174.145.35.237.526" mask="url(#F)"/>
        </g>
        <g transform="translate(174 82)">
            <mask id="H" fill="#fff">
                <use xlink:href="#G"/>
            </mask>
            <path fill="#878782" d="M.254 5.036l2.82-1.475a4.302 4.302 0 0 1-.14-.437L.115 4.6c.036.143.083.29.14.437" mask="url(#H)"/>
        </g>
        <g transform="translate(174 82)">
            <mask id="J" fill="#fff">
                <use xlink:href="#I"/>
            </mask>
            <path fill="#82837E" d="M.115 4.6l2.819-1.475a3.628 3.628 0 0 1-.082-.407L.034 4.193c.018.132.045.267.08.406" mask="url(#J)"/>
        </g>
        <g transform="translate(174 82)">
            <mask id="L" fill="#fff">
                <use xlink:href="#K"/>
            </mask>
            <path fill="#7E7E79" d="M.033 4.193l2.82-1.475a3.063 3.063 0 0 1-.03-.406L.004 3.787c0 .131.01.265.03.406" mask="url(#L)"/>
        </g>
        <g transform="translate(174 82)">
            <mask id="N" fill="#fff">
                <use xlink:href="#M"/>
            </mask>
            <path fill="#787A74" d="M.004 3.787l2.82-1.475a2.326 2.326 0 0 1 .037-.44L.042 3.347c-.026.14-.038.286-.038.44" mask="url(#N)"/>
        </g>
        <g transform="translate(174 82)">
            <mask id="P" fill="#fff">
                <use xlink:href="#O"/>
            </mask>
            <path fill="#757570" d="M.042 3.347l2.819-1.475c.086-.459.317-.817.681-1.008L.723 2.339c-.365.19-.596.55-.681 1.008" mask="url(#P)"/>
        </g>
        <g transform="translate(174 82)">
            <mask id="R" fill="#fff">
                <use xlink:href="#Q"/>
            </mask>
            <path fill="#959595" d="M2.336 2.767L4.979 1.13a2.726 2.726 0 0 0-.337-.176L1.999 2.59c.111.05.224.108.337.177" mask="url(#R)"/>
        </g>
        <g transform="translate(174 82)">
            <mask id="T" fill="#fff">
                <use xlink:href="#S"/>
            </mask>
            <path fill="#909090" d="M2 2.59L4.641.952A2.064 2.064 0 0 0 4.314.84L1.67 2.478c.11.027.22.064.33.112" mask="url(#T)"/>
        </g>
        <g transform="translate(174 82)">
            <mask id="V" fill="#fff">
                <use xlink:href="#U"/>
            </mask>
            <path fill="#8B8B8B" d="M1.67 2.478L4.315.838a1.59 1.59 0 0 0-.327-.047L1.344 2.43c.107.004.217.02.327.048" mask="url(#V)"/>
        </g>
        <g transform="translate(174 82)">
            <mask id="X" fill="#fff">
                <use xlink:href="#W"/>
            </mask>
            <path fill="#868686" d="M1.344 2.43L3.987.791a1.28 1.28 0 0 0-.359.038L.985 2.467a1.28 1.28 0 0 1 .36-.037" mask="url(#X)"/>
        </g>
        <g transform="translate(174 82)">
            <mask id="Z" fill="#fff">
                <use xlink:href="#Y"/>
            </mask>
            <path fill="#818181" d="M.985 2.467L3.628.83a1.163 1.163 0 0 0-.306.13L.678 2.598a1.033 1.033 0 0 1 .307-.13" mask="url(#Z)"/>
        </g>
        <g transform="translate(176 82)">
            <mask id="ab" fill="#fff">
                <use xlink:href="#aa"/>
            </mask>
            <path fill="#818181" d="M1.608 7.408l2.538-1.404c.332-.184.54-.528.618-.968L2.228 6.44c-.078.44-.287.784-.62.968" mask="url(#ab)"/>
        </g>
        <g transform="translate(176 82)">
            <mask id="ad" fill="#fff">
                <use xlink:href="#ac"/>
            </mask>
            <path fill="#868686" d="M2.228 6.44l2.536-1.404c.024-.132.036-.272.035-.42L2.262 6.021c0 .147-.01.288-.034.42" mask="url(#ad)"/>
        </g>
        <g transform="translate(176 82)">
            <mask id="af" fill="#fff">
                <use xlink:href="#ae"/>
            </mask>
            <path fill="#8B8B8B" d="M2.262 6.021L4.8 4.616c0-.123-.01-.252-.026-.385L2.236 5.636c.017.132.026.262.026.385" mask="url(#af)"/>
        </g>
        <g transform="translate(176 82)">
            <mask id="ah" fill="#fff">
                <use xlink:href="#ag"/>
            </mask>
            <path fill="#909090" d="M2.235 5.636l2.537-1.405a3.293 3.293 0 0 0-.072-.384L2.162 5.252c.032.13.056.26.073.384" mask="url(#ah)"/>
        </g>
        <g transform="translate(176 82)">
            <mask id="aj" fill="#fff">
                <use xlink:href="#ai"/>
            </mask>
            <path fill="#959595" d="M2.163 5.251l2.536-1.404a4.165 4.165 0 0 0-.123-.412L2.038 4.84c.05.14.092.277.125.411" mask="url(#aj)"/>
        </g>
        <g transform="translate(176 82)">
            <mask id="al" fill="#fff">
                <use xlink:href="#ak"/>
            </mask>
            <path fill="#9A9A9A" d="M2.038 4.84l2.537-1.405a4.547 4.547 0 0 0-.21-.495L1.828 4.344c.082.167.152.332.21.496" mask="url(#al)"/>
        </g>
        <g transform="translate(176 82)">
            <mask id="an" fill="#fff">
                <use xlink:href="#am"/>
            </mask>
            <path fill="#9F9F9F" d="M1.828 4.344L4.365 2.94l-.036-.072A4.802 4.802 0 0 0 3 1.242L.462 2.647c.51.387.987.952 1.33 1.625l.036.072" mask="url(#an)"/>
        </g>
        <g transform="translate(176 82)">
            <mask id="ap" fill="#fff">
                <use xlink:href="#ao"/>
            </mask>
            <path fill="#9A9A9A" d="M.463 2.647L3 1.243c-.134-.101-.27-.191-.405-.266L.058 2.381c.136.075.272.166.405.266" mask="url(#ap)"/>
        </g>
        <g transform="translate(176 82)">
            <mask id="ar" fill="#fff">
                <use xlink:href="#aq"/>
            </mask>
            <path fill="#959595" d="M.058 2.38L2.596.977 2.58.968.042 2.372a.11.11 0 0 0 .016.009" mask="url(#ar)"/>
        </g>
        <g>
            <g transform="translate(173 81)">
                <mask id="at" fill="#fff">
                    <use xlink:href="#as"/>
                </mask>
                <path fill="#757570" d="M6.12 10.899l2.585-1.502c.552-.32.9-.923 1.029-1.692L7.149 9.207c-.129.77-.476 1.37-1.028 1.692" mask="url(#at)"/>
            </g>
            <g transform="translate(173 81)">
                <mask id="av" fill="#fff">
                    <use xlink:href="#au"/>
                </mask>
                <path fill="#787A74" d="M7.15 9.207l2.583-1.502c.039-.23.059-.474.057-.731L7.205 8.476c.002.257-.017.501-.056.731" mask="url(#av)"/>
            </g>
            <g transform="translate(173 81)">
                <mask id="ax" fill="#fff">
                    <use xlink:href="#aw"/>
                </mask>
                <path fill="#7E7E79" d="M7.206 8.477L9.79 6.974a5.61 5.61 0 0 0-.044-.671L7.16 7.806a5.068 5.068 0 0 1 .045.67" mask="url(#ax)"/>
            </g>
            <g transform="translate(173 81)">
                <mask id="az" fill="#fff">
                    <use xlink:href="#ay"/>
                </mask>
                <path fill="#82837E" d="M7.161 7.805l2.585-1.502a6.607 6.607 0 0 0-.12-.668L7.04 7.137c.054.227.094.45.121.668" mask="url(#az)"/>
            </g>
            <g transform="translate(173 81)">
                <mask id="aB" fill="#fff">
                    <use xlink:href="#aA"/>
                </mask>
                <path fill="#878782" d="M7.04 7.136l2.586-1.502a8.132 8.132 0 0 0-.207-.715L6.835 6.42a6.735 6.735 0 0 1 .206.716" mask="url(#aB)"/>
            </g>
            <g transform="translate(173 81)">
                <mask id="aD" fill="#fff">
                    <use xlink:href="#aC"/>
                </mask>
                <path fill="#8B8C86" d="M6.835 6.42L9.42 4.918a8.758 8.758 0 0 0-.347-.862L6.487 5.557c.136.291.252.58.348.863" mask="url(#aD)"/>
            </g>
            <g transform="translate(173 81)">
                <mask id="aF" fill="#fff">
                    <use xlink:href="#aE"/>
                </mask>
                <path fill="#90908B" d="M6.487 5.558l2.584-1.502a10.707 10.707 0 0 0-.236-.47C8.28 2.558 7.56 1.694 6.793 1.083L4.209 2.585c.766.611 1.488 1.475 2.042 2.503.058.11.117.22.172.334l.064.136" mask="url(#aF)"/>
            </g>
            <g transform="translate(173 81)">
                <mask id="aH" fill="#fff">
                    <use xlink:href="#aG"/>
                </mask>
                <path fill="#8B8C86" d="M4.209 2.585l2.585-1.502a5.75 5.75 0 0 0-.675-.466L3.535 2.12c.227.134.451.289.674.466" mask="url(#aH)"/>
            </g>
            <g transform="translate(173 81)">
                <mask id="aJ" fill="#fff">
                    <use xlink:href="#aI"/>
                </mask>
                <path fill="#878782" d="M3.535 2.12L6.119.617 6.093.603a4.437 4.437 0 0 0-.535-.265L2.973 1.84c.178.073.358.161.536.264l.026.016" mask="url(#aJ)"/>
            </g>
            <g transform="translate(173 81)">
                <mask id="aL" fill="#fff">
                    <use xlink:href="#aK"/>
                </mask>
                <path fill="#82837E" d="M2.973 1.84L5.558.338a3.49 3.49 0 0 0-.526-.17L2.448 1.672c.173.04.349.097.525.169" mask="url(#aL)"/>
            </g>
            <g transform="translate(173 81)">
                <mask id="aN" fill="#fff">
                    <use xlink:href="#aM"/>
                </mask>
                <path fill="#7E7E79" d="M2.448 1.67L5.032.17 4.933.147a2.55 2.55 0 0 0-.423-.05L1.925 1.6c.14.005.28.022.424.05l.1.022" mask="url(#aN)"/>
            </g>
            <g transform="translate(173 81)">
                <mask id="aP" fill="#fff">
                    <use xlink:href="#aO"/>
                </mask>
                <path fill="#787A74" d="M1.925 1.6L4.51.096a2.16 2.16 0 0 0-.572.056L1.353 1.655a2.11 2.11 0 0 1 .572-.056" mask="url(#aP)"/>
            </g>
            <g transform="translate(173 81)">
                <mask id="aR" fill="#fff">
                    <use xlink:href="#aQ"/>
                </mask>
                <path fill="#757570" d="M1.354 1.655L3.938.153h-.003a1.85 1.85 0 0 0-.486.194L.865 1.85a1.742 1.742 0 0 1 .486-.195h.003" mask="url(#aR)"/>
            </g>
        </g>
        <g>
            <path fill="#9F9F98" d="M174.018 82.115l2.555-1.48-38.92-79.42-2.555 1.48z"/>
            <path fill="#ADADAD" d="M175.005 82.109l2.555-1.48-11.922-27.768-2.556 1.48z"/>
            <path fill="#91928C" d="M240.947 112.351l2.557-1.48-61.408-25.229-2.556 1.48z"/>
        </g>
        <g transform="translate(240 111)">
            <mask id="aT" fill="#fff">
                <use xlink:href="#aS"/>
            </mask>
            <path fill="#878782" d="M.961 1.582l2.82-1.23a3.273 3.273 0 0 0-.33-.12L.632 1.462c.12.037.23.078.33.12" mask="url(#aT)"/>
        </g>
        <g>
            <g transform="translate(240 111)">
                <mask id="aV" fill="#fff">
                    <use xlink:href="#aU"/>
                </mask>
                <path fill="#757570" d="M1.523 3.345l2.643-1.638a.262.262 0 0 0 .123-.19L1.647 3.154a.265.265 0 0 1-.124.19" mask="url(#aV)"/>
            </g>
            <g transform="translate(240 111)">
                <mask id="aX" fill="#fff">
                    <use xlink:href="#aW"/>
                </mask>
                <path fill="#787A74" d="M1.647 3.155L4.29 1.517a.358.358 0 0 0 .005-.064L1.652 3.09c0 .022-.002.043-.005.064" mask="url(#aX)"/>
            </g>
            <g transform="translate(240 111)">
                <mask id="aZ" fill="#fff">
                    <use xlink:href="#aY"/>
                </mask>
                <path fill="#7E7E79" d="M1.652 3.09l2.642-1.638c0-.017 0-.036-.002-.054L1.649 3.036a.84.84 0 0 1 .003.055" mask="url(#aZ)"/>
            </g>
            <g transform="translate(240 111)">
                <mask id="bb" fill="#fff">
                    <use xlink:href="#ba"/>
                </mask>
                <path fill="#82837E" d="M1.649 3.036L4.29 1.398a.506.506 0 0 0-.01-.058L1.64 2.98c.005.02.007.039.01.057" mask="url(#bb)"/>
            </g>
            <g transform="translate(240 111)">
                <mask id="bd" fill="#fff">
                    <use xlink:href="#bc"/>
                </mask>
                <path fill="#878782" d="M1.639 2.978L4.281 1.34l-.017-.062-2.643 1.639c.006.02.013.041.016.061" mask="url(#bd)"/>
            </g>
            <g transform="translate(240 111)">
                <mask id="bf" fill="#fff">
                    <use xlink:href="#be"/>
                </mask>
                <path fill="#8B8C86" d="M1.622 2.916l2.643-1.638a.939.939 0 0 0-.033-.087L1.588 2.83a.69.69 0 0 1 .034.086" mask="url(#bf)"/>
            </g>
            <g transform="translate(240 111)">
                <mask id="bh" fill="#fff">
                    <use xlink:href="#bg"/>
                </mask>
                <path fill="#90908B" d="M1.588 2.83l2.644-1.64a1.556 1.556 0 0 0-.414-.52L1.176 2.307c.199.17.337.353.412.521" mask="url(#bh)"/>
            </g>
            <g transform="translate(240 111)">
                <mask id="bj" fill="#fff">
                    <use xlink:href="#bi"/>
                </mask>
                <path fill="#8B8C86" d="M1.176 2.308L3.818.669a2.271 2.271 0 0 0-.261-.19L.914 2.116c.097.06.184.124.262.19" mask="url(#bj)"/>
            </g>
            <g transform="translate(240 111)">
                <mask id="bl" fill="#fff">
                    <use xlink:href="#bk"/>
                </mask>
                <path fill="#878782" d="M.914 2.117L3.557.478a.057.057 0 0 0-.013-.006L.901 2.109l.013.008" mask="url(#bl)"/>
            </g>
        </g>
        <g>
            <g transform="translate(240 109)">
                <mask id="bn" fill="#fff">
                    <use xlink:href="#bm"/>
                </mask>
                <path fill="#818181" d="M1.377 3.364L4.02 1.725a.275.275 0 0 0 .129-.195L1.506 3.17a.279.279 0 0 1-.129.194" mask="url(#bn)"/>
            </g>
            <g transform="translate(240 109)">
                <mask id="bp" fill="#fff">
                    <use xlink:href="#bo"/>
                </mask>
                <path fill="#868686" d="M1.506 3.168L4.149 1.53a.373.373 0 0 0 .006-.066L1.51 3.104a.373.373 0 0 1-.005.064" mask="url(#bp)"/>
            </g>
            <g transform="translate(240 109)">
                <mask id="br" fill="#fff">
                    <use xlink:href="#bq"/>
                </mask>
                <path fill="#8B8B8B" d="M1.512 3.103l2.642-1.639a.457.457 0 0 0-.004-.057L1.508 3.045c.002.02.004.039.004.058" mask="url(#br)"/>
            </g>
            <g transform="translate(240 109)">
                <mask id="bt" fill="#fff">
                    <use xlink:href="#bs"/>
                </mask>
                <path fill="#909090" d="M1.508 3.045L4.15 1.407a.434.434 0 0 0-.008-.056L1.498 2.989a.293.293 0 0 1 .01.056" mask="url(#bt)"/>
            </g>
            <g transform="translate(240 109)">
                <mask id="bv" fill="#fff">
                    <use xlink:href="#bu"/>
                </mask>
                <path fill="#959595" d="M1.498 2.99l2.644-1.64-.018-.065-2.643 1.639a.466.466 0 0 1 .017.065" mask="url(#bv)"/>
            </g>
            <g transform="translate(240 109)">
                <mask id="bx" fill="#fff">
                    <use xlink:href="#bw"/>
                </mask>
                <path fill="#9A9A9A" d="M1.48 2.924l2.644-1.638c-.01-.027-.02-.055-.032-.083L1.449 2.842a.858.858 0 0 1 .031.082" mask="url(#bx)"/>
            </g>
            <g transform="translate(240 109)">
                <mask id="bz" fill="#fff">
                    <use xlink:href="#by"/>
                </mask>
                <path fill="#9F9F9F" d="M1.45 2.842l2.642-1.638a1.492 1.492 0 0 0-.404-.508L1.044 2.333c.196.168.333.347.405.51" mask="url(#bz)"/>
            </g>
            <g transform="translate(240 109)">
                <mask id="bB" fill="#fff">
                    <use xlink:href="#bA"/>
                </mask>
                <path fill="#9A9A9A" d="M1.045 2.333L3.687.694a2.254 2.254 0 0 0-.272-.198L.77 2.134c.101.063.192.131.274.2" mask="url(#bB)"/>
            </g>
            <g transform="translate(240 109)">
                <mask id="bD" fill="#fff">
                    <use xlink:href="#bC"/>
                </mask>
                <path fill="#959595" d="M.77 2.134L3.415.495A.03.03 0 0 1 3.4.487L.759 2.126l.012.008" mask="url(#bD)"/>
            </g>
        </g>
        <g>
            <path fill="#E7E7E7" d="M241.315 111.319a2.641 2.641 0 0 0-.202-.104l-41.448-19.158c-.084-.04-.169-.079-.246-.096l-20.356-6.275a8.023 8.023 0 0 1 .677 1.612l61.415 25.058c1.142.46 1.17-.46.16-1.037"/>
            <path fill="#D1D2CA" d="M174.567 87.513c.44.892 1.097 1.603 1.765 1.983.486.278.977.38 1.39.25.976-.322 1.15-1.831.39-3.373-.44-.896-1.098-1.607-1.763-1.989-.487-.277-.978-.378-1.394-.244-.975.312-1.149 1.822-.388 3.373m-.487-5.148a2.3 2.3 0 0 1 1.124-.045 3.82 3.82 0 0 1 1.147.445c1.006.575 2 1.612 2.713 2.92a8.15 8.15 0 0 1 .677 1.614c.155.523.24 1.027.262 1.496.06 1.35-.425 2.406-1.404 2.726-.675.214-1.474.05-2.267-.404-.085-.05-.17-.1-.255-.156a6.65 6.65 0 0 1-1.215-1.033 8.424 8.424 0 0 1-1.417-2.063c-1.05-2.128-1.012-4.215-.016-5.124.184-.168.401-.296.65-.376"/>
            <path fill="#E7E7E7" d="M176.348 84.384c-.486-.277-.978-.378-1.392-.245-.976.314-1.15 1.823-.39 3.374.442.891 1.1 1.603 1.765 1.983.486.278.977.38 1.392.25.974-.323 1.148-1.83.388-3.373-.44-.895-1.097-1.608-1.763-1.989"/>
            <path fill="#AEAEAE" d="M163.28 54.742l2.556-1.47-.145-.312-2.557 1.47z"/>
        </g>
        <g>
            <g transform="translate(134)">
                <mask id="bF" fill="#fff">
                    <use xlink:href="#bE"/>
                </mask>
                <path fill="#878782" d="M.353 1.543L3.172.313A.377.377 0 0 0 3.11.293L.29 1.52c.02.006.04.014.062.023" mask="url(#bF)"/>
            </g>
            <g transform="translate(134)">
                <mask id="bH" fill="#fff">
                    <use xlink:href="#bG"/>
                </mask>
                <path fill="#82837E" d="M.291 1.52L3.111.29C3.093.287 3.075.28 3.058.279L.238 1.507c.017.003.035.008.053.013" mask="url(#bH)"/>
            </g>
            <g transform="translate(134)">
                <mask id="bJ" fill="#fff">
                    <use xlink:href="#bI"/>
                </mask>
                <path fill="#7E7E79" d="M.239 1.507L3.059.278 3.01.273.19 1.503c.016 0 .032.001.048.004" mask="url(#bJ)"/>
            </g>
            <g transform="translate(134)">
                <mask id="bL" fill="#fff">
                    <use xlink:href="#bK"/>
                </mask>
                <path fill="#787A74" d="M.192 1.502L3.01.273a.25.25 0 0 0-.048.004L.144 1.505a.356.356 0 0 1 .048-.003" mask="url(#bL)"/>
            </g>
            <g transform="translate(134)">
                <mask id="bN" fill="#fff">
                    <use xlink:href="#bM"/>
                </mask>
                <path fill="#757570" d="M.143 1.506l2.82-1.23a.222.222 0 0 0-.038.013L.105 1.518a.237.237 0 0 1 .038-.012" mask="url(#bN)"/>
            </g>
        </g>
        <g>
            <g transform="translate(134)">
                <mask id="bP" fill="#fff">
                    <use xlink:href="#bO"/>
                </mask>
                <path fill="#90908B" d="M1.135 3.21L3.78 1.571C3.527 1.02 3.272.662 3.068.49L.425 2.127c.204.174.458.531.71 1.083" mask="url(#bP)"/>
            </g>
            <g transform="translate(134)">
                <mask id="bR" fill="#fff">
                    <use xlink:href="#bQ"/>
                </mask>
                <path fill="#8B8C86" d="M.426 2.127L3.068.488a.792.792 0 0 0-.09-.067L.334 2.06c.03.018.06.041.092.068" mask="url(#bR)"/>
            </g>
            <g transform="translate(134)">
                <mask id="bT" fill="#fff">
                    <use xlink:href="#bS"/>
                </mask>
                <path fill="#878782" d="M.335 2.06L2.977.42h-.003L.33 2.057z" mask="url(#bT)"/>
            </g>
        </g>
        <path fill="#D1D2CA" d="M134.32 2.05c-.347-.201-.482.214-.042 1.18l24.028 52.742.153.302L173.211 83a1.753 1.753 0 0 1 .789-.418l-38.902-79.49c-.283-.58-.57-.922-.778-1.043"/>
        <g>
            <g transform="translate(134)">
                <mask id="bV" fill="#fff">
                    <use xlink:href="#bU"/>
                </mask>
                <path fill="#959595" d="M1.131 1.334L3.775.104a.444.444 0 0 0-.058-.021L1.075 1.31a.55.55 0 0 1 .057.023" mask="url(#bV)"/>
            </g>
            <g transform="translate(134)">
                <mask id="bX" fill="#fff">
                    <use xlink:href="#bW"/>
                </mask>
                <path fill="#909090" d="M1.074 1.31L3.718.083a.533.533 0 0 0-.05-.012L1.025 1.298c.016.003.033.008.049.013" mask="url(#bX)"/>
            </g>
            <g transform="translate(134)">
                <mask id="bZ" fill="#fff">
                    <use xlink:href="#bY"/>
                </mask>
                <path fill="#8B8B8B" d="M1.025 1.298L3.668.07c-.016-.002-.03-.004-.044-.004L.98 1.293c.014.001.029.002.044.005" mask="url(#bZ)"/>
            </g>
            <g transform="translate(134)">
                <mask id="cb" fill="#fff">
                    <use xlink:href="#ca"/>
                </mask>
                <path fill="#868686" d="M.981 1.293L3.624.064a.208.208 0 0 0-.044.004L.936 1.296a.326.326 0 0 1 .045-.003" mask="url(#cb)"/>
            </g>
            <g transform="translate(134)">
                <mask id="cd" fill="#fff">
                    <use xlink:href="#cc"/>
                </mask>
                <path fill="#818181" d="M.936 1.297L3.58.067a.272.272 0 0 0-.038.013L.9 1.309a.194.194 0 0 1 .037-.012" mask="url(#cd)"/>
            </g>
        </g>
        <g>
            <path fill="#AFAFAF" d="M162.867 54.168l2.549-1.478-27.053-51.636-2.55 1.478z"/>
            <path fill="#E7E7E7" d="M135.091 1.604c-.367-.212-.49.28.004 1.292l38.827 79.328c.309-.076.64-.075.984-.006L163.012 54.48l-.146-.312-27.052-51.637c-.273-.517-.53-.818-.723-.928"/>
        </g>
        <g>
            <g transform="translate(135)">
                <mask id="cf" fill="#fff">
                    <use xlink:href="#ce"/>
                </mask>
                <path fill="#9F9F9F" d="M.88 2.806l2.643-1.638c-.24-.488-.47-.802-.657-.96L.224 1.846c.186.158.415.472.656.96" mask="url(#cf)"/>
            </g>
            <g transform="translate(135)">
                <mask id="ch" fill="#fff">
                    <use xlink:href="#cg"/>
                </mask>
                <path fill="#9A9A9A" d="M.224 1.847L2.866.208a.99.99 0 0 0-.088-.067L.135 1.781c.028.016.058.04.089.066" mask="url(#ch)"/>
            </g>
            <g transform="translate(135)">
                <mask id="cj" fill="#fff">
                    <use xlink:href="#ci"/>
                </mask>
                <path fill="#959595" d="M.135 1.78L2.777.142 2.775.14.13 1.78h.004" mask="url(#cj)"/>
            </g>
        </g>
        <path fill="#9B9B9B" d="M199.434 92L202 90.482 181.566 84 179 85.518z"/>
        <g>
            <g transform="translate(199 90)">
                <mask id="cl" fill="#fff">
                    <use xlink:href="#ck"/>
                </mask>
                <path fill="#959595" d="M.444 1.491L3.087.262a3.023 3.023 0 0 0-.139-.05L.304 1.441c.047.014.093.032.14.05" mask="url(#cl)"/>
            </g>
            <g transform="translate(199 90)">
                <mask id="cn" fill="#fff">
                    <use xlink:href="#cm"/>
                </mask>
                <path fill="#909090" d="M.305 1.44L2.948.213A.937.937 0 0 0 2.832.18L.19 1.41a.92.92 0 0 1 .115.03" mask="url(#cn)"/>
            </g>
            <g transform="translate(199 90)">
                <mask id="cp" fill="#fff">
                    <use xlink:href="#co"/>
                </mask>
                <path fill="#8B8B8B" d="M.19 1.41L2.831.181z" mask="url(#cp)"/>
            </g>
        </g>
        <path fill="#A2A2A2" d="M240.443 111l2.557-1.497L201.556 90 199 91.497z"/>
        <g transform="translate(240 110)">
            <mask id="cr" fill="#fff">
                <use xlink:href="#cq"/>
            </mask>
            <path fill="#959595" d="M.808 1.595L3.627.365A3.62 3.62 0 0 0 3.404.28L.586 1.508c.078.027.152.057.222.087" mask="url(#cr)"/>
        </g>
        <path fill="#D1D2CA" d="M241.28 112.857c-.09-.05-.19-.1-.297-.143L180 88a6.22 6.22 0 0 1 .26 1.477l20.088 10.082c.077.044.16.074.238.1l40.617 14.247c1.09.389 1.01-.52.076-1.05"/>
        <path fill="#0DC0AD" d="M210.115 97L208 101.723l3.899 1.277L214 98.94zM158 120.405l4.75 2.595 2.25-3.797-5.14-3.203zM151 38.653L154.257 37 156 40.609 152.826 43z"/>
        <g transform="translate(228 61.047)">
            <mask id="ct" fill="#fff">
                <use xlink:href="#cs"/>
            </mask>
            <path fill="#C7C7C7" d="M43.078 1.117h-.002l-.015.006-3.213 1.12 1.13.266a5.61 5.61 0 0 0-1.059 1.986L.672 131.92c-.972 3.159.453 6.999 3.182 8.574l173.543 100.195c.422.244.851.411 1.276.521l-.429.937 3.069-1.078-.007-.003c1.258-.5 2.293-1.623 2.793-3.246l39.245-127.425c.972-3.16-.452-6.999-3.181-8.574L46.62 1.626c-.791-.457-1.605-.673-2.386-.673a4.14 4.14 0 0 0-1.156.164" mask="url(#ct)"/>
        </g>
        <g transform="translate(103 206.047)">
            <mask id="cv" fill="#fff">
                <use xlink:href="#cu"/>
            </mask>
            <path fill="#E9E9E9" d="M114.993 1.961L4.242 65.903.549 64.494l1.037 5.181.005-.003c.138.778.683 1.508 1.662 2.073l173 99.883c2.523 1.456 6.927 1.273 9.838-.407l111.034-64.106c1.37-.791 2.157-1.773 2.353-2.743l.006.008 1.06-5.042-4.359 1.109.062.073L124.831 1.554c-1.142-.66-2.672-.983-4.273-.983-1.934-.001-3.972.471-5.565 1.39" mask="url(#cv)"/>
        </g>
        <g transform="translate(103 200.047)">
            <mask id="cx" fill="#fff">
                <use xlink:href="#cw"/>
            </mask>
            <path fill="#E9E9E9" d="M114.74 2.198L2.919 66.758c-2.933 1.693-3.251 4.255-.711 5.72L176.437 173.07c2.539 1.466 6.975 1.282 9.907-.411l111.822-64.561c2.933-1.692 3.251-4.253.711-5.719L124.648 1.786c-1.151-.663-2.69-.989-4.303-.989-1.947 0-4.001.475-5.605 1.401" mask="url(#cx)"/>
        </g>
        <path fill="#FFF" d="M105.207 269.6l174.23 100.59c2.54 1.466 6.975 1.282 9.907-.41l111.822-64.56c.891-.515 1.51-1.112 1.911-1.732 1.061 1.452.402 3.321-1.91 4.657l-111.823 64.56c-2.932 1.694-7.368 1.877-9.908.412L105.207 272.525c-1.768-1.02-2.12-2.57-1.2-3.988.284.387.664.752 1.2 1.062"/>
        <g transform="translate(225 62.047)">
            <mask id="cz" fill="#fff">
                <use xlink:href="#cy"/>
            </mask>
            <path fill="#DCDCDC" d="M39.961 4.53L.716 131.955c-.972 3.159.452 6.999 3.18 8.574L177.44 240.724c2.729 1.575 5.729.292 6.701-2.869l39.247-127.425c.972-3.16-.453-6.999-3.182-8.574L46.663 1.661c-.791-.457-1.605-.674-2.386-.674-1.912.001-3.625 1.299-4.316 3.543" mask="url(#cz)"/>
        </g>
        <g>
            <path fill="#A4E8E1" d="M400.803 298.31l-168.327-97.267c-2.612-1.506-3.975-5.18-3.045-8.205l37.521-121.817c.931-3.024 3.802-4.253 6.413-2.745l168.328 97.264c2.612 1.508 3.975 5.182 3.045 8.206l-37.522 121.817c-.93 3.024-3.8 4.254-6.412 2.746"/>
            <path fill="#444F74" d="M192.11 254.08l-5.761-3.325c-.463-.268-.405-.734.13-1.042l6.8-3.927c.535-.31 1.343-.342 1.806-.075l5.762 3.327c.462.267.404.733-.13 1.042l-6.801 3.927c-.534.308-1.343.342-1.805.074M201.009 259.219l-5.762-3.327c-.463-.268-.405-.734.13-1.041l6.8-3.928c.535-.309 1.343-.343 1.806-.075l5.762 3.327c.463.267.405.733-.13 1.042l-6.801 3.926c-.534.309-1.342.344-1.805.076M209.907 264.356l-5.762-3.327c-.463-.267-.405-.734.13-1.042l6.801-3.927c.534-.308 1.342-.342 1.805-.074l5.762 3.326c.462.268.404.734-.13 1.042l-6.801 3.927c-.534.308-1.342.342-1.805.075M222.214 260.113l-5.762-3.326c-.463-.268-.405-.735.13-1.042l5.709-3.297c.534-.308 1.342-.342 1.805-.074l5.762 3.326c.462.267.404.734-.13 1.042l-5.71 3.297c-.533.308-1.341.342-1.804.074M231.112 265.25l-5.762-3.326c-.463-.267-.405-.734.13-1.042l5.71-3.296c.533-.31 1.341-.342 1.804-.075l5.762 3.327c.462.267.404.733-.13 1.042l-5.709 3.296c-.534.308-1.342.343-1.805.075M240.01 270.389l-5.761-3.327c-.463-.267-.405-.734.13-1.042l5.709-3.296c.534-.31 1.342-.343 1.804-.076l5.763 3.328c.462.267.404.732-.13 1.041l-5.71 3.297c-.533.307-1.342.341-1.804.074M248.909 275.525l-5.762-3.326c-.463-.268-.405-.734.13-1.042l5.709-3.296c.534-.309 1.342-.343 1.805-.075l5.762 3.326c.462.267.404.734-.13 1.043l-5.71 3.296c-.533.308-1.341.342-1.804.074M257.807 280.663l-5.762-3.326c-.463-.268-.405-.735.13-1.042l5.709-3.297c.534-.31 1.342-.342 1.805-.074l5.762 3.326c.462.267.404.733-.13 1.042l-5.71 3.297c-.533.307-1.342.342-1.804.074M266.705 285.8l-5.762-3.326c-.463-.267-.405-.734.13-1.042l5.71-3.296c.533-.31 1.341-.342 1.803-.075l5.763 3.327c.462.267.404.733-.13 1.042l-5.709 3.296c-.534.308-1.343.342-1.805.075M275.603 290.938l-5.762-3.327c-.463-.267-.405-.734.13-1.042l5.71-3.296c.533-.309 1.341-.342 1.804-.075l5.762 3.327c.462.267.404.733-.13 1.042l-5.709 3.296c-.534.308-1.342.342-1.805.075M284.502 296.075l-5.762-3.326c-.463-.268-.405-.734.13-1.042l5.709-3.297c.534-.308 1.342-.342 1.805-.074l5.762 3.326c.462.267.404.734-.13 1.042l-5.71 3.297c-.533.308-1.342.342-1.804.074M293.4 301.213l-5.762-3.327c-.463-.267-.405-.734.13-1.042l5.71-3.296c.533-.31 1.341-.342 1.803-.075l5.763 3.327c.462.267.404.733-.13 1.042l-5.709 3.296c-.534.308-1.343.343-1.805.075M302.298 306.35l-5.762-3.327c-.463-.267-.405-.734.13-1.042l5.71-3.296c.533-.309 1.341-.342 1.804-.075l5.762 3.327c.462.267.404.733-.13 1.042l-5.709 3.296c-.534.308-1.342.342-1.805.075M235.325 257.681l-5.762-3.327c-.463-.267-.405-.734.13-1.042l5.709-3.296c.534-.309 1.342-.342 1.804-.075l5.763 3.327c.462.267.404.733-.13 1.042l-5.709 3.296c-.534.308-1.343.342-1.805.075M226.294 252.467l-5.762-3.326c-.463-.268-.405-.734.13-1.042l5.709-3.296c.534-.31 1.342-.343 1.805-.075l5.762 3.326c.462.267.404.734-.13 1.043l-5.71 3.296c-.533.308-1.341.342-1.804.074M217.248 247.244l-12.41-7.164c-.463-.268-.404-.734.13-1.042l5.709-3.297c.534-.31 1.342-.342 1.805-.074l12.41 7.164c.462.267.404.734-.13 1.043l-5.71 3.296c-.533.308-1.341.342-1.804.074M223.571 240.893l-10.07-5.814c-.464-.268-.406-.735.13-1.042l5.708-3.297c.534-.309 1.342-.342 1.805-.075l10.071 5.815c.462.267.404.733-.13 1.042l-5.709 3.296c-.534.308-1.343.342-1.805.075M244.223 262.818l-5.762-3.326c-.463-.268-.405-.734.13-1.042l5.709-3.297c.534-.308 1.342-.342 1.805-.074l5.762 3.326c.462.267.404.734-.13 1.042l-5.709 3.297c-.534.308-1.342.342-1.805.074M253.121 267.956l-5.762-3.326c-.463-.268-.405-.735.13-1.043l5.71-3.296c.533-.31 1.341-.342 1.804-.074l5.762 3.326c.462.267.404.733-.13 1.042l-5.709 3.297c-.534.307-1.342.342-1.805.074M262.02 273.094l-5.762-3.327c-.463-.268-.405-.734.13-1.042l5.709-3.297c.534-.309 1.342-.341 1.804-.075l5.763 3.327c.462.267.404.733-.13 1.042l-5.71 3.296c-.533.309-1.342.343-1.804.076M270.918 278.231l-5.762-3.327c-.463-.268-.405-.734.13-1.042l5.709-3.296c.534-.309 1.342-.343 1.805-.075l5.762 3.327c.462.267.404.733-.13 1.042l-5.71 3.296c-.533.308-1.341.342-1.804.075M279.816 283.368l-5.762-3.326c-.463-.268-.405-.735.13-1.042l5.71-3.297c.533-.309 1.341-.342 1.804-.074l5.762 3.326c.462.267.404.734-.13 1.042l-5.709 3.297c-.534.307-1.342.342-1.805.074M288.715 288.506l-5.762-3.327c-.463-.267-.405-.734.129-1.042l5.71-3.296c.534-.31 1.342-.342 1.805-.075l5.762 3.327c.462.267.404.733-.13 1.042l-5.71 3.296c-.533.308-1.342.343-1.804.075M297.613 293.643l-5.762-3.327c-.463-.267-.405-.734.13-1.042l5.709-3.296c.534-.309 1.342-.342 1.805-.075l5.762 3.327c.462.267.404.733-.13 1.042l-5.71 3.296c-.533.308-1.341.342-1.804.075M306.511 298.78l-5.762-3.326c-.463-.268-.405-.734.13-1.042l5.709-3.297c.534-.308 1.342-.342 1.805-.074l5.762 3.326c.462.267.404.734-.13 1.043l-5.709 3.296c-.534.308-1.343.342-1.805.074M315.41 303.918l-5.763-3.326c-.463-.268-.404-.735.13-1.043l5.71-3.296c.533-.31 1.341-.342 1.804-.074l5.762 3.326c.462.267.404.733-.13 1.042l-5.709 3.297c-.534.307-1.343.342-1.804.074M331.228 313.052l-12.572-7.26c-.463-.266-.405-.732.13-1.041l5.71-3.297c.533-.308 1.341-.342 1.804-.075l12.572 7.26c.462.267.404.733-.13 1.042l-5.709 3.296c-.534.308-1.342.342-1.805.075M348.552 303.05l-10.61-6.127c-.464-.267-.406-.733.13-1.042l5.708-3.296c.534-.308 1.342-.342 1.805-.075l10.611 6.127c.462.267.405.733-.13 1.042l-5.709 3.296c-.534.308-1.342.342-1.805.075M259.806 261.813l-5.762-3.326c-.463-.268-.405-.735.13-1.043l5.709-3.296c.534-.309 1.342-.342 1.805-.074l5.762 3.326c.462.267.404.733-.13 1.042l-5.709 3.297c-.534.307-1.343.342-1.805.074M250.686 256.549l-5.762-3.327c-.463-.267-.405-.734.13-1.042l5.71-3.296c.533-.31 1.341-.343 1.804-.075l5.762 3.327c.462.267.404.733-.13 1.042l-5.709 3.296c-.534.308-1.342.342-1.805.075M241.567 251.283l-5.762-3.327c-.463-.267-.405-.734.13-1.042l5.709-3.296c.534-.309 1.342-.342 1.805-.075l5.762 3.327c.462.267.404.733-.13 1.042l-5.71 3.296c-.533.308-1.341.343-1.804.075M232.447 246.017l-5.762-3.326c-.463-.268-.405-.734.13-1.042l5.71-3.297c.533-.308 1.341-.342 1.804-.074l5.762 3.326c.462.267.404.734-.13 1.042l-5.709 3.297c-.534.308-1.343.342-1.805.074M268.704 266.951l-5.762-3.327c-.463-.267-.405-.734.13-1.042l5.71-3.296c.533-.309 1.341-.342 1.803-.075l5.763 3.327c.462.267.404.733-.13 1.042l-5.709 3.296c-.534.308-1.343.342-1.805.075M277.602 272.089l-5.762-3.327c-.463-.268-.405-.734.13-1.042l5.71-3.296c.533-.31 1.341-.343 1.804-.075l5.762 3.327c.462.267.404.733-.13 1.042l-5.709 3.296c-.534.308-1.342.342-1.805.075M286.5 277.225l-5.761-3.326c-.463-.268-.405-.735.13-1.042l5.709-3.297c.534-.309 1.342-.342 1.805-.074l5.762 3.326c.462.267.404.734-.13 1.042l-5.71 3.297c-.533.307-1.342.342-1.804.074M295.4 282.363l-5.763-3.327c-.463-.267-.405-.734.13-1.042l5.71-3.296c.533-.309 1.341-.342 1.803-.075l5.763 3.327c.462.267.404.733-.13 1.042l-5.709 3.296c-.534.308-1.343.343-1.805.075M304.297 287.5l-5.762-3.326c-.463-.267-.405-.734.13-1.042l5.71-3.296c.533-.31 1.341-.342 1.804-.075l5.762 3.327c.462.267.404.733-.13 1.042l-5.709 3.296c-.534.308-1.342.342-1.805.075M313.196 292.637l-5.762-3.326c-.463-.267-.405-.733.13-1.041l5.709-3.297c.534-.309 1.342-.343 1.805-.075l5.762 3.326c.462.267.404.734-.13 1.043l-5.71 3.296c-.533.308-1.342.342-1.804.074M322.094 297.775l-5.762-3.326c-.463-.268-.405-.735.13-1.043l5.71-3.296c.533-.309 1.341-.342 1.803-.074l5.763 3.326c.462.267.404.733-.13 1.042l-5.709 3.297c-.534.307-1.343.342-1.805.074M330.992 302.913l-5.762-3.327c-.463-.267-.405-.734.13-1.042l5.709-3.296c.534-.31 1.342-.342 1.805-.075l5.762 3.327c.462.267.404.733-.13 1.042l-5.709 3.296c-.534.308-1.342.342-1.805.075M339.89 308.05l-5.762-3.326c-.463-.268-.405-.734.13-1.042l5.71-3.296c.533-.31 1.341-.343 1.804-.075l5.762 3.326c.462.268.404.734-.13 1.043l-5.709 3.296c-.534.308-1.343.342-1.805.075M255.12 249.106l-5.762-3.326c-.463-.268-.405-.735.13-1.043l5.71-3.296c.533-.309 1.341-.342 1.804-.075l5.762 3.327c.462.267.404.733-.13 1.042l-5.709 3.296c-.534.308-1.342.343-1.805.075M246.266 243.994l-5.762-3.326c-.463-.268-.405-.734.13-1.042l5.71-3.296c.533-.31 1.341-.343 1.804-.075l5.762 3.326c.462.267.404.734-.13 1.043l-5.709 3.296c-.534.308-1.342.342-1.805.074M237.412 238.883l-5.762-3.327c-.463-.267-.405-.734.13-1.042l5.71-3.296c.533-.31 1.341-.342 1.804-.075l5.762 3.327c.462.267.404.733-.13 1.042l-5.709 3.296c-.534.308-1.342.342-1.805.075M228.558 233.77l-5.762-3.326c-.463-.268-.405-.734.13-1.042l5.71-3.297c.533-.308 1.341-.342 1.804-.074l5.762 3.326c.462.267.404.734-.13 1.042l-5.709 3.297c-.534.308-1.342.342-1.805.074M237.663 228.514l-5.762-3.327c-.463-.267-.405-.734.13-1.042l1.887-1.09c.534-.309 1.342-.342 1.805-.074l5.762 3.326c.463.268.405.733-.13 1.042l-1.887 1.09c-.534.308-1.342.342-1.805.075M249.218 235.185l-5.762-3.327c-.463-.267-.405-.734.13-1.042l1.887-1.09c.534-.308 1.342-.342 1.805-.074l5.762 3.326c.462.268.405.734-.13 1.042l-1.887 1.09c-.534.308-1.343.342-1.805.075M258.034 240.276l-5.762-3.327c-.463-.268-.404-.734.13-1.042l1.887-1.09c.534-.309 1.342-.342 1.805-.074l5.762 3.326c.463.268.405.733-.13 1.042l-1.887 1.09c-.534.308-1.342.342-1.805.075M266.852 245.366l-5.762-3.326c-.463-.268-.405-.735.129-1.042l1.888-1.09c.534-.309 1.342-.342 1.805-.075l5.762 3.327c.462.267.405.733-.13 1.042l-1.887 1.09c-.534.308-1.343.342-1.805.074M275.669 250.457l-5.762-3.327c-.463-.267-.405-.734.13-1.042l1.887-1.09c.534-.308 1.342-.342 1.805-.074l5.762 3.327c.463.267.405.733-.13 1.042l-1.887 1.089c-.534.308-1.342.342-1.805.075M324.893 278.877l-5.762-3.327c-.463-.267-.405-.734.13-1.042l1.887-1.09c.534-.308 1.342-.342 1.805-.074l5.762 3.326c.463.268.405.734-.13 1.042l-1.887 1.09c-.534.308-1.342.342-1.805.075M333.71 283.968l-5.762-3.327c-.463-.267-.405-.734.13-1.042l1.887-1.09c.535-.31 1.343-.342 1.805-.074l5.762 3.326c.463.268.405.733-.13 1.042l-1.887 1.09c-.534.308-1.342.342-1.805.075M342.528 289.057l-5.762-3.326c-.463-.268-.405-.734.13-1.042l1.887-1.09c.534-.309 1.342-.342 1.805-.075l5.762 3.327c.463.267.405.733-.13 1.042l-1.887 1.09c-.534.308-1.343.342-1.805.074M351.345 294.148l-5.762-3.326c-.464-.268-.405-.735.13-1.043l1.887-1.089c.535-.309 1.343-.342 1.805-.075l5.762 3.327c.463.267.405.733-.13 1.042l-1.887 1.09c-.534.307-1.342.342-1.805.074M264.019 254.244l-5.762-3.327c-.463-.267-.405-.734.129-1.042l5.71-3.296c.534-.31 1.342-.342 1.805-.075l5.762 3.327c.462.267.404.733-.13 1.042l-5.71 3.296c-.533.308-1.342.342-1.804.075M272.917 259.38l-5.762-3.325c-.463-.268-.405-.734.13-1.042l5.709-3.297c.534-.308 1.342-.342 1.805-.074l5.762 3.326c.462.267.404.734-.13 1.043l-5.71 3.296c-.533.308-1.341.342-1.804.074M281.815 264.518l-5.762-3.326c-.463-.268-.405-.735.13-1.042l5.71-3.297c.533-.309 1.341-.342 1.804-.074l5.762 3.326c.462.267.404.733-.13 1.042l-5.709 3.297c-.534.307-1.343.342-1.805.074M290.714 269.656l-5.762-3.327c-.463-.267-.405-.734.129-1.042l5.71-3.296c.534-.309 1.342-.342 1.805-.075l5.762 3.327c.462.267.404.733-.13 1.042l-5.71 3.296c-.533.308-1.342.342-1.804.075M299.612 274.794l-5.762-3.327c-.463-.267-.405-.734.13-1.042l5.709-3.296c.534-.31 1.342-.342 1.805-.075l5.762 3.327c.462.267.404.733-.13 1.042l-5.71 3.296c-.533.308-1.341.342-1.804.075M308.51 279.93l-5.762-3.326c-.463-.267-.405-.734.13-1.041l5.71-3.297c.533-.309 1.341-.343 1.804-.075l5.762 3.326c.462.267.404.734-.13 1.042l-5.709 3.297c-.534.308-1.343.342-1.805.074M317.409 285.068l-5.762-3.327c-.463-.267-.405-.734.129-1.042l5.71-3.296c.534-.309 1.341-.342 1.804-.075l5.762 3.327c.462.267.404.733-.13 1.042l-5.709 3.296c-.534.308-1.343.343-1.805.075M326.307 290.206l-5.762-3.327c-.463-.267-.405-.734.13-1.042l5.709-3.296c.534-.31 1.342-.342 1.805-.075l5.762 3.327c.462.267.404.733-.13 1.042l-5.71 3.296c-.533.308-1.341.342-1.804.075M335.205 295.344l-5.762-3.327c-.463-.268-.405-.734.13-1.042l5.709-3.297c.534-.309 1.342-.343 1.805-.075l5.762 3.327c.462.267.404.733-.13 1.042l-5.71 3.296c-.533.309-1.342.343-1.804.076M213.146 254.878l-16.97-9.797c-.462-.267-.404-.734.13-1.042l5.709-3.297c.534-.308 1.342-.342 1.805-.074l16.97 9.797c.462.267.404.733-.13 1.042l-5.71 3.297c-.533.307-1.341.342-1.804.074M322.463 317.992l-16.97-9.797c-.462-.267-.404-.733.13-1.042l5.71-3.297c.533-.307 1.341-.342 1.804-.074l16.97 9.797c.462.267.404.734-.13 1.043l-5.709 3.296c-.534.308-1.342.342-1.805.074M286.878 308.795l-5.762-3.326c-.463-.268-.405-.734.13-1.042l6.8-3.927c.535-.31 1.343-.342 1.806-.075l5.762 3.327c.462.267.405.733-.13 1.042l-6.801 3.927c-.534.308-1.342.342-1.805.074M222.259 271.487l-9.215-5.32c-.463-.268-.405-.734.13-1.042l6.8-3.927c.535-.309 1.343-.342 1.806-.075l9.214 5.32c.463.268.405.734-.13 1.042l-6.8 3.927c-.534.308-1.343.343-1.805.075M278.304 303.846l-9.215-5.32c-.463-.268-.405-.735.13-1.042l6.801-3.927c.534-.31 1.342-.343 1.805-.075l9.215 5.32c.463.268.405.733-.13 1.042l-6.801 3.927c-.534.308-1.342.342-1.805.075M235.096 278.9l-9.215-5.32c-.463-.268-.405-.735.13-1.043l6.801-3.927c.534-.309 1.342-.342 1.805-.075l9.216 5.321c.463.267.405.733-.13 1.042l-6.801 3.926c-.534.308-1.342.343-1.805.075"/>
            <path fill="#444F74" d="M234.68 268.571l40.064 23.132c.498.287.498.752 0 1.04l-6.935 4.003c-.497.287-1.303.287-1.8 0l-40.065-23.13 8.736-5.045zM311.747 318.11l6.418 3.705c.38.22.332.602-.106.855l-2.782 1.606c-.438.253-1.1.28-1.48.061l-6.418-3.706c-.38-.218-.331-.6.107-.854l2.782-1.605c.437-.253 1.1-.282 1.479-.062M302.775 312.93l6.418 3.705c.38.22.332.602-.106.855l-2.782 1.605c-.438.254-1.1.28-1.48.063l-6.418-3.706c-.379-.22-.332-.601.106-.855l2.783-1.606c.437-.253 1.1-.28 1.48-.062M293.877 307.793l6.418 3.705c.379.219.332.602-.106.855l-2.782 1.606c-.438.253-1.1.28-1.48.06l-6.418-3.705c-.38-.218-.332-.601.106-.854l2.783-1.606c.437-.252 1.1-.281 1.479-.061M307.689 310.093l6.418 3.706c.379.219.332.602-.106.854l-2.782 1.606c-.438.253-1.1.28-1.48.062l-6.418-3.706c-.38-.22-.331-.601.106-.854l2.783-1.606c.437-.253 1.1-.281 1.479-.062"/>
            <path fill="#370031" d="M231.997 325.77c2.091 1.206 5.776 1.043 8.215-.362l23.02-13.29c1.191-.689 1.873-1.56 1.872-2.393 0-.833-.676-1.397-1.244-1.725l-44.719-25.82c-2.09-1.205-5.776-1.046-8.215.362l-23.02 13.291c-1.19.688-1.873 1.56-1.873 2.391 0 .833.677 1.4 1.244 1.727l44.72 25.82zm3.543 1.894c-1.519 0-2.974-.315-4.084-.957l-44.72-25.819c-1.152-.665-1.786-1.61-1.787-2.664 0-1.229.88-2.442 2.415-3.328l23.021-13.29c2.782-1.609 6.865-1.769 9.297-.363l44.72 25.82c1.152.663 1.785 1.608 1.786 2.662 0 1.23-.879 2.443-2.415 3.33l-23.02 13.29c-1.51.873-3.406 1.32-5.213 1.32z"/>
            <path fill="#FFF" d="M293.61 155.675c-5.777 12.67-18.46 19.295-28.329 14.795-9.869-4.5-13.187-18.42-7.409-31.09 5.777-12.67 18.46-19.294 28.33-14.795 9.867 4.5 13.185 18.419 7.408 31.09"/>
            <path fill="#0DC0AD" d="M289.57 153.833c-4.47 9.806-14.287 14.933-21.924 11.45-7.638-3.482-10.205-14.255-5.735-24.06 4.472-9.807 14.287-14.933 21.925-11.451 7.638 3.483 10.205 14.254 5.734 24.06"/>
            <path fill="#FFF" d="M351.084 185.066c-5.555 12.184-18.53 18.197-28.984 13.432-10.452-4.766-14.422-18.505-8.868-30.69 5.556-12.183 18.532-18.197 28.984-13.43 10.453 4.764 14.423 18.504 8.868 30.688M410.362 214.323c-5.555 12.184-18.53 18.197-28.984 13.432-10.452-4.766-14.422-18.505-8.868-30.69 5.556-12.183 18.532-18.197 28.984-13.43 10.453 4.764 14.423 18.504 8.868 30.688"/>
            <path fill="#0DC0AD" d="M347.39 183.383c-4.47 9.806-14.914 14.646-23.326 10.81-8.413-3.835-11.608-14.894-7.137-24.7 4.47-9.806 14.914-14.646 23.327-10.81 8.412 3.835 11.608 14.893 7.137 24.7"/>
            <path fill="#A4E8E1" d="M406.669 212.64c-4.471 9.805-14.915 14.645-23.327 10.81-8.413-3.836-11.608-14.895-7.137-24.7 4.47-9.807 14.914-14.647 23.327-10.81 8.412 3.834 11.608 14.892 7.137 24.7"/>
            <path fill="#FFF" d="M283.014 139.612l-10.957 17.613-3.533-1.775 8.922-14.342-3.052-1.535 2.035-3.27zM291.444 156.036l22.855 11.49-1.59 2.559-22.857-11.49zM334.668 184.342l-2.066 3.32-11.534-5.797 1.643-2.641 9.878-3.457c1.053-.373 1.843-.753 2.37-1.14.524-.383.94-.82 1.242-1.306.438-.705.566-1.35.388-1.935-.179-.586-.67-1.08-1.469-1.482a4.28 4.28 0 0 0-2.083-.47c-.72.024-1.446.238-2.174.642l-1.382-3.206a8.331 8.331 0 0 1 3.958-1.164c1.406-.052 2.785.262 4.137.94 1.134.57 1.993 1.284 2.577 2.139.584.855.87 1.79.858 2.809-.013 1.017-.349 2.055-1.006 3.11a8.993 8.993 0 0 1-2.199 2.43c-.869.664-2.14 1.28-3.81 1.85l-5.89 2.059 6.562 3.299zM350.827 185.87l23.372 11.452-1.629 2.549L349.2 188.42zM396.173 208.178c.154 1.255-.18 2.546-1.004 3.87a7.687 7.687 0 0 1-2.459 2.48c-1.003.63-2.142.965-3.418 1.007-1.276.04-2.603-.285-3.984-.98a10.79 10.79 0 0 1-2.868-2.085c-.836-.85-1.429-1.758-1.78-2.727l3.314-2.43a6.24 6.24 0 0 0 1.29 2.184 6.976 6.976 0 0 0 2.084 1.593c.887.445 1.708.6 2.462.46.754-.138 1.355-.567 1.804-1.289.897-1.441.393-2.643-1.51-3.6l-1.614-.81 1.675-2.692 5.691-2.523-6.497-3.267 2.035-3.27 10.684 5.37-1.644 2.643-6.262 2.796c1.18.924 1.847 2.014 2.001 3.27"/>
            <path fill="#2342BE" d="M326 421l-40-23.033V355l40 23.034z"/>
            <path fill="#1EA9CA" d="M358 359l-32 18.592V421l32-18.485z"/>
            <path fill="#FFF" d="M330.582 381.537v12.638l9-5.333v-12.667l-9 5.362zm-1 13.638v-13.97l.144-.09 9.856-5.94v13.997l-.143.09-9.857 5.913z" opacity=".5"/>
            <path fill="#FFF" d="M336.5 382.822l-.024 6.477-3 1.701.024-6.476-1.5.85 3.018-6.374 2.982 2.972z" opacity=".5"/>
            <path fill="#0DC0AD" d="M358 359.355L326.139 378l-18.843-10.963-6.108-3.544L286 354.646 317.861 336l15.211 8.847 6.132 3.567z"/>
            <path fill="#FFF" d="M307.106 367L301 363.487 332.871 345l6.129 3.536z" opacity=".5"/>
            <path fill="#FFF" d="M301.029 363L301 377.709l1.227-3.441 1.29 4.866 1.746-3.149 1.553 5.015.184-14.448zM347 372l-3 1.52V377l3-1.51zM351 369l-3 1.823V375l3-1.813zM355 367l-3 1.823V373l3-1.812z" opacity=".5"/>
            <path fill="#2342BE" d="M386 423l-31-18.496V370l31 18.497z"/>
            <path fill="#1EA9CA" d="M412 374l-26 14.693V423l26-14.61z"/>
            <path fill="#FFF" d="M389.582 392.043v9.132l7-3.848v-9.152l-7 3.868zm-1 10.132v-10.478l8-4.522v10.497l-8 4.503z" opacity=".5"/>
            <path fill="#FFF" d="M394.75 392.867l-.02 4.857-2.5 1.276.02-4.857-1.25.637 2.515-4.78 2.485 2.229z" opacity=".5"/>
            <path fill="#0DC0AD" d="M412 374.35L386.777 389l-14.918-8.614-4.835-2.785L355 370.65 380.224 356l12.042 6.951 4.854 2.803z"/>
            <path fill="#FFF" d="M371.82 380l-4.82-2.715L392.161 363l4.839 2.733z" opacity=".5"/>
            <path fill="#FFF" d="M367.019 377L367 388.44l.818-2.676.86 3.784 1.163-2.448 1.036 3.9.123-11.237zM403 384l-2 1.215V388l2-1.208zM406 382l-2 1.519V387l2-1.51zM409 380l-2 1.519V385l2-1.51z" opacity=".5"/>
        </g>
        <g transform="translate(363 191)">
            <path fill="#3C3C3A" d="M13.7 157c-.468 0-.91-.111-1.303-.332-.872-.49-1.382-1.46-1.397-2.665-.02-1.633.826-3.56 2.155-4.903.478-.485.813-1.168.813-1.66v-5.436c0-.554.462-1.004 1.031-1.004.571 0 1.034.45 1.034 1.004v5.436c0 1.017-.534 2.185-1.391 3.055-.957.968-1.592 2.367-1.577 3.487.006.468.14.822.364.946.222.125.604.062 1.022-.168 1.323-.722 2.484-2.661 2.484-4.152 0-.556.462-1.005 1.032-1.005.57 0 1.033.449 1.033 1.005 0 2.229-1.554 4.823-3.538 5.905-.592.323-1.193.487-1.762.487"/>
            <path fill="#575756" d="M10.944 145.223L9.83 139.69c-.243-1.209.643-2.994 1.83-3.685l7.057-4.103c.515-.299.95-.284 1.283-.1l-2.657-1.618-.008.011c-.34-.261-.833-.276-1.406.054l-7.06 4.105c-1.185.691-2.073 2.476-1.828 3.685l1.114 5.531c.073.365.258.596.49.745l-.01.015.155.092.022.011L11.45 146l.009-.015c-.245-.147-.44-.387-.516-.762M21.022 132.002l-.044-.028c.012.014.018.038.03.052l.014-.024z"/>
            <path fill="#C5C5C5" d="M20.644 132.298c-.01-.013-.015-.035-.028-.046-.06-.06-.138-.085-.212-.124-.341-.178-.784-.192-1.307.097l-7.191 3.974c-1.21.667-2.112 2.396-1.865 3.568l1.136 5.36c.077.363.275.594.527.737.347.196.812.194 1.337-.096l1.673-.924 1.511-.834 1.736-.962c.902-.497 1.68-1.626 1.865-2.704l1.136-6.612c.113-.655-.036-1.136-.318-1.434"/>
            <path fill="#575756" d="M13 136.83c0 .74-.447 1.641-1 2.012-.553.37-1 .07-1-.67 0-.742.447-1.643 1-2.014.553-.37 1-.07 1 .672M20 132.828c0 .742-.447 1.643-1 2.014-.553.37-1 .07-1-.67 0-.742.447-1.643 1-2.014.553-.37 1-.07 1 .67"/>
            <path fill="#3C3C3A" d="M10.999 134a.536.536 0 0 1-.55-.523V78.523c0-.29.246-.523.55-.523.304 0 .552.233.552.523v54.954c0 .29-.248.523-.552.523M15.999 131a.537.537 0 0 1-.55-.523V75.523c0-.29.246-.523.55-.523.304 0 .552.233.552.523v54.954c0 .288-.248.523-.552.523"/>
            <path fill="#2B6A93" d="M100.702 172.514c8.397 4.686 8.397 12.284 0 16.97-8.395 4.688-22.009 4.688-30.404 0-8.397-4.686-8.397-12.284 0-16.97 8.395-4.685 22.009-4.685 30.404 0"/>
            <mask id="cB" fill="#fff">
                <use xlink:href="#cA"/>
            </mask>
            <path fill="#2B6A93" d="M64 181h43v-10H64z" mask="url(#cB)"/>
            <path fill="#3075A2" d="M100.702 163.515c8.397 4.685 8.397 12.285 0 16.971-8.395 4.685-22.009 4.685-30.404 0-8.397-4.686-8.397-12.286 0-16.97 8.395-4.688 22.009-4.688 30.404 0" mask="url(#cB)"/>
            <path fill="#3075A2" d="M98.447 153h-24.93L65 168.921l42 .079z" mask="url(#cB)"/>
            <path fill="#0DC0AD" d="M94.339 149.05c4.881 2.734 4.881 7.166 0 9.9-4.882 2.733-12.796 2.733-17.678 0-4.881-2.734-4.881-7.166 0-9.9 4.882-2.733 12.796-2.733 17.678 0" mask="url(#cB)"/>
            <path fill="#3075A2" d="M76 153h20V37H76z" mask="url(#cB)"/>
            <path fill="#3075A2" d="M93.07 149.611c3.906 2.148 3.906 5.63 0 7.778-3.905 2.148-10.237 2.148-14.14 0-3.906-2.148-3.906-5.63 0-7.778 3.903-2.148 10.235-2.148 14.14 0" mask="url(#cB)"/>
            <path fill="#9C9C9B" d="M93.07 33.611c3.906 2.148 3.906 5.63 0 7.778-3.905 2.148-10.237 2.148-14.14 0-3.906-2.148-3.906-5.63 0-7.778 3.903-2.148 10.235-2.148 14.14 0" mask="url(#cB)"/>
            <path fill="#296388" d="M79.754 91a4.258 4.258 0 0 1-3.215-1.452L41.035 48.951a4.172 4.172 0 0 1 .434-5.929 4.283 4.283 0 0 1 5.992.43l35.504 40.6a4.168 4.168 0 0 1-.434 5.925A4.257 4.257 0 0 1 79.754 91M107 32h23V17h-23z" mask="url(#cB)"/>
            <path fill="#296388" d="M126.631 26.903c4.492 2.538 4.492 6.654 0 9.192-4.491 2.54-11.77 2.54-16.262 0-4.492-2.538-4.492-6.654 0-9.192 4.491-2.537 11.77-2.537 16.262 0" mask="url(#cB)"/>
            <path fill="#0DC0AD" d="M126.631 11.904c4.492 2.538 4.492 6.654 0 9.192-4.491 2.539-11.77 2.539-16.262 0-4.492-2.538-4.492-6.654 0-9.192 4.491-2.539 11.77-2.539 16.262 0" mask="url(#cB)"/>
            <path fill="#2B6A93" d="M64 36h42V22H64zM0 80h15V66H0zM111 20h12V6h-12z" mask="url(#cB)"/>
            <path fill="#2B6A93" d="M99.848 27.514c8.203 4.688 8.203 12.285 0 16.97-8.2 4.688-21.498 4.688-29.698 0-8.2-4.685-8.2-12.282 0-16.97 8.2-4.685 21.498-4.685 29.698 0" mask="url(#cB)"/>
            <path fill="#2B6A93" d="M120.15 23.671L16.752 83.354c-3.8 2.195-9.964 2.195-13.765 0l-.137-.08c-3.801-2.195-3.801-5.751 0-7.945l103.394-59.683c3.802-2.195 9.964-2.195 13.765 0l.14.08c3.8 2.195 3.8 5.751 0 7.945" mask="url(#cB)"/>
            <path fill="#3A8BC3" d="M99.848 13.515c8.203 4.686 8.203 12.284 0 16.97-8.2 4.687-21.498 4.687-29.698 0-8.2-4.686-8.2-12.284 0-16.97 8.2-4.687 21.498-4.687 29.698 0" mask="url(#cB)"/>
            <path fill="#3A8BC3" d="M120.15 9.672L16.752 69.354c-3.8 2.195-9.964 2.195-13.765 0l-.137-.079c-3.801-2.194-3.801-5.753 0-7.947L106.245 1.646c3.802-2.195 9.964-2.195 13.765 0l.14.08c3.8 2.195 3.8 5.752 0 7.946" mask="url(#cB)"/>
            <path fill="#0DC0AD" d="M99.848 13.515c8.203 4.686 8.203 12.284 0 16.97-8.2 4.687-21.498 4.687-29.698 0-8.2-4.686-8.2-12.284 0-16.97 8.2-4.687 21.498-4.687 29.698 0" mask="url(#cB)"/>
            <path fill="#0DC0AD" d="M120.15 9.672L16.752 69.354c-3.8 2.195-9.964 2.195-13.765 0l-.137-.079c-3.801-2.194-3.801-5.753 0-7.947L106.245 1.646c3.802-2.195 9.964-2.195 13.765 0l.14.08c3.8 2.195 3.8 5.752 0 7.946" mask="url(#cB)"/>
            <path fill="#296388" d="M92.072 17.612c3.904 2.148 3.904 5.63 0 7.778-3.905 2.147-10.237 2.147-14.144 0-3.904-2.147-3.904-5.63 0-7.778 3.907-2.15 10.239-2.15 14.144 0" mask="url(#cB)"/>
            <path fill="#2B6A93" d="M12.829 63.585c1.561.781 1.561 2.049 0 2.83-1.562.78-4.095.78-5.656 0-1.564-.781-1.564-2.049 0-2.83 1.561-.78 4.094-.78 5.656 0M20.829 58.587c1.561.78 1.561 2.047 0 2.827-1.562.781-4.095.781-5.656 0-1.564-.78-1.564-2.046 0-2.827 1.561-.783 4.094-.783 5.656 0" mask="url(#cB)"/>
        </g>
    </g>
</svg>
