<svg xmlns="http://www.w3.org/2000/svg" width="339" height="437" viewBox="0 0 339 437">
    <defs>
        <linearGradient id="a" x1="50%" x2="50%" y1="0%" y2="100%">
            <stop offset="0%" stop-color="#06C1AE"/>
            <stop offset="51.346%" stop-color="#2F8FB2"/>
            <stop offset="100%" stop-color="#2342BE"/>
        </linearGradient>
    </defs>
    <g fill="none" fill-rule="evenodd">
        <g opacity=".6">
            <path fill="#06C1AE" fill-opacity=".3" d="M37.366 199.761c3.841-2.232 7.749-3.811 11.603-4.6 19.714-4.043 30.559 14.14 24.222 40.618-5.095 21.304-19.76 41.48-35.563 50.657-3.84 2.23-7.746 3.81-11.6 4.6-19.708 4.04-30.554-14.149-24.222-40.624 5.095-21.297 19.76-41.474 35.56-50.651M242.785 253.287c11.648-6.708 23.149-7.15 30.551.236 12.284 12.241 8.628 41.39-8.162 65.102-6.667 9.415-14.407 16.557-22.08 20.978-11.649 6.708-23.15 7.151-30.555-.229-12.278-12.25-8.628-41.399 8.161-65.103 6.67-9.419 14.41-16.562 22.085-20.984M290.947 149.124c3.857-2.222 7.78-3.796 11.65-4.582 19.804-4.022 30.7 14.094 24.339 40.473-5.123 21.225-19.855 41.33-35.732 50.472-3.855 2.222-7.78 3.796-11.65 4.583-19.803 4.027-30.7-14.095-24.338-40.474 5.122-21.224 19.855-41.329 35.731-50.472M164.658 327.474c20.8-11.98 37.72-2.361 37.788 21.482.068 23.844-16.74 52.882-37.543 64.863-20.8 11.98-37.715 2.364-37.783-21.48-.067-23.843 16.737-52.884 37.538-64.865M290.697 54.817c15.875-9.144 30.669-6.046 35.895 9.217 6.49 18.976-4.267 49.57-24.03 68.331-3.86 3.666-7.782 6.61-11.638 8.83-15.877 9.145-30.673 6.049-35.9-9.217-6.49-18.976 4.267-49.565 24.03-68.325 3.863-3.669 7.786-6.614 11.643-8.836M86.37 343.373c7.677-4.422 15.431-6.201 22.132-4.483 16.864 4.323 20.673 29.174 8.504 55.505-7.338 15.87-18.808 28.659-30.456 35.368-7.676 4.42-15.43 6.201-22.13 4.486-16.864-4.328-20.673-29.18-8.504-55.505 7.338-15.872 18.808-28.662 30.455-35.37M242.144 6.374c7.676-4.422 15.429-6.201 22.13-4.483 16.87 4.32 20.678 29.17 8.505 55.505-7.335 15.872-18.802 28.657-30.45 35.365-7.676 4.42-15.43 6.203-22.132 4.486-16.87-4.325-20.673-29.173-8.504-55.505C219.031 25.87 230.5 13.08 242.144 6.374"/>
            <path fill="url(#a)" d="M164.058 115.543c49.11-28.285 89.051-5.58 89.211 50.715.16 56.29-39.521 124.852-88.632 153.137-49.106 28.282-89.046 5.577-89.206-50.712-.16-56.295 39.52-124.858 88.627-153.14" transform="translate(0 .598)"/>
            <path fill="#06C1AE" fill-opacity=".3" d="M37.77 294.94c15.88-9.147 30.678-6.052 35.9 9.217 6.496 18.972-4.261 49.567-24.024 68.328-3.86 3.664-7.783 6.609-11.638 8.83-15.88 9.145-30.677 6.05-35.9-9.218-6.49-18.975 4.267-49.564 24.024-68.328 3.861-3.665 7.783-6.609 11.639-8.83M163.79 22.316c20.802-11.98 37.722-2.361 37.789 21.482.067 23.844-16.742 52.887-37.543 64.869-20.801 11.98-37.714 2.358-37.782-21.485-.068-23.844 16.736-52.886 37.537-64.866M85.605 96.532c11.647-6.71 23.15-7.15 30.55.235 12.284 12.247 8.63 41.392-8.156 65.1-6.669 9.416-14.41 16.56-22.086 20.981-11.648 6.71-23.15 7.153-30.554-.23-12.279-12.25-8.623-41.401 8.16-65.103 6.67-9.418 14.41-16.562 22.086-20.983"/>
        </g>
        <path fill="#8CE3DB" d="M47.366 200.261c3.841-2.232 7.749-3.811 11.603-4.6 19.714-4.043 30.559 14.14 24.222 40.618-5.095 21.304-19.76 41.48-35.563 50.657-3.84 2.23-7.746 3.81-11.6 4.6-19.708 4.04-30.554-14.149-24.222-40.624 5.095-21.297 19.76-41.474 35.56-50.651M252.785 253.787c11.648-6.708 23.149-7.15 30.551.236 12.284 12.241 8.628 41.39-8.162 65.102-6.667 9.415-14.407 16.557-22.08 20.978-11.649 6.708-23.15 7.151-30.555-.229-12.278-12.25-8.628-41.399 8.161-65.103 6.67-9.419 14.41-16.562 22.085-20.984M300.947 149.624c3.857-2.222 7.78-3.796 11.65-4.582 19.804-4.022 30.7 14.094 24.339 40.473-5.123 21.225-19.855 41.33-35.732 50.472-3.855 2.222-7.78 3.796-11.65 4.583-19.803 4.027-30.7-14.095-24.338-40.474 5.122-21.224 19.855-41.329 35.731-50.472M174.658 327.974c20.8-11.98 37.72-2.361 37.788 21.482.068 23.844-16.74 52.882-37.543 64.863-20.8 11.98-37.715 2.364-37.783-21.48-.067-23.843 16.737-52.884 37.538-64.865M300.697 55.317c15.875-9.144 30.669-6.046 35.895 9.217 6.49 18.976-4.267 49.57-24.03 68.331-3.86 3.666-7.782 6.61-11.638 8.83-15.877 9.145-30.673 6.049-35.9-9.217-6.49-18.976 4.267-49.565 24.03-68.325 3.863-3.669 7.786-6.614 11.643-8.836M96.37 343.873c7.677-4.422 15.431-6.201 22.132-4.483 16.864 4.323 20.673 29.174 8.504 55.505-7.338 15.87-18.808 28.659-30.456 35.368-7.676 4.42-15.43 6.201-22.13 4.486-16.864-4.328-20.673-29.18-8.504-55.505 7.338-15.872 18.808-28.662 30.455-35.37M252.144 6.874c7.676-4.422 15.429-6.201 22.13-4.483 16.87 4.32 20.678 29.17 8.505 55.505-7.335 15.872-18.802 28.657-30.45 35.365-7.676 4.42-15.43 6.203-22.132 4.486-16.87-4.325-20.673-29.173-8.504-55.505C229.031 26.37 240.5 13.58 252.144 6.874"/>
        <path fill="url(#a)" d="M164.058 115.543c49.11-28.285 89.051-5.58 89.211 50.715.16 56.29-39.521 124.852-88.632 153.137-49.106 28.282-89.046 5.577-89.206-50.712-.16-56.295 39.52-124.858 88.627-153.14" transform="translate(10 1.098)"/>
        <path fill="#8CE3DB" d="M47.77 295.44c15.88-9.147 30.678-6.052 35.9 9.217 6.496 18.972-4.261 49.567-24.024 68.328-3.86 3.664-7.783 6.609-11.638 8.83-15.88 9.145-30.677 6.05-35.9-9.218-6.49-18.975 4.267-49.564 24.024-68.328 3.861-3.665 7.783-6.609 11.639-8.83M173.79 22.816c20.802-11.98 37.722-2.361 37.789 21.482.067 23.844-16.742 52.887-37.543 64.869-20.801 11.98-37.714 2.358-37.782-21.485-.068-23.844 16.736-52.886 37.537-64.866M95.605 97.032c11.647-6.71 23.15-7.15 30.55.235 12.284 12.247 8.63 41.392-8.156 65.1-6.669 9.416-14.41 16.56-22.086 20.981-11.648 6.71-23.15 7.153-30.554-.23-12.279-12.25-8.623-41.401 8.16-65.103 6.67-9.418 14.41-16.562 22.086-20.983"/>
        <path fill="#000" d="M165.64 68.598l.004 1.393-1.7 3.439c.662-.277 1.171-.284 1.525-.03.351.255.529.732.531 1.43a4.653 4.653 0 0 1-.339 1.7 6.113 6.113 0 0 1-1.05 1.747 7.018 7.018 0 0 1-1.729 1.477 6.264 6.264 0 0 1-1.572.715c-.513.147-.949.165-1.31.07l.676-2.062c.287.09.62.089 1 .003a3.927 3.927 0 0 0 1.156-.498c.44-.27.785-.588 1.034-.952.254-.362.378-.734.377-1.115-.002-.761-.474-.85-1.418-.268l-.794.49-.004-1.414 1.548-3.124-3.218 1.987-.005-1.721 5.289-3.267zM172.678 69.157c.29-.447.438-.932.436-1.444-.001-.525-.15-.838-.443-.949-.291-.11-.717-.006-1.28.32l-1.52.883.01 3.23 1.52-.882c.563-.327.987-.715 1.277-1.158m1.892-4.087c.288.335.428.853.43 1.548a5.178 5.178 0 0 1-.42 2.036 6.576 6.576 0 0 1-1.21 1.873 7.858 7.858 0 0 1-1.861 1.483l-1.624.942.007 2.565-1.866 1.081-.026-9.304 3.49-2.025c.716-.415 1.333-.636 1.863-.668.524-.025.935.125 1.217.469M183.001 57.762c.293-.179.53-.209.716-.102.188.108.282.342.283.704 0 .168-.017.35-.048.537-.036.189-.105.486-.215.889l-.6 2.182-1.027.626.443-2.265c-.173.014-.311-.042-.405-.169-.098-.123-.147-.315-.148-.58 0-.362.091-.71.282-1.047.19-.339.43-.598.719-.775M177.887 61.598l.02 7.27 4.088-2.26.005 1.69-5.973 3.3L176 62.64zM188.213 58.35a7.373 7.373 0 0 1 1.4-.579c.459-.139.845-.194 1.152-.166l-.64 1.798c-.582-.037-1.221.13-1.907.496-.412.22-.718.446-.924.674-.206.234-.31.447-.31.638 0 .219.111.317.334.282.222-.028.575-.138 1.062-.32.544-.19.987-.325 1.331-.401.344-.072.645-.036.9.114.26.155.387.486.389 1.002.002.438-.124.893-.366 1.365-.247.47-.606.926-1.075 1.367a7.98 7.98 0 0 1-1.683 1.181 7.639 7.639 0 0 1-1.617.65c-.523.134-.941.177-1.259.127l.64-1.815c.296.044.651.017 1.074-.08a5.1 5.1 0 0 0 1.23-.465c.814-.434 1.22-.865 1.218-1.297 0-.197-.11-.284-.333-.254-.222.033-.561.14-1.026.327-.538.198-.987.337-1.341.413-.355.078-.662.039-.921-.11-.26-.153-.388-.495-.39-1.028-.001-.444.119-.902.361-1.38.237-.47.589-.928 1.054-1.367a7.546 7.546 0 0 1 1.647-1.172M74.756 149.426a4.51 4.51 0 0 0 .616-2.277c-.002-.797-.212-1.306-.626-1.523-.413-.218-.97-.114-1.664.307l-1.47.892.014 5.203 1.469-.892a4.69 4.69 0 0 0 1.661-1.71m1.757-5.178c.324.433.485 1.075.487 1.913a6.791 6.791 0 0 1-.476 2.499 8.264 8.264 0 0 1-1.346 2.287 7.906 7.906 0 0 1-1.998 1.735l-3.157 1.916-.023-8.392 3.156-1.915c.755-.458 1.42-.688 2.002-.693.583-.005 1.03.216 1.355.65M82.008 145.745c.258-.438.39-.906.388-1.406-.002-.5-.136-.826-.395-.982-.26-.156-.595-.122-1.001.1-.406.22-.74.552-1.004.992a2.684 2.684 0 0 0-.392 1.41c.002.5.135.825.4.978.265.154.6.12 1.006-.102a2.59 2.59 0 0 0 .998-.99m1.602-3.643c.26.32.388.775.39 1.363a4.457 4.457 0 0 1-.382 1.784 6.04 6.04 0 0 1-1.063 1.665c-.45.504-.967.918-1.541 1.23-.574.313-1.092.463-1.549.454-.458-.01-.815-.18-1.075-.501-.26-.322-.388-.775-.39-1.365a4.457 4.457 0 0 1 .382-1.783 5.996 5.996 0 0 1 1.067-1.667 5.813 5.813 0 0 1 1.547-1.234c.573-.313 1.092-.462 1.544-.45.452.013.809.182 1.07.504M87.761 138.031c.522-.313.98-.454 1.373-.43.392.023.676.228.857.605l-1.116 1.386c-.26-.39-.634-.436-1.119-.145-.374.224-.688.561-.931 1a2.874 2.874 0 0 0-.366 1.421c0 .507.127.834.372.98.246.145.56.106.934-.119.494-.296.862-.787 1.116-1.485l1.119.057a5.003 5.003 0 0 1-.852 1.614c-.391.5-.848.906-1.37 1.219-.531.318-1.007.47-1.428.464-.42-.008-.754-.171-.99-.493-.237-.322-.359-.773-.36-1.362a4.867 4.867 0 0 1 .35-1.788 6.137 6.137 0 0 1 .986-1.677c.42-.512.895-.928 1.425-1.247M95.984 132.598l.016 5.83-1.353.805-.002-.693a4.596 4.596 0 0 1-.676.982c-.26.291-.543.525-.85.707-.644.385-1.157.467-1.537.254-.381-.212-.57-.757-.573-1.624L91 135.565l1.427-.85.008 3.045c.002.938.338 1.21 1 .816.344-.205.618-.497.823-.885.205-.389.309-.841.307-1.361l-.007-2.883 1.426-.849zM103.808 127.381c.667-.403 1.197-.486 1.588-.251.392.234.59.822.594 1.768l.01 3.666-1.542.933-.009-3.38c-.001-.506-.091-.833-.265-.978-.173-.146-.425-.118-.746.077a2.309 2.309 0 0 0-.86.943c-.211.408-.313.893-.312 1.446l.009 3.214-1.543.932-.008-3.38c-.003-1.005-.34-1.308-1.012-.9a2.295 2.295 0 0 0-.85.935c-.21.408-.314.894-.312 1.447l.01 3.214-1.542.933-.018-6.403 1.472-.89.002.737c.197-.388.439-.742.725-1.06a4.19 4.19 0 0 1 .944-.784c.375-.227.715-.344 1.018-.348a.88.88 0 0 1 .733.337c.217-.465.493-.888.823-1.273.33-.385.696-.695 1.091-.935M108.639 126.73l2.804-1.486c-.059-.348-.214-.568-.469-.663-.254-.094-.567-.04-.932.153a2.67 2.67 0 0 0-.94.834 2.594 2.594 0 0 0-.463 1.162m4.361-1.763c0 .022-.01.184-.03.485l-4.307 2.282c.081.333.262.527.553.59.292.064.652-.02 1.08-.248.296-.157.561-.342.788-.557a4.17 4.17 0 0 0 .64-.78l.88.539c-.531.93-1.314 1.669-2.346 2.215-.64.34-1.211.509-1.704.507-.493-.002-.875-.168-1.146-.494-.271-.325-.406-.785-.408-1.382 0-.586.13-1.187.393-1.8a5.992 5.992 0 0 1 1.086-1.683c.46-.507.977-.915 1.549-1.219.556-.293 1.064-.434 1.514-.421.45.012.807.187 1.067.524.26.337.39.816.391 1.442M117.556 119.343c.724-.36 1.311-.437 1.758-.229.448.21.672.74.675 1.587l.011 3.32-1.697.845-.01-3.061c0-.459-.105-.752-.307-.879-.202-.126-.496-.093-.882.1-.43.214-.767.51-1.02.903-.255.39-.38.841-.378 1.359l.01 2.867-1.696.845-.02-5.8 1.62-.806.002.678a4.73 4.73 0 0 1 .836-.983c.332-.3.7-.548 1.098-.746M123.312 114l.005 1.552 1.299-.797.004 1.421-1.3.798.008 2.595c0 .267.059.438.17.517.113.081.273.054.48-.075.239-.145.442-.347.611-.611l.411 1.052c-.15.229-.33.44-.547.639a4.584 4.584 0 0 1-.683.52c-.62.381-1.101.481-1.441.304-.34-.176-.512-.64-.514-1.393l-.006-2.62-.805.495-.004-1.421.805-.495-.005-1.552 1.512-.929zM66.572 162.696l.018 6.542 3.405-2.031.005 1.52-4.978 2.969-.022-8.063zM71.639 163.828l2.804-1.486c-.059-.349-.214-.568-.469-.663-.254-.093-.567-.04-.932.153-.376.2-.687.476-.94.834a2.582 2.582 0 0 0-.463 1.162M76 162.065c0 .022-.01.184-.03.485l-4.307 2.282c.081.332.262.527.553.59.292.064.652-.022 1.08-.247.296-.159.561-.343.788-.559a4.17 4.17 0 0 0 .64-.78l.88.54c-.531.93-1.314 1.669-2.346 2.215-.64.34-1.211.509-1.704.507-.493-.002-.875-.168-1.146-.494-.271-.325-.406-.786-.408-1.382 0-.587.13-1.187.393-1.801a6.003 6.003 0 0 1 1.086-1.682c.46-.506.977-.915 1.549-1.218.556-.294 1.064-.435 1.514-.422.45.012.807.188 1.067.525.26.336.39.816.391 1.44M81.047 159.812c.267-.435.396-.872.395-1.327-.001-.454-.133-.741-.401-.87s-.605-.074-1.024.166c-.417.241-.76.576-1.025 1.01-.266.435-.401.875-.4 1.33.001.455.138.74.405.868.268.128.611.07 1.03-.17.417-.24.754-.571 1.02-1.007zm.447-4.26l1.491-.856.015 5.154c.002 1.133-.252 2.126-.769 2.976-.517.85-1.271 1.56-2.264 2.13-.523.299-1.022.51-1.491.636-.469.125-.862.137-1.17.038l.62-1.648c.228.083.52.089.87.016.346-.074.699-.212 1.047-.412.543-.312.946-.682 1.202-1.11.256-.43.385-.924.384-1.494l-.001-.265a4.431 4.431 0 0 1-1.71 1.754c-.498.286-.952.42-1.365.409a1.223 1.223 0 0 1-.985-.49c-.244-.314-.366-.764-.368-1.355a4.658 4.658 0 0 1 .358-1.773c.24-.593.567-1.133.979-1.617.412-.484.865-.87 1.364-1.157.786-.45 1.386-.501 1.795-.143l-.002-.794zM87.47 156.184l-.002-.67-1.046.655c-.626.392-.938.843-.936 1.354 0 .243.08.39.23.435.152.045.363-.013.632-.182.26-.162.493-.381.693-.66.2-.276.346-.587.429-.932m.86-4.396c.435.208.657.8.66 1.775L89 157.3l-1.427.893-.002-.817c-.287.79-.818 1.427-1.6 1.917-.406.254-.754.385-1.052.401-.299.017-.525-.08-.682-.28-.157-.201-.235-.492-.237-.875-.002-.61.183-1.207.549-1.783.365-.576.937-1.11 1.704-1.59l1.211-.76c0-.413-.104-.665-.304-.764-.201-.1-.505-.02-.911.234a4.455 4.455 0 0 0-.825.68 5.184 5.184 0 0 0-.688.876l-.55-.985a7.75 7.75 0 0 1 1.029-1.228c.4-.392.81-.716 1.236-.982.816-.51 1.442-.658 1.878-.45M91.97 147.696l.03 8.14-1.97.86-.03-8.14zM94.003 147.557c-.294.142-.536.175-.723.1-.186-.073-.28-.235-.28-.478 0-.241.091-.493.276-.745.185-.252.427-.454.721-.595.293-.141.536-.178.723-.11.186.07.28.222.28.459 0 .257-.091.514-.276.77a1.877 1.877 0 0 1-.721.6M93.022 154.696l-.022-6.11 1.978-.89.022 6.11zM100.888 144l.003 1.092-2.841 5.364 2.945-1.653.005 1.395L96.003 153 96 151.908l2.84-5.364-2.778 1.56-.004-1.395zM105.47 145.586l-.002-.67-1.046.655c-.626.392-.938.843-.937 1.354.001.244.08.39.231.435.153.045.363-.013.632-.182.259-.162.494-.381.693-.66.2-.276.347-.587.429-.932m.86-4.396c.436.209.658.8.66 1.775l.01 3.737-1.427.893-.002-.816c-.287.79-.819 1.426-1.601 1.916-.406.254-.753.385-1.051.401-.3.017-.525-.08-.682-.28-.157-.201-.236-.492-.237-.875-.002-.61.182-1.206.549-1.783.365-.576.936-1.11 1.704-1.59l1.212-.759c-.002-.414-.105-.665-.305-.765-.202-.1-.504-.02-.91.234a4.43 4.43 0 0 0-.826.68 5.161 5.161 0 0 0-.688.877l-.551-.985c.287-.43.629-.839 1.03-1.23.4-.391.81-.715 1.236-.98.816-.511 1.443-.66 1.878-.45M110.312 136.598l.005 1.552 1.299-.798.004 1.422-1.3.798.008 2.595c0 .267.059.437.17.517.113.08.273.054.48-.075.239-.145.442-.347.611-.612l.411 1.053c-.15.229-.33.44-.547.639a4.624 4.624 0 0 1-.683.52c-.62.381-1.101.481-1.441.304-.34-.176-.512-.642-.514-1.394l-.006-2.618-.805.493-.004-1.421.805-.494-.005-1.552 1.512-.929z" opacity=".7"/>
        <g fill="#000" opacity=".7">
            <path d="M113.235 142.878l-.015-6.203 1.328-.903.015 6.203zM113.882 135.36c-.243.164-.443.203-.597.116-.154-.085-.23-.276-.231-.558 0-.283.075-.576.228-.871.153-.295.353-.529.595-.694.242-.165.443-.208.597-.129.153.081.23.259.23.536.001.3-.074.6-.227.9a1.84 1.84 0 0 1-.595.7"/>
        </g>
        <path fill="#000" d="M120.008 136.745c.258-.438.39-.906.388-1.406-.002-.5-.135-.826-.395-.982-.26-.156-.595-.122-1.001.1-.406.22-.74.552-1.004.992a2.69 2.69 0 0 0-.392 1.41c.002.5.136.825.4.978.265.154.6.12 1.006-.1.406-.222.74-.553.998-.992m1.602-3.643c.26.321.388.775.39 1.363a4.457 4.457 0 0 1-.382 1.784 6.022 6.022 0 0 1-1.063 1.665 5.76 5.76 0 0 1-1.541 1.23c-.573.313-1.092.463-1.549.454-.458-.01-.815-.18-1.075-.501s-.388-.775-.39-1.365a4.462 4.462 0 0 1 .382-1.783 6.029 6.029 0 0 1 1.067-1.667 5.825 5.825 0 0 1 1.547-1.234c.574-.313 1.092-.462 1.544-.45.453.013.81.182 1.07.504M126.556 128.343c.723-.36 1.31-.437 1.758-.229.448.21.672.74.675 1.587l.011 3.32-1.696.845-.01-3.061c-.002-.459-.106-.752-.308-.879-.202-.126-.496-.093-.882.1-.43.214-.767.51-1.02.903-.255.39-.38.841-.377 1.359l.009 2.867-1.696.845-.02-5.8 1.621-.806.001.678c.222-.353.505-.683.836-.982.332-.301.701-.549 1.098-.747M243.956 45.598l.044 8.296-1.537.906-.024-4.978-2.071 5.334-.738.435-2.084-2.777.014 4.878-1.537.906-.023-8.307 1.355-.8 2.663 3.601 2.594-6.701zM248.47 49.085l-.002-.67-1.046.655c-.626.392-.938.843-.936 1.355 0 .244.074.392.23.434.153.045.363-.013.632-.181a2.637 2.637 0 0 0 1.122-1.592m.86-4.398c.435.209.657.801.66 1.775l.01 3.738-1.427.893-.002-.815c-.287.789-.818 1.427-1.6 1.916-.406.254-.758.389-1.052.401-.299.017-.525-.08-.682-.28-.157-.201-.235-.492-.237-.876-.002-.609.178-1.203.549-1.783.365-.576.936-1.11 1.704-1.59l1.211-.759c0-.414-.104-.666-.304-.766-.207-.097-.505-.02-.911.234a4.413 4.413 0 0 0-.825.681c-.274.282-.502.571-.688.877l-.55-.985c.282-.427.628-.84 1.029-1.23.4-.39.81-.715 1.236-.98.811-.509 1.438-.657 1.878-.451M253.995 41.5l.005 1.614c-.157.082-.26.141-.314.175-.4.25-.713.587-.94 1.01-.228.425-.34.915-.339 1.476l.008 2.846-1.399.879-.016-6.03 1.337-.839.002.796c.165-.395.389-.755.675-1.085.282-.33.61-.608.981-.842M256.003 39.959c-.299.144-.536.174-.723.1-.186-.073-.28-.236-.28-.478s.091-.494.277-.745c.184-.253.421-.451.72-.595.294-.141.536-.178.723-.11.186.07.28.222.28.458 0 .257-.091.514-.275.77a1.88 1.88 0 0 1-.722.6M255.022 47.098l-.022-6.11 1.98-.89.02 6.11zM261.556 37.44c.724-.36 1.311-.436 1.758-.227.448.21.672.739.675 1.586l.011 3.32-1.697.845-.01-3.061c-.001-.458-.105-.753-.307-.878-.207-.124-.502-.09-.882.099-.43.214-.767.51-1.02.903-.255.39-.38.84-.378 1.358l.01 2.867-1.696.846-.02-5.8 1.62-.807.002.68c.223-.354.499-.68.836-.983.331-.3.695-.547 1.098-.747M266.639 36.828l2.804-1.486c-.06-.349-.214-.568-.469-.663-.254-.094-.567-.04-.932.153-.376.2-.688.476-.94.834-.254.357-.412.749-.463 1.162M271 35.065c0 .022-.01.184-.03.484l-4.307 2.283c.075.335.261.527.553.59.286.066.651-.021 1.08-.248a3.6 3.6 0 0 0 .787-.557c.228-.215.439-.473.64-.78l.88.539c-.536.933-1.32 1.672-2.345 2.215-.645.343-1.212.509-1.705.507-.497.002-.88-.165-1.145-.494-.271-.325-.406-.785-.408-1.383 0-.585.13-1.186.392-1.8a6.014 6.014 0 0 1 1.087-1.682 5.675 5.675 0 0 1 1.549-1.219c.555-.294 1.058-.432 1.514-.421.45.012.806.187 1.066.524.256.339.39.816.392 1.442M239.166 62.31a6.29 6.29 0 0 1 1.352-.574c.439-.126.826-.165 1.157-.12l-.511 1.712c-.668-.048-1.338.116-2.004.491-.47.265-.815.545-1.036.838-.221.292-.334.581-.334.859.001.278.131.413.39.4.258-.012.65-.1 1.182-.266a9.958 9.958 0 0 1 1.353-.321c.351-.053.65.01.904.185.254.176.38.533.381 1.071.002.463-.112.948-.342 1.46-.23.513-.576 1.007-1.034 1.49a7.09 7.09 0 0 1-1.68 1.282 6.4 6.4 0 0 1-1.658.672c-.537.129-.96.142-1.286.047l.563-1.728c.31.08.677.075 1.105-.01a4.321 4.321 0 0 0 1.28-.488c.475-.268.826-.547 1.052-.83.226-.283.34-.561.339-.821 0-.19-.068-.315-.202-.367-.135-.051-.306-.06-.516-.015a9.78 9.78 0 0 0-.853.224 9.965 9.965 0 0 1-1.353.322c-.352.052-.651-.015-.904-.197-.255-.181-.38-.545-.38-1.082-.003-.47.11-.96.335-1.47.226-.509.566-1 1.025-1.484a7.002 7.002 0 0 1 1.675-1.28M290.166 106.409a6.29 6.29 0 0 1 1.352-.575c.439-.126.826-.165 1.157-.12l-.511 1.712c-.668-.048-1.338.116-2.004.491-.47.265-.815.545-1.036.838-.221.292-.334.581-.334.859.001.278.131.413.39.4.258-.012.65-.1 1.182-.266a9.958 9.958 0 0 1 1.353-.321c.351-.053.65.01.904.185.254.176.38.533.381 1.071.002.463-.112.948-.342 1.46-.23.513-.576 1.007-1.034 1.49a7.09 7.09 0 0 1-1.68 1.282 6.4 6.4 0 0 1-1.658.672c-.537.129-.96.142-1.286.047l.563-1.728c.31.08.677.075 1.105-.01a4.321 4.321 0 0 0 1.28-.488c.475-.268.826-.547 1.052-.83.226-.283.34-.561.339-.821 0-.19-.068-.315-.202-.367-.135-.051-.306-.06-.516-.015a9.78 9.78 0 0 0-.853.224 9.965 9.965 0 0 1-1.353.322c-.352.052-.651-.015-.904-.197-.255-.181-.38-.545-.38-1.082-.003-.47.11-.96.335-1.47.226-.509.566-1 1.025-1.484a7.002 7.002 0 0 1 1.675-1.28M247.984 59.598l.016 5.829-1.353.806-.002-.694c-.191.37-.415.692-.676.983a3.73 3.73 0 0 1-.849.707c-.645.384-1.162.469-1.538.253-.381-.213-.57-.757-.573-1.623L243 62.565l1.427-.85.008 3.045c.003.937.333 1.213 1 .815a2.22 2.22 0 0 0 .823-.885c.205-.388.309-.841.308-1.36l-.008-2.883 1.426-.849zM298.984 103.696l.016 5.829-1.353.806-.002-.694c-.191.37-.415.692-.676.983a3.73 3.73 0 0 1-.849.707c-.645.384-1.162.469-1.538.253-.381-.213-.57-.757-.573-1.623l-.009-3.294 1.427-.85.008 3.045c.003.937.333 1.213 1 .815a2.22 2.22 0 0 0 .823-.885c.205-.388.309-.841.308-1.36l-.008-2.883 1.426-.849zM252.995 56.598l.005 1.613c-.157.083-.26.141-.314.175-.4.25-.713.587-.94 1.011-.228.425-.34.915-.339 1.476l.008 2.846-1.399.879-.016-6.03 1.337-.84.002.796c.165-.395.389-.754.675-1.085.282-.33.61-.607.981-.841M303.995 100.696l.005 1.613c-.157.083-.26.141-.314.175-.4.25-.713.587-.94 1.011-.228.425-.34.915-.339 1.476l.008 2.846-1.399.879-.016-6.03 1.337-.84.002.796c.165-.395.389-.754.675-1.085.282-.33.61-.607.981-.841M260 52.5l-2.202 7.117-1.573.883L254 55.867l1.573-.882 1.468 3.177 1.493-4.84zM311 96.598l-2.202 7.117-1.573.883L305 99.965l1.573-.882 1.468 3.177 1.493-4.84zM261.639 53.827l2.804-1.485c-.06-.349-.214-.57-.469-.664-.254-.093-.567-.04-.932.154-.376.2-.688.476-.94.834a2.539 2.539 0 0 0-.463 1.161M266 52.064c0 .022-.01.184-.03.485l-4.307 2.283c.075.335.261.527.553.59.286.066.647-.019 1.08-.248.296-.158.555-.34.787-.557.228-.216.439-.473.64-.78l.88.539c-.536.932-1.32 1.672-2.345 2.215-.645.342-1.212.509-1.705.507-.497.002-.88-.165-1.145-.494-.271-.325-.406-.785-.408-1.383 0-.586.13-1.186.392-1.8a5.933 5.933 0 0 1 1.087-1.683 5.686 5.686 0 0 1 1.549-1.218c.555-.294 1.058-.432 1.514-.421.45.012.806.187 1.066.524.256.339.39.816.392 1.441M312.639 97.925l2.804-1.485c-.06-.349-.214-.57-.469-.664-.254-.093-.567-.04-.932.154-.376.2-.688.476-.94.834a2.539 2.539 0 0 0-.463 1.161M317 96.162c0 .022-.01.184-.03.485l-4.307 2.283c.075.335.261.527.553.59.286.066.647-.019 1.08-.248.296-.158.555-.34.787-.557.228-.216.439-.473.64-.78l.88.539c-.536.932-1.32 1.672-2.345 2.215-.645.342-1.212.509-1.705.507-.497.002-.88-.165-1.145-.494-.271-.325-.406-.785-.408-1.383 0-.586.13-1.186.392-1.8a5.933 5.933 0 0 1 1.087-1.683 5.686 5.686 0 0 1 1.549-1.218c.555-.294 1.058-.432 1.514-.421.45.012.806.187 1.066.524.256.339.39.816.392 1.441M272 45l-2.356 8.265c-.238.887-.534 1.588-.89 2.11-.356.524-.78.933-1.284 1.242a2.724 2.724 0 0 1-.811.342c-.27.064-.485.052-.656-.027l.553-1.666c.118.053.25.074.407.049.151-.02.303-.077.454-.17.205-.127.377-.29.508-.497.127-.204.248-.482.35-.83l.02-.072L266 48.68l1.574-.965 1.487 3.448 1.474-5.264L272 45zM323 89.098l-2.356 8.265c-.238.887-.534 1.588-.89 2.11-.356.524-.78.933-1.284 1.242a2.724 2.724 0 0 1-.811.342c-.27.064-.485.052-.656-.027l.553-1.666c.118.053.25.074.407.049.151-.02.303-.077.454-.17.205-.127.377-.29.508-.497.127-.204.248-.482.35-.83l.02-.072L317 92.777l1.574-.965 1.487 3.448 1.474-5.264 1.465-.898zM36.994 259.217c.26-.469.392-.97.39-1.505-.001-.536-.136-.883-.397-1.05-.266-.165-.6-.131-1.009.106-.408.237-.745.591-1.004 1.06a2.99 2.99 0 0 0-.391 1.506c.001.535.13.885.397 1.05.263.166.6.13 1.009-.108.409-.235.74-.587 1.005-1.059m1.643-3.946c.236.352.36.853.363 1.506a5.417 5.417 0 0 1-.354 1.92 6.13 6.13 0 0 1-.982 1.714c-.42.513-.884.918-1.395 1.214-.705.408-1.259.474-1.659.192l.009 2.957-1.595.922-.024-8.62 1.523-.881.002.73a4.32 4.32 0 0 1 1.726-1.824c.51-.295.976-.43 1.396-.401.42.028.749.221.99.571M33.826 247.127a4.11 4.11 0 0 0 1.116-1.001c.328-.421.591-.89.78-1.404a4.404 4.404 0 0 0 .28-1.539c-.002-.514-.098-.911-.288-1.2a1.007 1.007 0 0 0-.786-.473c-.334-.026-.708.084-1.117.328-.414.245-.787.58-1.116 1a5.05 5.05 0 0 0-.78 1.405 4.4 4.4 0 0 0-.28 1.538c.002.514.097.912.287 1.2.192.29.452.448.786.473.33.03.704-.081 1.118-.327m3.453-.695l.721.588a5.554 5.554 0 0 1-.82 1.245 4.489 4.489 0 0 1-1.062.89c-.518.31-.987.459-1.407.442-.419-.016-.9-.198-1.44-.544-.633.281-1.196.375-1.691.285-.5-.087-.885-.36-1.16-.806-.282-.441-.418-1.04-.42-1.778-.002-.808.16-1.639.488-2.484a8.657 8.657 0 0 1 1.362-2.341 7.297 7.297 0 0 1 1.957-1.721c.722-.43 1.376-.636 1.955-.607.58.028 1.035.266 1.37.716.332.454.503 1.085.505 1.894.003.961-.224 1.936-.675 2.932a8.513 8.513 0 0 1-1.806 2.588c.164.108.324.16.484.154.155-.003.324-.056.505-.163.428-.255.806-.687 1.134-1.29M43.984 236.598l.016 5.829-1.353.805-.002-.693a4.75 4.75 0 0 1-.675.982 3.697 3.697 0 0 1-.85.707c-.65.386-1.162.47-1.538.254-.381-.213-.57-.757-.573-1.624L39 239.565l1.426-.85.009 3.044c.002.938.333 1.214 1 .816.339-.202.613-.494.822-.886.206-.387.31-.84.308-1.36l-.007-2.882 1.426-.849zM48.47 237.487l-.002-.67-1.046.655c-.626.392-.938.843-.936 1.355 0 .243.074.392.23.434.152.045.364-.013.632-.181.26-.162.489-.379.693-.66.2-.277.342-.585.429-.933m.86-4.397c.436.208.657.801.66 1.775l.01 3.738-1.427.893-.002-.816c-.287.79-.818 1.427-1.6 1.917-.406.254-.759.389-1.052.401-.299.017-.525-.08-.682-.28-.157-.201-.235-.492-.237-.876-.002-.609.178-1.203.549-1.783.365-.576.931-1.108 1.704-1.59l1.211-.759c0-.414-.104-.666-.304-.766-.207-.097-.51-.016-.91.234a4.392 4.392 0 0 0-.826.681 4.99 4.99 0 0 0-.688.876l-.55-.984c.282-.428.628-.84 1.03-1.23.4-.39.81-.715 1.235-.982.811-.507 1.438-.655 1.878-.45M52.97 229l.03 8.14-1.97.86-.03-8.14zM56.003 228.459c-.299.144-.536.174-.723.1-.186-.073-.28-.236-.28-.478s.091-.494.276-.746c.185-.252.422-.45.721-.594.293-.141.536-.178.723-.11.186.07.28.222.28.458 0 .257-.091.514-.276.77a1.87 1.87 0 0 1-.721.6M55.022 236L55 229.89l1.978-.89.022 6.11zM71.556 234.94c.724-.36 1.311-.436 1.758-.227.448.21.672.739.675 1.586l.011 3.32-1.696.845-.01-3.061c-.002-.458-.106-.753-.308-.878-.207-.125-.502-.09-.882.099-.43.214-.772.513-1.02.903-.255.39-.38.84-.378 1.358l.01 2.867-1.696.846-.02-5.8 1.62-.807.002.68c.223-.354.5-.68.836-.983.332-.3.695-.547 1.098-.747M68 222.598l-2.356 8.265c-.243.89-.539 1.59-.89 2.11a4.215 4.215 0 0 1-1.284 1.241 2.725 2.725 0 0 1-.811.342c-.27.064-.49.055-.656-.027l.553-1.666c.118.053.25.074.407.05.151-.021.303-.078.454-.172.205-.125.377-.29.508-.496.127-.203.243-.478.35-.83l.02-.071L62 226.277l1.574-.965 1.487 3.448 1.474-5.263 1.465-.899zM60.312 225.598l.005 1.552 1.299-.797.004 1.421-1.3.798.008 2.595c0 .267.054.44.171.518.112.08.272.053.48-.076a1.91 1.91 0 0 0 .61-.611L62 232.05c-.15.229-.334.443-.547.639-.217.2-.445.375-.683.52-.62.381-1.101.481-1.441.304-.34-.176-.512-.64-.514-1.393l-.006-2.62-.805.495-.004-1.421.805-.495-.004-1.552 1.511-.929zM18.973 262.696l.027 8.062-1.972.938-.028-8.063zM23.556 262.039c.723-.36 1.31-.437 1.758-.228.448.21.672.739.675 1.586l.011 3.32-1.696.845-.01-3.061c-.002-.459-.106-.753-.308-.878-.208-.125-.501-.09-.882.099a2.51 2.51 0 0 0-1.02.903c-.256.39-.38.84-.377 1.358l.009 2.867-1.696.846-.02-5.8 1.621-.807.001.68c.222-.354.5-.68.836-.983.332-.3.695-.547 1.098-.747M29.675 258.366c.39-.223.776-.396 1.167-.519.386-.12.703-.168.962-.146l-.531 1.598c-.49-.03-1.019.113-1.594.44-.344.198-.6.396-.77.603-.174.21-.257.397-.256.566 0 .192.094.28.279.25.185-.03.478-.122.885-.282.45-.17.821-.294 1.11-.359.287-.064.54-.033.75.103.212.137.321.43.323.89 0 .39-.1.792-.306 1.212-.204.42-.502.823-.896 1.217a6.618 6.618 0 0 1-1.402 1.05 5.9 5.9 0 0 1-1.347.574c-.442.124-.792.16-1.049.113l.531-1.608c.247.04.545.016.895-.072.35-.09.694-.226 1.028-.417.677-.387 1.016-.772 1.014-1.15 0-.18-.092-.256-.277-.227-.186.03-.473.123-.854.288a7.833 7.833 0 0 1-1.12.37c-.293.068-.55.034-.767-.1-.217-.133-.326-.438-.327-.91a2.772 2.772 0 0 1 .3-1.227c.199-.423.492-.828.882-1.22a6.294 6.294 0 0 1 1.37-1.037M41.638 254.828l2.804-1.486c-.059-.349-.214-.569-.468-.663-.254-.094-.567-.04-.932.153a2.66 2.66 0 0 0-.94.834 2.54 2.54 0 0 0-.464 1.162M46 253.065c0 .022-.01.184-.03.485l-4.308 2.282c.076.335.262.527.554.59.286.067.646-.019 1.08-.247.296-.159.555-.34.787-.559.228-.215.439-.472.64-.78l.88.54c-.537.932-1.32 1.672-2.345 2.215-.645.342-1.212.509-1.705.507-.498.002-.88-.165-1.145-.494-.272-.325-.406-.786-.408-1.382-.002-.587.13-1.187.392-1.801a5.937 5.937 0 0 1 1.086-1.683c.46-.505.977-.914 1.549-1.217.556-.294 1.059-.432 1.515-.423.45.013.806.188 1.066.525.256.34.39.816.392 1.442M49.762 247.433c.522-.313.979-.454 1.372-.43.39.026.677.229.857.605l-1.115 1.386c-.26-.39-.635-.436-1.12-.145-.377.226-.687.56-.93.999a2.83 2.83 0 0 0-.367 1.422c.001.507.123.838.373.98.246.145.554.109.933-.119.49-.293.863-.787 1.116-1.485l1.119.057a5.048 5.048 0 0 1-.851 1.614c-.392.5-.848.906-1.37 1.219-.531.318-1.007.471-1.428.464-.425-.005-.754-.171-.99-.493-.242-.319-.359-.772-.361-1.362a4.801 4.801 0 0 1 .351-1.788 6.03 6.03 0 0 1 .985-1.678 5.52 5.52 0 0 1 1.426-1.246M55.313 243l.004 1.553 1.299-.798.004 1.421-1.3.798.008 2.595c.001.267.054.44.171.518.113.08.273.053.48-.076a1.92 1.92 0 0 0 .611-.611l.41 1.053c-.15.228-.334.442-.547.638-.217.2-.445.375-.683.52-.62.381-1.1.481-1.441.304-.34-.176-.511-.64-.514-1.393l-.006-2.62-.805.495-.004-1.421.805-.495-.004-1.552 1.512-.929zM58.022 248.598l-.022-6.11 1.978-.89.022 6.11zM59.003 240.46c-.299.143-.536.173-.723.099-.186-.073-.28-.235-.28-.478 0-.242.091-.493.276-.746.185-.252.422-.45.721-.594.293-.14.536-.178.723-.11.186.07.28.221.28.459 0 .257-.091.514-.276.77a1.883 1.883 0 0 1-.721.6M65.009 242.746c.258-.439.388-.907.386-1.407-.001-.501-.134-.826-.394-.982-.265-.153-.595-.122-1.001.1-.406.22-.74.552-1.003.992a2.684 2.684 0 0 0-.392 1.41c0 .5.134.825.399.98.264.152.6.118 1.006-.103.406-.221.736-.549.999-.99m1.6-3.644c.256.324.39.774.391 1.363a4.534 4.534 0 0 1-.38 1.785 6.048 6.048 0 0 1-1.064 1.664 5.801 5.801 0 0 1-1.542 1.23c-.579.316-1.091.463-1.55.454-.457-.01-.818-.177-1.074-.501-.26-.321-.388-.775-.39-1.364a4.456 4.456 0 0 1 .38-1.783 5.92 5.92 0 0 1 1.069-1.668c.456-.508.968-.92 1.547-1.234.573-.312 1.087-.46 1.544-.45.453.012.81.183 1.07.504M77.675 230.67c.39-.223.776-.396 1.166-.519.387-.12.705-.168.963-.146l-.531 1.598c-.489-.03-1.018.113-1.594.44-.344.198-.6.396-.77.603-.174.21-.256.397-.256.566 0 .192.094.28.279.25.185-.03.478-.122.884-.282.452-.17.823-.294 1.11-.359.289-.064.536-.03.752.103.212.137.32.43.322.89.002.39-.1.792-.305 1.212-.205.42-.508.826-.897 1.217a6.599 6.599 0 0 1-1.403 1.05 5.88 5.88 0 0 1-1.346.574c-.442.124-.792.16-1.049.113l.53-1.608c.248.04.546.016.895-.072.35-.09.69-.223 1.03-.417.677-.387 1.015-.772 1.014-1.15-.001-.18-.094-.256-.279-.227-.185.03-.473.123-.853.288a7.84 7.84 0 0 1-1.12.37c-.299.071-.55.034-.768-.1-.216-.133-.325-.438-.327-.91 0-.396.096-.801.3-1.227.2-.423.493-.828.882-1.22a6.3 6.3 0 0 1 1.371-1.037M33.966 350.157c.632-.33 1.209-.517 1.723-.551.513-.04.943.073 1.295.326l-1.086 1.608c-.499-.334-1.112-.307-1.845.076a4.333 4.333 0 0 0-1.213.944 4.542 4.542 0 0 0-.83 1.3 3.63 3.63 0 0 0-.293 1.42c.001.468.102.84.302 1.107.2.266.479.41.835.43.356.016.76-.086 1.215-.324.733-.383 1.344-1.008 1.84-1.866l1.091.476a7.449 7.449 0 0 1-1.295 1.69c-.517.5-1.093.921-1.725 1.252-.749.39-1.425.569-2.028.552-.608-.02-1.08-.243-1.427-.661-.347-.418-.523-1.009-.525-1.76-.002-.755.168-1.521.511-2.3a7.655 7.655 0 0 1 1.42-2.149 7.426 7.426 0 0 1 2.035-1.57M30.994 343.317c.197-.473.294-.949.292-1.417 0-.473-.101-.84-.3-1.106-.2-.266-.478-.409-.823-.435-.35-.023-.743.077-1.17.302a4.127 4.127 0 0 0-1.17.921c-.349.39-.62.82-.817 1.294a3.63 3.63 0 0 0-.293 1.417c.001.468.102.84.302 1.107.2.266.471.41.822.435.345.027.737-.075 1.17-.302.43-.224.82-.532 1.17-.922.343-.387.62-.82.817-1.294m1.478-4.058c.346.418.526.994.528 1.745.002.745-.173 1.512-.516 2.29a8.01 8.01 0 0 1-1.427 2.158 7.559 7.559 0 0 1-2.045 1.582c-.762.399-1.446.583-2.054.563-.612-.023-1.089-.243-1.435-.66-.346-.418-.52-1.002-.523-1.747-.002-.75.168-1.51.51-2.288.343-.779.817-1.5 1.427-2.157a7.46 7.46 0 0 1 2.05-1.585c.758-.397 1.443-.586 2.05-.56.606.02 1.083.245 1.435.66M37.556 336.343c.723-.36 1.31-.437 1.758-.228.448.21.672.734.675 1.586l.011 3.32-1.696.845-.01-3.061c-.002-.464-.106-.752-.308-.878-.208-.125-.501-.09-.882.099-.43.214-.767.51-1.02.903-.256.385-.38.84-.377 1.358l.009 2.867-1.696.846-.02-5.8 1.621-.807.001.68c.222-.36.5-.686.836-.983.332-.3.695-.547 1.098-.747M44.505 331.159l.005 1.963 1.5-.963c.374-.24.653-.501.849-.793.19-.29.287-.602.286-.924 0-.327-.1-.509-.29-.547-.197-.04-.476.062-.849.301l-1.501.963m2.674 3.469c.2-.295.303-.622.301-.968-.001-.69-.404-.778-1.204-.264l-1.763 1.13.006 2.059 1.762-1.13c.396-.255.694-.528.898-.827m1.501-2.84c.211.217.319.582.32 1.1.002.726-.22 1.435-.662 2.111-.446.68-1.094 1.292-1.942 1.836L43.022 339 43 330.669l3.189-2.045c.792-.508 1.403-.71 1.832-.591.426.114.641.507.643 1.173 0 .404-.077.812-.225 1.228a4.5 4.5 0 0 1-.637 1.16c.373-.09.663-.026.878.194M54.008 330.746c.259-.438.39-.912.388-1.407-.002-.5-.135-.825-.395-.981-.264-.153-.594-.123-1 .099-.406.221-.74.552-1.004.993a2.692 2.692 0 0 0-.393 1.41c.002.495.136.825.4.978.265.153.6.12 1.006-.102.406-.221.736-.549.998-.99m1.602-3.644c.255.324.388.775.39 1.364a4.536 4.536 0 0 1-.382 1.783 6.097 6.097 0 0 1-1.062 1.665 5.813 5.813 0 0 1-1.541 1.23c-.58.316-1.092.463-1.55.454-.457-.016-.819-.177-1.075-.501-.26-.321-.388-.78-.39-1.364a4.47 4.47 0 0 1 .382-1.783 5.92 5.92 0 0 1 1.067-1.667c.456-.514.969-.92 1.547-1.235.574-.312 1.087-.465 1.544-.449.453.012.81.182 1.07.503M60.47 327.086l-.002-.67-1.046.655c-.626.392-.938.843-.937 1.354.001.244.074.386.231.434.152.045.363-.013.631-.181.26-.162.49-.385.694-.659a2.7 2.7 0 0 0 .429-.933m.86-4.396c.436.21.658.801.66 1.775l.01 3.737-1.427.892-.002-.815c-.287.79-.819 1.427-1.601 1.916-.406.254-.758.389-1.052.401-.299.016-.524-.08-.681-.28-.157-.207-.236-.499-.237-.876-.002-.609.178-1.203.548-1.782.366-.582.932-1.108 1.704-1.59l1.213-.759c-.002-.413-.105-.671-.305-.765-.206-.097-.51-.017-.91.234a4.442 4.442 0 0 0-.827.68c-.272.282-.502.571-.687.877l-.551-.985c.283-.433.629-.844 1.03-1.23.4-.39.81-.714 1.236-.98.811-.507 1.437-.661 1.878-.45M65.996 319l.004 1.613c-.157.083-.26.141-.314.175a2.63 2.63 0 0 0-.94 1.011c-.229.425-.34.915-.338 1.476l.007 2.846-1.399.879-.016-6.03 1.337-.84.002.796c.165-.395.388-.76.676-1.085a4.26 4.26 0 0 1 .98-.841M71.032 320.494c.265-.467.396-.969.395-1.492-.002-.53-.136-.873-.402-1.036-.268-.162-.605-.126-1.004.102-.409.234-.746.584-1.01 1.052a2.943 2.943 0 0 0-.396 1.49c.002.525.136.873.403 1.036.266.162.604.126 1.013-.108.399-.228.736-.578 1.001-1.044zm.35-6.983l1.594-.913.024 8.641-1.523.872-.002-.722a4.3 4.3 0 0 1-1.716 1.798c-.52.299-.986.431-1.407.408a1.224 1.224 0 0 1-.99-.565c-.241-.35-.36-.854-.362-1.495a5.248 5.248 0 0 1 .353-1.905 5.833 5.833 0 0 1 .983-1.694 5.08 5.08 0 0 1 1.405-1.2c.701-.401 1.253-.467 1.648-.186l-.008-3.04zM41.008 351.748c.258-.438.39-.91.388-1.405-.002-.5-.135-.825-.395-.981-.264-.153-.595-.122-1.001.099-.406.22-.74.552-1.004.992-.262.44-.393.908-.392 1.409.002.494.136.824.4.977.265.153.6.119 1.006-.102.406-.221.735-.549.998-.99m1.602-3.64c.255.323.388.774.39 1.363a4.56 4.56 0 0 1-.382 1.782 6.106 6.106 0 0 1-1.063 1.663 5.75 5.75 0 0 1-1.541 1.224c-.579.315-1.092.468-1.549.459-.458-.016-.819-.178-1.075-.501-.26-.321-.388-.78-.39-1.363a4.45 4.45 0 0 1 .382-1.782c.252-.6.611-1.159 1.067-1.671a5.761 5.761 0 0 1 1.547-1.228c.574-.312 1.086-.464 1.544-.455.453.018.81.188 1.07.51M48.984 343l.016 5.83-1.353.805-.002-.693a4.643 4.643 0 0 1-.676.976 3.673 3.673 0 0 1-.849.707c-.65.387-1.162.476-1.538.26-.381-.218-.57-.762-.573-1.624L44 345.968l1.427-.85.008 3.044c.003.938.333 1.213 1 .816.34-.202.613-.5.823-.886.205-.388.309-.84.308-1.366l-.008-2.877 1.426-.849zM52.995 340l.005 1.613c-.157.083-.26.136-.314.17a2.637 2.637 0 0 0-.94 1.017c-.228.418-.34.914-.339 1.475l.008 2.846-1.399.879-.016-6.03 1.337-.839.002.795c.165-.395.389-.76.675-1.085.282-.33.61-.607.981-.841M54.022 345L54 338.89l1.978-.89.022 6.11zM55.004 337.861c-.3.144-.537.174-.724.1-.186-.078-.278-.236-.28-.478 0-.246.091-.492.277-.744.184-.257.421-.45.72-.593.294-.142.536-.184.723-.11.186.069.28.22.28.458 0 .256-.091.512-.275.769a1.886 1.886 0 0 1-.721.598M58.639 338.725l2.804-1.486c-.06-.343-.214-.57-.469-.657-.254-.095-.567-.04-.932.152a2.67 2.67 0 0 0-.94.834 2.523 2.523 0 0 0-.463 1.157M63 336.966c0 .023-.01.185-.03.486l-4.307 2.282c.075.329.262.527.553.59.286.06.647-.024 1.08-.253.296-.159.555-.34.788-.552.227-.216.438-.473.64-.78l.88.538c-.537.934-1.32 1.667-2.346 2.21-.645.343-1.212.515-1.705.513-.497-.005-.88-.166-1.145-.494-.271-.326-.406-.791-.408-1.383 0-.59.13-1.192.392-1.8a6.048 6.048 0 0 1 1.087-1.688c.46-.506.977-.909 1.549-1.212.555-.295 1.058-.438 1.514-.422.45.012.806.188 1.067.524.255.334.39.81.391 1.441M66.995 331l.005 1.614a2.635 2.635 0 0 0-1.255 1.186c-.227.418-.34.914-.338 1.475l.008 2.846-1.399.879-.016-6.03 1.337-.839.002.796c.165-.395.389-.76.675-1.085.282-.33.61-.608.981-.842M76.009 399.394a2.11 2.11 0 0 0 .372-1.202c-.001-.438-.126-.701-.378-.792-.247-.093-.613-.003-1.097.27l-1.302.734.007 2.692 1.303-.735c.484-.272.849-.594 1.095-.967m1.621-3.405c.249.282.368.714.37 1.29.002.57-.115 1.13-.361 1.696a5.254 5.254 0 0 1-1.038 1.562c-.448.48-.982.891-1.593 1.236l-1.392.785.006 2.138-1.599.902-.023-7.754 2.991-1.687c.613-.345 1.145-.53 1.595-.555.455-.03.801.103 1.044.387M82.47 398.086l-.002-.67-1.046.655c-.626.392-.938.843-.937 1.354 0 .244.08.39.232.435.156.048.367-.016.63-.182a2.42 2.42 0 0 0 .693-.66c.206-.273.347-.587.43-.932m.86-4.397c.44.206.657.802.66 1.776l.01 3.737-1.428.893-.001-.816c-.282.787-.82 1.427-1.601 1.916-.4.251-.753.386-1.051.402-.294.014-.525-.08-.682-.28-.157-.202-.235-.493-.237-.876-.002-.61.183-1.2.549-1.783.37-.58.936-1.11 1.704-1.59l1.211-.759c0-.414-.099-.668-.304-.766-.201-.093-.505-.02-.911.234-.278.175-.551.4-.825.682a5.395 5.395 0 0 0-.688.876l-.55-.985a7.72 7.72 0 0 1 1.029-1.23c.4-.385.815-.717 1.236-.98.815-.511 1.442-.659 1.878-.45M87.762 391.032c.526-.316.983-.457 1.372-.43.393.028.68.226.857.605l-1.115 1.386c-.26-.39-.63-.44-1.12-.146-.373.224-.682.558-.93 1a2.864 2.864 0 0 0-.367 1.422c.001.506.127.834.373.978.25.143.56.107.933-.117.494-.297.867-.79 1.116-1.485l1.119.057a4.933 4.933 0 0 1-.851 1.614 4.972 4.972 0 0 1-1.37 1.218c-.527.315-1.002.468-1.428.464a1.205 1.205 0 0 1-.99-.493c-.237-.322-.359-.773-.361-1.362a4.903 4.903 0 0 1 .351-1.788c.24-.607.566-1.16.985-1.678.424-.512.9-.93 1.426-1.245M92.58 385.642l.014 4.585 2.302-3.609 1.883-1.02-2.261 3.718L97 391.362l-1.914 1.037-1.73-1.371-.757 1.219.005 1.495-1.58.856-.024-8.1zM100.47 387.087l-.002-.67-1.046.654c-.626.392-.938.843-.937 1.354.001.244.08.39.232.435.156.048.367-.017.631-.181.264-.165.494-.383.693-.66a2.52 2.52 0 0 0 .429-.932m.86-4.398c.441.206.658.802.66 1.776l.01 3.737-1.427.893-.002-.816c-.282.786-.819 1.427-1.601 1.916-.4.25-.753.386-1.051.402-.294.013-.525-.08-.682-.28-.157-.201-.235-.493-.237-.877-.002-.608.183-1.2.549-1.782.37-.579.936-1.11 1.704-1.59l1.212-.759c0-.414-.1-.669-.305-.765-.201-.094-.504-.02-.91.233-.279.175-.552.4-.826.681a5.431 5.431 0 0 0-.688.876l-.55-.984a7.72 7.72 0 0 1 1.029-1.23c.4-.385.815-.717 1.236-.98.816-.511 1.443-.659 1.88-.45M107.047 383.714c.267-.435.397-.872.395-1.327-.001-.449-.133-.742-.401-.87-.268-.123-.605-.074-1.023.166a2.9 2.9 0 0 0-1.026 1.01c-.266.435-.401.881-.4 1.33.001.455.138.739.406.867.267.13.61.07 1.028-.17.418-.24.755-.57 1.021-1.006zm.447-4.261l1.491-.855.015 5.154c.002 1.139-.252 2.126-.769 2.976-.517.85-1.271 1.56-2.264 2.13a6.29 6.29 0 0 1-1.491.635c-.469.126-.862.138-1.17.039l.62-1.648c.228.084.52.088.87.015.346-.073.699-.211 1.047-.411.543-.312.946-.682 1.202-1.11.256-.43.385-.925.384-1.494l-.001-.265a4.436 4.436 0 0 1-1.71 1.754c-.498.286-.952.42-1.365.409a1.223 1.223 0 0 1-.985-.49c-.244-.314-.366-.764-.368-1.356a4.654 4.654 0 0 1 .358-1.772 6.109 6.109 0 0 1 .979-1.617c.413-.484.865-.87 1.364-1.157.786-.45 1.386-.501 1.795-.143l-.002-.794zM110.022 383.598l-.022-6.11 1.98-.89.02 6.11zM111.003 375.458c-.293.14-.536.178-.723.1-.186-.074-.28-.236-.28-.478 0-.241.091-.493.277-.745a1.91 1.91 0 0 1 .72-.594c.299-.143.536-.178.723-.11.186.07.28.222.28.458 0 .257-.091.514-.275.77a1.861 1.861 0 0 1-.722.599M116.556 373.941c.728-.362 1.311-.437 1.758-.228.448.21.672.74.675 1.587l.011 3.32-1.697.844-.01-3.061c-.001-.459-.105-.752-.307-.878s-.496-.093-.882.1c-.43.213-.767.516-1.02.902-.255.39-.38.841-.378 1.358l.01 2.867-1.696.846-.02-5.8 1.62-.806.002.678c.223-.353.505-.682.836-.982.336-.298.7-.548 1.098-.747M124.047 373.714c.267-.435.396-.872.395-1.327-.001-.449-.133-.741-.401-.87-.263-.126-.605-.074-1.024.166a2.93 2.93 0 0 0-1.025 1.01c-.266.435-.402.881-.4 1.33.001.455.138.74.405.868.273.125.611.07 1.029-.17a2.81 2.81 0 0 0 1.021-1.007zm.446-4.26l1.491-.856.016 5.154c.002 1.139-.252 2.126-.769 2.976-.517.85-1.266 1.557-2.264 2.13-.523.299-1.022.51-1.491.636-.469.125-.862.137-1.17.038l.62-1.648c.233.08.52.089.868.016a3.62 3.62 0 0 0 1.049-.412c.543-.312.945-.682 1.202-1.11.26-.433.385-.924.384-1.494l-.001-.265a4.431 4.431 0 0 1-1.71 1.754c-.494.283-.953.42-1.366.409a1.22 1.22 0 0 1-.984-.49c-.244-.314-.366-.764-.368-1.356a4.657 4.657 0 0 1 .358-1.772c.24-.588.567-1.126.979-1.616.412-.485.87-.875 1.364-1.158.785-.45 1.385-.501 1.795-.143l-.003-.794zM159.916 373.4c.245-.38.364-.782.363-1.21-.001-.437-.123-.699-.369-.79-.246-.091-.604 0-1.071.269l-1.272.735.006 2.703 1.273-.735c.468-.27.825-.592 1.07-.972m.563 1.128l1.521 1.619-1.678.968-1.307-1.408-.077.044-1.36.785.006 2.16-1.561.902-.023-7.756 2.922-1.686c.598-.345 1.118-.529 1.557-.555.44-.026.783.102 1.02.387.238.285.36.714.361 1.29a4.211 4.211 0 0 1-.357 1.698 5.476 5.476 0 0 1-1.024 1.552M164.639 371.328l2.804-1.486c-.059-.349-.214-.568-.469-.663-.254-.094-.566-.04-.932.153-.376.2-.687.476-.94.834a2.591 2.591 0 0 0-.463 1.162m4.361-1.763c0 .022-.01.184-.03.485l-4.307 2.282c.081.332.262.527.553.59.292.064.652-.022 1.08-.247.297-.159.561-.343.788-.559a4.17 4.17 0 0 0 .64-.78l.88.54c-.531.93-1.314 1.669-2.346 2.215-.64.34-1.211.509-1.704.507-.493-.002-.875-.168-1.146-.494-.271-.325-.406-.786-.408-1.382 0-.587.13-1.187.393-1.801a6.003 6.003 0 0 1 1.086-1.682c.46-.506.977-.915 1.549-1.218.556-.294 1.064-.435 1.514-.422.45.012.807.188 1.067.524.26.337.39.817.391 1.442M175 363l-2.201 7.117-1.573.883-2.226-4.633 1.573-.883 1.468 3.177 1.493-4.838zM176.638 364.328l2.804-1.486c-.059-.348-.214-.568-.468-.663-.254-.094-.567-.04-.932.153a2.66 2.66 0 0 0-.94.835 2.588 2.588 0 0 0-.464 1.161m4.362-1.763c0 .022-.01.184-.03.485l-4.308 2.282c.081.333.262.527.554.59.291.064.651-.02 1.08-.248.296-.157.56-.342.787-.557.228-.215.445-.476.64-.78l.88.539c-.531.93-1.313 1.669-2.345 2.215-.64.34-1.212.51-1.705.507-.492 0-.874-.168-1.145-.494-.272-.325-.406-.785-.408-1.382-.002-.586.13-1.187.392-1.8a6.01 6.01 0 0 1 1.086-1.683c.46-.507.977-.915 1.55-1.219.555-.293 1.063-.434 1.514-.421.45.012.806.187 1.066.524s.39.816.392 1.442M184.996 356.598l.004 1.614a4.95 4.95 0 0 0-.314.175c-.399.25-.713.587-.94 1.011-.228.424-.34.914-.338 1.475l.007 2.847-1.399.878-.016-6.03 1.337-.839.002.796c.165-.396.393-.758.676-1.086.281-.328.609-.607.98-.841M188.675 354.671c.39-.222.782-.399 1.167-.518.386-.122.71-.172.962-.147l-.53 1.598c-.49-.03-1.02.113-1.595.441-.344.196-.6.396-.77.602-.169.207-.256.397-.255.566 0 .192.094.28.278.25.186-.03.479-.121.885-.282.451-.17.822-.293 1.11-.358.288-.065.54-.034.751.102.212.137.321.43.322.89.002.39-.1.793-.305 1.212a4.53 4.53 0 0 1-.897 1.218 6.596 6.596 0 0 1-1.402 1.05c-.457.26-.91.453-1.347.573-.436.122-.786.157-1.049.115l.531-1.609c.247.039.546.015.895-.073.35-.089.694-.225 1.028-.417.678-.386 1.016-.77 1.015-1.15 0-.18-.093-.256-.278-.226-.186.03-.468.12-.854.288a7.917 7.917 0 0 1-1.12.37c-.293.067-.55.033-.767-.1-.217-.134-.326-.44-.327-.91-.002-.396.1-.805.3-1.228.199-.422.497-.831.881-1.22a6.295 6.295 0 0 1 1.371-1.037M193.639 354.73l2.804-1.486c-.059-.348-.214-.568-.469-.663-.254-.094-.567-.04-.932.153-.376.2-.687.476-.94.835a2.579 2.579 0 0 0-.463 1.161m4.361-1.763c0 .022-.01.184-.03.485l-4.307 2.282c.08.332.262.527.553.59.292.064.652-.021 1.08-.248.296-.157.561-.342.788-.557a4.17 4.17 0 0 0 .64-.78l.88.539c-.532.93-1.314 1.669-2.346 2.216-.64.339-1.211.508-1.704.506-.493 0-.875-.167-1.146-.494-.271-.325-.406-.785-.408-1.382 0-.586.13-1.187.392-1.8a6.014 6.014 0 0 1 1.087-1.683 5.67 5.67 0 0 1 1.549-1.218c.556-.294 1.064-.435 1.514-.422.45.012.807.187 1.067.524.26.337.39.816.391 1.442M155.571 385.598l.018 6.542 3.406-2.031.005 1.52-4.978 2.969-.022-8.063zM163.008 387.746c.258-.439.39-.907.388-1.407-.002-.5-.136-.825-.395-.982-.26-.156-.595-.122-1.001.1-.406.22-.74.552-1.004.992a2.684 2.684 0 0 0-.392 1.41c.002.5.135.825.4.98.265.152.6.118 1.006-.103.406-.221.74-.552.998-.99m1.602-3.644c.26.321.388.775.39 1.363a4.463 4.463 0 0 1-.382 1.785 6.048 6.048 0 0 1-1.063 1.664c-.45.504-.967.918-1.541 1.23-.574.313-1.092.463-1.549.454-.458-.01-.815-.18-1.075-.5-.26-.322-.388-.775-.39-1.365a4.457 4.457 0 0 1 .382-1.783 6.01 6.01 0 0 1 1.067-1.668 5.828 5.828 0 0 1 1.547-1.234c.573-.312 1.092-.462 1.544-.45.452.013.809.183 1.07.504M170.048 383.714c.265-.435.396-.872.394-1.327 0-.454-.133-.741-.4-.87-.269-.13-.606-.074-1.025.166a2.86 2.86 0 0 0-1.025 1.01c-.267.435-.402.875-.4 1.33 0 .455.138.74.405.868.268.128.612.07 1.029-.17.418-.24.755-.572 1.022-1.007zm.446-4.26l1.491-.856.015 5.154c.003 1.133-.252 2.126-.768 2.976-.518.85-1.272 1.56-2.264 2.13-.524.299-1.023.51-1.492.636-.469.125-.863.137-1.17.038l.62-1.648c.228.083.52.089.869.015.348-.073.7-.211 1.048-.411.544-.312.946-.682 1.202-1.11.256-.43.385-.925.384-1.494l-.001-.265a4.431 4.431 0 0 1-1.71 1.754c-.498.286-.953.42-1.366.409a1.225 1.225 0 0 1-.985-.49c-.243-.314-.365-.764-.367-1.356a4.657 4.657 0 0 1 .358-1.772c.24-.593.567-1.133.98-1.617.412-.484.864-.87 1.363-1.157.786-.45 1.386-.501 1.795-.143l-.002-.794zM173.022 383.598l-.022-6.11 1.978-.89.022 6.11zM174.003 375.46c-.294.14-.536.174-.724.1-.185-.074-.278-.236-.279-.479 0-.241.091-.493.276-.745.185-.252.428-.453.72-.595.295-.141.538-.178.725-.11.185.07.278.222.279.459 0 .257-.09.514-.275.77a1.877 1.877 0 0 1-.722.6M178.675 374.268c.39-.222.776-.396 1.166-.519.387-.121.705-.168.963-.146l-.531 1.599c-.489-.031-1.018.112-1.594.44-.344.197-.6.396-.77.602-.17.207-.256.397-.256.566 0 .192.094.28.279.25.185-.03.478-.121.884-.283.452-.17.823-.292 1.11-.358.289-.065.541-.033.752.104.212.135.32.43.322.89 0 .39-.1.792-.306 1.211a4.53 4.53 0 0 1-.896 1.218 6.62 6.62 0 0 1-1.403 1.05c-.457.26-.909.453-1.346.574-.437.12-.792.16-1.049.113l.53-1.608c.247.039.546.015.895-.073.35-.088.694-.226 1.028-.417.678-.386 1.017-.771 1.016-1.15-.001-.18-.094-.255-.279-.226-.185.03-.467.12-.853.287a7.783 7.783 0 0 1-1.12.37c-.294.069-.55.034-.768-.1-.216-.133-.325-.439-.327-.91 0-.396.1-.804.3-1.227.2-.422.497-.831.882-1.22a6.3 6.3 0 0 1 1.371-1.037M183.312 369.598l.005 1.552 1.299-.798.004 1.422-1.3.798.008 2.595c0 .267.054.441.171.518.112.08.272.053.48-.076a1.91 1.91 0 0 0 .61-.611l.411 1.053c-.15.228-.334.442-.547.638-.217.2-.445.374-.683.52-.62.382-1.101.481-1.441.304-.34-.177-.512-.641-.514-1.394l-.006-2.618-.805.494-.004-1.422.805-.495-.004-1.552 1.511-.928z" opacity=".7"/>
        <g fill="#000" opacity=".7">
            <path d="M185.88 375.985l-.016-6.203 1.494-.903.017 6.202zM186.609 368.466c-.278.168-.498.203-.671.117-.174-.086-.26-.276-.26-.559-.001-.282.084-.577.256-.87.172-.295.391-.527.669-.695.273-.165.499-.208.672-.128.172.08.259.258.26.535 0 .3-.085.6-.256.9-.173.3-.397.535-.67.7"/>
        </g>
        <path fill="#000" d="M191.762 366.433c.522-.313.979-.454 1.372-.43.393.023.677.229.857.605l-1.115 1.386c-.26-.39-.635-.436-1.12-.145-.377.226-.687.56-.93 1a2.864 2.864 0 0 0-.367 1.421c.001.507.127.835.373.98.246.145.554.109.933-.118.494-.297.863-.788 1.116-1.486l1.119.057a4.98 4.98 0 0 1-.851 1.614c-.391.5-.848.906-1.37 1.219-.531.318-1.007.471-1.428.464-.421-.007-.754-.17-.99-.493-.242-.319-.359-.772-.361-1.362a4.801 4.801 0 0 1 .351-1.788 6.123 6.123 0 0 1 .985-1.678c.42-.51.896-.928 1.426-1.246M197.675 362.67c.39-.223.776-.396 1.166-.52.387-.12.705-.167.963-.144l-.531 1.597c-.489-.031-1.018.113-1.594.44-.345.197-.6.396-.77.603-.175.21-.257.396-.256.565 0 .192.094.28.278.25.186-.03.479-.12.885-.281.452-.171.823-.294 1.11-.36.288-.064.54-.033.751.104.212.136.321.43.323.89 0 .39-.1.792-.306 1.212-.204.42-.501.823-.896 1.217a6.592 6.592 0 0 1-1.403 1.05c-.462.263-.91.454-1.347.574-.441.123-.791.16-1.048.114l.53-1.61c.247.04.546.017.895-.072.35-.088.694-.226 1.028-.416.678-.387 1.017-.772 1.016-1.15-.001-.18-.094-.256-.279-.227-.185.03-.473.124-.853.287a7.685 7.685 0 0 1-1.12.37c-.294.069-.552.035-.768-.099-.216-.133-.325-.439-.327-.91a2.774 2.774 0 0 1 .3-1.227c.2-.423.497-.831.882-1.22a6.298 6.298 0 0 1 1.37-1.038M239.965 301.155c.633-.33 1.21-.517 1.723-.55.514-.035.944.073 1.296.325l-1.086 1.614c-.498-.333-1.111-.313-1.845.07a4.342 4.342 0 0 0-1.212.945 4.518 4.518 0 0 0-.83 1.3 3.626 3.626 0 0 0-.294 1.42c.001.473.102.84.302 1.107.2.266.478.41.835.43.356.02.76-.086 1.215-.324.733-.383 1.345-1.003 1.84-1.867l1.091.477a7.23 7.23 0 0 1-1.294 1.69 7.287 7.287 0 0 1-1.726 1.252c-.75.39-1.425.575-2.027.552-.604-.023-1.08-.243-1.428-.661-.348-.418-.523-1.003-.525-1.76-.002-.756.168-1.521.512-2.3a7.79 7.79 0 0 1 1.42-2.15 7.423 7.423 0 0 1 2.033-1.57M246.996 298.598l.004 1.613c-.157.088-.26.141-.314.175-.404.254-.718.59-.94 1.011-.229.425-.34.915-.338 1.476l.007 2.846-1.399.879-.016-6.03 1.337-.84.002.796c.165-.395.388-.754.676-1.085a4.26 4.26 0 0 1 .98-.841M251.47 300.086l-.002-.67-1.046.655c-.626.391-.938.842-.936 1.354 0 .243.08.39.23.435.152.05.363-.014.632-.182.26-.162.493-.381.693-.66.2-.27.347-.587.429-.932m.86-4.396c.435.208.657.8.66 1.775l.01 3.736-1.427.894-.002-.817c-.287.79-.818 1.427-1.6 1.917-.406.254-.754.385-1.052.401-.299.017-.525-.08-.682-.28-.157-.201-.235-.493-.237-.876-.002-.608.183-1.199.549-1.782.365-.577.937-1.11 1.704-1.591l1.211-.758c0-.414-.104-.666-.304-.765-.201-.095-.505-.021-.91.234a4.46 4.46 0 0 0-.826.68 5.43 5.43 0 0 0-.688.876l-.55-.985c.287-.43.628-.838 1.029-1.23.4-.384.81-.714 1.236-.98.816-.51 1.442-.658 1.878-.45M257.556 292.94c.724-.36 1.31-.436 1.758-.228.448.21.672.74.675 1.587l.011 3.32-1.697.845-.01-3.062c-.001-.458-.105-.751-.307-.878-.207-.123-.502-.09-.882.1-.43.213-.767.516-1.02.902-.255.392-.38.842-.378 1.36l.01 2.866-1.697.846-.019-5.8 1.62-.806.002.678a4.61 4.61 0 0 1 .836-.983 4.95 4.95 0 0 1 1.098-.746M262.638 292.328l2.805-1.486c-.06-.349-.215-.569-.469-.663-.254-.088-.567-.04-.932.153-.376.2-.688.476-.94.834a2.536 2.536 0 0 0-.464 1.162m4.362-1.763c0 .022-.01.184-.03.485l-4.307 2.282c.08.332.261.533.553.59.291.064.651-.022 1.08-.248a3.6 3.6 0 0 0 .787-.558c.228-.209.439-.472.64-.78l.88.54c-.536.932-1.32 1.67-2.345 2.215-.645.342-1.212.509-1.705.507-.492-.002-.88-.166-1.145-.494-.272-.326-.406-.786-.408-1.383-.002-.586.13-1.187.392-1.8a6.083 6.083 0 0 1 1.087-1.683 5.672 5.672 0 0 1 1.549-1.217c.555-.295 1.058-.432 1.514-.422.45.018.806.193 1.066.524.256.34.39.816.392 1.442M269.675 285.267c.39-.222.776-.395 1.166-.518.387-.121.705-.168.963-.146l-.531 1.597c-.489-.03-1.018.114-1.594.44-.344.198-.6.396-.77.603-.17.207-.256.397-.256.566 0 .192.094.28.279.25.186-.024.478-.121.884-.282.452-.171.823-.288 1.11-.358.289-.065.541-.035.752.102.212.136.32.437.322.89.002.39-.1.793-.305 1.212-.205.42-.502.822-.897 1.216a6.572 6.572 0 0 1-1.403 1.05c-.457.26-.909.454-1.346.574-.437.121-.792.165-1.049.114l.53-1.609c.248.04.546.016.895-.072.35-.09.695-.226 1.03-.417.677-.386 1.015-.765 1.014-1.15-.001-.175-.094-.256-.278-.226-.186.03-.468.127-.854.287-.452.183-.828.309-1.12.37-.294.068-.55.034-.768-.1-.216-.133-.325-.438-.327-.909 0-.396.096-.801.3-1.227.2-.422.497-.83.882-1.219a6.303 6.303 0 0 1 1.371-1.038M287.996 198.598l.004 1.48-3.466 2.1.006 2.107 3.06-1.854.004 1.481-3.06 1.854.008 2.905-1.53.927-.022-7.973zM290.003 198.46c-.294.14-.536.174-.724.1-.185-.074-.278-.237-.279-.479 0-.241.09-.493.276-.745a1.91 1.91 0 0 1 .72-.594c.295-.142.538-.18.725-.11.185.068.278.22.279.458 0 .257-.09.514-.275.77a1.888 1.888 0 0 1-.722.6M289.022 205.598l-.022-6.11 1.978-.89.022 6.11zM295.555 195.94c.724-.36 1.312-.436 1.759-.228.447.21.672.74.674 1.587l.012 3.32-1.696.845-.01-3.061c-.002-.459-.107-.752-.309-.879-.2-.126-.495-.093-.881.1-.43.214-.767.51-1.021.902-.255.392-.38.842-.377 1.36l.01 2.866-1.696.846-.02-5.8 1.62-.806.002.678a4.69 4.69 0 0 1 .836-.983c.336-.302.7-.548 1.097-.746M302.47 195.586l-.002-.67-1.046.655c-.626.392-.938.843-.937 1.354.001.244.08.39.231.435.153.045.363-.013.632-.182.259-.162.494-.381.693-.66.2-.276.347-.588.429-.932m.86-4.397c.436.21.658.802.66 1.776l.01 3.737-1.427.893-.002-.817c-.287.79-.819 1.428-1.601 1.917-.406.254-.753.386-1.051.401-.3.017-.525-.08-.682-.28-.157-.201-.236-.492-.237-.875-.002-.61.183-1.206.549-1.783.365-.576.936-1.11 1.704-1.59l1.212-.759c0-.414-.105-.665-.305-.766-.202-.1-.504-.02-.91.234a4.464 4.464 0 0 0-.826.681 5.234 5.234 0 0 0-.688.876l-.55-.984a7.64 7.64 0 0 1 1.029-1.23c.4-.39.81-.715 1.236-.981.816-.51 1.443-.658 1.878-.45M308.556 187.843c.723-.36 1.31-.437 1.758-.228.448.21.672.739.675 1.586l.011 3.32-1.696.845-.01-3.061c-.002-.458-.107-.753-.308-.878-.202-.127-.496-.094-.882.099-.43.214-.767.51-1.02.903-.256.39-.38.84-.378 1.358l.01 2.867-1.696.846-.02-5.8 1.62-.807.002.68c.222-.354.504-.683.836-.983.332-.3.7-.549 1.098-.747M314.762 183.933c.522-.313.979-.454 1.372-.43.393.023.676.228.857.605l-1.115 1.386c-.26-.39-.635-.436-1.12-.145-.373.224-.687.56-.93 1a2.864 2.864 0 0 0-.367 1.421c.001.507.127.835.373.98.246.145.56.106.933-.119.494-.296.863-.787 1.116-1.485l1.119.057a4.98 4.98 0 0 1-.851 1.614c-.392.5-.848.906-1.37 1.219-.531.318-1.007.471-1.428.464-.421-.007-.754-.171-.99-.493-.237-.322-.359-.772-.361-1.362a4.877 4.877 0 0 1 .351-1.788 6.112 6.112 0 0 1 .985-1.678c.42-.511.895-.928 1.426-1.246M319.638 183.828l2.804-1.486c-.059-.348-.214-.568-.468-.663-.254-.094-.567-.04-.932.153a2.66 2.66 0 0 0-.94.835 2.588 2.588 0 0 0-.464 1.161m4.362-1.763c0 .022-.01.184-.03.485l-4.308 2.282c.081.333.262.527.554.59.291.064.651-.02 1.08-.248.296-.157.56-.342.787-.557.228-.215.444-.476.64-.78l.88.539c-.531.93-1.314 1.669-2.345 2.215-.64.34-1.212.51-1.705.507-.492-.002-.874-.168-1.146-.494-.271-.325-.405-.785-.407-1.382-.002-.586.13-1.187.392-1.8a6.01 6.01 0 0 1 1.086-1.683c.46-.507.977-.915 1.549-1.219.556-.293 1.064-.434 1.515-.421.45.012.806.187 1.066.524s.39.816.392 1.442M293.915 95.4c.246-.38.365-.782.364-1.21-.002-.437-.123-.699-.37-.79-.246-.091-.603 0-1.07.269l-1.272.735.006 2.703 1.273-.735c.468-.27.825-.592 1.07-.972m.563 1.128L296 98.147l-1.678.968-1.307-1.408-.078.044-1.359.785.006 2.16-1.561.902-.023-7.756 2.922-1.686c.597-.345 1.118-.529 1.557-.555.44-.026.783.102 1.02.387.238.285.36.714.361 1.29a4.224 4.224 0 0 1-.357 1.698 5.476 5.476 0 0 1-1.024 1.552M301.008 93.147c.258-.438.39-.906.388-1.406-.002-.5-.136-.826-.395-.982-.26-.156-.595-.122-1.001.1-.406.22-.74.552-1.004.992a2.684 2.684 0 0 0-.392 1.41c.002.5.135.825.4.978.265.154.6.12 1.006-.1.406-.222.74-.553.998-.992m1.602-3.643c.26.321.388.775.39 1.363a4.457 4.457 0 0 1-.382 1.784 6.04 6.04 0 0 1-1.063 1.665c-.45.504-.967.918-1.541 1.23-.574.313-1.092.463-1.549.454-.458-.01-.815-.18-1.075-.501s-.388-.775-.39-1.365a4.462 4.462 0 0 1 .382-1.783 5.996 5.996 0 0 1 1.067-1.667 5.813 5.813 0 0 1 1.547-1.234c.573-.313 1.092-.462 1.544-.45.452.013.81.183 1.07.504M307.47 88.586l-.002-.67-1.046.655c-.626.392-.938.843-.937 1.354.001.243.08.39.232.435.152.045.367-.017.631-.182.259-.162.494-.381.693-.66.2-.276.347-.588.429-.932m.86-4.397c.441.206.658.802.66 1.776l.01 3.737-1.427.893-.002-.817c-.282.788-.819 1.428-1.601 1.917-.4.251-.753.386-1.051.401-.3.017-.525-.08-.682-.28-.157-.201-.236-.492-.237-.875-.002-.61.183-1.206.549-1.783.365-.576.936-1.11 1.704-1.59l1.212-.759c0-.414-.1-.669-.305-.766-.201-.1-.504-.02-.91.234a4.455 4.455 0 0 0-.826.681 5.156 5.156 0 0 0-.688.876l-.55-.984a7.72 7.72 0 0 1 1.029-1.23c.4-.39.815-.717 1.236-.981.816-.51 1.443-.658 1.88-.45M314.032 84.993c.264-.467.396-.962.395-1.492-.002-.53-.136-.872-.402-1.035-.268-.163-.6-.13-1.004.101-.409.235-.746.585-1.01 1.052a2.946 2.946 0 0 0-.396 1.492c.002.529.136.873.403 1.035.266.162.604.126 1.013-.108.404-.231.736-.578 1.001-1.045zm.35-6.983l1.594-.912.024 8.64-1.523.873-.002-.723a4.272 4.272 0 0 1-1.716 1.8c-.516.295-.986.43-1.407.408-.42-.023-.748-.214-.99-.565-.241-.352-.36-.85-.362-1.497a5.241 5.241 0 0 1 .353-1.904 5.89 5.89 0 0 1 .983-1.694 5.192 5.192 0 0 1 1.405-1.2c.7-.402 1.253-.467 1.648-.186l-.008-3.04z" opacity=".7"/>
        <g fill="#FFF">
            <path d="M139.059 255.192l.01 3.737 3.34-1.985c1.56-.928 2.336-2.014 2.332-3.258-.003-1.245-.783-1.407-2.343-.48l-3.34 1.986m4.35 10.726c1.58-.94 2.366-2.061 2.362-3.38-.004-1.32-.793-1.512-2.372-.572l-4.314 2.564.011 3.952 4.313-2.564m8.55-9.899c.687.646 1.037 1.707 1.042 3.194.006 2.199-.762 4.364-2.294 6.487-1.537 2.125-3.76 4.055-6.675 5.787l-11.961 7.111-.07-25.145 11.355-6.75c2.832-1.682 4.975-2.354 6.426-2.023 1.451.338 2.179 1.504 2.185 3.489.002 1.174-.244 2.374-.735 3.6-.497 1.234-1.228 2.422-2.2 3.58 1.258-.199 2.235.022 2.927.67M126.064 224.192l.01 3.732 3.34-1.985c1.555-.925 2.33-2.006 2.328-3.256-.004-1.243-.783-1.4-2.339-.477l-3.34 1.986m4.346 10.73c1.58-.94 2.365-2.067 2.361-3.386-.004-1.314-.793-1.505-2.373-.566l-4.308 2.562.011 3.952 4.309-2.563m8.55-9.904c.686.646 1.037 1.707 1.041 3.194.007 2.205-.757 4.368-2.294 6.493-1.532 2.123-3.76 4.05-6.675 5.782l-11.961 7.112-.07-25.147 11.356-6.75c2.836-1.687 4.975-2.356 6.425-2.018 1.452.337 2.18 1.498 2.185 3.483.004 1.174-.244 2.376-.735 3.606-.496 1.228-1.227 2.422-2.194 3.57 1.253-.194 2.229.032 2.921.675M176.961 227.598l.039 13.505c.01 3.673-.907 7.057-2.743 10.148-1.84 3.093-4.408 5.584-7.705 7.474-3.303 1.894-5.875 2.35-7.727 1.375-1.847-.978-2.776-3.304-2.786-6.976L156 239.618l7.253-4.159.037 13.262c.006 1.803.291 2.946.859 3.442.56.499 1.38.437 2.443-.173 1.065-.61 1.88-1.486 2.443-2.629.557-1.14.835-2.608.83-4.41l-.038-13.262 7.134-4.091zM155.321 213.089a4.766 4.766 0 0 0 .742-2.598c-.002-.927-.25-1.506-.754-1.73-.499-.225-1.248-.053-2.248.522l-2.683 1.546.017 5.866 2.682-1.547c1-.575 1.748-1.26 2.244-2.06m4.07 3.368l4.609 5.083-7.862 4.53-3.725-4.16-2 1.151.018 6.297-7.36 4.241L143 208.56l10.51-6.056c2.02-1.163 3.774-1.788 5.278-1.893 1.5-.096 2.652.336 3.47 1.296.814.962 1.225 2.398 1.23 4.306.006 1.79-.347 3.558-1.046 5.3-.705 1.739-1.722 3.392-3.05 4.943M187.238 221.598l.05 18.318 9.693-5.626.019 6.482-16.93 9.826-.07-24.8zM183.533 185.598l.017 6.318-10.38 6.01.008 2.918 9.115-5.28.017 6.033-9.116 5.278.01 3.265 10.778-6.24.018 6.319-17.93 10.379-.07-24.85zM221.49 201.598l-8.725 16.064L222 226.41l-8.54 4.913-5.495-5.165-1.65 3.07.016 6.194-7.26 4.176-.071-25.064 7.26-4.176.025 9.095 7.169-13.233zM195.817 193.167l4.188-2.394-2.111-4.966-2.077 7.36zm5.685-17.569l9.498 19.14-7.517 4.297-1.457-3.448-8.196 4.685-1.436 5.1-7.394 4.226 9.358-29.917 7.144-4.083zM234.49 155.598l-8.73 16.065 9.24 8.747-8.54 4.912-5.5-5.155-1.651 3.064.017 6.194-7.254 4.173-.072-25.065 7.255-4.172.026 9.095 7.17-13.233z"/>
        </g>
    </g>
</svg>
