<svg xmlns="http://www.w3.org/2000/svg" xmlns:xlink="http://www.w3.org/1999/xlink" width="186" height="162" viewBox="0 0 186 162">
    <defs>
        <path id="a" d="M15.74 1.582c-5.402 3.065-9.803 10.31-10.072 16.43l-5.27 3L12.81 28.75l11.022-5.957 3.895-16.042-6.327-5.4V.312c-.352-.066-.72-.1-1.1-.1-1.37 0-2.92.44-4.56 1.37z"/>
        <path id="c" d="M15.74 1.582c-5.402 3.065-9.803 10.31-10.072 16.43l-5.27 3L12.81 28.75l11.022-5.957 3.895-16.042-6.327-5.4V.312c-.352-.066-.72-.1-1.1-.1-1.37 0-2.92.44-4.56 1.37"/>
        <path id="e" d="M15.74 1.582c-5.402 3.065-9.803 10.31-10.072 16.43l-5.27 3L12.81 28.75l11.022-5.957 3.895-16.042-6.327-5.4V.312c-.352-.066-.72-.1-1.1-.1-1.37 0-2.92.44-4.56 1.37"/>
        <path id="g" d="M15.74 1.582c-5.402 3.065-9.803 10.31-10.072 16.43l-5.27 3L12.81 28.75l11.022-5.957 3.895-16.042-6.327-5.4V.312c-.352-.066-.72-.1-1.1-.1-1.37 0-2.92.44-4.56 1.37"/>
        <path id="i" d="M15.74 1.582c-5.402 3.065-9.803 10.31-10.072 16.43l-5.27 3L12.81 28.75l11.022-5.957 3.895-16.042-6.327-5.4V.312c-.352-.066-.72-.1-1.1-.1-1.37 0-2.92.44-4.56 1.37"/>
        <path id="k" d="M15.74 1.582c-5.402 3.065-9.803 10.31-10.072 16.43l-5.27 3L12.81 28.75l11.022-5.957 3.895-16.042-6.327-5.4V.312c-.352-.066-.72-.1-1.1-.1-1.37 0-2.92.44-4.56 1.37"/>
        <path id="m" d="M15.74 1.582c-5.402 3.065-9.803 10.31-10.072 16.43l-5.27 3L12.81 28.75l11.022-5.957 3.895-16.042-6.327-5.4V.312c-.352-.066-.72-.1-1.1-.1-1.37 0-2.92.44-4.56 1.37z"/>
        <path id="o" d="M5.668 18.013L.398 21.01l12.412 7.74 11.022-5.958 3.895-16.042-6.327-5.4V.312c-.352-.066-.72-.1-1.1-.1-1.37 0-2.92.44-4.56 1.37-5.402 3.065-9.803 10.31-10.072 16.43z"/>
    </defs>
    <g fill="none" fill-rule="evenodd">
        <path fill="#62CFD2" d="M182.043 94.311L70.91 157.06a35 35 0 0 1-33.026.744l-22.94-11.622a7 7 0 0 1-.197-12.385l121.815-66.659a7 7 0 0 1 5.882-.389l38.68 14.938a7 7 0 0 1 .92 12.625z"/>
        <path fill="#5C5C5C" d="M82.889 114.038l1.146 1.692.926 1.374 1.854 2.749 2.21 3.265 1.579 2.338.767 1.142 6.724-3.859-.01-.01c.62-.296 19.215-11.258 19.592-11.85.21-.306.38-.665.484-1.046.087-.317.139-.656.139-1.015a8.64 8.64 0 0 0-.276-2.146 8.818 8.818 0 0 0-1.737-3.532 8.815 8.815 0 0 0-2.461-2.113l-20.455 9.12c-.6-.346-11.308 5.444-11.929 5.444-.471 0 13.048-8.203 12.606-8.024a3.712 3.712 0 0 0-.958.551l-7.298 4.24-1.293.75-1.61.93z"/>
        <path fill="#AFAFAF" d="M84.036 115.73l.926 1.373 1.854 2.75 2.208 3.265 29.001-16.446a8.792 8.792 0 0 0-1.737-3.53 8.759 8.759 0 0 0-2.464-2.116l-20.452 9.123c-.6-.349-11.308 5.441-11.929 5.441-.474 0 13.048-8.203 12.606-8.02a3.704 3.704 0 0 0-.958.548l-7.298 4.24-1.293.75-.464 2.622z"/>
        <path fill="#424242" d="M82.889 114.038l1.146 1.692.926 1.374 1.854 2.749 29.472-16.713c-.672-.845-6.211-4.14-7.169-4.7l-15.747 11.707c-.6-.346-11.308 5.444-11.929 5.444-.471 0 13.048-8.203 12.606-8.024a3.712 3.712 0 0 0-.958.551l-7.298 4.24-1.293.75-1.61.93z"/>
        <path fill="#585858" d="M88.642 115.635l-2.402-1.394c-2.509-1.455-5.643.364-5.643 3.27a8.992 8.992 0 0 0 4.474 7.785l2.4 1.393c2.509 1.456 5.643-.361 5.643-3.27a8.998 8.998 0 0 0-4.472-7.784"/>
        <path fill="#4F4F4F" d="M81.279 115.35a8.975 8.975 0 0 0 4.317 6.209L88 122.952c1.794 1.042 3.9.401 4.96-1.109a8.99 8.99 0 0 1 .156 1.575c0 2.909-3.136 4.726-5.643 3.27l-2.402-1.393a8.994 8.994 0 0 1-4.471-7.782c0-.827.258-1.562.68-2.163"/>
        <path fill="#9D5B10" d="M63.726 132.555L87.08 119.21l-21.5-13.312-23.356 13.345z"/>
        <path fill="#929292" d="M63.726 144.029l23.354-13.345v-11.83L63.726 132.2z"/>
        <path fill="#2E2E2E" d="M63.726 144.029l23.354-13.345v-2.76l-23.354 13.348z"/>
        <path fill="#313131" d="M50.55 95.59l10.846 6.478 8.37.282-23.777.904z"/>
        <path fill="#9DA1A6" d="M156.743 61.782l-1.293.75 15.686 9.053 1.293-.75z"/>
        <path fill="#171718" d="M171.135 79.858l1.31-.71-.017-8.313-1.293.75z"/>
        <path fill="#424D52" d="M155.45 62.53v8.224l15.686 9.105v-8.275z"/>
        <path fill="#000" d="M150.651 105.055l13.296-22.4-6.948-4.031-.013.02c-1.67-.912-3.963-.748-6.494.715-5.112 2.956-9.256 10.082-9.256 15.915 0 2.797.96 4.778 2.516 5.768l-.004.01.136.08c.037.022.074.044.114.064l6.653 3.859z"/>
        <path fill="#1F1F1F" d="M161.55 84.058l-9.427-5.469c-.531.2-1.075.45-1.633.77-5.11 2.957-9.254 10.083-9.254 15.915 0 1.072.144 2.024.407 2.847l7.254 4.207c.794-.234 1.62-.578 2.476-1.074.946-.546 1.859-1.231 2.727-2.009l6.986-11.765c.27-1.159.437-2.31.464-3.422"/>
        <path fill="#2A2A2A" d="M166.481 88.466c0 5.833-4.144 12.96-9.253 15.915-5.112 2.956-9.256.626-9.256-5.207 0-5.83 4.144-12.956 9.256-15.912 5.11-2.959 9.253-.628 9.253 5.204"/>
        <path fill="#1C1C1C" d="M166.123 88.675c0 5.608-3.983 12.457-8.896 15.299-4.914 2.841-8.896.6-8.896-5.005 0-5.609 3.982-12.458 8.896-15.3 4.913-2.843 8.896-.603 8.896 5.006"/>
        <path fill="#3A3A3A" d="M164.134 89.825c0 4.354-3.092 9.67-6.908 11.879-3.814 2.206-6.906.466-6.906-3.886 0-4.354 3.092-9.67 6.906-11.88 3.816-2.205 6.908-.468 6.908 3.887"/>
        <path fill="#727272" d="M163.666 90.096c0 4.058-2.884 9.016-6.44 11.072-3.556 2.059-6.437.436-6.437-3.622s2.881-9.015 6.437-11.072c3.556-2.058 6.44-.436 6.44 3.622"/>
        <path fill="#939393" d="M161.604 90.028c0 3.225-2.29 7.168-5.119 8.803-2.826 1.635-5.12.347-5.12-2.881 0-3.225 2.294-7.166 5.12-8.801 2.83-1.638 5.12-.347 5.12 2.879"/>
        <path fill="#000" d="M150.655 105.05l-4.072-2.36a4.643 4.643 0 0 0-.115-.068l-.136-.08.007-.01c-1.555-.989-2.516-2.968-2.516-5.765 0-5.835 4.144-12.958 9.254-15.915 2.533-1.465 4.824-1.63 6.496-.715l.008-.015-.457-.264-.01.017c-1.672-.912-3.963-.747-6.496.716-5.112 2.958-9.254 10.082-9.254 15.915 0 2.796.958 4.778 2.514 5.767l-.005.01.136.078.115.067 4.528 2.624.003-.002z"/>
        <path fill="#000" d="M150.655 105.05l-1.998-1.16c-.037-.019-.074-.041-.114-.064l-.137-.08.005-.01c-1.555-.99-2.513-2.97-2.513-5.767 0-5.833 4.141-12.957 9.253-15.915 2.531-1.463 4.824-1.628 6.494-.716l.01-.012-.456-.267-.013.02c-1.67-.912-3.963-.75-6.496.716-5.11 2.956-9.254 10.082-9.254 15.914 0 2.797.96 4.779 2.516 5.768l-.005.008.137.08c.037.022.077.044.114.067l2.454 1.423.003-.005zM132.403 115.84L145.7 93.438l-6.948-4.03-.012.02c-1.673-.913-3.963-.749-6.497.715-5.112 2.956-9.253 10.082-9.253 15.914 0 2.797.96 4.779 2.516 5.768l-.008.01.14.077c.037.025.074.045.111.068l6.655 3.858z"/>
        <path fill="#1F1F1F" d="M143.302 94.841l-9.43-5.466c-.528.197-1.071.446-1.63.768-5.111 2.959-9.253 10.082-9.253 15.915 0 1.074.144 2.024.404 2.846l7.256 4.208a11.4 11.4 0 0 0 2.477-1.072c.945-.549 1.856-1.234 2.727-2.012l6.983-11.764c.273-1.16.439-2.311.466-3.423"/>
        <path fill="#2A2A2A" d="M148.233 99.25c0 5.833-4.142 12.96-9.254 15.915-5.112 2.957-9.253.626-9.253-5.206 0-5.833 4.141-12.957 9.253-15.913 5.112-2.958 9.254-.628 9.254 5.205"/>
        <path fill="#1C1C1C" d="M147.875 99.457c0 5.609-3.983 12.458-8.896 15.3-4.913 2.844-8.896.603-8.896-5.005 0-5.606 3.983-12.458 8.896-15.3 4.913-2.841 8.896-.603 8.896 5.005"/>
        <path fill="#3A3A3A" d="M145.886 100.609c0 4.354-3.092 9.67-6.909 11.88-3.814 2.205-6.906.465-6.906-3.887 0-4.354 3.092-9.673 6.906-11.882 3.817-2.205 6.909-.466 6.909 3.889"/>
        <path fill="#727272" d="M145.417 100.879c0 4.058-2.884 9.015-6.44 11.074-3.556 2.057-6.437.437-6.437-3.624 0-4.058 2.881-9.013 6.437-11.072 3.556-2.056 6.44-.436 6.44 3.622"/>
        <path fill="#939393" d="M143.357 100.812c0 3.226-2.293 7.166-5.12 8.804-2.828 1.635-5.119.346-5.119-2.882 0-3.225 2.29-7.168 5.12-8.803 2.826-1.635 5.119-.344 5.119 2.881"/>
        <path fill="#000" d="M132.407 115.833l-4.072-2.36a4.645 4.645 0 0 0-.114-.068l-.137-.077.005-.01c-1.556-.99-2.513-2.97-2.513-5.768 0-5.832 4.144-12.956 9.253-15.914 2.531-1.466 4.824-1.628 6.497-.716l.007-.012-.457-.267-.012.018c-1.67-.913-3.963-.748-6.494.715-5.112 2.959-9.253 10.082-9.253 15.915 0 2.796.957 4.778 2.513 5.768l-.005.01.137.08.114.064 4.529 2.627.002-.005z"/>
        <path fill="#000" d="M132.407 115.833l-1.997-1.156-.115-.068-.136-.08.005-.01c-1.556-.986-2.514-2.968-2.514-5.765 0-5.835 4.142-12.958 9.254-15.917 2.53-1.463 4.824-1.625 6.494-.713l.01-.015-.457-.264-.012.017c-1.67-.912-3.963-.747-6.497.716-5.11 2.956-9.253 10.082-9.253 15.915 0 2.796.96 4.778 2.516 5.767l-.005.01.136.08c.038.023.075.043.114.065l2.455 1.423.002-.005z"/>
        <path fill="#181818" d="M160.387 78.232l8.032 3.766v.992l-4.56-1.498-8.036-4.758z"/>
        <path fill="#313131" d="M160.387 77.24l8.032 4.758-4.56-1.495-8.036-4.758z"/>
        <path fill="#181818" d="M155.824 76.735l8.035 4.758-34.773 19.948-8.035-4.758z"/>
        <path fill="#181818" d="M122.335 95.648l8.035 4.758-4.293 7.625-1.283.042z"/>
        <path fill="#262626" d="M155.824 75.744l8.035 4.759-34.773 19.948-8.035-4.759z"/>
        <path fill="#313131" d="M121.051 95.692l8.035 4.758-4.293 7.625-11.896-6.635z"/>
        <path fill="#19AACC" d="M35.075 58.283L134.625.516l36.118 20.82-99.634 57.85z"/>
        <path fill="#1EA9CA" d="M35.078 58.28v48.806l35.244 18.848.782.412V79.182z"/>
        <path fill="#2342BE" d="M35.078 67.47v39.616l35.244 18.848v-37.99zM71.108 79.184l99.637-57.85v47.339l-99.637 57.664z"/>
        <path fill="#C9D7E5" d="M68.727 119.742L170.743 60.51l1.84.944-103.856 65.133z"/>
        <path fill="#2B6197" d="M70.566 120.687l-1.838-1.242v6.466l1.838 1.623z"/>
        <path fill="#8AA7C7" d="M70.566 120.687l102.017-59.233v7.034L70.566 127.534z"/>
        <path fill="#101010" d="M9.018 109.989l-4.363-2.525v-11.66l4.363 2.525z"/>
        <path fill="#1A1A1A" d="M4.905 107.115v-9.97l2.906 1.68v9.973z"/>
        <path fill="#6C6D6C" d="M4.656 95.803l.25 1.34 2.904 1.683 1.208-.498z"/>
        <path fill="#404040" d="M7.81 108.797l1.207 1.192-4.36-2.525.248-.35z"/>
        <path fill="#676767" d="M4.444 110.27c0 1.406 1.072 3.208 2.392 4.02 1.322.813 2.394.332 2.394-1.076 0-1.409-1.072-3.208-2.394-4.02-1.32-.813-2.392-.332-2.392 1.076"/>
        <path fill="#404040" d="M5.568 113.114c.367.474.801.887 1.268 1.177.226.137.44.224.645.289-.29-.491-.692-.935-1.139-1.21-.283-.174-.543-.25-.774-.256"/>
        <path fill="#E9E9E6" d="M7.942 110.173a4.844 4.844 0 0 0-1.105-.98c-.789-.486-1.481-.5-1.918-.142-.005.057-.015.11-.015.167 0 1.09.727 1.972 1.626 1.972.61 0 1.134-.412 1.412-1.017"/>
        <path fill="#91968C" d="M4.738 110.89c0 .942.72 2.148 1.603 2.694.886.543 1.603.22 1.603-.723 0-.942-.717-2.148-1.603-2.694-.883-.544-1.603-.22-1.603.722"/>
        <path fill="#73796C" d="M6.622 104.538l-.958-.554v1.76l.958.556.213-.127v-1.76z"/>
        <path fill="#676767" d="M5.664 105.262v-1.76l.958.553v1.762z"/>
        <path fill="#E9E9E6" d="M5.664 103.502l.216-.125.957.554-.215.124z"/>
        <path fill="#404040" d="M6.837 105.691v-1.76l-.214.125v1.76z"/>
        <path fill="#73796C" d="M6.622 111.86l-.958-.554v1.191l.958.556.213-.124v-1.194z"/>
        <path fill="#676767" d="M5.664 112.016v-1.194l.958.556v1.192z"/>
        <path fill="#E9E9E6" d="M5.664 110.824l.216-.125.957.553-.215.128z"/>
        <path fill="#404040" d="M6.837 112.446v-1.194l-.214.127v1.192z"/>
        <path fill="#000" d="M10.143 118.776v-.755l-3.851-3.654V93.863l1.142-.852-.174-.554-1.514 1.132v21.017z"/>
        <path fill="#A2A1A1" d="M70.131 104.413l-28.51 16.52v35.836l28.51-16.518z"/>
        <path fill="#929292" d="M41.62 141.032l1.743-5.374 1.136 2.286v17.161l-2.878 1.356-.95.015-.474.035-.192-8.811z"/>
        <path fill="#2E2E2E" d="M60.84 111.77a.662.662 0 0 0-.156-.467.85.85 0 0 1 .156.466M60.305 110.987a.68.68 0 0 0-.549-.033.891.891 0 0 1 .549.033M59.535 111.05c.075-.042.15-.072.221-.095-.136.033-.22.095-.22.095"/>
        <path fill="#C0C0C0" d="M45.118 133.336v-.023l5.156-16.817-1.357.212-6.39 21.299 2.653-.591z"/>
        <path fill="#687F95" d="M59.93 132.787l-3.073 1.812v-1.104c0-.738.39-1.419 1.023-1.793l2.05-1.206v2.29z"/>
        <path fill="#687F95" d="M45.18 137.415l.157 10.75 9.737-5.167 5.767-3.606V127.52l-.285.182v11.53l-5.618 3.522-9.325 4.948-.16-10.529-.064.033z"/>
        <path fill="#687F95" d="M45.118 133.314v.022l.062 4.08.21-.212.065-.032-.064-3.796 5.114-16.69 9.18-5.404a.583.583 0 0 1 .873.509v15.91l.282-.18v-15.753a.825.825 0 0 0-.158-.463c-.008-.023-.02-.033-.03-.043a.994.994 0 0 0-.24-.212c-.033-.032-.075-.042-.108-.065a.89.89 0 0 0-.548-.03 1.112 1.112 0 0 0-.22.095l-9.22 5.414-.042.03-5.156 16.82z"/>
        <path fill="#131313" d="M70.87 139.813v-8.871c-1.602-.314-3.535.082-5.615 1.286-5.365 3.1-9.732 10.439-9.998 16.638l15.614-9.053z"/>
        <path fill="#000" d="M13.633 127.9l-.268-.09 4.625-14.24.268.088zM26.474 136.214l-.266-.09 4.623-14.24.268.088z"/>
        <path fill="#929292" d="M48.915 116.708L7.825 92.877 2.272 111.83l41.091 23.829z"/>
        <path fill="#BEFFFF" d="M5.618 108.81l.131-.483v.476c-.044 0-.087 0-.131.008"/>
        <path fill="#A4DCFE" d="M9.018 101.554V98.33l-.437-.25.313-1.118 3.53 2.049z"/>
        <path fill="#4C535B" d="M3.978 108.635l1.26-4.257 2.018-1.508-2.07 7.483c-.225.82.65 1.5 1.378 1.077l11.067-6.416a4.91 4.91 0 0 0 1.852-1.91l-7.058-4.095-7.186 5.37 2.692-9.064c.206-.665.963-.974 1.561-.623l4.906 2.847-1.045.777 1.045-.777 10.695 6.204.003-.003 10.186 5.91v.002l10.698 6.202.042.022c1.23.708 1.807 2.179 1.407 3.547l-3.139 10.561c-.06.192-.124.374-.21.55-.92 1.953-3.344 2.758-5.267 1.646l-8.263-4.793-7.16-8.849-3.538 2.647-10.186-5.91 3.538-2.646-.508-.292a5.433 5.433 0 0 0-4.901-.28l-2.092.923a3.79 3.79 0 0 1-1.725-4.345"/>
        <g>
            <g transform="translate(50 130)">
                <mask id="b" fill="#fff">
                    <use xlink:href="#a"/>
                </mask>
                <path fill="#000" d="M10.305 26.641L23.7 4.52l-7-3.98-.013.019c-1.683-.901-3.993-.739-6.543.706C4.995 4.185.82 11.222.82 16.982c0 2.762.968 4.719 2.535 5.696l-.005.01.138.076c.038.025.075.047.115.067l6.703 3.81z" mask="url(#b)"/>
            </g>
            <g transform="translate(50 130)">
                <mask id="d" fill="#fff">
                    <use xlink:href="#c"/>
                </mask>
                <path fill="#1F1F1F" d="M21.285 5.905L11.787.506c-.535.195-1.082.441-1.645.759C4.995 4.186.82 11.222.82 16.982c0 1.06.145 1.998.41 2.81l7.307 4.156c.8-.23 1.633-.569 2.495-1.059a16.632 16.632 0 0 0 2.748-1.986l7.035-11.619c.275-1.144.442-2.282.47-3.38" mask="url(#d)"/>
            </g>
            <g transform="translate(50 130)">
                <mask id="f" fill="#fff">
                    <use xlink:href="#e"/>
                </mask>
                <path fill="#2A2A2A" d="M26.252 10.26c0 5.76-4.173 12.795-9.323 15.717-5.15 2.92-9.322.618-9.322-5.142 0-5.76 4.172-12.797 9.322-15.717 5.15-2.92 9.323-.618 9.323 5.142" mask="url(#f)"/>
            </g>
            <g transform="translate(50 130)">
                <mask id="h" fill="#fff">
                    <use xlink:href="#g"/>
                </mask>
                <path fill="#1C1C1C" d="M25.892 10.465c0 5.536-4.013 12.3-8.963 15.109-4.95 2.806-8.962.593-8.962-4.943 0-5.539 4.012-12.303 8.962-15.11 4.95-2.808 8.963-.595 8.963 4.944" mask="url(#h)"/>
            </g>
            <g transform="translate(50 130)">
                <mask id="j" fill="#fff">
                    <use xlink:href="#i"/>
                </mask>
                <path fill="#727272" d="M23.416 11.868c0 4.008-2.905 8.904-6.488 10.935-3.582 2.033-6.485.43-6.485-3.577s2.903-8.903 6.486-10.937c3.582-2.03 6.487-.428 6.487 3.58" mask="url(#j)"/>
            </g>
            <g transform="translate(50 130)">
                <mask id="l" fill="#fff">
                    <use xlink:href="#k"/>
                </mask>
                <path fill="#939393" d="M20.431 12.014c0 2.732-1.98 6.073-4.425 7.458-2.442 1.386-4.425.293-4.425-2.439 0-2.735 1.983-6.073 4.425-7.458 2.445-1.386 4.425-.293 4.425 2.439" mask="url(#l)"/>
            </g>
            <g transform="translate(50 130)">
                <mask id="n" fill="#fff">
                    <use xlink:href="#m"/>
                </mask>
                <path fill="#000" d="M10.308 26.635l-4.103-2.33a4.7 4.7 0 0 0-.115-.067l-.137-.077.005-.01c-1.565-.977-2.533-2.934-2.533-5.695 0-5.76 4.176-12.796 9.323-15.717 2.553-1.445 4.86-1.608 6.545-.707l.008-.012-.46-.261-.01.017c-1.686-.903-3.993-.74-6.545.704-5.15 2.922-9.323 9.957-9.323 15.717 0 2.764.965 4.719 2.532 5.696l-.005.01.138.079c.04.022.077.044.115.064l4.563 2.594.002-.005z" mask="url(#n)"/>
            </g>
            <g transform="translate(50 130)">
                <mask id="p" fill="#fff">
                    <use xlink:href="#o"/>
                </mask>
                <path fill="#000" d="M10.308 26.636l-2.012-1.144c-.038-.02-.075-.042-.115-.064l-.138-.079.005-.01c-1.567-.977-2.532-2.934-2.532-5.696 0-5.76 4.172-12.797 9.322-15.717 2.55-1.445 4.86-1.607 6.543-.706l.01-.012-.46-.264-.013.02c-1.683-.901-3.992-.741-6.545.706-5.147 2.92-9.322 9.957-9.322 15.717 0 2.762.967 4.719 2.534 5.696l-.005.008.138.078a4.7 4.7 0 0 0 .115.067l2.473 1.403.002-.003z" mask="url(#p)"/>
            </g>
        </g>
        <g>
            <path fill="#838383" d="M56.062 141.63l-12.344 6.52-3.454-2.707-3.136 7.088.576 5.506 5.368.255 11.634-6.687z"/>
            <path fill="#505050" d="M56.062 142.164l-12.859 6.729-2.788-2.798-3.804 7.178v5.324l2.485.183a11.305 11.305 0 0 0 6.463-1.472l8.63-4.96 1.873-10.184z"/>
            <path fill="#2E2E2A" d="M45.333 150.024l8.523-4.915v3.163l-8.523 4.916z"/>
            <path fill="#1F1D19" d="M45.333 149.315l8.523-4.915v3.163l-1.414-.061a5.76 5.76 0 0 0-4.671 2.058l-2.438 2.919v-3.164z"/>
            <path fill="#E97C01" d="M1.164 117.024l6.789 5.13v14.259l22.231 12.771v-14.026l11.49 5.02-11.475-6.556-21.75-12.428z"/>
            <path fill="#D7D7D7" d="M3.394 118.714l4.557 18.876 3.332 1.94.515.309.966.556 5.122 2.994.512.309.966.556 5.139 2.994.48.309.484.264 4.716 2.756 11.045-13.991-2.194-1.742-5.424-3.515-23.452-12.385-6.764-4.698z"/>
            <path fill="#666" d="M4.231 115.83l4 15.157.297-5.982c0-3.517-1.541-6.834-4.22-9.113-.015-.014-.044-.03-.077-.061"/>
            <path fill="#D7D7D7" d="M.526 132.151l7.427 4.262.28-5.395v-.03l.294-5.983c0-3.518-1.54-6.833-4.22-9.113-.014-.015-.044-.03-.076-.062-.14-.121-.31-.248-.467-.371l-1.489-4.265-1.235 2.731-.514 18.226zM40.147 149.727l-.077-2.93 2.508-9.624-2.525-1.086a3.764 3.764 0 0 0-.964-.262c-1.93-.295-4.39.712-6.118 2.246-.032.015-.047.032-.077.062-1.2 1.07-2.01 2.404-2.01 3.72l-.201 2.108v.014l-.313 3.303-.187 1.907 8.77 5.333 1.194-4.791z"/>
            <path fill="#9E9E9E" d="M.526 122.579l-.525.65.627 9.207c-.102 2.882.785 4.928 2.934 6.17l33.253 19.124c1.321.821 2.53-1.559 2.942-3.211l.638-8.972-39.87-22.968z"/>
            <path fill="#D7D7D7" d="M1.743 113.92l6.788 5.13 11.985 7.092 10.247 5.912 11.82 5.118.833-2.325-41.146-23.65z"/>
            <path fill="#929292" d="M48.857 116.108a5.07 5.07 0 0 0-.199-2.627l20.304-11.658 1.262 2.01-21.367 12.275z"/>
            <path fill="#80807F" d="M48.659 113.481a5.07 5.07 0 0 1 .199 2.627l-.527.305a4.63 4.63 0 0 1-2.34.618c-.336 0-.664-.037-.992-.109a4.085 4.085 0 0 1-.977-.326 4.316 4.316 0 0 1-.373-.183L7.067 95.386c-.693-.4-.897-1.2-.633-1.845.117-.275 1.195-1.85 1.508-2.046 0-.01.01-.015.017-.015l21.12-11.297 39.883 21.64L48.66 113.48z"/>
            <path fill="#80807F" d="M48.944 115.194c0 .32-.037.618-.087.915l-.527.305c-.72.413-1.53.623-2.338.616-.33 0-.666-.035-.994-.11a4.72 4.72 0 0 1-.976-.326 5.4 5.4 0 0 1-.19-1.4c0-.371.038-.725.11-1.059.306-1.546 1.29-2.671 2.45-2.671.984 0 1.844.819 2.266 2.018.184.507.286 1.094.286 1.712"/>
            <path fill="#DCDCDC" d="M68.962 101.822L48.66 113.48l-.714.413a4.506 4.506 0 0 1-4.003.243 3.681 3.681 0 0 1-.497-.243L8.28 93.678a1.411 1.411 0 0 1-.338-2.184c0-.007.01-.015.017-.015.087-.101.197-.18.32-.254l21.132-12.136 39.551 22.733z"/>
            <path fill="#4C535B" d="M49.864 126.753c.025-.388.064-.77.116-1.155l1.054-7.84a3 3 0 0 1 1.392-1.785l5.764-3.337a1.218 1.218 0 0 1 1.774.715 1.2 1.2 0 0 1 .045.331v7.748c0 .272-.084.86-.09.89-.26 1.413-1.157 2.21-2.395 3.397l-6.721 5.956c-1.53.074-1.041-3.364-.94-4.92"/>
            <path fill="#687F95" d="M62.096 120.878l.027-7.926c0-.992.535-1.907 1.394-2.402l3.924-2.25c.73-.421 1.645.106 1.645.944l-.03 7.909c0 .83-.445 1.595-1.168 2.01l-4.39 2.521a.934.934 0 0 1-1.402-.806"/>
            <path fill="#262626" d="M72.816 129.932c-1.75-.319-3.85.11-6.11 1.408-5.885 3.369-10.675 11.354-10.974 18.09v2.496l-1.45-.834v-2.469c.297-6.743 5.088-14.72 10.972-18.095 2.281-1.316 4.404-1.741 6.163-1.402l1.399.806z"/>
            <path fill="#000" d="M66.706 131.34c-5.885 3.37-10.675 11.352-10.974 18.088v2.499l.743-.428.008-2.501c.02-.322.052-.629.102-.913.817-6.236 5.218-13.1 10.483-16.116 1.608-.923 3.2-1.41 4.602-1.41.142 0 .279.002.418.012.248 0 .492.027.728.074v-.712c-1.75-.32-3.85.109-6.11 1.408"/>
            <path fill="#9D5B10" d="M25.067 96.337c.284.49-.233 1.318-1.16 1.85-.924.53-1.903.564-2.19.074-.282-.49.237-1.318 1.161-1.85.925-.532 1.906-.564 2.19-.074M31.459 100.01c.286.49-.234 1.319-1.158 1.85-.927.53-1.906.564-2.192.075-.283-.49.236-1.319 1.16-1.85.925-.533 1.907-.565 2.19-.075M37.94 103.734c.282.49-.237 1.318-1.161 1.85-.925.53-1.904.564-2.19.074-.283-.49.237-1.318 1.161-1.85s1.903-.564 2.19-.074"/>
            <path fill="#D95404" d="M24.13 96.337c.283.49-.237 1.318-1.161 1.85-.924.53-1.903.564-2.19.074-.282-.49.237-1.318 1.161-1.85.925-.532 1.904-.564 2.19-.074M30.521 100.01c.283.49-.236 1.319-1.16 1.85-.925.53-1.904.564-2.19.075-.283-.49.237-1.319 1.161-1.85.924-.533 1.903-.565 2.19-.075M37 103.734c.283.49-.236 1.318-1.16 1.85-.925.53-1.904.564-2.19.074-.283-.49.237-1.318 1.161-1.85s1.906-.564 2.19-.074"/>
            <path fill="#121212" d="M54.46 135.47l-4.369-2.507v-11.572l4.369 2.506z"/>
            <path fill="#242424" d="M50.34 132.618v-9.897l2.91 1.67v9.895z"/>
            <path fill="#212121" d="M50.092 121.39l.248 1.331 2.91 1.67 1.21-.495z"/>
            <path fill="#090909" d="M53.251 134.287l1.208 1.182-4.366-2.506.249-.344z"/>
            <path fill="#171714" d="M52.06 130.06l-.96-.55v1.746l.96.552.216-.126v-1.747z"/>
            <path fill="#121212" d="M51.101 130.778v-1.747l.96.55v1.748z"/>
            <path fill="#212121" d="M51.101 129.031l.214-.124.961.55-.216.123z"/>
            <path fill="#090909" d="M52.276 131.204v-1.746l-.216.123v1.747z"/>
            <path fill="#000" d="M50.865 114.422l1.515 1.123-.526 16.379-.547-.235-.34-14.326-1.146-.846z"/>
            <path fill="#616161" d="M.009 123.322v10.26c0 2.48.887 4.525 3.036 5.767L36.3 158.473c1.54.883 3.457-2.187 3.457-3.953l.658-8.426L.01 123.322z"/>
            <path fill="#3A3A36" d="M3.046 136.059L36.3 155.183c.102.059.206.099.31.123v.003h.02c.105.025.211.03.316.025l2.15.155a11.283 11.283 0 0 0 6.462-1.469l8.63-4.96 1.203-6.545.67-.351-1.873 10.184-8.63 4.96a11.305 11.305 0 0 1-6.463 1.471l-2.15-.158c-.104.007-.21 0-.315-.022l-.02-.003a1.131 1.131 0 0 1-.31-.123L3.046 139.349c-2.15-1.242-3.037-3.288-3.037-5.767v-3.29c0 2.482.888 4.527 3.037 5.767"/>
            <path fill="#B9B9B9" d="M15.179 88.085c0 .517.44.967 1.237 2.038.053-.396.12-.794.187-1.177.025-.159.064-.332.092-.49 1.754-8.339 8.152-12.497 13.085-14.508l3.881-3.058-.758-.45c-1.968.478-5.332 1.51-8.602 3.587l-.013.012c-4.19 2.65-8.244 6.991-9.11 14.046"/>
            <path fill="#E9E8E4" d="M16.402 90.19v.028l15.053 9.795 16.887 8.802c1.916-15.634 19.481-17.989 19.481-17.989L33.662 70.891l-.758-.45-1.861-1.087h-.013c-.174.04-3.352 1.403-6.729 4.673l-.015.013c-3.11 3.018-6.38 7.666-7.59 14.416-.028.159-.068.332-.093.49-.067.383-.134.782-.174 1.192-.015.013-.015.025-.015.04v.012h-.012z"/>
            <path fill="#929292" d="M67.828 90.828v10.342l-11.813 6.647a10.368 10.368 0 0 1-7.67.997c1.913-15.634 19.483-17.986 19.483-17.986"/>
            <path fill="#B9B9B9" d="M67.828 90.828v1.43c-5.268 2.144-12.206 6.736-13.369 16.232.015.005.033.005.05.01a10.342 10.342 0 0 1-6.165.314c1.914-15.634 19.484-17.986 19.484-17.986"/>
            <path fill="#D1D5E3" d="M16.429 90.137c0-.012-.013-.012-.013-.012v.052c.013 0 .025 0 .052.012-.012-.012-.027-.04-.04-.052"/>
            <path fill="#EBF0F5" d="M32.054 151.269l3.076 1.863c.966.581 2.231.25 2.778-.752l.397-.554v-4.9c0-.706-.385-1.349-1.006-1.693l-2.813-1.543a.64.64 0 0 0-.956.507l-.05.74-.112 1.493-.273 3.642-1.041 1.197zM1.193 125.63v5l.582 2.072c.435 1.556 2.134 2.84 3.819 3.792l-.234-2.533-.149-2.899-.149-2.988a2.09 2.09 0 0 0-.979-1.667l-1.998-1.26a.579.579 0 0 0-.892.483"/>
            <path fill="#FE8C31" d="M34.859 152.554l-2.053-1.286.803-.935-.512-.3 1.732 1.047c.969.584 2.231.242 2.768-.75l.437-.809v1.722l-.407.562a1.984 1.984 0 0 1-2.768.75M4.018 133.235l.842.423.174 1.924-1.312-.735c-.783-.442-1.215-.895-1.652-2.458l-.577-2.07v-1.78l.283 1.015c.435 1.56 1.459 3.24 2.242 3.68"/>
            <path fill="#9E9E9E" d="M6.67 128.284v2.248c.075.94.268 1.014 1.402 1.786 2.554 1.769 4.537 2.768 7.392 4.56 2.703 1.71 9.495 5.439 13.24 7.247.337.168 2.154 1.071 2.345.339v-.094l.094-2.249-23.85-13.479-.623-.358z"/>
            <path fill="#101010" d="M7.295 128.641v.094c.074.94.266 2.434 1.401 3.226 2.552 1.768 4.538 2.768 7.393 4.559 2.703 1.711 9.492 5.44 13.236 7.248.229.11 1.136.544 1.722.6l.095-2.248-23.847-13.479z"/>
            <path fill="#9E9E9E" d="M6.67 132.558v2.249c.075.94.268 1.011 1.402 1.783 2.554 1.771 4.537 2.77 7.392 4.56 2.703 1.713 9.495 5.441 13.24 7.25.337.168 2.154 1.07 2.345.338v-.096l.094-2.246-23.85-13.48-.623-.358z"/>
            <path fill="#101010" d="M7.295 132.916v.094c.074.94.266 2.431 1.401 3.223 2.552 1.771 4.538 2.77 7.393 4.559 2.703 1.714 9.492 5.442 13.236 7.248.229.114 1.136.547 1.722.603l.095-2.248-23.847-13.48z"/>
            <path fill="#ECECEC" d="M3.108 108.216l-.348.48c.13 1.638 1.155 2.56 3.089 3.906 4.35 3.018 7.382 4.623 12.25 7.673 4.612 2.887 16.91 10.044 23.293 13.126.581.255 2.89 1.402 3.213.15l.092-.536.129-1.178-40.655-23.01-1.063-.61z"/>
            <path fill="#C3D2E1" d="M2.76 108.696v1.21c.129 1.637.807 1.83 2.74 3.176 4.351 3.017 7.383 4.623 12.25 7.673 4.612 2.887 16.346 9.274 22.73 12.356.58.257 3.22 1.692 3.54.44l.035-.193.127-1.177-40.36-22.874-1.063-.611z"/>
            <path fill="#8AA7C7" d="M44.826 131.838l-.644.344-.144 1.272s-.156.549-.522.573c-.365.028-.477 0-.477 0s.828.208 1.143.03c.316-.178.487-.15.57-.965.084-.813.074-1.254.074-1.254"/>
            <path fill="#658290" d="M122.172 92.564v1.45c0 .274-.152.529-.388.665l-2.614 1.501a.316.316 0 0 1-.472-.274v-.173l2.187-1.255a.768.768 0 0 0 .387-.665v-1.279l.425-.24a.317.317 0 0 1 .475.27M101.388 104.51v1.453c0 .274-.15.526-.388.662l-2.614 1.502a.316.316 0 0 1-.472-.275v-.173l2.187-1.254a.768.768 0 0 0 .387-.665v-1.277l.428-.242a.315.315 0 0 1 .472.27M79.488 117.083v1.452a.774.774 0 0 1-.39.666l-2.612 1.499a.316.316 0 0 1-.472-.275v-.173l2.187-1.254a.768.768 0 0 0 .387-.666v-1.276l.425-.242a.317.317 0 0 1 .475.27M163.189 68.925v1.45a.77.77 0 0 1-.39.665l-2.612 1.499a.314.314 0 0 1-.472-.272v-.173l2.187-1.255a.771.771 0 0 0 .387-.665v-1.279l.425-.24a.317.317 0 0 1 .475.27M143.458 80.3v1.452c0 .275-.15.527-.388.663l-2.614 1.502a.316.316 0 0 1-.472-.275v-.173l2.187-1.254a.768.768 0 0 0 .387-.666v-1.276l.428-.242a.315.315 0 0 1 .472.27"/>
        </g>
    </g>
</svg>
